<?xml version="1.0" encoding="utf-8"?>
<!-- Generator: Adobe Illustrator 25.2.0, SVG Export Plug-In . SVG Version: 6.00 Build 0)  -->
<svg version="1.1" id="Layer_1" xmlns="http://www.w3.org/2000/svg" xmlns:xlink="http://www.w3.org/1999/xlink" x="0px" y="0px"
	 viewBox="0 0 148 148" style="enable-background:new 0 0 148 148;" xml:space="preserve">
<style type="text/css">
	.st0{fill-rule:evenodd;clip-rule:evenodd;fill:#231F20;}
	.st1{fill:#2BACE2;}
</style>
<g>
	<path class="st0" d="M147,69.9L147,69.9c0-2-1.3-3-2.8-3c-1.5,0-2.7,1-2.7,2.9V71h5.5V69.9 M141.5,71.8v1c0,1.8,0.9,2.9,2.8,2.9
		c1.4,0,2.3-0.4,3-0.8c0.2-0.1,0.6,0.7,0.4,0.8c-1,0.5-2.1,0.9-3.4,0.9c-2.4,0-3.9-1.4-3.9-3.7v-3.1c0-2.3,1.6-3.7,3.7-3.7
		c2.3,0,3.8,1.4,3.8,3.9v1.8L141.5,71.8 M138.8,76.5c-0.2,0-0.5,0-0.5-0.1v-6.8c0-1.7-0.7-2.4-1.9-2.4c-1.3,0-2.5,1.1-3.2,2.1v7.1
		c0,0-0.3,0.1-0.5,0.1s-0.5,0-0.5-0.1v-10c0,0,0.3-0.1,0.5-0.1s0.5,0,0.5,0.1v1.8c0.8-1.2,2-2,3.5-2c1.6,0,2.6,1.2,2.6,3v7.3
		C139.2,76.3,138.9,76.4,138.8,76.5 M126.9,67L126.9,67c-1.8,0-2.8,0.8-2.8,2.9v2.9c0,2.1,1.1,2.9,2.8,2.9c1.8,0,2.9-0.8,2.9-2.9
		v-2.9C129.8,67.8,128.7,67,126.9,67 M123.1,73v-3.3c0-2.3,1.4-3.6,3.8-3.6s3.9,1.3,3.9,3.6V73c0,2.3-1.4,3.6-3.9,3.6
		C124.4,76.6,123.1,75.3,123.1,73 M121.3,76.5c-0.2,0-0.5,0-0.5-0.1v-7c0-1.5-0.9-2.2-1.9-2.2c-1.8,0-3.2,2.2-3.2,2.2v7.1
		c0,0-0.3,0.1-0.5,0.1c-0.2,0-0.5,0-0.5-0.1V62.5c0,0,0.3-0.1,0.5-0.1c0.2,0,0.5,0,0.5,0.1v5.6c0.8-1.2,2-2,3.5-2
		c1.6,0,2.6,1.2,2.6,3v7.3C121.7,76.3,121.4,76.4,121.3,76.5 M106.7,69.5L106.7,69.5v3.5c0,1.7,1.2,2.7,2.9,2.7s2.7-0.8,2.7-2.9
		v-2.9c0-2.1-1.2-2.9-2.8-2.9C107.9,66.9,106.7,68.1,106.7,69.5 M106.7,75v5c0,0-0.3,0.1-0.5,0.1c-0.2,0-0.5,0-0.5-0.1V66.3
		c0,0,0.3-0.1,0.5-0.1c0.2,0,0.5,0,0.5,0.1v1.4c0.4-0.8,1.4-1.7,3-1.7c2.1,0,3.5,1.2,3.5,3.6v3.3c0,2.4-1.4,3.6-3.5,3.6
		C108.2,76.5,107.2,75.8,106.7,75 M103.6,76.3c-0.2,0-0.5,0-0.5-0.1v-6.8c0-1.7-0.7-2.4-1.9-2.4c-1.3,0-2.5,1.1-3.2,2.1v7.1
		c0,0-0.3,0.1-0.5,0.1c-0.2,0-0.5,0-0.5-0.1v-10c0,0,0.3-0.1,0.5-0.1c0.2,0,0.5,0,0.5,0.1V68c0.8-1.2,2-2,3.5-2c1.6,0,2.6,1.2,2.6,3
		v7.3C104.1,76.2,103.8,76.3,103.6,76.3 M94.6,69.8L94.6,69.8c0-2-1.3-3-2.8-3s-2.7,1-2.7,2.9v1.2h5.5L94.6,69.8 M89.1,71.7v1
		c0,1.8,1,2.9,2.8,2.9c1.4,0,2.3-0.4,3-0.8c0.2-0.1,0.6,0.7,0.4,0.8c-0.9,0.5-2.1,0.9-3.4,0.9c-2.5,0-3.9-1.4-3.9-3.7v-3.1
		c0-2.3,1.6-3.7,3.7-3.7c2.3,0,3.8,1.4,3.8,3.9v1.8L89.1,71.7 M86,69.8L86,69.8c0-2-1.3-3-2.8-3c-1.5,0-2.7,1-2.7,2.9v1.2H86
		L86,69.8 M80.5,71.7v1c0,1.8,0.9,2.9,2.8,2.9c1.4,0,2.3-0.4,3-0.8c0.2-0.1,0.6,0.7,0.4,0.8c-1,0.5-2.1,0.9-3.4,0.9
		c-2.4,0-3.9-1.4-3.9-3.7v-3.1c0-2.3,1.6-3.7,3.7-3.7c2.3,0,3.8,1.4,3.8,3.9v1.8L80.5,71.7 M72.7,76.3c0,0-0.3,0.1-0.5,0.1
		c-0.2,0-0.5,0-0.5-0.1v-7c0-1.4-0.7-2.2-1.7-2.2c-1.1,0-2.2,1.3-2.8,2.3v6.9c0,0-0.3,0.1-0.5,0.1c-0.2,0-0.5,0-0.5-0.1v-10
		c0,0,0.3-0.1,0.5-0.1c0.2,0,0.5,0,0.5,0.1v1.9c0.6-1.1,1.7-2.2,3-2.2c1.4,0,2.2,1.2,2.3,2.2c0.8-1.2,1.8-2.2,3-2.2
		c1.5,0,2.5,1.1,2.5,2.8v7.4c0,0-0.3,0.1-0.5,0.1c-0.2,0-0.5,0-0.5-0.1v-7c0-1.5-0.6-2.2-1.7-2.2c-1,0-2.1,1.1-2.8,2.3L72.7,76.3
		 M63.7,71.1L63.7,71.1c-3.8-0.5-5.4,0.2-5.4,1.9v0.5c0,1.4,1.1,2.1,2.3,2.1c1.3,0,2.3-0.6,3-1.4V71.1 M64.2,76.4
		c-0.2,0-0.5,0-0.5-0.1v-1.1c-0.6,0.6-1.8,1.3-3.2,1.3c-2,0-3.2-1.2-3.2-3v-0.5c0-2.3,2-3.3,6.4-2.7v-0.8c0-1.9-0.7-2.6-2.4-2.6
		c-0.9,0-2,0.2-2.7,0.6c-0.2,0.1-0.6-0.8-0.3-0.9c0.7-0.3,1.9-0.6,3.1-0.6c2.4,0,3.4,1.2,3.4,3.5v6.8C64.8,76.3,64.5,76.4,64.2,76.4
		 M56.4,67.2c-0.8,0-1.5,0.7-2.5,2.3v6.7c0,0-0.3,0.1-0.5,0.1s-0.5,0-0.5-0.1v-10c0,0,0.3-0.1,0.5-0.1s0.4,0,0.4,0.1v2.2
		c1.1-1.7,1.7-2.3,2.8-2.3h0.4c0,0,0.1,0.4,0.1,0.5c0,0.2,0,0.5-0.2,0.5H56.4 M44.7,69.8L44.7,69.8v2.9c0,2.1,1.2,2.9,2.7,2.9
		c1.6,0,2.9-1,2.9-2.7v-3.5c0-1.3-1.2-2.5-2.8-2.5C45.9,66.9,44.7,67.7,44.7,69.8 M50.3,75c-0.4,0.8-1.5,1.5-3,1.5
		c-2,0-3.5-1.2-3.5-3.6v-3.3c0-2.4,1.4-3.6,3.5-3.6c1.5,0,2.6,0.7,3,1.5v-1.3c0,0,0.3-0.1,0.5-0.1s0.5,0,0.5,0.1v9.7
		c0,2.8-1.3,4.2-3.8,4.2c-1.2,0-2.4-0.5-3-0.8c-0.2-0.1,0.3-1,0.4-0.9c0.4,0.2,1.4,0.8,2.7,0.8c1.6,0,2.7-0.9,2.7-2.9L50.3,75"/>
	<path class="st1" d="M22.3,66.2c0.6,0.1,0.8,0,0.8-0.6c0.1-0.9,0.4-2.4,1.2-4c0.8-1.7,2.1-3.5,4-4.8c1.5-1,4.1-2.2,6-2.6
		c1.6-0.4,3.1-0.4,4.4-0.3c2.7,0.2,4.1,1,4.8,2c0.3,0.4,0.4,0.8,0.4,1.1c0,0.5-0.2,1.1-0.9,1.7c-0.7,0.6-2.1,1.3-4.1,2
		c-2,0.7-4.9,1.4-7.6,2c-2.3,0.5-3.7,1-4.8,1.4c-1.9,0.6-2.4,2.5-1.2,3c1.7,0.8,2.7,1.7,3.6,2.4c1.3,1.1,2.9,2.4,4.8,4.7
		c1.7,2.1,4.6,6.2,5.6,10.1c1.1,4.3,0.4,8.4-2,9.6c-2.4,1.1-5.6-0.5-7.8-2.8c-2.1-2.2-3.6-4.8-5-8.8c-1.2-3.5-1.7-8.4-1.7-11
		c0-0.9,0-1.1,0-1.9c0.1-0.7-1.8-1.2-3.7,0c-2.3,1.4-4.5,4.1-5.8,5.6c-0.6,0.7-1.3,1.7-2.1,2.7c-1.1,1.3-2.3,2.8-3.4,3.5
		c-1.6,1.2-4.3,1.7-6.1,0.4c-1-0.7-1.6-2.1-1.6-3.5c0-1,0.2-1.9,0.7-2.8c0.6-1.1,1.6-2.2,3.2-3.5c1.7-1.4,4.3-2.9,6.9-4
		C14.9,66.2,19.3,65.7,22.3,66.2"/>
</g>
</svg>
