<?xml version="1.0" encoding="utf-8"?>
<!-- Generator: Adobe Illustrator 25.2.0, SVG Export Plug-In . SVG Version: 6.00 Build 0)  -->
<svg version="1.1" id="Layer_1" xmlns="http://www.w3.org/2000/svg" xmlns:xlink="http://www.w3.org/1999/xlink" x="0px" y="0px"
	 viewBox="0 0 148 148" style="enable-background:new 0 0 148 148;" xml:space="preserve">
<style type="text/css">
	.st0{fill:#2E5DAB;}
	.st1{fill:#FFFFFF;}
</style>
<g>
	<g>
		<path class="st0" d="M145.4,79.9c-1,4.4-2.8,6.2-6.2,6.2L7.5,88c-3.4,0-6.2-2.8-6.2-6.2L0.3,66.2c0-3.4,2.8-6.2,6.2-6.2l134.8,1.1
			c3.4,0,6.2,2.8,6.2,6.2L145.4,79.9L145.4,79.9z"/>
		<path class="st1" d="M7.5,88.3L7.5,88.3c-3.6,0-6.6-3-6.6-6.6L0,66.3c0-3.7,3-6.6,6.6-6.6l134.8,1.1c3.6,0,6.6,2.9,6.6,6.6
			L145.8,80c-1,4.6-3,6.5-6.6,6.5L7.5,88.3L7.5,88.3z M6.6,60.4c-3.2,0-5.8,2.6-5.8,5.8l0.9,15.5c0,3.3,2.6,5.9,5.8,5.9l131.7-1.8
			c3.2,0,4.9-1.7,5.8-5.9l2.2-12.6c0-3.1-2.6-5.8-5.9-5.8C141.4,61.5,6.6,60.4,6.6,60.4z"/>
	</g>
	<g>
		<g>
			<path class="st1" d="M36.8,69.6v7c0,0,0.1,0.3,0.2,0.4c0.1,0.1,0.2,0.1,0.4,0.1h1.3c0,0,0.3,0,0.4-0.1s0.2-0.2,0.2-0.4V76
				c0,0,0-0.4,0.5-0.4h2.3c0,0,0.6,0,0.6,0.5v2c0,0.3-0.1,0.6-0.3,0.8c-0.2,0.2-0.5,0.3-0.7,0.3h-7.1c-0.3,0-0.6-0.1-0.8-0.3
				c-0.2-0.2-0.3-0.5-0.3-0.7v-8.6c0,0-0.1-0.6,0.6-0.6h2.2C36.1,69,36.7,69,36.8,69.6L36.8,69.6z"/>
			<path class="st1" d="M20.9,69H31c0,0,0.8,0,0.9,0.6v1.1c0,0-0.1,0.5-0.8,0.5h-6.7c0,0-0.4,0-0.5,0.4v0.9c0,0,0.1,0.5,0.6,0.5H31
				c0,0,0.9,0.1,0.9,1v4.2c0,0-0.1,0.8-0.9,0.9H20.6c0,0-0.6-0.1-0.7-0.6v-1c0,0,0.1-0.6,0.8-0.6h6.7c0,0,0.4,0,0.5-0.5v-0.8
				c0,0-0.1-0.5-0.5-0.5h-6.4c0,0-0.9-0.1-1-1V70C19.9,70,19.9,69.1,20.9,69L20.9,69z"/>
			<path class="st1" d="M7.4,69h10.1c0,0,0.8,0,0.8,0.6v1.1c0,0-0.1,0.5-0.8,0.5h-6.7c0,0-0.4,0-0.5,0.4v0.9c0,0,0.1,0.5,0.6,0.5
				h6.5c0,0,0.8,0.1,0.8,1v4.2c0,0-0.1,0.8-0.9,0.9H7.2c0,0-0.6-0.1-0.7-0.6v-1c0,0,0.1-0.6,0.7-0.6h6.7c0,0,0.4,0,0.5-0.5v-0.8
				c0,0-0.1-0.5-0.5-0.5H7.4c0,0-0.9-0.1-1-1V70C6.4,70,6.4,69.1,7.4,69L7.4,69z"/>
			<path class="st1" d="M54.3,75.5h-2.1c-0.7,0-0.6,0.6-0.6,0.6v0.4c0,0-0.1,0.3-0.2,0.4S51.2,77,51,77h-2.9c0,0-0.3,0-0.4-0.1
				c-0.1-0.1-0.2-0.2-0.2-0.4v-4.6c0,0,0.1-0.3,0.2-0.5c0.1-0.1,0.2-0.2,0.4-0.2H51c0.4,0,0.6,0.2,0.6,0.6v0.4c0,0-0.1,0.6,0.6,0.5
				h2.1c0,0,0.7,0,0.7-0.5V70c0-0.3-0.1-0.6-0.3-0.7C54.5,69.1,54.3,69,54,69h-8.8c-0.3,0-0.5,0.1-0.7,0.3c-0.2,0.2-0.3,0.5-0.3,0.7
				v8.2c0,0.3,0.1,0.5,0.3,0.7c0.2,0.2,0.4,0.3,0.7,0.3H54c0.3,0,0.5-0.1,0.7-0.3c0.2-0.2,0.3-0.4,0.3-0.7v-2
				C55.1,75.5,54.3,75.5,54.3,75.5L54.3,75.5z"/>
			<path class="st1" d="M130.4,71.2h4.4l-1.7,1.8l2.1,2l4.1-4.2c0,0,0.2-0.3,0.2-0.6c0-0.3-0.1-0.6-0.3-0.8
				c-0.2-0.2-0.5-0.4-0.8-0.4h-7.9c-0.3,0-0.5,0-0.7,0.2c-0.2,0.2-0.2,0.6-0.2,0.9c0,0.3,0,0.7,0.3,0.9
				C130,71.2,130.1,71.2,130.4,71.2L130.4,71.2z"/>
			<path class="st1" d="M67,69.3c-0.2-0.2-0.4-0.3-0.7-0.3h-8.8c-0.3,0-0.5,0.1-0.7,0.3c-0.2,0.2-0.3,0.5-0.3,0.7v8.2
				c0,0.3,0.1,0.5,0.3,0.7c0.2,0.2,0.4,0.3,0.7,0.3h8.8c0.3,0,0.5-0.1,0.7-0.3c0.2-0.2,0.3-0.4,0.3-0.7V70
				C67.3,69.7,67.2,69.5,67,69.3z M64,76.4c0,0,0,0.3-0.2,0.4c-0.1,0.1-0.2,0.1-0.4,0.1h-2.9c0,0-0.3,0-0.4-0.1
				c-0.1-0.1-0.2-0.2-0.2-0.4v-4.6c0,0,0.1-0.3,0.2-0.5c0.1-0.1,0.2-0.2,0.4-0.2h2.9c0,0,0.3,0.1,0.4,0.2s0.2,0.3,0.2,0.5V76.4z"/>
			<path class="st1" d="M69.2,71.2c0.4,0,0.6,0.1,0.6,0.5v6.6c0,0.3,0.1,0.5,0.3,0.7c0.2,0.2,0.4,0.3,0.7,0.3h1.4
				c0.3,0,0.5-0.1,0.7-0.3c0.2-0.2,0.3-0.4,0.3-0.7v-6.4c0-0.4,0.2-0.6,0.6-0.6h1.9c0.4,0,0.6,0.2,0.6,0.6v6.4
				c0,0.3,0.1,0.5,0.3,0.7c0.2,0.2,0.4,0.3,0.7,0.3h1.4c0.3,0,0.5-0.1,0.7-0.3c0.2-0.2,0.3-0.4,0.3-0.7v-6.6c0-0.3,0.2-0.5,0.6-0.5
				H82c0.4,0,0.6,0.2,0.6,0.6v6.4c0,0.3,0.1,0.5,0.3,0.7c0.2,0.2,0.4,0.3,0.7,0.3H85c0.3,0,0.5-0.1,0.7-0.3c0.2-0.2,0.3-0.4,0.3-0.7
				V70c0-0.3-0.1-0.6-0.3-0.7C85.5,69.1,85.3,69,85,69h-6.1c-0.2,0-0.5,0.1-0.7,0.3c-0.2,0.2-0.3,0.4-0.3,0.6c0-0.2-0.1-0.5-0.3-0.6
				c-0.2-0.2-0.4-0.3-0.7-0.3h-4.4c-0.2,0-0.5,0.1-0.7,0.3c-0.2,0.2-0.3,0.4-0.3,0.6c0-0.2-0.1-0.5-0.3-0.6C71,69.1,70.8,69,70.5,69
				h-1.4c0,0-0.5,0-0.5,0.5v1.1C68.6,70.6,68.6,71.2,69.2,71.2L69.2,71.2z"/>
			<path class="st1" d="M87.9,71.2c0.4,0,0.6,0.1,0.6,0.5v6.6c0,0.3,0.1,0.5,0.3,0.7c0.2,0.2,0.4,0.3,0.7,0.3h1.4
				c0.3,0,0.5-0.1,0.7-0.3c0.2-0.2,0.3-0.4,0.3-0.7v-6.4c0-0.4,0.2-0.6,0.6-0.6h1.9c0.4,0,0.6,0.2,0.6,0.6v6.4
				c0,0.3,0.1,0.5,0.3,0.7c0.2,0.2,0.4,0.3,0.7,0.3h1.4c0.2,0,0.5-0.1,0.7-0.3c0.2-0.2,0.3-0.4,0.3-0.7v-6.6c0-0.3,0.2-0.5,0.6-0.5
				h1.9c0.4,0,0.6,0.2,0.6,0.6v6.4c0,0.3,0.1,0.5,0.3,0.7c0.2,0.2,0.4,0.3,0.7,0.3h1.4c0.3,0,0.5-0.1,0.7-0.3
				c0.2-0.2,0.3-0.4,0.3-0.7V70c0-0.3-0.1-0.6-0.3-0.7c-0.2-0.2-0.5-0.3-0.7-0.3h-6.1c-0.2,0-0.5,0.1-0.7,0.3
				c-0.2,0.2-0.3,0.4-0.3,0.6c0-0.2-0.1-0.5-0.3-0.6C96,69.1,95.8,69,95.6,69h-4.4c-0.2,0-0.5,0.1-0.6,0.3c-0.2,0.2-0.3,0.4-0.3,0.6
				c0-0.2-0.1-0.5-0.3-0.6c-0.2-0.2-0.4-0.3-0.7-0.3h-1.3c0,0-0.5,0-0.5,0.5v1.1C87.4,70.6,87.4,71.2,87.9,71.2L87.9,71.2z"/>
			<path class="st1" d="M138.4,77h-5.2l0.8-0.8l-2,0.1v-2.1l-3.1,3.3c-0.1,0.2-0.2,0.4-0.2,0.6c0,0.3,0.1,0.6,0.3,0.8
				c0.2,0.2,0.5,0.3,0.8,0.3h8.6c0.3,0,0.6,0,0.8-0.2s0.2-0.6,0.2-0.9v-0.4C139.4,76.9,138.5,77,138.4,77L138.4,77z"/>
			<path class="st1" d="M116.5,75.7h-2.2c-0.6,0-0.5,0.5-0.5,0.5v0.4c0,0.2,0,0.2-0.1,0.3c-0.1,0.1-0.3,0.1-0.4,0.1h-2.9
				c0,0-0.3,0-0.4-0.1c-0.1-0.1-0.2-0.2-0.2-0.4v-1.7h6.4c0.3,0,0.5-0.1,0.7-0.3c0.2-0.2,0.3-0.5,0.3-0.7v-3.6
				c0-0.3-0.1-0.5-0.3-0.7c-0.2-0.2-0.5-0.3-0.7-0.3h-8.8c-0.2,0-0.5,0.1-0.7,0.3c-0.2,0.2-0.3,0.5-0.3,0.7v8.2
				c0,0.3,0.1,0.5,0.3,0.7c0.2,0.2,0.5,0.3,0.7,0.3h8.8c0.3,0,0.5-0.1,0.7-0.3c0.2-0.2,0.3-0.4,0.3-0.7v-2
				C117.2,75.8,116.5,75.8,116.5,75.7L116.5,75.7z M109.7,71.8c0-0.4,0.2-0.6,0.6-0.6h2.9c0.4,0,0.6,0.2,0.6,0.6v0.3
				c0,0.4-0.2,0.6-0.6,0.6h-2.9c-0.4,0-0.6-0.2-0.6-0.6V71.8z"/>
			<polygon class="st1" points="132.5,75.8 132.5,71.5 136.8,75.6 			"/>
			<path class="st1" d="M140.7,65.7c0.3,0,0.6,0.1,0.9,0.2c0.3,0.1,0.5,0.3,0.6,0.7c0.2,0.3,0.2,0.6,0.2,0.9s-0.1,0.6-0.2,0.9
				c-0.1,0.3-0.3,0.5-0.6,0.7c-0.3,0.1-0.6,0.2-0.9,0.2c-0.3,0-0.6-0.1-0.9-0.2c-0.3-0.1-0.5-0.4-0.6-0.7c-0.2-0.3-0.2-0.6-0.2-0.9
				c0-0.3,0.1-0.6,0.2-0.9c0.1-0.3,0.4-0.5,0.7-0.7C140.1,65.7,140.4,65.7,140.7,65.7L140.7,65.7z M140.7,66c-0.2,0-0.5,0.1-0.7,0.2
				c-0.2,0.1-0.4,0.3-0.5,0.6c-0.1,0.2-0.2,0.5-0.2,0.7s0.1,0.5,0.2,0.7c0.1,0.2,0.3,0.4,0.5,0.5c0.2,0.1,0.5,0.2,0.7,0.2
				c0.3,0,0.5,0,0.7-0.2s0.4-0.3,0.6-0.5c0.1-0.2,0.2-0.5,0.2-0.7s-0.1-0.5-0.2-0.7c-0.1-0.2-0.3-0.4-0.6-0.6
				C141.1,66,140.9,66,140.7,66L140.7,66z M139.9,68.4v-1.9h0.6c0.2,0,0.4,0,0.5,0c0.1,0,0.2,0.1,0.2,0.2c0,0.1,0.1,0.2,0.1,0.3
				c0,0.1-0.1,0.2-0.2,0.3s-0.2,0.2-0.4,0.2c0.1,0,0.1,0.1,0.2,0.1c0.1,0.1,0.1,0.2,0.2,0.4l0.2,0.3h-0.3l-0.2-0.3
				c-0.1-0.2-0.2-0.4-0.3-0.4c-0.1,0-0.1-0.1-0.2-0.1h-0.2v0.8L139.9,68.4L139.9,68.4z M140.2,67.3h0.3c0.2,0,0.3,0,0.3-0.1
				c0.1,0,0.1-0.1,0.1-0.2c0,0,0-0.1,0-0.1c0,0-0.1-0.1-0.1-0.1c-0.1,0-0.1,0-0.3,0h-0.3L140.2,67.3L140.2,67.3z"/>
		</g>
		<path class="st1" d="M118.7,71.2c0.4,0,0.6,0.1,0.6,0.5v6.6c0,0.3,0.1,0.5,0.3,0.7c0.2,0.2,0.4,0.3,0.7,0.3h1.4
			c0.3,0,0.5-0.1,0.7-0.3c0.2-0.2,0.3-0.4,0.3-0.7v-6.4c0-0.4,0.2-0.6,0.6-0.6h0.9c0,0,0.3,0.1,0.4,0.2c0.1,0.1,0.1,0.3,0.1,0.4v0.2
			c0,0-0.1,0.5,0.5,0.5h2.5c0,0,0.5,0.1,0.5-0.5V70c0-0.3-0.1-0.5-0.3-0.7c-0.2-0.2-0.4-0.3-0.7-0.3h-5c-0.2,0-0.5,0.1-0.7,0.3
			c-0.2,0.2-0.3,0.4-0.3,0.6c0-0.2-0.1-0.5-0.3-0.6c-0.2-0.2-0.4-0.3-0.6-0.3h-1.4c0,0-0.5,0-0.5,0.5v1.1
			C118.2,70.6,118.2,71.2,118.7,71.2L118.7,71.2L118.7,71.2z"/>
	</g>
</g>
</svg>
