<?xml version="1.0" encoding="utf-8"?>
<!-- Generator: Adobe Illustrator 25.2.0, SVG Export Plug-In . SVG Version: 6.00 Build 0)  -->
<svg version="1.1" id="Layer_1" xmlns="http://www.w3.org/2000/svg" xmlns:xlink="http://www.w3.org/1999/xlink" x="0px" y="0px"
	 viewBox="0 0 148 148" style="enable-background:new 0 0 148 148;" xml:space="preserve">
<style type="text/css">
	.st0{fill:#FFFFFF;}
	.st1{fill:#16457A;}
	.st2{fill-rule:evenodd;clip-rule:evenodd;fill:#16457A;}
	.st3{fill:#CD1F40;}
</style>
<g>
	<path class="st0" d="M0.2,74c0-12.1,9.8-21.9,21.9-21.9S44.1,61.9,44.1,74s-9.8,21.9-21.9,21.9S0.2,86.1,0.2,74"/>
	<path class="st0" d="M22.2,91.5c9.7,0,17.5-7.8,17.5-17.5s-7.8-17.5-17.5-17.5S4.6,64.3,4.6,74S12.5,91.5,22.2,91.5"/>
	<path class="st1" d="M70.4,59.7v12c0,7-4.8,9.4-10.6,9.4c-6.1,0-10.6-2.9-10.6-9.4V59.7h5.3v12.2c0,3,2.2,4.9,5.2,4.9
		c2.8,0,5.4-1.5,5.4-5.2V59.6L70.4,59.7L70.4,59.7z"/>
	<path class="st1" d="M88.8,65.2c-3.1-1.4-4.9-1.9-6.7-1.9C80.3,63.3,79,64,79,65c0,3.2,10.8,2.3,10.8,9.7c0,4.1-3.4,6.4-8.1,6.4
		c-3.7,0-5.5-1-7.6-2.1v-4.6c3,2,4.9,2.7,7.2,2.7c2,0,3.1-0.7,3.1-1.9c0-3.5-10.8-2.2-10.8-9.8c0-3.7,3.2-6.1,8.1-6.1
		c2.4,0,4.5,0.5,7.2,1.6L88.8,65.2L88.8,65.2z"/>
	<polygon class="st1" points="51.9,86.1 49.9,86.1 49.9,87.5 51.9,87.5 51.9,88.1 49.9,88.1 49.9,90.4 49.2,90.4 49.2,85.4 
		51.9,85.4 	"/>
	<path class="st1" d="M54,85.4c1,0,1.7,0.5,1.7,1.4c0,0.6-0.3,1-0.9,1.2c0.5,0.3,0.7,0.8,1.1,1.4c0.2,0.4,0.4,0.5,0.7,1h-0.9l-0.7-1
		c-0.7-1-1-1.2-1.3-1.2h-0.3v2.2h-0.7v-5.1C52.7,85.4,54,85.4,54,85.4z M53.4,87.6h0.5c0.8,0,1-0.4,1-0.8c0-0.5-0.3-0.8-1-0.8h-0.5
		V87.6z"/>
	<path class="st1" d="M59.1,85.3c1.7,0,2.7,1.2,2.7,2.6c0,1.4-1,2.6-2.7,2.6c-1.7,0-2.7-1.2-2.7-2.6C56.4,86.6,57.5,85.3,59.1,85.3
		 M59.2,89.9c1.1,0,2-0.8,2-1.9s-0.9-1.9-2-1.9c-1.1,0-1.9,0.8-1.9,1.9S58.1,89.9,59.2,89.9"/>
	<polygon class="st1" points="67.3,90.4 66.5,90.4 66.5,86.5 66.5,86.5 65,88.5 64.9,88.5 63.3,86.5 63.3,86.5 63.3,90.4 62.6,90.4 
		62.6,85.4 63.2,85.4 64.9,87.5 66.6,85.4 67.3,85.4 	"/>
	<polygon class="st1" points="74,86.1 72.2,86.1 72.2,90.4 71.5,90.4 71.5,86.1 69.8,86.1 69.8,85.4 74,85.4 	"/>
	<polygon class="st1" points="78.9,90.4 78.2,90.4 78.2,88.3 75.3,88.3 75.3,90.4 74.6,90.4 74.6,85.4 75.3,85.4 75.3,87.6 
		78.2,87.6 78.2,85.4 78.9,85.4 	"/>
	<polygon class="st1" points="82.9,86.1 80.7,86.1 80.7,87.6 82.8,87.6 82.8,88.3 80.7,88.3 80.7,89.8 82.9,89.8 82.9,90.4 80,90.4 
		80,85.4 82.9,85.4 	"/>
	<path class="st1" d="M90,90.4h-0.7L88.6,89h-2.2l-0.6,1.5h-0.7l2.2-5.1h0.5L90,90.4L90,90.4z M86.7,88.3h1.6l-0.8-1.8
		C87.5,86.5,86.7,88.3,86.7,88.3z"/>
	<polygon class="st1" points="95.2,90.4 94.5,90.4 94.5,86.5 94.5,86.5 92.9,88.5 92.8,88.5 91.2,86.5 91.2,86.5 91.2,90.4 
		90.5,90.4 90.5,85.4 91.2,85.4 92.9,87.5 94.5,85.4 95.2,85.4 	"/>
	<polygon class="st1" points="99.2,86.1 97,86.1 97,87.6 99.1,87.6 99.1,88.3 97,88.3 97,89.8 99.2,89.8 99.2,90.4 96.3,90.4 
		96.3,85.4 99.2,85.4 	"/>
	<path class="st1" d="M101.3,85.4c1,0,1.7,0.5,1.7,1.4c0,0.6-0.3,1-0.9,1.2c0.5,0.3,0.7,0.8,1.1,1.4c0.2,0.4,0.4,0.5,0.7,1h-0.9
		l-0.7-1c-0.7-1-1-1.2-1.3-1.2h-0.3v2.2H100v-5.1C100,85.4,101.3,85.4,101.3,85.4z M100.7,87.6h0.5c0.8,0,1-0.4,1-0.8
		c0-0.5-0.3-0.8-1-0.8h-0.5V87.6z"/>
	<rect x="104.3" y="85.4" class="st1" width="0.7" height="5.1"/>
	<path class="st1" d="M110.2,86.5c-0.6-0.4-1.2-0.5-1.7-0.5c-1.2,0-2,0.8-2,1.9c0,1.1,0.8,1.9,2.1,1.9c0.6,0,1.2-0.2,1.8-0.6v0.8
		c-0.5,0.2-1,0.5-1.8,0.5c-1.9,0-2.7-1.5-2.7-2.5c0-1.6,1.2-2.7,2.8-2.7c0.5,0,1,0.1,1.7,0.4L110.2,86.5L110.2,86.5z"/>
	<path class="st1" d="M115.5,90.4h-0.7l-0.7-1.5h-2.2l-0.6,1.5h-0.7l2.2-5.1h0.5L115.5,90.4L115.5,90.4z M112.2,88.3h1.6l-0.8-1.8
		C112.9,86.5,112.2,88.3,112.2,88.3z"/>
	<polygon class="st1" points="120.7,90.4 120,90.4 116.7,86.6 116.7,90.4 116,90.4 116,85.4 116.6,85.4 120,89.3 120,85.4 
		120.7,85.4 	"/>
	<path class="st1" d="M125.6,85.4c1.1,0,1.6,0.6,1.6,1.5c0,0.8-0.5,1.4-1.7,1.4h-0.7v2.2H124v-5.1H125.6L125.6,85.4z M124.7,87.6
		h0.8c0.5,0,0.9-0.3,0.9-0.8c0-0.4-0.2-0.8-0.9-0.8h-0.9L124.7,87.6L124.7,87.6z"/>
	<polygon class="st1" points="130.7,86.1 128.5,86.1 128.5,87.6 130.6,87.6 130.6,88.3 128.5,88.3 128.5,89.8 130.7,89.8 
		130.7,90.4 127.8,90.4 127.8,85.4 130.7,85.4 	"/>
	<path class="st1" d="M134,85.3c1.7,0,2.7,1.2,2.7,2.6c0,1.4-1,2.6-2.7,2.6s-2.7-1.2-2.7-2.6C131.3,86.6,132.4,85.3,134,85.3
		 M134,89.9c1.1,0,2-0.8,2-1.9s-0.9-1.9-2-1.9c-1.1,0-1.9,0.8-1.9,1.9S132.9,89.9,134,89.9"/>
	<path class="st1" d="M139,85.4c1.1,0,1.6,0.6,1.6,1.5c0,0.8-0.5,1.4-1.7,1.4h-0.7v2.2h-0.7v-5.1H139L139,85.4z M138.1,87.6h0.8
		c0.5,0,0.9-0.3,0.9-0.8c0-0.4-0.2-0.8-0.9-0.8h-0.9L138.1,87.6L138.1,87.6z"/>
	<polygon class="st1" points="141.9,89.8 144.2,89.8 144.2,90.4 141.2,90.4 141.2,85.4 141.9,85.4 	"/>
	<polygon class="st1" points="147.6,86.1 145.5,86.1 145.5,87.6 147.6,87.6 147.6,88.3 145.5,88.3 145.5,89.8 147.7,89.8 
		147.7,90.4 144.8,90.4 144.8,85.4 147.6,85.4 	"/>
	<path class="st1" d="M0,74c0,12.2,9.9,22.1,22.1,22.1S44.2,86.2,44.2,74s-9.9-22.1-22.1-22.1S0,61.8,0,74 M0.4,74
		c0-12,9.7-21.8,21.8-21.8S43.9,62,43.9,74s-9.7,21.8-21.8,21.8S0.4,86,0.4,74"/>
	<path class="st1" d="M4.5,74c0,9.7,7.9,17.7,17.7,17.7S39.8,83.7,39.8,74s-7.9-17.7-17.7-17.7S4.5,64.3,4.5,74 M4.8,74
		c0-9.5,7.8-17.3,17.3-17.3S39.4,64.5,39.4,74s-7.8,17.3-17.3,17.3S4.8,83.5,4.8,74"/>
	<rect x="12.1" y="80.2" class="st1" width="20.2" height="3.2"/>
	<rect x="12.1" y="61.8" class="st1" width="20.2" height="5.8"/>
	<rect x="12.1" y="61.8" class="st1" width="20.2" height="5.8"/>
	<polygon class="st1" points="41.9,70.4 41.9,71.3 41.4,70.6 40.6,70.8 41.1,70.2 40.6,69.5 41.4,69.8 41.9,69.1 41.9,69.9 
		42.6,70.2 	"/>
	<polygon class="st1" points="2.3,69.9 2.3,69.1 2.8,69.8 3.6,69.5 3.1,70.2 3.5,70.8 2.8,70.6 2.3,71.2 2.3,70.4 1.5,70.2 	"/>
	<path class="st1" d="M3.9,63.6l1.2,0.6c0.7,0.4,0.7,1,0.4,1.6c-0.3,0.6-0.8,0.9-1.5,0.6l-1.2-0.6L3,65.3l1.2,0.6
		c0.3,0.1,0.6,0,0.7-0.3c0.1-0.3,0.1-0.6-0.2-0.8l-1.2-0.6L3.9,63.6L3.9,63.6z"/>
	<polygon class="st1" points="7.6,62.3 7.3,62.8 5.3,63 6.6,63.9 6.2,64.4 4.3,62.9 4.6,62.5 6.5,62.3 5.3,61.5 5.7,61 	"/>
	<rect x="7" y="59.8" transform="matrix(0.6591 -0.7521 0.7521 0.6591 -43.3696 26.2724)" class="st1" width="0.6" height="2.4"/>
	<polygon class="st1" points="8.9,58.2 8.3,58.8 9.6,60.2 9.2,60.7 7.9,59.3 7.2,59.8 6.9,59.5 8.6,57.9 	"/>
	<polygon class="st1" points="11.9,58.4 10.5,59.5 9.1,57.6 10.5,56.5 10.8,56.9 9.9,57.6 10.1,57.9 11,57.3 11.3,57.7 10.4,58.3 
		10.7,58.8 11.7,58.1 	"/>
	<path class="st1" d="M12.1,55.6c0.8-0.4,1.4-0.1,1.7,0.4c0.3,0.6,0.2,1.3-0.6,1.7l-0.9,0.5l-1.2-2.1L12.1,55.6L12.1,55.6z
		 M12.6,57.6l0.4-0.2c0.5-0.3,0.5-0.7,0.3-1.1C13,56,12.7,55.7,12.2,56l-0.4,0.2C11.8,56.2,12.6,57.6,12.6,57.6z"/>
	<path class="st1" d="M16.6,54.4c-0.4,0-0.6,0-0.8,0c-0.2,0.1-0.3,0.2-0.3,0.3c0.1,0.4,1.2-0.1,1.5,0.7c0.1,0.4-0.1,0.8-0.6,1
		c-0.4,0.1-0.6,0.1-0.9,0l-0.2-0.5c0.4,0.1,0.6,0.1,0.9,0c0.2-0.1,0.3-0.2,0.3-0.3c-0.1-0.4-1.2,0.1-1.5-0.7c-0.1-0.4,0.1-0.8,0.7-1
		c0.2-0.1,0.5-0.1,0.9-0.1L16.6,54.4L16.6,54.4z"/>
	<polygon class="st1" points="19.3,53.6 18.5,53.8 18.8,55.7 18.3,55.9 17.9,53.9 17,54.1 16.9,53.7 19.2,53.2 	"/>
	<path class="st1" d="M22,55.4h-0.6L21.2,55L20.1,55L20,55.5h-0.6l0.8-2.4l0.7-0.1L22,55.4L22,55.4z M20.5,53.7l-0.3,1l0.7-0.1
		L20.5,53.7z"/>
	<polygon class="st1" points="24.1,53.5 23.2,53.5 23.1,55.5 22.5,55.4 22.6,53.5 21.8,53.4 21.8,53 24.1,53.1 	"/>
	<polygon class="st1" points="26.1,55.8 24.3,55.5 24.7,53.2 26.4,53.4 26.4,53.9 25.2,53.7 25.1,54.2 26.2,54.4 26.2,54.8 
		25.1,54.6 25,55.2 26.1,55.4 	"/>
	<path class="st1" d="M28.5,54.6c-0.3-0.2-0.5-0.4-0.7-0.4c-0.2-0.1-0.4,0-0.4,0.1c-0.1,0.4,1.1,0.6,0.9,1.4
		c-0.1,0.5-0.6,0.6-1.1,0.5c-0.4-0.1-0.6-0.3-0.8-0.5l0.1-0.5c0.3,0.3,0.5,0.5,0.7,0.5c0.2,0.1,0.4,0,0.4-0.1
		c0.1-0.4-1.1-0.6-0.9-1.4c0.1-0.4,0.5-0.6,1.1-0.4c0.2,0.1,0.5,0.2,0.7,0.4L28.5,54.6L28.5,54.6z"/>
	<path class="st1" d="M31.2,57.8l-0.6-0.3v-0.5l-1-0.5l-0.4,0.4l-0.6-0.3l1.9-1.8l0.6,0.3L31.2,57.8L31.2,57.8z M30.7,55.5L30,56.2
		l0.7,0.3L30.7,55.5L30.7,55.5z"/>
	<path class="st1" d="M34.1,57.6c-0.2-0.3-0.4-0.5-0.6-0.7c-0.5-0.4-1-0.1-1.2,0.1c-0.2,0.4-0.1,0.8,0.3,1.1
		c0.1,0.1,0.2,0.1,0.4,0.1l0.1-0.2l-0.3-0.2l0.2-0.4l0.8,0.5l-0.5,0.8c-0.2,0.1-0.7-0.1-1-0.3c-0.7-0.5-0.9-1.2-0.5-1.8
		c0.4-0.6,1.2-0.7,1.9-0.2c0.3,0.2,0.6,0.5,0.7,0.7L34.1,57.6L34.1,57.6z"/>
	<polygon class="st1" points="35,60.5 33.6,59.4 35.2,57.6 36.5,58.7 36.2,59 35.3,58.3 35,58.7 35.8,59.4 35.6,59.7 34.7,59 
		34.4,59.4 35.2,60.2 	"/>
	<polygon class="st1" points="36.8,62.6 36.5,62.2 36.8,60.2 35.6,61.2 35.2,60.8 37,59.2 37.4,59.6 37.2,61.5 38.2,60.6 38.6,61 	
		"/>
	<path class="st1" d="M38.5,64.7c-0.3-0.2-0.5-0.4-0.7-0.7c-0.5-0.8-0.2-1.5,0.3-1.8c0.5-0.4,1.3-0.2,1.8,0.5
		c0.2,0.3,0.3,0.6,0.3,0.9l-0.5,0.3c0-0.3-0.1-0.6-0.2-0.8c-0.3-0.4-0.7-0.6-1.1-0.3C38,63,38,63.5,38.2,63.9
		c0.2,0.2,0.4,0.4,0.7,0.6L38.5,64.7L38.5,64.7z"/>
	<polygon class="st1" points="39.8,65.4 40.6,63.9 40.9,64.6 40.4,65.4 41.3,65.5 41.7,66.2 40.1,65.9 39.1,66.4 38.8,65.8 	"/>
	
		<rect x="1.2" y="74.5" transform="matrix(0.9993 -3.838781e-02 3.838781e-02 0.9993 -2.8699 0.1492)" class="st1" width="2.4" height="0.6"/>
	<polygon class="st1" points="1.6,78.3 1.5,77.8 2.9,76.2 1.3,76.4 1.3,75.8 3.7,75.5 3.7,76.1 2.4,77.5 3.9,77.3 4,77.9 	"/>
	<polygon class="st1" points="4.3,80.5 4,79.7 2.2,80.3 2,79.7 3.9,79.1 3.7,78.3 4.1,78.1 4.7,80.4 	"/>
	<polygon class="st1" points="3.4,83.3 2.6,81.6 4.9,80.7 5.6,82.3 5.1,82.4 4.7,81.4 4.2,81.6 4.6,82.6 4.3,82.8 3.8,81.8 3.3,82 
		3.8,83.1 	"/>
	<path class="st1" d="M6.3,83.5c0.2,0.4,0.1,0.9-0.2,1c-0.2,0.1-0.5,0.1-0.7-0.1c0,0.3-0.2,0.5-0.6,1.1l-0.4-0.6
		C4.7,84.6,5,84.2,4.9,84l-0.1-0.1l-0.9,0.5l-0.3-0.5l2.1-1.2L6.3,83.5L6.3,83.5z M5.2,83.6l0.2,0.3c0,0,0.2,0.2,0.4,0.1
		c0.1-0.1,0.2-0.2,0.1-0.4l-0.1-0.2L5.2,83.6L5.2,83.6z"/>
	<polygon class="st1" points="6.5,88 6.2,87.6 6.6,85.6 5.4,86.5 5,86.1 6.9,84.6 7.2,85 6.9,86.9 8,86 8.4,86.5 	"/>
	<path class="st1" d="M8.9,90.2l-0.5-0.4l0.2-0.5l-0.8-0.7l-0.5,0.2l-0.5-0.4l2.3-1.1l0.5,0.5L8.9,90.2L8.9,90.2z M9.1,87.9
		l-0.9,0.5l0.5,0.5L9.1,87.9z"/>
	<polygon class="st1" points="11.9,90 11.2,89.5 10,91 9.5,90.7 10.7,89.1 10,88.6 10.2,88.2 12.1,89.6 	"/>
	<rect x="10.8" y="90.6" transform="matrix(0.5123 -0.8588 0.8588 0.5123 -72.1984 54.679)" class="st1" width="2.4" height="0.6"/>
	<path class="st1" d="M13.5,93.1c-0.8-0.4-1-1.1-0.7-1.7c0.2-0.5,1-0.9,1.8-0.6c0.8,0.4,1,1.2,0.7,1.7C15,93.1,14.3,93.4,13.5,93.1
		 M14.3,91.3c-0.4-0.2-0.8,0-1,0.4c-0.2,0.4,0,0.8,0.4,1c0.4,0.2,0.8,0,1-0.4C14.9,91.9,14.7,91.5,14.3,91.3"/>
	<polygon class="st1" points="17.7,94.5 17.3,94.3 16.4,92.5 16,94 15.4,93.9 16,91.5 16.6,91.7 17.4,93.4 17.8,92 18.4,92.1 	"/>
	<path class="st1" d="M21,94.9l-0.6-0.1l-0.1-0.5l-1.1-0.1l-0.2,0.5l-0.6-0.1l1.2-2.3l0.7,0.1C20.2,92.4,21,94.9,21,94.9z
		 M19.8,92.9l-0.5,0.9l0.7,0.1L19.8,92.9L19.8,92.9z"/>
	<polygon class="st1" points="23.3,94.9 21.5,94.9 21.4,92.5 22,92.5 22,94.5 23.3,94.5 	"/>
	<path class="st1" d="M25.5,92.2c0.9-0.1,1.4,0.3,1.5,1c0.1,0.7-0.2,1.3-1.2,1.4l-1,0.2l-0.4-2.4L25.5,92.2z M25.4,94.2l0.4-0.1
		c0.6-0.1,0.7-0.5,0.6-0.9c-0.1-0.4-0.4-0.7-0.9-0.6l-0.4,0.1L25.4,94.2z"/>
	<polygon class="st1" points="29.6,93.6 27.9,94.1 27.2,91.9 28.8,91.3 29,91.7 27.9,92.1 28,92.6 29.1,92.2 29.2,92.6 28.1,93 
		28.3,93.5 29.5,93.2 	"/>
	<polygon class="st1" points="31.3,92.9 31,93 28.9,91.3 29.5,91 30.7,92 30.7,90.5 31.2,90.2 	"/>
	<polygon class="st1" points="34.2,91.2 32.6,92.1 31.4,90.1 32.9,89.2 33.1,89.6 32.1,90.2 32.4,90.6 33.3,90 33.6,90.4 32.6,91 
		32.9,91.4 33.9,90.8 	"/>
	<polygon class="st1" points="36.1,89.7 34.7,90.8 33.2,89 33.6,88.6 34.9,90.1 35.8,89.3 	"/>
	<path class="st1" d="M37.4,88.4c-0.6,0.6-1.4,0.6-1.8,0.1c-0.4-0.4-0.6-1.2,0-1.8c0.6-0.7,1.4-0.6,1.8-0.1
		C37.9,87,38,87.8,37.4,88.4 M36,87c-0.3,0.3-0.3,0.7,0,1.1c0.3,0.3,0.7,0.3,1.1,0c0.3-0.3,0.3-0.7,0-1.1C36.7,86.7,36.3,86.7,36,87
		"/>
	<path class="st1" d="M37.4,84.5c0.3-0.5,0.8-0.4,1-0.2c0.3,0.2,0.5,0.6,0.1,1.1l-0.3,0.4l0.8,0.6l-0.4,0.5l-2-1.4L37.4,84.5
		L37.4,84.5z M38,85.5l0.2-0.2c0.2-0.2,0.1-0.4,0-0.5c-0.2-0.1-0.3-0.1-0.5,0.2l-0.1,0.2L38,85.5L38,85.5z"/>
	<polygon class="st1" points="39,81.8 39.2,81.3 41.4,82.4 41.1,82.9 39.8,82.3 40.2,83.2 40.1,83.3 39.1,83.5 40.5,84.2 40.2,84.7 
		38.1,83.6 38.3,83.2 39.5,82.9 	"/>
	<polygon class="st1" points="42.2,80 41.7,81.7 39.4,80.9 40,79.2 40.3,79.4 40,80.5 40.4,80.7 40.8,79.6 41.2,79.7 40.9,80.8 
		41.4,81 41.8,79.8 	"/>
	<polygon class="st1" points="42.9,76.9 42.8,77.4 41,78.5 42.5,78.8 42.4,79.4 40.1,78.9 40.2,78.4 41.9,77.4 40.4,77.1 40.5,76.5 
			"/>
	<polygon class="st1" points="41.1,73.9 41.1,74.8 43,74.9 43,75.5 41.1,75.4 41,76.3 40.6,76.2 40.7,73.9 	"/>
	<path class="st2" d="M19,76C19,76,19,76,19,76L19,76L19,76L19,76L19,76L19,76C19,76,19,76,19,76C19,76.1,19,76.1,19,76
		c-0.1,0.1-0.1,0.1-0.2,0.2c0.1,0,0.1,0,0.2,0l0,0c0,0,0,0,0,0l0,0c0,0,0,0,0,0l0,0l0,0l0,0"/>
	<path class="st2" d="M20,70.3L20,70.3L20,70.3L20,70.3L20,70.3C20,70.3,20,70.3,20,70.3c0,0.1,0,0.1,0.1,0.1l0,0l0,0l0,0l0,0l0,0
		C20.1,70.5,20.1,70.5,20,70.3L20,70.3L20,70.3C20.1,70.4,20.1,70.3,20,70.3C20.1,70.3,20,70.3,20,70.3L20,70.3l-0.1,0l0,0"/>
	<path class="st2" d="M20.2,71L20.2,71L20.2,71L20.2,71L20.2,71L20.2,71L20.2,71L20.2,71L20.2,71C20.2,71,20.2,71.1,20.2,71L20.2,71
		c-0.1,0.1-0.1,0.1-0.2,0.1h0c0,0,0-0.1,0-0.1c0,0,0,0,0,0c0,0,0,0,0,0c0,0,0,0-0.1,0.1c0,0,0,0,0,0l0,0c0,0,0,0-0.1,0.1
		c0,0,0,0-0.1,0.1c0,0,0,0,0,0c0,0,0,0-0.1,0c0,0,0,0,0,0h0l0,0l0,0l0,0h0.1l0,0l0,0l0,0l0,0c0,0,0,0,0.1,0c0,0,0,0,0.1,0
		c0,0,0.1,0,0.1,0H20l0,0c0,0,0,0,0,0l0,0l0,0l0,0l0,0l0,0c0,0,0,0,0,0c0,0,0,0,0,0l0,0l0,0c0,0,0,0,0,0c0,0,0,0,0,0
		c0,0,0-0.1,0-0.1c0,0,0-0.1,0-0.1c0,0-0.1,0.1-0.1,0.1"/>
	<path class="st2" d="M19.5,71.2L19.5,71.2C19.5,71.2,19.5,71.2,19.5,71.2c-0.1,0.1-0.1,0.1-0.1,0.1c0,0,0,0,0,0c0,0,0,0-0.1,0.1
		c0,0,0,0,0,0l0,0l0,0l0,0l0,0c0,0,0,0,0,0h0.1C19.4,71.3,19.4,71.3,19.5,71.2c0,0,0.1-0.1,0.1-0.1l0,0"/>
	<path class="st2" d="M19.1,71.3L19.1,71.3L19.1,71.3L19.1,71.3L19.1,71.3L19.1,71.3L19.1,71.3C19.1,71.3,19.1,71.3,19.1,71.3
		C19,71.3,19,71.3,19,71.4c0,0,0,0,0,0.1c0,0,0,0,0.1,0l0,0l0,0l0,0l0,0l0,0l0,0c0,0,0,0,0,0l0,0l0,0l0,0l0,0l0,0"/>
	<path class="st2" d="M18.8,71.3L18.8,71.3L18.8,71.3L18.8,71.3c-0.1,0-0.1,0-0.1,0h0l0,0l0,0c0,0,0,0,0,0
		C18.7,71.3,18.7,71.3,18.8,71.3C18.7,71.3,18.7,71.3,18.8,71.3L18.8,71.3L18.8,71.3L18.8,71.3L18.8,71.3L18.8,71.3L18.8,71.3
		L18.8,71.3L18.8,71.3"/>
	<path class="st2" d="M30.4,71.6L30.4,71.6L30.4,71.6L30.4,71.6L30.4,71.6L30.4,71.6L30.4,71.6L30.4,71.6L30.4,71.6
		C30.4,71.6,30.4,71.6,30.4,71.6L30.4,71.6L30.4,71.6L30.4,71.6C30.4,71.6,30.4,71.6,30.4,71.6C30.4,71.6,30.4,71.6,30.4,71.6
		L30.4,71.6C30.5,71.6,30.5,71.6,30.4,71.6c0.1,0,0.2-0.1,0.2-0.1l0,0"/>
	<path class="st2" d="M30.8,71.7C30.8,71.7,30.8,71.7,30.8,71.7C30.8,71.7,30.8,71.7,30.8,71.7L30.8,71.7L30.8,71.7L30.8,71.7
		L30.8,71.7L30.8,71.7L30.8,71.7L30.8,71.7L30.8,71.7C30.8,71.7,30.8,71.7,30.8,71.7"/>
	<path class="st2" d="M22.1,72.3c0,0-0.1-0.1-0.1-0.1c0,0,0,0-0.1,0l0,0l0,0c0,0,0,0-0.1,0c0,0,0,0,0,0l0,0l0,0l0,0c0,0-0.1,0-0.1,0
		c0,0,0,0,0,0l0,0c0,0-0.1,0-0.1,0c0,0-0.1,0-0.1,0h-0.1c0,0,0,0,0,0l0,0l0,0c0,0-0.1,0-0.1,0c0,0-0.1,0-0.1,0l0,0
		c0.1,0,0.1,0,0.2,0c0.1,0,0.1,0,0.2,0.1c0,0,0,0,0,0.1l0,0l0,0c0,0,0,0,0,0l0,0c0,0,0,0,0,0l0,0l0,0l0,0c0,0,0,0,0,0l0,0
		c0,0,0,0,0.1,0c0,0,0,0,0.1,0c0,0,0,0,0,0c0,0,0,0,0,0h0l0,0c0,0,0,0.1,0,0.1l0,0l0,0v0c0,0-0.1,0.1-0.1,0.1c0,0,0,0,0.1,0
		c0,0,0,0,0.1,0c0,0,0,0,0.1,0C21.9,72.4,22,72.3,22.1,72.3C22,72.3,22,72.4,22,72.4l0,0l0,0c0,0,0,0,0,0.1l0,0l0,0l0,0l0,0l0,0l0,0
		c0,0,0,0,0,0l0,0l0,0c0,0,0.1,0,0.1-0.1l0,0l0,0c0,0,0,0,0.1,0c0,0,0,0,0,0l0,0l0,0l0,0c0,0,0,0,0.1,0c0,0,0,0,0,0.1c0,0,0,0,0,0.1
		c0.1,0,0.1,0,0.1-0.1c0,0,0.1,0,0.1-0.1c0,0-0.1-0.1-0.1-0.1"/>
	<path class="st2" d="M27.6,72L27.6,72L27.6,72L27.6,72C27.6,72,27.6,72,27.6,72L27.6,72L27.6,72L27.6,72L27.6,72L27.6,72L27.6,72
		L27.6,72L27.6,72L27.6,72L27.6,72L27.6,72L27.6,72L27.6,72L27.6,72L27.6,72L27.6,72L27.6,72L27.6,72L27.6,72L27.6,72L27.6,72
		L27.6,72L27.6,72C27.7,72,27.7,72,27.6,72L27.6,72L27.6,72z"/>
	<path class="st2" d="M22.1,72.7C22.1,72.7,22,72.7,22.1,72.7L22.1,72.7c-0.1,0-0.1,0-0.1,0l0,0c0,0-0.1,0-0.1,0l0,0l0,0l0,0h0.1
		l0,0l0,0l0,0C21.9,72.7,22,72.7,22.1,72.7L22.1,72.7L22.1,72.7C22,72.7,22,72.7,22.1,72.7c0,0,0.1-0.1,0.1-0.1l0,0
		C22.2,72.5,22.1,72.6,22.1,72.7"/>
	<path class="st2" d="M17.2,73.1L17.2,73.1L17.2,73.1L17.2,73.1C17.2,73.1,17.2,73.1,17.2,73.1L17.2,73.1L17.2,73.1L17.2,73.1
		L17.2,73.1L17.2,73.1L17.2,73.1L17.2,73.1L17.2,73.1c-0.1,0-0.1,0.1-0.2,0.1l0,0l0,0c0,0,0,0,0,0l0,0l0,0l0,0c0,0-0.1,0.1-0.1,0.1
		c0,0,0,0,0,0.1l0,0l0,0l0,0c0,0,0,0,0,0l0,0l0,0l0,0c0,0,0,0,0,0l0,0l0,0l0,0l0,0l0,0c0,0,0,0,0,0l0,0l0,0c0,0,0,0,0,0l0,0l0,0
		c0,0,0,0,0.1,0c0,0,0,0,0.1,0c0,0,0,0,0,0l0,0l0,0l0,0c0,0,0,0,0,0c0,0,0,0,0,0l0,0"/>
	<path class="st2" d="M17.5,73.2C17.5,73.2,17.5,73.2,17.5,73.2c-0.1,0-0.1,0-0.1,0l0,0l0,0l0,0c0,0,0,0,0,0l0,0c0,0,0,0-0.1,0
		c0,0,0,0-0.1,0c-0.1,0-0.1,0.1-0.2,0.1l0,0c0,0,0,0,0,0c0,0,0,0,0.1,0l0,0l0,0l0,0l0,0c0,0,0,0,0.1,0l0,0c0,0,0,0,0,0c0,0,0,0,0,0
		c0,0,0.1-0.1,0.1-0.1c0,0,0.1,0,0.1-0.1l0,0C17.5,73.4,17.6,73.4,17.5,73.2C17.6,73.3,17.6,73.3,17.5,73.2"/>
	<path class="st2" d="M17.6,73.5L17.6,73.5L17.6,73.5C17.6,73.5,17.6,73.5,17.6,73.5C17.6,73.5,17.6,73.5,17.6,73.5L17.6,73.5
		L17.6,73.5L17.6,73.5L17.6,73.5c-0.1,0-0.2,0.1-0.2,0.1c0,0,0,0-0.1,0l0,0l0,0C17.4,73.6,17.5,73.5,17.6,73.5
		c0.1-0.1,0.1-0.1,0.1-0.1l0,0"/>
	<path class="st2" d="M27.3,73.6C27.3,73.6,27.3,73.6,27.3,73.6c-0.1,0-0.2,0-0.2,0c-0.1,0-0.2,0-0.3,0c0,0,0,0,0,0c0,0,0,0-0.1,0
		l0,0l0,0c0,0-0.1,0-0.1,0l0,0h-0.1c0,0,0,0,0,0.1l0,0l0,0l0,0l0,0l0,0l0,0h0l0,0l0,0l0,0c0,0,0,0,0.1,0c0.1,0,0.1,0,0.2,0
		c0,0,0,0,0.1,0c0,0,0.1,0,0.1,0c0,0,0,0,0.1,0c0,0,0,0,0.1,0l0,0l0,0c0,0,0.1,0,0.1,0c0,0,0.1,0,0-0.1c0,0,0,0-0.1,0"/>
	<path class="st2" d="M18.9,73.6C18.9,73.6,18.9,73.6,18.9,73.6c-0.1,0.1-0.1,0.1-0.2,0.1c0,0,0,0-0.1,0l0,0l0,0c0,0,0,0-0.1,0l0,0
		l0,0l0,0l0,0l0,0l0,0l0,0l0,0c0,0,0,0-0.1,0l0,0l0,0c0,0,0,0-0.1,0.1l0,0l0,0c0,0,0,0,0,0c0,0,0,0,0,0c0,0,0,0,0,0l0,0l0,0l0,0l0,0
		l0,0c0,0,0,0,0.1,0c0,0,0,0,0,0c0,0,0,0,0,0l0,0l0,0l0,0l0,0l0,0l0,0l0,0c0,0,0,0,0.1,0l0,0l0,0l0,0l0,0l0,0l0,0l0,0l0,0l0,0l0,0"
		/>
	<path class="st2" d="M24.1,73.8L24.1,73.8L24.1,73.8C24.1,73.8,24.1,73.8,24.1,73.8c-0.1,0-0.1,0-0.1,0.1h0l0,0l0,0l0,0l0,0l0,0
		l0,0l0,0l0,0l0,0h0C24,73.8,24,73.8,24.1,73.8L24.1,73.8C24.1,73.8,24.1,73.8,24.1,73.8L24.1,73.8L24.1,73.8
		C24.1,73.8,24.1,73.8,24.1,73.8C24.1,73.8,24.1,73.8,24.1,73.8L24.1,73.8L24.1,73.8L24.1,73.8L24.1,73.8L24.1,73.8L24.1,73.8
		L24.1,73.8L24.1,73.8L24.1,73.8L24.1,73.8C24.2,73.8,24.2,73.8,24.1,73.8"/>
	<path class="st2" d="M17.9,73.8L17.9,73.8C17.9,73.8,17.8,73.8,17.9,73.8c-0.1,0-0.1,0-0.1,0l0,0c0,0,0,0,0,0
		c-0.1,0.1-0.1,0.1-0.2,0.2c0,0,0,0,0,0l0,0c0,0,0,0,0,0l0,0l0,0l0,0l0,0l0,0l0,0c0,0,0,0,0.1,0l0,0l0,0c0,0,0,0,0,0l0,0l0,0
		c0,0,0.1,0,0.1-0.1l0,0l0,0l0,0l0,0l0,0c0,0,0,0,0,0l0,0l0,0l0,0l0,0l0,0c0,0,0,0,0,0l0,0"/>
	<path class="st2" d="M19.6,73.9c0,0-0.1,0-0.1,0h0l0,0l0,0l0,0l0,0l0,0l0,0l0,0V74C19.5,74,19.5,73.9,19.6,73.9L19.6,73.9
		L19.6,73.9L19.6,73.9L19.6,73.9L19.6,73.9L19.6,73.9L19.6,73.9L19.6,73.9C19.6,73.9,19.6,73.9,19.6,73.9L19.6,73.9"/>
	<path class="st2" d="M24.2,73.9C24.2,73.9,24.2,73.9,24.2,73.9C24.2,73.9,24.2,73.9,24.2,73.9L24.2,73.9L24.2,73.9L24.2,73.9
		L24.2,73.9c-0.1,0-0.2,0-0.2,0l0,0l0,0l0,0l0,0c0,0,0,0,0,0c0,0,0,0,0,0.1c0,0,0,0,0,0l0,0l0,0l0,0l0,0c0,0,0,0,0.1,0c0,0,0,0,0,0
		l0,0l0,0l0,0l0,0C24.2,74,24.2,74,24.2,73.9c0,0,0.1,0,0.1-0.1l0,0C24.4,73.9,24.3,73.9,24.2,73.9"/>
	<path class="st2" d="M24.5,74L24.5,74C24.5,74,24.5,74,24.5,74L24.5,74L24.5,74L24.5,74L24.5,74L24.5,74c-0.1,0-0.1,0-0.1,0
		c0,0,0,0,0,0c0,0,0,0,0,0l0,0l0,0l0,0l0,0l0,0l0,0l0,0l0,0l0,0l0,0l0,0l0,0l0,0l0,0c0,0,0,0,0,0l0,0c0,0,0,0,0.1,0
		C24.5,74.1,24.5,74.1,24.5,74L24.5,74L24.5,74L24.5,74L24.5,74L24.5,74L24.5,74L24.5,74L24.5,74L24.5,74L24.5,74
		C24.5,74.1,24.6,74,24.5,74c0.1,0,0.1-0.1,0.2-0.1l0,0c0,0,0,0,0,0l0,0l0,0v0l0,0c0,0,0,0,0,0"/>
	<path class="st2" d="M13.3,75.3L13.3,75.3L13.3,75.3L13.3,75.3L13.3,75.3L13.3,75.3L13.3,75.3C13.3,75.3,13.4,75.3,13.3,75.3
		L13.3,75.3L13.3,75.3L13.3,75.3c0.1,0,0.1,0,0.1-0.1l0,0l0,0c0,0,0,0,0.1,0c0,0,0,0,0.1,0c0,0,0.1-0.1,0.1-0.1l0,0l0,0l0,0l0,0l0,0
		c0,0,0,0,0,0l0,0l0,0l0,0c0,0,0,0,0.1,0l0,0l0,0c0,0,0.1,0,0.1-0.1c0,0,0.1,0,0.1-0.1l0,0l0,0l0,0l0,0c0,0,0,0,0,0c0,0,0,0,0.1,0
		l0,0l0,0l0,0l0,0l0,0l0,0l0,0c0.1-0.1,0.1-0.1,0.2-0.2l0,0l0,0l0,0l0,0l0,0l0,0l0,0c0,0,0,0,0,0l0,0l0,0l0,0l0,0l0,0l0,0
		c0,0-0.1,0.1-0.1,0.1l0,0l0,0c0,0,0,0,0,0c0,0,0,0,0,0l0,0l0,0l0,0l0,0l0,0c0,0,0,0,0,0l0,0l0,0l0,0l0,0l0,0l0,0c0,0,0,0,0,0l0,0
		l0,0l0,0l0,0l0,0l0,0l0,0l0,0l0,0l0,0c0,0-0.1,0-0.1,0.1l0,0c0,0,0,0-0.1,0c0,0-0.1,0-0.1,0.1c0,0,0,0-0.1,0l0,0l0,0l0,0l0,0l0,0
		l0,0c0,0,0,0-0.1,0.1l0,0l0,0l0,0l0,0l0,0c0,0-0.1,0.1-0.1,0.1l0,0c0,0,0.1,0,0.1,0"/>
	<path class="st2" d="M29.8,74.4C29.8,74.4,29.7,74.4,29.8,74.4c-0.1,0.1-0.1,0.1-0.1,0.1c0,0,0,0-0.1,0.1l0,0l0,0
		c0,0-0.1,0.1-0.1,0.1l0,0l0,0l0,0l0,0l0,0l0,0l0,0l0,0c0,0-0.1,0.1-0.1,0.1l0,0c0,0,0,0,0,0c0,0-0.1,0.1-0.1,0.1c0,0,0,0,0,0l0,0
		l0,0l0,0l0,0c0,0,0,0,0,0l0,0l0,0l0,0l0,0l0,0l0,0l0,0h0l0,0l0,0l0,0l0,0l0,0l0,0c0,0-0.1,0.1-0.1,0.1l0,0c0.2,0,0.4,0,0.6,0
		c0,0,0.1,0,0.1,0c0,0,0,0,0.1-0.1c0,0,0,0,0,0c0.1,0,0.1-0.1,0.1-0.1c0,0,0,0,0,0l0,0c0,0,0,0,0.1,0c0,0,0,0,0,0
		c0.1-0.1,0.1-0.1,0.2-0.2l0,0l0,0l0,0c0,0,0,0,0-0.1l0,0l0,0c0,0,0,0,0.1-0.1l0.1-0.1l0,0l0,0l0,0c0,0,0,0,0.1-0.1c0,0,0,0,0-0.1
		l0,0c0,0,0,0-0.1,0c0,0,0,0-0.1,0c0,0,0,0,0,0c0,0,0,0-0.1,0.1l0,0l0,0c0,0,0,0-0.1,0l0,0l0,0l0,0l0,0l0,0l0,0c0,0-0.1,0.1-0.1,0.1
		l0,0l0,0l0,0l0,0c0,0,0,0,0,0c0,0,0,0,0,0l0,0l0,0l0,0l0,0l0,0l0,0c0,0,0,0,0,0c0,0,0,0-0.1,0.1l0,0l0,0l0,0c0,0,0,0-0.1,0.1l0,0
		l0,0l0,0l0,0c0,0,0,0,0,0l0,0l0,0l0,0l0,0l0,0l0,0l0,0l0,0c0,0,0,0,0,0h0c0,0,0,0,0-0.1l0,0l0,0c0,0,0.1-0.1,0.1-0.1l0,0l0,0l0,0
		c0,0,0,0,0.1,0l0,0c0,0,0,0,0.1,0c0,0,0,0,0,0l0,0l0,0l0,0c0,0,0,0,0,0l0,0c0,0,0,0,0,0l0,0c0,0,0,0,0,0c0,0,0.1-0.1,0.1-0.1l0,0
		l0,0l0,0l0,0l0,0c0,0,0,0,0,0l0,0l0,0l0,0l0,0l0,0l0,0l0,0l0,0c0,0,0,0,0,0l0,0l0,0l0,0c0,0-0.1,0-0.1,0.1"/>
	<path class="st2" d="M28.9,74.4c0,0-0.1,0-0.1,0.1l0,0l0,0c0,0-0.1,0.1-0.1,0.1l0,0c0,0,0,0,0,0l0,0l0,0c0,0,0,0-0.1,0
		c0,0,0,0-0.1,0l0,0l0,0l0,0c0,0-0.1,0.1-0.1,0.1c-0.1,0.1-0.1,0.1-0.2,0.2l0,0c0,0-0.1,0.1-0.1,0.1l0,0c0,0,0,0-0.1,0.1l0,0
		c0,0,0,0-0.1,0.1l0,0c0,0,0,0,0,0l0,0h0.1c0,0,0.1,0,0.1,0c0,0,0.1,0,0.1,0c0,0,0.1,0,0.2,0c0,0,0.1,0,0.1,0c0,0,0,0,0,0
		c0,0,0,0,0.1,0c0,0,0.1-0.1,0.1-0.1c0,0,0.1-0.1,0.1-0.1c0,0,0,0,0.1-0.1c0,0,0,0,0.1-0.1l0,0l0,0l0,0l0,0l0,0l0,0l0,0
		c0,0,0,0,0.1-0.1l0,0l0,0l0,0c0,0,0-0.1,0.1-0.1c0,0,0,0,0.1-0.1l0,0l0,0c0,0,0,0,0,0l0,0l0,0l0,0l0,0l0,0c0,0,0,0,0-0.1
		c0,0,0,0,0,0l0,0l0,0l0,0l0,0c0,0,0,0-0.1,0.1c0,0-0.1,0.1-0.1,0.1c0,0-0.1,0.1-0.1,0.1l0,0l0,0l0,0c0,0,0,0,0,0c0,0,0,0,0,0l0,0
		c0,0,0,0-0.1,0l0,0c0,0,0,0,0,0l0,0c0,0-0.1,0.1-0.1,0.1c0,0-0.1,0-0.1,0c0,0,0,0-0.1,0c-0.1,0-0.1,0-0.2,0c0,0,0,0,0,0
		c0,0,0,0,0.1,0c0,0,0,0,0.1,0c0,0,0,0,0.1,0c0,0,0.1-0.1,0.1-0.1c0,0,0,0,0.1,0c0,0,0.1-0.1,0.1-0.1l0,0
		C28.7,74.5,28.8,74.5,28.9,74.4C28.8,74.4,28.9,74.4,28.9,74.4L28.9,74.4c0.1,0,0.1-0.1,0.1-0.1c0,0,0,0,0,0c0,0,0,0,0.1-0.1l0,0
		c0,0,0,0,0,0c0,0,0,0,0-0.1l0,0h0"/>
	<path class="st2" d="M14,74.4L14,74.4L14,74.4C14,74.4,14,74.4,14,74.4c-0.1,0-0.1,0-0.1,0c0,0,0,0,0,0l0,0l0,0l0,0l0,0l0,0l0,0
		l0,0l0,0l0,0c0,0,0,0,0,0l0,0c0,0,0,0-0.1,0l0,0l0,0l0,0l0,0c0,0-0.1,0.1-0.1,0.1c0,0,0,0,0,0l0,0l0,0l0,0l0,0l0,0l0,0
		c0,0,0,0-0.1,0.1c0,0,0,0,0,0l0,0l0,0l0,0c0,0,0,0-0.1,0l0,0l0,0l0,0l0,0l0,0c0,0,0,0-0.1,0.1c0,0,0,0,0,0h0.1h0.1l0,0l0,0
		c0,0,0,0,0,0c0,0,0,0,0,0l0,0l0,0l0,0l0,0l0,0l0,0l0,0l0,0l0,0l0,0l0,0l0,0l0,0c0,0,0,0,0,0c0,0,0,0,0.1-0.1c0,0,0,0,0,0l0,0l0,0
		l0,0c0,0,0,0,0,0l0,0c0,0,0,0,0.1-0.1l0,0l0,0l0,0l0,0l0,0l0,0l0,0l0,0l0,0l0,0l0,0c0,0,0.1-0.1,0.1-0.1C14,74.5,14,74.4,14,74.4
		c0.1,0,0.1,0,0.1,0c0,0,0,0,0.1-0.1l0,0c0,0,0,0-0.1,0"/>
	<path class="st2" d="M22.5,74.5c0,0-0.1,0.1-0.2,0.1c0,0-0.1,0-0.1,0l0,0l0,0l0,0l0,0c0,0,0,0,0,0l0,0l0,0l0,0l0,0l0,0l0,0l0,0
		c0,0,0,0,0,0l0,0c0,0,0,0,0,0c0,0,0,0,0,0l0,0c0,0,0,0,0.1,0l0,0l0,0l0,0c0,0,0.1,0,0.1-0.1C22.4,74.6,22.5,74.6,22.5,74.5
		c0,0,0.1,0,0.1-0.1c0,0,0,0,0,0l0,0l0,0c0,0,0,0,0,0"/>
	<path class="st2" d="M30.7,74.5L30.7,74.5L30.7,74.5L30.7,74.5C30.7,74.5,30.7,74.5,30.7,74.5L30.7,74.5L30.7,74.5L30.7,74.5
		c0,0-0.1,0-0.1,0c0,0-0.1,0-0.1,0.1l0,0v0.1c0,0,0,0,0,0c0,0,0,0,0,0c0,0,0,0,0,0c0,0,0,0,0.1,0c0,0,0,0,0,0c0,0,0,0,0,0l0,0l0,0
		C30.6,74.6,30.6,74.5,30.7,74.5L30.7,74.5C30.7,74.5,30.7,74.5,30.7,74.5C30.7,74.5,30.7,74.5,30.7,74.5L30.7,74.5L30.7,74.5"/>
	<path class="st2" d="M13.3,74.5L13.3,74.5L13.3,74.5C13.3,74.5,13.3,74.5,13.3,74.5L13.3,74.5c-0.1,0-0.1,0-0.1,0l0,0l0,0l0,0
		c0,0,0,0,0,0l0,0l0,0c0,0-0.1,0.1-0.1,0.1l0,0l0,0l0,0l0,0c0,0,0,0-0.1,0.1c0,0,0,0,0,0l0,0l0,0l0,0l0,0l0,0l0,0l0,0l0,0l0,0
		c0,0,0,0-0.1,0l0,0c0,0,0,0.1-0.1,0.1c0,0,0,0.1-0.1,0.1h0.1c0,0,0.1,0,0.1,0c0,0,0,0,0.1,0l0,0c0,0,0,0,0,0c0,0,0.1,0,0.1-0.1
		c0,0,0.1,0,0.1-0.1c0,0,0-0.1,0.1-0.1c0,0,0-0.1,0.1-0.1l0,0l0,0l0,0l0,0l0,0l0,0l0,0l0,0l0,0l0,0c0-0.1,0.1-0.1,0.2-0.2l0,0l0,0
		L13.3,74.5z"/>
	<path class="st2" d="M31,74.6L31,74.6L31,74.6L31,74.6L31,74.6L31,74.6L31,74.6L31,74.6L31,74.6c0,0-0.1,0-0.1,0.1c0,0,0,0,0,0.1
		l0,0l0,0c0,0,0,0-0.1,0.1l0,0l0,0l0,0l0,0l0,0l0,0c0,0-0.1,0-0.1,0.1c-0.1,0.1-0.1,0.1-0.2,0.1c0,0-0.1,0.1-0.1,0.1l0,0
		c0,0,0,0-0.1,0c0,0,0,0,0,0l0,0c0,0,0,0,0.1,0c0,0,0,0,0.1,0c0,0,0,0,0,0h0.1l0,0l0,0l0,0l0,0l0,0l0,0l0,0l0,0l0,0l0,0l0,0l0,0l0,0
		c0,0,0.1,0,0.1-0.1l0,0l0,0l0,0l0,0c0,0,0,0,0,0l0,0l0,0l0,0l0,0l0,0l0,0l0,0l0,0l0,0l0,0c0,0,0,0,0,0l0,0c0,0,0,0,0,0
		c0,0,0,0,0-0.1l0,0l0,0l0,0l0,0l0,0l0,0c0,0,0,0,0,0l0,0l0,0l0,0l0,0l0,0"/>
	<path class="st2" d="M30.7,75.4c0,0,0.1-0.1,0.1-0.1c0,0,0,0,0,0l0,0l0,0l0,0l0,0l0,0l0,0l0,0l0,0l0,0l0,0c0,0,0,0,0,0c0,0,0,0,0,0
		l0,0l0,0l0,0l0,0l0,0l0,0l0,0l0,0l0,0l0,0c0,0,0,0,0.1-0.1l0,0l0,0c0,0,0,0,0.1-0.1l0,0c0,0,0,0,0-0.1l0,0l0,0l0,0c0,0,0,0,0,0l0,0
		l0,0l0,0l0,0l0,0c0,0,0,0-0.1,0.1l0,0l0,0l0,0c0,0,0,0,0,0l0,0c0,0,0,0,0,0c0,0,0,0-0.1,0c0,0,0,0,0,0l0,0l0,0l0,0
		c0,0-0.1,0-0.1,0.1l0,0l0,0c0,0,0,0-0.1,0c0,0,0,0-0.1,0c0,0-0.1,0.1-0.1,0.1l0,0l0,0c0,0-0.1,0-0.1,0.1l0,0c0,0,0,0,0,0l0,0
		c0.1,0,0.2,0,0.3-0.1"/>
	<path class="st2" d="M22.8,74.6c0,0-0.1,0-0.1,0.1l0,0c0,0,0,0-0.1,0l0,0l0,0l0,0l0,0l0,0l0,0c0,0,0,0-0.1,0l0,0l0,0l0,0
		c0,0,0,0-0.1,0l0,0l0,0l0,0c0,0,0,0,0,0c0,0,0,0,0,0l0,0l0,0c0,0,0,0,0.1,0c0,0,0,0,0,0c0,0,0,0,0.1,0l0,0l0,0c0,0,0,0,0,0
		c0,0,0,0,0.1,0l0,0l0,0l0,0C22.7,74.7,22.7,74.7,22.8,74.6L22.8,74.6L22.8,74.6L22.8,74.6L22.8,74.6L22.8,74.6L22.8,74.6L22.8,74.6
		L22.8,74.6L22.8,74.6z"/>
	<path class="st2" d="M23,74.7L23,74.7L23,74.7L23,74.7c-0.1,0-0.1,0-0.1,0l0,0l0,0l0,0c0,0,0,0,0,0l0,0l0,0l0,0c0,0,0,0,0,0l0,0
		c0,0-0.1,0.1-0.1,0.1l0,0c0,0,0,0,0,0c0,0,0.1,0,0.1,0.1l0,0l0,0l0,0l0,0l0,0l0,0l0,0l0,0l0,0l0,0c0,0,0,0,0,0l0,0l0,0
		c0,0,0.1,0,0.1-0.1C23,74.9,23,74.8,23,74.7L23,74.7L23,74.7c0.1,0.1,0.1,0,0.1,0l0,0C23.1,74.7,23.1,74.7,23,74.7"/>
	<path class="st2" d="M30.2,74.8L30.2,74.8C30.2,74.8,30.2,74.8,30.2,74.8c-0.1,0-0.1,0-0.1,0.1l0,0c0,0,0,0-0.1,0.1l0,0l0,0
		c0,0,0,0,0,0l0,0l0,0l0,0l0,0l0,0l0,0l0,0l0,0l0,0l0,0l0,0c0,0,0,0-0.1,0.1l0,0c0,0,0,0-0.1,0l0,0l0,0c0,0,0,0-0.1,0.1
		c0,0,0,0,0,0.1l0,0l0,0l0,0l0,0l0,0c0,0,0,0,0,0c0,0,0,0,0.1,0c0,0,0,0,0,0c0,0,0,0,0,0c0,0,0,0,0.1,0c0,0,0,0,0.1,0l0,0l0,0l0,0
		l0,0l0,0l0,0l0,0c0,0,0,0,0,0c0,0,0,0,0.1-0.1c0,0,0,0,0,0l0,0l0,0l0,0l0,0c0,0,0-0.1,0-0.1l0,0L30.2,74.8z"/>
	<path class="st2" d="M30.9,75.5L30.9,75.5c0.1,0,0.1,0,0.2-0.1l0,0c0,0,0.1,0,0.1-0.1l0,0l0,0l0,0l0,0c0,0,0,0,0,0l0,0l0,0l0,0l0,0
		l0,0l0,0l0,0l0,0l0,0c0,0,0,0,0-0.1l0,0l0,0l0,0c0,0,0-0.1,0.1-0.1c0,0,0-0.1,0.1-0.1c0,0,0,0,0,0c0,0,0,0-0.1,0c0,0,0,0-0.1,0.1
		c0,0,0,0-0.1,0.1c0,0,0,0,0,0l0,0l0,0c0,0,0,0,0,0c0,0,0,0,0,0c0,0,0,0,0,0l0,0l0,0l0,0l0,0l0,0c0,0,0,0-0.1,0l0,0
		c-0.1,0-0.1,0.1-0.2,0.1l0,0l0,0c0,0,0,0,0,0l0,0l0,0c0,0,0,0,0,0.1c0,0,0.1,0,0.1,0"/>
	<path class="st2" d="M23.3,74.9L23.3,74.9L23.3,74.9C23.3,74.9,23.2,74.9,23.3,74.9c-0.1,0-0.1,0-0.1,0l0,0l0,0l0,0l0,0
		c0,0,0,0-0.1,0l0,0c0,0,0,0-0.1,0c0,0-0.1,0.1-0.1,0.1l0,0l0,0l0,0c0,0,0,0,0.1,0c0,0,0,0,0,0l0,0l0,0l0,0l0,0l0,0l0,0l0,0l0,0l0,0
		l0,0l0,0l0,0l0,0l0,0c0,0,0,0,0.1-0.1c0,0,0,0,0-0.1C23.1,75,23.1,74.9,23.3,74.9C23.2,74.9,23.2,74.9,23.3,74.9
		C23.1,74.9,23.2,74.9,23.3,74.9L23.3,74.9C23.2,74.9,23.2,74.9,23.3,74.9L23.3,74.9L23.3,74.9L23.3,74.9"/>
	<path class="st2" d="M23.4,75.1c0,0-0.1,0-0.1,0c0,0-0.1,0-0.1,0l0,0c0,0,0,0,0,0l0,0c0,0,0,0-0.1,0.1c0,0,0,0,0,0c0,0,0,0,0,0
		c0,0,0,0,0,0l0,0l0,0c0,0,0,0,0.1,0l0,0l0,0l0,0c0,0,0.1,0,0.1,0l0,0c0,0,0,0,0,0c0,0,0,0,0.1,0l0,0l0,0l0,0c0,0,0,0,0-0.1l0,0l0,0
		l0,0l0,0l0,0l0,0l0,0c0,0,0,0,0,0l0,0l0,0"/>
	<path class="st2" d="M23.9,75.1C23.9,75.1,23.9,75.1,23.9,75.1L23.9,75.1L23.9,75.1c-0.1,0-0.1,0-0.1,0.1l0,0c0,0-0.1,0-0.1,0l0,0
		c0,0,0,0-0.1,0l0,0c0,0,0,0,0,0c0,0,0,0,0,0c0,0,0,0,0,0c0,0,0,0-0.1,0l0,0l0,0l0,0l0,0l0,0l0,0l0,0c0,0,0,0,0,0c0.1,0,0.1,0,0.2,0
		c0,0,0,0,0.1,0l0,0l0,0l0,0h0.1l0,0l0,0l0,0l0,0c0,0,0,0,0,0c0,0,0,0-0.1,0l0,0c0,0,0,0,0,0c0,0,0,0,0,0c0,0,0,0,0.1,0l0,0
		c0,0,0.1,0,0.1,0c0,0,0.1,0,0.1,0l0,0l0,0c0,0,0,0,0,0l0,0l0,0l0,0c0,0-0.1,0.1-0.1,0.1c0,0,0,0,0,0c0,0,0,0,0,0c0,0,0.1,0,0.1,0
		c0,0,0,0,0,0c0,0,0,0,0.1,0l0,0c0,0,0,0,0.1,0l0,0c0,0,0.1,0,0.1-0.1l0,0l0,0l0,0l0,0l0,0c0,0,0.1,0,0.1-0.1l0,0l0,0l0,0
		c0,0,0,0,0-0.1c0,0,0,0,0,0c0,0,0,0,0,0c0,0,0,0-0.1,0c0,0,0,0-0.1,0l0,0c0,0,0,0,0,0l0,0c0,0,0,0,0.1-0.1c0,0,0,0,0.1-0.1
		c0,0,0,0,0,0v0l0,0l0,0l0,0l0,0c0,0,0,0,0-0.1c0,0,0,0,0,0l0,0l0,0c0,0-0.1,0.1-0.1,0.1C24,75.1,24,75.1,23.9,75.1L23.9,75.1
		L23.9,75.1C23.9,75.2,23.9,75.2,23.9,75.1L23.9,75.1L23.9,75.1L23.9,75.1c-0.1,0.1-0.1,0.1-0.1,0.1c0,0,0,0,0-0.1c0,0,0,0,0,0l0,0
		l0,0c0,0,0,0,0-0.1c0,0,0,0,0,0l0,0l0,0c0,0,0,0,0-0.1c0,0,0,0,0-0.1l0,0V75.1z"/>
	<path class="st2" d="M21.3,73.3L21.3,73.3C21.3,73.3,21.3,73.3,21.3,73.3L21.3,73.3L21.3,73.3L21.3,73.3L21.3,73.3L21.3,73.3
		L21.3,73.3L21.3,73.3L21.3,73.3c0,0.1,0,0.1,0.1,0.1c0,0,0.1,0,0.1,0c0.1,0,0.1-0.1,0.2-0.1l0,0l0,0c0,0,0,0,0,0l0,0l0,0l0,0
		c0,0,0,0,0,0c0,0,0,0,0,0l0,0l0,0v0c0,0,0.1,0,0.1,0c0,0,0,0,0,0c0,0,0,0,0.1,0c0,0,0,0,0.1,0l0,0c0,0,0,0.1-0.1,0.1l0,0
		c0,0,0,0-0.1,0.1l0,0c0,0,0,0,0,0l0,0l0,0l0,0l0,0l0,0c0,0,0,0,0,0c0,0,0,0,0,0v0c0,0-0.1,0-0.1,0c0,0,0,0-0.1,0l0,0l0,0
		c0,0,0,0-0.1,0.1c0,0,0,0,0,0c0,0,0,0,0,0l0,0l0,0l0,0c0,0,0,0,0,0c0,0,0,0-0.1,0l0,0l0,0l0,0h0c0,0,0,0,0,0l0,0l0,0c0,0,0,0,0,0
		c0,0,0.1,0,0.1-0.1c0,0,0,0,0.1-0.1l0,0l0,0l0,0c0,0,0,0,0.1-0.1c0,0,0,0,0,0l0,0l0,0l0,0c0,0,0,0,0,0c0,0,0,0,0,0l0,0l0,0
		c0,0,0-0.1,0-0.1c0,0-0.1,0-0.1,0.1c0,0,0,0,0,0l0,0l0,0l0,0c0,0-0.1,0-0.1,0.1c-0.1,0.1-0.2,0.1-0.2,0.2c0,0,0,0,0,0
		c0,0,0,0,0-0.1l0,0l0,0c0,0,0.1-0.1,0.1-0.1l0,0c0,0,0.1-0.1,0.1-0.2c0,0,0,0,0,0c0,0,0,0,0,0c0,0,0-0.1,0-0.1
		C21.4,73.1,21.3,73.2,21.3,73.3c-0.1,0-0.1,0.1-0.2,0.1c0,0,0,0,0,0l0,0l0,0l0,0l0,0l0,0l0,0c0,0,0,0,0-0.1l0,0l0,0l0,0
		c0,0,0,0,0-0.1c0,0,0,0,0,0l0,0l0,0l0,0l0,0c0,0-0.1,0-0.1,0l0,0l0,0l0,0c0,0-0.1,0-0.1,0l0,0l0,0l0,0l0,0l0,0l0,0l0,0
		c0,0-0.1,0-0.1,0l0,0l0,0l0,0l0,0l0,0l0,0l0,0l0,0l0,0l0,0c0,0,0,0,0,0c0,0,0.1,0,0.1,0l0,0l0,0l0,0c0,0,0,0,0,0s0.1,0,0.1-0.1
		c0.1,0,0.1-0.1,0.2-0.1c0,0.1-0.1,0.1-0.1,0.2l0,0l0,0l0,0c0,0,0,0,0,0c0,0,0,0,0,0c0,0,0,0,0,0c0,0,0.1,0,0.1-0.1c0,0,0,0,0.1,0"
		/>
	<path class="st2" d="M21.9,73.9L21.9,73.9C21.9,73.9,21.9,74,21.9,73.9c0,0.1,0,0.1-0.1,0.1l0,0c0,0,0,0,0,0l0,0c0,0,0,0,0,0
		c0,0,0,0,0,0l0,0c0,0,0,0,0,0.1c0,0,0,0-0.1,0c0,0,0,0,0,0c0,0,0,0,0,0l0,0c0,0,0,0,0,0l0,0l0,0l0,0l0,0l0,0l0,0c0,0,0,0-0.1,0l0,0
		l0,0c0,0,0,0-0.1,0c0,0-0.1,0-0.1,0l0,0c0,0,0.1-0.1,0.1-0.1l0,0l0,0l0,0l0,0l0,0l0,0l0,0c0,0,0.1-0.1,0.1-0.1l0,0l0,0l0,0
		c0,0,0,0,0,0l0,0l0,0l0,0l0,0l0,0c0,0,0,0,0,0l0,0l0,0l0,0l0,0l0,0l0,0l0,0c0,0,0,0,0.1,0c0,0,0.1-0.1,0.1-0.1"/>
	<path class="st2" d="M16.3,74L16.3,74L16.3,74c0,0-0.1,0-0.1,0.1l0,0l0,0l0,0l0,0l0,0l0,0l0,0l0,0l0,0l0,0l0,0l0,0l0,0
		c0,0,0,0-0.1,0.1l0,0l0,0l0,0l0,0l0,0l0,0l0,0l0,0c0,0,0,0-0.1,0c0,0,0,0,0,0c0,0,0,0,0,0c0,0,0,0,0,0C16.1,74.1,16.2,74,16.3,74
		L16.3,74L16.3,74C16.2,74,16.2,74,16.3,74L16.3,74C16.2,74,16.3,74,16.3,74L16.3,74L16.3,74L16.3,74L16.3,74L16.3,74
		c0.1,0,0.2-0.1,0.2-0.1"/>
	<path class="st2" d="M15.2,74.1L15.2,74.1L15.2,74.1L15.2,74.1L15.2,74.1c0,0-0.1,0.1-0.1,0.1c0,0-0.1,0.1-0.1,0.1c0,0,0,0,0,0
		c0,0,0,0,0,0l0,0c0,0-0.1,0-0.1,0.1l0,0l0,0l0,0c0,0-0.1,0.1-0.1,0.1c0,0,0,0-0.1,0.1l0,0l0,0l0,0l0,0l0,0l0,0c0,0,0,0-0.1,0l0,0
		l0,0l0,0c0,0,0,0,0,0l0,0l0,0c0,0,0,0,0,0c0,0,0,0,0,0.1l0,0l0,0c0,0-0.1,0-0.1,0.1c0,0,0,0,0,0.1l0,0l0,0c0,0,0,0,0,0l0,0l0,0l0,0
		l0,0l0,0l0,0c0,0,0.1,0,0.1-0.1l0,0l0,0c0,0,0,0,0.1-0.1c0,0,0,0,0,0c0,0,0,0,0,0c0,0,0,0,0.1-0.1c0,0,0.1,0,0.1-0.1c0,0,0,0,0,0
		l0,0l0,0l0,0l0,0c0,0,0.1-0.1,0.1-0.1l0,0c0,0,0,0,0.1-0.1l0,0l0,0l0,0l0,0l0,0c0,0,0,0,0.1,0l0,0l0,0l0,0c0,0,0,0,0,0l0,0l0,0l0,0
		l0,0l0,0c0,0,0,0,0,0l0,0l0,0l0,0l0,0c0,0,0.1-0.1,0.1-0.1c0,0-0.1,0.1-0.1,0.1l0,0l0,0l0,0l0,0l0,0l0,0l0,0l0,0c0,0,0,0-0.1,0.1
		c0,0-0.1,0-0.1,0.1c0,0,0,0-0.1,0.1l0,0c-0.1,0-0.1,0.1-0.2,0.2l0,0c0,0,0,0-0.1,0c0,0,0,0,0,0l0,0l0,0l0,0l0,0l0,0l0,0
		c0,0,0,0,0,0c0,0,0,0-0.1,0.1c0,0-0.1,0.1-0.1,0.1c0,0,0,0,0,0c0,0,0,0,0,0l0,0h-0.1c0,0,0,0-0.1,0c-0.2,0-0.4,0-0.6,0l0,0l0,0l0,0
		c0,0,0,0,0,0l0,0l0,0c0,0,0,0,0,0l0,0l0,0l0,0l0,0l0,0l0,0l0,0l0,0l0,0l0,0l0,0l0,0l0,0c0,0,0,0,0.1,0c0,0,0,0,0,0l0,0l0,0
		c0,0,0,0,0,0c0,0,0,0,0.1-0.1c0.1-0.1,0.1-0.1,0.2-0.2l0,0c0,0,0.1,0,0.1-0.1c0,0,0,0,0,0l0,0l0,0l0,0l0,0l0,0c0,0,0,0,0.1,0l0,0
		l0,0l0,0l0,0l0,0l0,0l0,0c0,0,0,0,0.1,0c0,0,0,0,0,0c0,0,0,0,0.1,0l0,0c0,0,0,0,0,0l0,0l0,0l0,0c0,0,0,0,0,0l0,0l0,0c0,0,0,0,0,0
		l0,0c0,0,0,0,0,0l0,0l0,0l0,0l0,0c0,0,0,0,0,0c0,0,0,0,0,0"/>
	<path class="st2" d="M27.9,74.6C27.9,74.6,27.9,74.6,27.9,74.6c0,0,0.1,0,0.1-0.1l0,0c0,0,0,0,0,0l0,0c0,0,0,0,0,0c0,0,0,0,0,0l0,0
		l0,0l0,0l0,0c0,0,0.1-0.1,0.1-0.1c0,0,0,0,0.1,0c0,0,0,0.1-0.1,0.1c0,0,0,0-0.1,0.1l0,0l0,0c0,0,0,0,0,0.1c0,0,0,0,0,0
		c0,0,0,0-0.1,0.1c0,0,0,0-0.1,0c0,0,0,0-0.1,0l0,0c0,0-0.1,0-0.1,0"/>
	<path class="st2" d="M12.6,74.7C12.6,74.7,12.6,74.7,12.6,74.7C12.5,74.7,12.5,74.7,12.6,74.7c-0.1,0-0.1,0-0.1,0l0,0l0,0l0,0
		c0,0,0,0-0.1,0c0,0-0.1,0.1-0.1,0.1c0,0,0,0,0,0c0,0,0,0,0,0c0,0,0,0,0,0l0,0v0.2l0,0c0,0,0,0,0.1,0l0,0l0,0l0,0l0,0l0,0l0,0l0,0
		l0,0l0,0l0,0l0,0l0,0l0,0l0,0l0,0c0,0,0,0,0,0l0,0c0,0,0,0,0,0c0,0,0,0,0,0l0,0c0,0,0,0,0,0l0,0l0,0l0,0l0,0l0,0l0,0l0,0l0,0l0,0
		l0,0l0,0l0,0l0,0l0,0"/>
	<path class="st2" d="M32.3,75.8c0,0-0.1,0-0.2,0c-0.1,0-0.1,0-0.2,0c-0.1,0-0.1,0-0.2,0h-0.1l0,0h-0.1c0,0-0.1,0-0.1,0
		c0,0-0.1,0-0.1,0c0,0-0.1,0-0.1,0c-0.1,0-0.2,0-0.2,0c-0.1,0-0.2,0-0.3,0s-0.2,0-0.3,0c-0.1,0-0.2,0-0.2,0c0,0-0.1,0-0.1,0
		c0,0,0,0,0,0c-0.1,0-0.1,0-0.2,0c-0.1,0-0.1,0-0.2,0s-0.1,0-0.2,0c-0.1,0-0.1,0-0.2,0c-0.2,0-0.5,0-0.7,0c-0.1,0-0.2,0-0.3,0
		c-0.1,0-0.1,0-0.2,0h-0.1l0,0c0,0,0,0,0,0l0,0c0,0-0.1,0-0.1,0h-0.1l0,0c0,0,0,0,0,0c0,0-0.1,0-0.1,0c0,0-0.1,0-0.1,0
		c-0.1,0-0.1,0-0.2,0l0,0v0c0,0,0,0,0.1,0c0,0,0,0,0,0l0,0l0,0l0,0l0,0l0,0l0,0c0,0,0,0,0,0c0,0,0,0,0,0l0,0l0,0l0,0c0,0,0,0,0,0
		l0,0c0,0,0,0,0,0c0,0,0,0,0.1-0.1l0,0l0,0c0,0,0,0,0.1-0.1l0,0l0,0c0,0,0,0,0,0l0,0l0,0c0,0,0,0,0.1-0.1l0,0c-0.1,0-0.2,0-0.2,0.1
		c0,0,0,0,0,0l0,0c0,0-0.1,0.1-0.1,0.1l0,0l0,0c0,0,0,0-0.1,0c0,0,0,0,0,0l0,0l0,0l0,0c0,0,0,0-0.1,0.1l0,0l0,0l0,0
		c0,0-0.1,0-0.1,0.1c0,0-0.1,0.1-0.1,0l0,0l0,0l0,0l0,0c0,0,0,0,0,0l0,0c0,0,0,0,0.1-0.1c0,0,0,0,0,0c0,0,0.1-0.1,0.1-0.1
		c0,0,0,0,0,0l0,0l0,0c0,0,0.1-0.1,0.1-0.1c0,0,0.1-0.1,0.1-0.1l0,0l0,0l0,0c0,0,0.1-0.1,0.1-0.1l0,0l0,0l0,0l0,0l0,0l0,0l0,0l0,0
		c0,0,0,0,0,0c0,0,0,0,0-0.1l0,0l0,0l0,0l0,0c0,0,0,0,0.1-0.1c0,0,0,0-0.1,0c0,0-0.1,0-0.1,0.1c0,0,0,0,0,0l0,0l0,0
		c0,0-0.1,0-0.1,0.1l0,0l0,0l0,0l0,0l0,0l0,0l0,0c0,0,0,0-0.1,0c0,0,0,0,0,0l0,0l0,0l0,0l0,0l0,0l0,0l0,0l0,0l0,0l0,0l0,0l0,0l0,0
		c0,0-0.1,0-0.1,0.1c0,0,0,0,0,0l0,0c0,0,0,0,0,0c0,0-0.1,0-0.1,0.1c0,0,0,0-0.1,0l0,0l0,0l0,0l0,0l0,0l0,0l0,0l0,0l0,0l0,0
		c0,0,0,0-0.1,0c0,0,0,0,0,0l0,0l0,0l0,0l0,0c0,0,0,0,0,0c0,0,0,0,0,0l0,0l0,0l0,0l0,0l0,0l0,0l0,0l0,0l0,0l0,0l0,0l0,0c0,0,0,0,0,0
		c0,0,0.1-0.1,0.1-0.1l0,0l0,0l0,0l0,0c0,0,0.1-0.1,0.1-0.1c0,0,0,0,0,0c0,0,0,0,0,0l0,0l0,0l0,0l0,0l0,0l0,0l0,0l0,0c0,0,0,0,0,0
		c0,0,0,0,0,0l0,0l0,0l0,0l0,0l0,0l0,0l0,0l0,0c0,0,0,0-0.1,0c0,0,0,0-0.1,0c0,0-0.1,0-0.1,0.1l0,0l0,0l0,0l0,0l0,0l0,0l0,0l0,0
		c0,0,0,0,0,0l0,0l0,0l0,0l0,0h0l0,0l0,0l0,0l0,0l0,0c-0.1,0.1-0.1,0.1-0.2,0.1c0,0-0.1,0-0.1,0.1c0,0,0,0,0,0l0,0l0,0l0,0l0,0
		c0,0,0,0,0,0l0,0l0,0l0,0l0,0l0,0l0,0l0,0l0,0c0,0,0,0,0.1,0l0,0c0,0,0,0,0.1-0.1l0,0l0,0l0,0l0,0l0,0c0,0,0,0,0,0l0.1-0.1l0,0
		c0,0,0,0,0,0l0,0l0,0l0,0l0,0l0,0l0,0l0,0l0,0l0,0l0,0l0,0l0,0l0,0l0,0l0,0l0,0c0,0,0,0-0.1,0l0,0l0,0l0,0l0,0c0,0,0,0,0,0l0,0l0,0
		l0,0c0,0-0.1,0.1-0.2,0.1l0,0l0,0l0,0c0,0-0.1,0-0.1,0.1c0,0,0,0-0.1,0c0,0,0,0,0-0.1l0,0l0,0l0,0l0,0c0,0,0,0,0.1,0c0,0,0,0,0,0
		l0,0c0,0,0,0,0,0c0,0,0,0,0,0c0,0,0.1-0.1,0.1-0.1l0,0l0,0l0,0l0,0c0,0,0,0,0,0c0,0,0,0,0,0l0,0c0,0,0,0-0.1,0l0,0l0,0l0,0
		c0,0,0,0-0.1,0l0,0l0,0l0,0l0,0l0,0l0,0l0,0l0,0l0,0l0,0l0,0l0,0l0,0c0,0,0,0,0,0c0,0,0,0,0,0c0,0-0.1,0-0.1,0l0,0c0,0,0,0,0,0l0,0
		l0,0l0,0l0,0l0,0l0,0l0,0l0,0c0,0,0,0,0-0.1l0,0c0,0,0,0,0,0c0,0,0,0,0-0.1c0,0,0,0,0,0c0,0,0,0,0,0c0,0-0.1,0-0.1,0l0,0l0,0l0,0
		l0,0h0l0,0l0,0l0,0l0,0l0,0l0,0l0,0l0,0l0,0l0,0c0,0,0,0-0.1,0c0,0-0.1,0-0.1-0.1c0,0,0-0.1,0.1-0.1l0,0l0,0l0,0l0,0l0,0
		c0,0,0,0,0.1-0.1l0,0l0,0l0,0c0,0,0,0-0.1,0c0,0,0,0,0,0l0,0l0,0l0,0l0,0l0,0l0,0l0,0l0,0l0,0l0,0l0,0l0,0l0,0c0,0,0,0,0,0.1
		c0,0,0,0,0,0l0,0c0,0,0,0,0,0.1l0,0l0,0l0,0c0,0,0,0,0,0.1l0,0l0,0c0,0,0,0,0,0.1c0,0,0,0,0,0c0,0,0,0,0,0.1v0.1c0,0,0,0,0,0.1
		c0,0,0,0,0,0.1l0,0l0,0l0,0l0,0c0,0,0,0,0,0v0.1l0,0c0,0,0,0,0,0.1c0,0,0,0,0,0c0,0,0,0,0,0c0,0,0,0,0,0v0.1l0,0c0,0,0,0,0,0.1
		c0,0,0,0,0,0.1l0,0l0,0l0,0c0,0,0,0,0,0l0,0l0,0c0,0,0,0,0,0c0,0,0,0-0.1,0l0,0c0,0,0,0,0,0l0,0l0,0l0,0l0,0l0,0l0,0l0,0l0,0l0,0
		c0,0,0,0,0,0c0,0,0,0,0,0l0,0c0,0,0,0,0,0l0,0l0,0v-0.1l0,0l0,0l0,0l0,0c0,0,0,0,0,0c0,0,0,0,0,0h-0.1c0,0,0,0,0-0.1c0,0,0,0,0-0.1
		l0,0l0,0l0,0l0,0c0,0,0,0,0,0c0,0,0,0,0,0l0,0c0,0,0,0-0.1,0c0,0,0,0-0.1,0h0l0,0l0,0c0,0,0,0,0-0.1l0,0l0,0c0,0,0,0,0.1-0.1l0,0
		c0,0,0,0-0.1,0c0,0,0,0-0.1,0l0,0c0,0,0,0,0,0c0,0,0,0,0,0l0,0c0,0,0-0.1,0-0.1l0,0l0,0c0,0,0-0.1,0-0.1c0,0,0-0.1,0-0.1
		c0,0,0,0,0-0.1c0,0,0,0,0,0l0,0c0,0,0,0,0,0c0,0,0,0,0-0.1l0,0c0,0,0,0,0,0c0,0,0,0,0-0.1c0,0,0.1-0.1,0.1-0.1l0,0l0,0l0,0
		c0,0,0,0-0.1,0c0,0,0-0.1,0-0.1c0,0,0,0,0,0c0,0,0,0,0,0l0,0l0,0c0,0,0,0,0.1-0.1l0,0l0,0l0,0c0,0,0,0,0-0.1l0,0l0,0l0,0
		c0,0,0,0,0,0l0,0l0,0c0,0-0.1,0.1-0.1,0.1c0,0-0.1,0-0.1,0.1c0,0-0.1,0-0.1,0.1c0-0.1-0.1-0.1-0.1-0.2c0,0,0,0,0.1,0l0,0
		c0,0,0,0,0,0l0,0l0,0l0,0l0,0l0,0l0,0l0,0c0,0,0.1-0.1,0.1-0.1l0,0l0,0l0,0l0,0c0,0,0.1,0,0.1-0.1l0,0c0,0,0,0,0,0l0,0l0,0l0,0
		c0,0,0,0,0,0.1l0,0c0,0,0,0.1,0,0.1l0,0l0,0l0,0c0,0,0,0,0,0l0,0c0,0,0,0.1,0,0.1c0,0,0,0,0,0c0,0,0,0,0,0v0.1c0,0,0,0,0,0l0,0l0,0
		c0,0,0-0.1,0-0.1l0,0l0,0c0,0,0,0,0,0l0,0c0,0,0,0,0-0.1l0,0c0,0,0-0.1,0-0.1l0,0l0,0l0,0l0,0l0,0c0,0,0,0,0,0c0,0,0,0,0-0.1
		c0,0,0-0.1,0-0.1c0,0,0,0,0-0.1c0,0,0,0,0-0.1s0,0,0,0s0,0,0-0.1l0,0l0,0l0,0c0,0,0,0,0-0.1l0,0v-0.1l0,0l0,0v-0.1
		c0,0,0-0.1-0.1-0.1l0,0l0,0c0,0,0,0,0-0.1c0,0,0,0,0,0l0,0c0,0,0,0,0,0l0,0l0,0c0,0-0.1-0.1-0.1-0.1l0,0l0,0l0,0
		c0,0-0.1-0.1-0.1-0.1l0,0c0,0,0.1,0.1,0.1,0.1c0,0,0.1,0.1,0.1,0.1c0,0,0,0,0,0l0,0l0,0l0,0c0,0,0,0.1,0,0.1c0,0,0,0,0,0l0,0.1l0,0
		l0,0l0,0l0,0c0,0,0,0,0,0.1v0l0,0c0.1,0,0.1,0,0.1-0.1c0,0,0,0,0,0.1l0,0c0,0,0,0,0,0l0,0l0,0c0,0,0,0,0,0.1l0,0l0,0l0,0l0,0
		c0,0,0,0.1,0,0.1c0,0,0,0-0.1,0.1c0,0,0,0-0.1,0.1l0,0c0,0,0,0,0,0l0,0l0,0c0,0-0.1,0-0.1,0.1l0,0c0,0,0,0-0.1,0c0,0,0-0.1-0.1-0.1
		c0,0,0,0,0,0l0,0l0,0l0,0l0,0l0,0l0,0c0,0,0-0.1,0.1-0.1l0,0l0,0l0,0l0,0l0,0l0,0l0,0l0,0l0,0l0,0l0,0l0,0l0,0l0,0c0,0,0,0,0,0l0,0
		l0,0c-0.1,0-0.1,0.1-0.2,0.1l0,0c0,0,0,0-0.1-0.1c0,0,0,0,0,0c0,0,0.1,0,0.1-0.1c0,0,0,0,0,0c0,0,0,0,0,0l0,0l0,0
		c0,0,0.1,0,0.1-0.1l0,0l0,0l0,0c0,0,0,0,0-0.1l0,0l0,0c0,0,0,0,0,0l0,0l0,0l0,0l0,0c0,0,0,0,0,0c0,0-0.1,0.1-0.1,0.1
		c0,0,0,0-0.1,0.1c0,0-0.1,0.1-0.1,0.1c0,0,0,0-0.1,0l0,0c0,0,0,0,0,0l0,0l0,0l0,0l0,0c0,0,0,0,0,0c0,0,0,0,0,0c0,0,0,0,0,0
		c0,0,0,0,0,0c0,0,0,0,0,0l0,0l0,0l0,0l0,0l0,0l0,0l0,0l0,0l0,0c0,0,0,0,0,0l0,0l0,0l0,0l0,0l0,0l0,0c0,0,0,0,0,0c0,0,0,0,0,0l0,0
		l0,0l0,0l0,0c0,0,0,0,0,0c0,0,0,0,0,0h0l0,0l0,0c0,0.1-0.1,0.1-0.2,0.1c0,0-0.1,0-0.1,0.1c-0.1,0-0.1,0.1-0.2,0.1c0,0,0,0-0.1,0
		c0,0,0,0-0.1,0h0c0,0,0.1-0.1,0.1-0.1l0,0c0,0,0,0,0,0l0,0l0,0l0,0l0,0l0,0l0,0c0,0,0.1,0,0.1-0.1l0,0c0,0-0.1,0-0.1,0.1
		c0,0-0.1,0-0.1,0.1c-0.1,0-0.1,0.1-0.2,0.1c0,0,0,0-0.1,0c0,0,0,0-0.1,0h0l0,0c0,0,0-0.1,0-0.1l0,0l0,0l0,0l0,0l0,0
		c0,0,0,0,0.1-0.1l0,0l0,0l0,0l0,0l0,0l0,0l0,0l0,0l0,0l0,0l0,0l0,0c0,0-0.1,0-0.1,0.1c0,0-0.1,0-0.1,0c0,0,0,0,0,0l0,0
		c0,0-0.1,0.1-0.1,0.1c0,0,0,0,0,0l0,0l0,0l0,0l0,0l0,0l0,0c0,0,0,0,0,0l0,0l0,0l0,0l0,0l0,0c0,0,0,0,0,0l0,0c0,0,0,0,0,0l0,0l0,0
		l0,0l0,0l0,0l0,0c0,0-0.1,0-0.1,0.1c0,0,0,0,0,0l0,0l0,0l0,0l0,0h0c0,0,0,0-0.1,0l0,0l0,0c0,0,0,0,0,0c0,0,0,0-0.1,0c0,0,0,0,0,0
		l0,0l0,0l0,0l0,0l0,0c0,0,0,0,0,0l0,0l0,0c0,0,0,0,0,0c0,0,0,0,0,0c0,0,0,0,0,0c0,0,0,0-0.1,0c-0.1,0-0.1,0-0.1,0c0,0,0,0,0,0
		c0,0,0,0,0-0.1c0,0,0,0,0,0c0,0,0,0,0,0l0,0l0,0l0,0l0,0l0,0c-0.1,0-0.1,0.1-0.2,0.1c0,0,0,0-0.1,0l0,0c0,0,0,0-0.1,0l0,0
		c0,0,0,0,0,0c0,0,0,0,0,0c0,0,0,0,0,0l0,0l0,0c0,0,0,0-0.1-0.1h0l0,0l0,0l0,0l0,0c0,0,0,0-0.1-0.1c0,0,0,0-0.1,0l0,0l0,0l0,0l0,0
		l0,0v-0.1l0,0l0,0c0,0,0,0,0.1,0c0,0,0,0,0,0c0,0,0,0,0-0.1c0,0,0,0-0.1,0l0,0l0,0c0,0,0,0-0.1,0c0,0,0,0-0.1,0c0,0,0,0,0,0l0,0
		c0,0-0.1,0-0.1,0l0,0c0,0,0,0,0-0.1c0,0,0,0,0,0l0,0l0,0l0,0l0,0l0,0l0,0l0,0l0,0l0,0l0,0l0,0c0,0,0,0,0,0c0,0-0.1,0-0.1,0.1l0,0
		c0,0-0.1,0-0.1,0c0,0,0,0-0.1,0c0,0,0,0,0,0c0,0,0,0,0,0c0,0,0,0,0,0l0,0l0,0h0l0,0l0,0l0,0l0,0c0,0,0,0,0.1-0.1c0,0,0,0,0,0
		c0,0,0,0,0,0l0,0c0,0,0,0,0,0l0,0c0,0,0,0-0.1,0c0,0,0,0-0.1,0l0,0c0,0-0.1,0-0.1,0.1l0,0l0,0l0,0l0,0l0,0l0,0c0,0,0,0-0.1,0l0,0
		l0,0l0,0l0,0l0,0l0,0h0l0,0c0,0,0,0,0-0.1l0,0c0,0,0.1-0.1,0.1-0.2l0,0l0,0c0,0-0.1,0.1-0.1,0.1c0,0-0.1,0-0.1,0.1
		c0,0-0.1,0.1-0.2,0.1c0,0-0.1,0-0.1,0c0,0,0,0,0-0.1l0,0l0,0l0,0c0,0,0,0,0-0.1c0,0,0,0,0-0.1c0,0,0,0,0-0.1c0,0,0,0,0-0.1
		c0,0-0.1,0-0.1,0c0,0,0,0-0.1,0c0,0,0,0,0,0l0,0l0,0l0,0c0,0,0,0,0,0l0,0l0,0c0,0,0,0-0.1,0l0,0l0,0l0,0c0,0,0,0-0.1,0
		c0,0,0,0-0.1,0c0,0,0,0,0,0c0,0,0,0,0,0l0,0l0,0c0,0,0,0,0.1-0.1l0,0l0,0l0,0l0,0c0,0,0,0,0,0l0,0c0,0,0,0,0,0c0,0,0,0-0.1,0l0,0
		c0,0-0.1,0.1-0.1,0.1l0,0c0,0,0,0-0.1,0c0,0,0,0,0-0.1c0,0,0,0,0.1-0.1l0,0l0,0l0,0l0,0l0,0l0,0c0,0,0,0,0,0c0,0,0,0,0,0l0,0
		c0,0,0,0,0,0l0,0c-0.1,0-0.1,0.1-0.2,0.1c0,0,0,0,0-0.1c0,0,0-0.1,0-0.1v-0.1l0,0c0,0,0,0.1,0,0.1l0,0c0,0,0,0.1,0,0.1
		c0,0,0,0.1,0,0.1l0,0c0,0,0,0.1-0.1,0.1l0,0l0,0c0,0,0,0,0,0l0,0c0,0,0,0-0.1,0.1c0,0,0,0,0,0c0,0-0.1,0-0.1,0.1c0,0-0.1,0-0.1,0.1
		c0,0,0,0,0,0l0,0l0,0c0,0,0,0-0.1,0c0,0,0,0-0.1,0c-0.1,0-0.2,0-0.3,0l0,0l0,0h-0.1c0,0-0.1,0-0.1,0c0,0,0,0,0,0l0,0c0,0,0,0-0.1,0
		c0,0,0,0-0.1,0l0,0h0l0,0l0,0h0c0,0-0.1,0-0.1,0c0,0,0,0-0.1,0c0,0-0.1,0-0.1,0l0,0c0,0,0,0,0,0l0,0c0,0,0,0-0.1,0l0,0c0,0,0,0,0,0
		l0,0l0,0l0,0l0,0l0,0l0,0c0,0,0,0,0-0.1c0,0,0,0,0-0.1c0,0,0,0,0-0.1l0,0l0,0l0,0c0,0,0,0,0-0.1c0,0,0,0,0-0.1c0,0,0,0,0.1,0
		c0,0,0.1,0,0.1,0c0,0,0,0,0.1,0l0,0c0.1,0,0.1,0.1,0.1,0.1c0,0,0,0,0,0c0,0,0.1,0,0.1,0c0,0,0.1,0,0.1,0c0,0,0,0,0.1,0c0,0,0,0,0,0
		l0,0l0,0l0,0h0c0,0,0,0,0,0l0,0l0,0l0,0l0,0l0,0l0,0c0,0,0,0,0.1-0.1c0,0,0,0,0.1-0.1l0,0c0,0,0-0.1,0-0.2c0,0,0,0,0-0.1l0,0l0,0
		c0,0,0,0,0,0c0,0,0,0,0.1,0c0,0,0,0,0,0l0,0l0,0c0,0,0,0,0.1,0h0l0,0l0,0c0,0,0,0,0,0c0,0,0,0,0.1,0c0,0,0,0,0,0c0,0,0,0,0,0l0,0
		l0,0l0,0l0,0l0,0c0,0,0,0,0.1,0l0,0c0,0,0,0,0.1,0l0,0l0,0c0,0,0,0,0.1,0c0.1,0,0.1,0,0.2,0.1c0,0,0,0,0.1,0l0,0l0,0
		c0,0,0.1,0,0.1,0c0.1,0,0.1,0,0.2,0c0,0,0.1,0,0.1,0l0,0c0,0,0,0,0,0h0.1c0,0,0.1,0,0.1,0l0,0c0.1,0,0.1,0,0.2,0c0,0,0.1,0,0.2,0
		c0.1,0,0.2,0,0.3,0c0,0,0.1,0,0.1,0c0,0,0.1,0,0.1,0l0,0l0,0l0,0c0.1,0,0.1,0,0.1,0c0,0,0,0,0,0l0,0l0,0l0,0l0,0c0,0,0.1,0,0.1,0
		c0,0,0,0,0,0c0,0,0,0,0.1,0l0,0l0,0l0,0c0,0,0,0,0,0c0,0,0,0,0,0l0,0l0,0l0,0l0,0l0,0c0,0,0,0,0,0h0.1l0,0c0.1,0,0.1,0,0.2,0.1
		c0,0,0,0,0,0c0,0,0.1,0,0.1,0c0,0,0,0,0,0c0,0,0,0,0,0v0.1l0,0l0,0c0,0,0,0,0,0.1l0,0l0,0c0,0,0.1,0,0.1,0c0,0,0.1,0,0.1,0
		c0,0,0,0,0.1,0l0,0h0.1l0,0v0.1c0,0,0,0,0,0l0,0l0,0l0,0c0,0,0.1,0,0.1,0h0.1c0,0,0,0,0.1,0c0,0,0,0,0.1,0h0.1c0,0,0,0,0,0.1l0,0
		c0,0,0,0-0.1,0.1l0,0l0,0l0,0l0,0c0,0,0,0,0,0l0,0c0,0,0.1,0,0.1,0c0,0,0,0,0.1,0c0.1,0,0.1,0,0.1,0c0,0,0,0,0,0.1l0,0l0,0
		c0,0,0,0,0,0.1c0,0,0,0,0,0l0,0l0,0l0,0c0,0,0,0,0,0c0,0,0,0,0.1,0c0,0,0.1,0,0.1,0c0,0,0,0,0,0c0,0,0,0,0,0.1c0,0,0.1,0,0.1,0
		c0.1,0,0.1,0,0.1,0h0.1c0,0,0,0,0.1,0c0,0,0,0,0,0l0,0c0,0,0,0,0,0c0,0,0,0,0,0l0,0l0,0l0,0l0,0l0,0l0,0l0,0l0,0l0,0l0,0
		c0,0,0,0,0,0l0,0c0,0,0,0,0,0.1c0,0,0,0.1,0,0.1l0,0l0,0l0,0l0,0c0,0,0,0,0,0l0,0l0,0c0,0,0,0,0,0l0,0l0,0l0,0c0,0,0,0,0,0v0
		c0,0,0-0.1,0-0.1c0,0,0-0.1,0-0.1c0,0,0-0.1,0-0.1c0,0,0-0.1-0.1-0.1c0,0,0,0,0,0c0,0,0,0,0,0l0,0v0l0,0l0,0c0,0,0,0,0,0l0,0
		c0,0,0,0,0,0c0,0,0,0,0,0l0,0c0,0,0,0,0.1,0l0,0l0,0c0,0,0,0,0,0c0,0,0,0,0.1,0v0.1l0,0c0,0,0,0,0,0l0,0l0,0l0,0l0,0l0,0
		c0,0,0,0,0,0c0,0,0,0,0.1,0l0,0c0,0,0.1,0,0.1,0c0,0,0,0,0.1,0c0,0,0,0,0.1,0l0,0l0,0c0,0,0.1,0,0.1,0l0,0l0,0c0,0,0,0,0,0
		c0,0,0,0,0,0.1l0,0l0,0l0,0l0,0l0,0l0,0l0,0c0,0-0.1,0.1-0.1,0.1l0,0c0,0,0,0,0.1,0l0,0c0,0,0,0,0.1,0c0,0,0,0,0,0l0,0l0,0
		c0,0,0,0,0.1,0l0,0l0,0c0,0,0,0,0,0c0,0,0,0,0.1-0.1l0,0l0,0l0,0c0,0,0,0,0.1,0c0,0,0,0,0.1,0l0,0h0l0,0c0,0,0,0,0,0l0,0
		c0,0,0,0,0,0l0,0c0,0,0,0,0,0l0,0l0,0l0,0l0,0l0,0l0,0l0,0l0,0l0,0c0,0-0.1,0-0.1,0.1c0,0,0,0,0,0c0,0-0.1,0.1-0.1,0.1c0,0,0,0,0,0
		l0,0l0,0l0,0l0,0l0,0l0,0l0,0c0,0,0.1-0.1,0.1-0.1l0,0c0,0,0.1,0,0.1-0.1c0,0,0.1-0.1,0.1-0.1c0,0,0.1,0,0.1-0.1l0,0l0,0l0,0l0,0
		c0,0,0,0,0,0c0,0,0,0,0.1,0c0,0,0.1,0,0.1-0.1c0,0,0.1,0,0.1-0.1c0,0,0.1,0,0.1,0c0,0,0.1,0,0.1,0c0,0,0,0,0,0c0,0,0,0,0,0
		c0,0,0,0,0,0.1c0,0,0,0-0.1,0.1c0,0-0.1,0-0.1,0.1c0,0,0,0,0,0l0,0l0,0l0,0l0,0l0,0l0,0l0,0l0,0l0,0l0,0l0,0l0,0l0,0l0,0
		c0.1,0,0.1-0.1,0.2-0.1c0,0,0,0,0,0c0,0,0.1,0,0.1-0.1c0,0,0,0,0,0l0,0c0,0,0.1,0,0.1-0.1c0,0,0.1,0,0.1-0.1c0,0,0.1,0,0.1-0.1
		c0,0,0,0,0,0c0,0,0,0,0,0c0,0,0,0,0.1,0l0,0c0,0,0.1,0,0.1,0l0,0c0,0,0,0,0,0c0,0,0,0,0.1,0c0,0,0,0,0.1,0v0.1l0,0l0,0l0,0l0,0l0,0
		c0,0,0,0.1-0.1,0.1c0,0,0,0-0.1,0l0,0c0.1,0,0.1,0,0.1-0.1c0,0,0,0,0,0c0,0,0,0,0.1,0c0,0,0,0,0,0l0,0c0,0,0.1,0,0.1-0.1
		c0,0,0.1,0,0.1,0c0,0,0.1,0,0.1,0h0l0,0l0,0l0,0c0,0,0,0,0,0h0.1c0,0,0,0,0.1,0c0,0,0,0.1-0.1,0.1c0,0,0,0,0,0c0,0,0,0,0,0l0,0l0,0
		l0,0h0.1c0,0,0.1,0,0.1-0.1c0,0,0,0,0,0l0,0l0,0l0,0l0,0c0,0,0,0,0.1,0c0,0,0.1,0,0.1-0.1c0,0,0,0,0.1,0h0.1c0,0,0,0,0,0
		c0,0,0,0,0,0l0,0c0,0,0,0,0,0.1c0,0,0,0,0,0l0,0c0,0,0,0,0.1,0l0,0c0,0,0.1,0,0.1-0.1c0,0,0,0,0,0c0,0,0,0,0,0h0.1
		c0.1-0.1,0.2,0,0.3,0c0,0,0,0,0.1,0v0l0,0l0,0l0,0c0,0,0,0,0,0l0,0l0,0l0,0l0,0c0,0,0,0,0,0.1l0,0c0,0,0,0,0,0c0,0,0,0,0,0
		c0,0,0.1,0,0.1,0c0,0,0,0,0,0c0,0,0,0,0,0l0,0l0,0l0,0l0,0l0,0c0,0,0.1,0,0.1,0c0,0,0,0,0,0l0,0l0,0c0,0,0,0,0,0l0,0l0,0
		c0,0,0,0,0,0l0,0c0,0,0,0,0,0c0,0,0,0,0,0h0h0.1l0,0l0,0c0.1,0,0.1,0,0.2,0c0,0,0.1,0,0.1,0h0l0,0c0.1,0,0.2,0,0.3,0l0,0l0,0
		c0,0,0.1,0,0.1,0c0,0,0.1,0,0.1,0c0,0,0.1,0,0.1,0c0,0,0,0,0,0l0,0l0,0c0,0,0,0,0,0c0,0,0,0,0,0.1c0,0,0,0,0,0l0,0
		c0,0-0.1,0.1-0.1,0.1l0,0c0,0,0,0,0.1,0c0,0,0,0,0.1,0l0,0l0,0c0.1,0,0.1-0.1,0.2-0.1c0,0,0.1,0,0.1-0.1l0,0l0,0l0,0l0,0l0,0l0,0
		l0,0l0,0l0,0l0,0c0,0,0,0,0.1,0c0,0,0.1,0,0.1-0.1l0,0l0,0l0,0v-0.3h-0.1c0,0,0,0,0,0c0,0,0,0,0,0h0c0,0-0.1,0-0.2,0l0,0
		c-0.1,0-0.3,0-0.5,0c-0.1,0-0.2,0-0.3,0c0,0,0,0-0.1,0c0,0,0,0-0.1,0h-0.1c0,0-0.1,0-0.1,0c-0.1,0-0.2,0-0.2,0c0,0-0.1,0-0.1,0
		s-0.1,0-0.1,0c-0.1,0-0.2,0-0.3,0c0,0,0,0-0.1,0c0,0,0,0-0.1,0c0,0,0,0,0,0l0,0c0,0,0,0-0.1,0c0,0-0.1,0-0.1,0c-0.1,0-0.1,0-0.2,0
		c0,0,0,0,0,0c0,0-0.1,0-0.1,0h0l0,0c0,0,0,0-0.1,0c-0.1,0-0.3,0-0.5,0c0,0,0,0-0.1,0l0,0l0,0c-0.1,0-0.2,0-0.3,0c0,0-0.1,0-0.1,0
		c-0.1,0-0.1,0-0.2,0c0,0-0.1,0-0.1,0l0,0l0,0l0,0c0,0-0.1,0-0.2,0c0,0,0,0-0.1,0l0,0l0,0c0,0-0.1,0-0.1,0c0,0-0.1,0-0.1,0
		c-0.2,0-0.4,0-0.6,0l0,0c0,0,0,0-0.1,0h0h-0.1l0,0c0,0-0.1,0-0.1,0c0,0,0,0-0.1,0c0,0,0,0,0,0c0,0,0,0,0,0c-0.1,0-0.2,0-0.4,0
		c0,0,0,0,0,0c0,0-0.1,0-0.1,0l0,0h-0.1c0,0-0.1,0-0.1,0c0,0,0,0,0,0c0,0,0,0-0.1,0c0,0-0.1,0-0.1,0c0,0,0,0,0,0h-0.1l0,0l0,0l0,0
		c0,0,0,0,0,0c0,0,0,0,0,0c0,0,0,0,0,0c0,0,0,0,0,0c0,0,0,0,0,0c0,0,0,0,0,0c0,0,0,0-0.1,0l0,0c0,0,0,0,0,0h-0.1l0,0c0,0,0,0-0.1,0
		l0,0l0,0c0,0,0,0,0,0c0,0,0,0,0,0c0,0-0.1,0-0.1,0l0,0c0,0,0,0,0,0h-0.1c0,0,0,0,0,0c0,0,0,0,0,0c0,0-0.1,0-0.1,0c0,0,0,0-0.1,0
		c0,0-0.1,0-0.1,0l0,0l0,0c0,0,0,0-0.1,0H23l0,0l0,0l0,0l0,0l0,0l0,0c0,0,0,0,0,0l0,0l0,0l0,0c0,0,0,0-0.1,0l0,0l0,0l0,0l0,0l0,0
		l0,0l0,0c0,0,0,0-0.1,0l0,0l0,0c0,0,0,0,0,0l0,0l0,0l0,0l0,0c-0.1,0-0.1,0-0.2-0.1c0,0,0,0,0,0l0,0c0,0,0,0,0,0h-0.1l0,0
		c0,0,0,0,0,0l0,0c0,0,0,0,0,0c0,0,0,0-0.1,0c0,0,0,0,0,0c0,0,0,0-0.1,0l0,0l0,0c0,0,0,0,0,0c0,0,0,0-0.1,0c0,0-0.1,0-0.2,0l0,0l0,0
		h-0.1l0,0c-0.1,0-0.1,0-0.1,0c0,0,0,0,0,0l0,0c0,0-0.1,0-0.1,0c0,0-0.1,0-0.2,0l0,0l0,0l0,0h0l0,0c0,0-0.1,0-0.1,0c0,0,0,0-0.1,0
		c0,0,0,0,0,0c-0.1,0-0.1,0-0.2,0l0,0h-0.1l0,0l0,0c0,0,0,0,0,0c0,0,0,0,0,0c0,0,0,0,0,0c0,0,0,0,0,0l0,0c0,0,0,0,0,0l0,0
		c0,0,0,0,0,0c0,0-0.1,0-0.1,0c-0.1,0-0.2,0-0.3,0c0,0,0,0,0,0h0l0,0l0,0c0,0,0,0,0,0l0,0c0,0,0,0,0,0c-0.1,0-0.1,0.1-0.2,0.1
		c0,0,0,0,0,0l0,0l0,0l0,0l0,0l0,0l0,0c0,0,0,0,0,0l0,0l0,0l0,0c0,0,0,0,0,0l0,0c0,0-0.1,0-0.1,0.1l0,0l0,0l0,0l0,0l0,0
		c-0.1,0-0.2,0.1-0.2,0.1s-0.1,0-0.2,0c-0.1,0-0.1,0-0.2,0l0,0l0,0l0,0c0,0,0,0,0,0.1c0,0,0,0.1,0,0.1c0,0,0,0,0,0.1l0,0
		c0,0,0,0,0,0c0,0,0,0,0,0.1l0,0l0,0c0,0,0,0,0,0l0,0l0,0l0,0l0,0l0,0c0,0,0,0,0,0c0,0,0,0,0,0c0,0-0.1,0-0.1,0c0,0-0.1,0-0.1,0
		c0,0,0,0,0,0c-0.1,0-0.2,0-0.3,0l0,0c0,0-0.1,0-0.1,0c-0.1,0-0.2,0-0.4,0c0,0,0,0,0,0c-0.1,0-0.2,0-0.2,0c0,0,0,0,0,0l0,0l0,0l0,0
		l0,0h-0.1c0,0-0.1,0-0.1,0c0,0,0,0,0,0c0,0-0.1,0-0.1,0c0,0-0.1,0-0.1,0c0,0,0,0-0.1,0c0,0,0,0,0,0h-0.1c-0.1,0-0.2,0-0.4,0
		c0,0-0.1,0-0.1,0h-0.1l0,0c-0.1,0-0.1,0-0.2,0c0,0,0,0-0.1,0l0,0c0,0-0.1,0-0.2,0c-0.1,0-0.2,0-0.3,0c-0.1,0-0.1,0-0.2,0l0,0l0,0
		c-0.1,0-0.1,0-0.2,0l0,0l0,0l0,0l0,0l0,0l0,0l0,0c0,0-0.1,0-0.1,0c-0.1,0-0.1,0-0.2,0c-0.1,0-0.1,0-0.2,0s-0.1,0-0.1,0
		c0,0,0,0-0.1,0c-0.1,0-0.2,0-0.4,0c-0.1,0-0.2,0-0.2,0c0,0-0.1,0-0.1,0s-0.1,0-0.1,0c-0.1,0-0.2,0-0.3,0h-0.1V74c0,0,0.1,0,0.1-0.1
		c0,0,0,0,0.1,0c0,0,0,0,0.1,0c0,0,0,0,0.1,0c0,0,0,0,0.1,0c0,0,0,0.1-0.1,0.1l0,0l0,0l0,0l0,0c0,0,0,0,0,0c0,0-0.1,0.1-0.1,0.1
		c0,0,0,0,0,0.1l0,0l0,0l0,0l0,0l0,0l0,0l0,0c0,0,0,0,0.1,0l0,0l0,0l0,0c0,0,0,0,0,0c0,0,0,0,0.1,0l0,0l0,0l0,0c0,0,0,0,0,0l0,0l0,0
		l0,0l0,0c0,0,0,0,0,0c0,0,0.1,0,0.1,0c0,0,0,0,0.1,0c0,0,0,0,0,0c0,0,0,0,0,0.1l0,0l0,0l0,0l0,0l0,0l0,0l0,0l0,0l0,0l0,0l0,0l0,0
		c0,0,0,0,0,0l0,0l0,0l0,0l0,0l0,0l0,0c0,0,0,0,0,0c0,0,0.1,0,0.1-0.1c0,0,0.1,0,0.1-0.1l0,0l0,0l0,0l0,0c0,0,0,0,0.1,0l0,0
		c0,0,0,0,0.1,0l0,0l0,0l0,0c0,0,0.1,0,0.1,0l0,0h0.1h0.1c0,0,0,0,0,0l0,0l0,0c0,0,0,0-0.1,0.1c0,0,0,0,0,0l0,0l0,0
		c0,0-0.1,0.1-0.1,0.1c0,0,0,0,0,0c0,0,0,0,0,0l0,0l0,0l0,0c0,0,0,0,0.1,0c0,0,0.1,0,0.1,0c0,0,0,0,0,0s0.1,0,0.2-0.1c0,0,0,0,0.1,0
		c0,0,0.1,0,0.1,0c0,0,0,0,0.1,0c0,0,0,0,0.1,0l0,0l0,0l0,0c0,0-0.1,0-0.1,0.1c0,0,0,0,0,0l0,0l0,0l0,0l0,0l0,0c0,0-0.1,0.1-0.1,0.1
		c0,0,0.1,0,0.1,0c0,0,0,0,0,0c0,0,0,0,0,0l0,0l0,0c0,0,0,0,0.1,0l0,0l0,0c0,0,0.1,0,0.1-0.1c0,0,0.1,0,0.1,0l0,0l0,0l0,0h0
		c0,0,0,0,0,0l0,0c0,0,0,0,0.1,0c0,0,0,0.1-0.1,0.1l0,0l0,0l0,0l0,0l0,0c0,0,0,0,0,0l0,0l0,0l0,0c0,0,0,0,0,0c0,0,0,0,0,0
		c0.1,0,0.1,0,0.2-0.1c0,0,0.1,0,0.1,0l0,0l0,0l0,0h0l0,0l0,0l0,0c0,0,0,0,0.1,0l0,0c0,0,0.1,0,0.1,0l0,0c0,0,0,0,0.1,0
		c0,0,0,0,0.1,0h0l0,0l0,0c0,0,0,0,0,0c0,0,0,0-0.1,0.1l0,0l0,0l0,0c0,0,0,0,0,0l0,0c0,0,0,0-0.1,0l0,0c0,0,0,0,0,0c0,0,0.1,0,0.1,0
		c0,0,0,0,0,0s0.1,0,0.1-0.1l0,0c0,0,0,0,0.1,0c0,0,0,0,0.1,0c0,0,0,0,0.1,0c0,0,0,0,0,0c0,0,0,0,0,0l0,0l0,0l0,0c0,0,0.1,0,0.1,0
		c0.3,0,0.6,0,0.9,0c0.1,0,0.3,0,0.4,0v0.1l0,0l0,0c0,0,0,0,0,0c0,0,0,0,0,0c0,0,0,0,0,0c0,0,0,0,0.1,0c0,0,0.1,0,0.1,0l0,0h0.1h0.1
		c0,0,0,0,0,0.1c0,0,0,0,0,0.1c0,0,0.1,0,0.1,0c0,0,0.1,0,0.1,0l0,0l0,0l0,0l0,0c0,0,0,0,0,0l0,0l0,0c0,0,0,0,0.1,0c0,0,0,0,0.1,0
		c0,0,0,0.1,0,0.1c0,0,0,0,0.1,0c0,0,0,0,0,0c0,0,0,0,0.1,0l0,0l0,0l0,0c0,0,0,0,0.1,0c0,0,0,0,0.1,0c0,0,0,0,0,0v0l0,0c0,0,0,0,0,0
		l0,0l0,0l0,0c0,0,0.1-0.1,0.1-0.1l0.1,0l0,0l0,0l0,0c0,0,0,0,0,0l0,0c0,0,0,0,0,0l0,0l0,0l0,0c0,0,0,0,0.1,0l0,0c0,0,0,0,0,0
		c0,0,0,0,0,0.1c0,0,0,0-0.1,0l0,0l0,0l0,0l0,0c0,0,0,0,0,0l0,0l0,0H19l0,0h0.1c0,0,0.1,0,0.2-0.1c0,0,0,0,0.1,0l0,0l0,0l0,0l0,0
		l0,0c0,0,0,0,0,0.1c0,0,0,0,0,0c0,0-0.1,0.1-0.1,0.1c0,0,0,0,0,0c0.1,0,0.1-0.1,0.2-0.1c0,0,0.1,0,0.1,0c0,0,0.1-0.1,0.2-0.1l0,0
		l0,0c0,0,0,0,0,0c0,0,0,0,0,0l0,0c0,0,0,0-0.1,0.1l0,0c0,0,0,0-0.1,0.1l0,0c0,0,0,0,0,0l0,0l0,0c0,0,0.1,0,0.1-0.1
		c0.1,0,0.1,0,0.2-0.1l0,0l0,0l0,0l0,0c0,0,0,0,0,0c0,0,0,0,0.1,0h0.1l0,0c0,0,0,0,0,0l0,0.1l0,0c0,0,0,0-0.1,0l0,0l0,0l0,0l0,0l0,0
		l0,0l0,0l0,0l0,0c0,0,0,0,0,0l0,0l0,0c0,0,0,0,0.1,0c0,0,0,0,0.1,0c0,0,0,0,0.1,0c0,0,0,0,0.1,0c0,0,0.1-0.1,0.1-0.1l0,0l0,0
		c0,0,0,0,0,0l0,0l0,0l0,0c0,0,0,0,0,0l0,0c0,0,0.1,0,0.1,0c0,0,0.1,0,0.1-0.1l0,0l0,0l0,0c0,0,0,0,0,0.1l0,0l0,0l0,0c0,0,0,0,0,0
		c0,0,0,0-0.1,0.1l0,0l0,0l0,0c0,0,0,0,0.1,0c0,0,0,0,0.1,0l0,0c0,0,0,0,0.1,0c0,0,0.1,0,0.1,0l0,0l0,0l0,0l0,0c0,0,0,0,0,0l0,0h0.1
		l0,0l0,0l0,0c0,0,0.1,0,0.1,0h0c0,0,0,0,0,0.1l0,0l0,0l0,0l0,0c0,0,0.1,0,0.1,0c0,0,0,0,0.1,0l0,0l0,0l0,0l0,0c0,0,0,0,0,0l0,0h0.1
		l0,0l0,0l0,0l0,0l0,0c0,0,0,0,0.1,0c0,0,0,0,0.1,0l0,0h0.1c0,0,0,0,0.1,0c0,0,0.1,0,0.1,0c0.1,0,0.1,0,0.2,0c0.1,0,0.1,0,0.2,0
		c0,0,0.1,0,0.1,0c0,0,0.1,0,0.1,0c0,0,0.1,0,0.1,0c0.1,0,0.1,0,0.2,0h0.1l0,0l0,0c0,0,0.1,0,0.1,0.1l0,0c0,0,0,0,0,0l0,0l0,0l0,0
		l0,0l0,0l0,0l0,0h0l0,0l0,0l0,0l0,0c0,0,0,0,0,0c0,0,0,0,0.1,0.1c0,0,0,0,0,0l0,0l0,0c0,0,0,0,0,0l0,0c0,0,0,0,0.1,0l0,0
		c0,0,0,0,0,0l0,0l0,0c0,0,0.1,0,0.1,0.1c0,0,0,0,0.1,0c0,0,0,0,0.1,0l0,0c0,0,0,0,0,0c0,0,0,0,0.1,0c0,0,0.1,0,0.1,0.1
		c0,0,0.1,0,0.1,0.1l0,0c0,0,0.1,0,0.1,0.1c0,0,0.1,0,0.1,0.1l0,0l0,0c0,0,0,0,0.1,0l0,0l0,0c0,0,0,0,0.1,0l0,0l0,0l0,0l0,0
		c0,0,0.1,0,0.1,0.1c0,0,0,0,0.1,0c0,0,0,0,0,0c0,0,0,0,0.1,0l0,0l0,0l0,0l0,0l0,0l0,0c0,0,0,0,0.1,0l0,0l0,0l0,0l0,0l0,0l0,0
		c0,0,0.1,0.1,0.1,0.1l0,0l0,0l0,0l0,0l0,0c0,0,0,0,0.1,0.1l0,0l0,0c0,0,0,0,0,0l0,0c0,0,0,0,0,0.1l0,0l0,0c0,0,0,0,0,0c0,0,0,0,0,0
		l0,0l0,0c0,0,0,0.1,0,0.1l0,0c0,0,0,0,0,0.1l0,0l0,0l0,0c0,0,0,0,0,0.1c0,0,0,0,0,0.1l0,0c0,0,0,0,0,0l0,0l0,0c0,0,0,0.1,0,0.1l0,0
		l0,0l0,0l0,0c0,0,0,0,0,0.1c0,0,0,0,0,0c0,0,0,0,0,0.1v0l0,0c0,0,0,0,0,0l0,0c0,0,0,0.1,0,0.1c0,0,0,0.1,0,0.1c0,0,0,0,0,0l0,0
		c0,0,0,0.1,0,0.1c0,0,0,0,0,0c0,0,0,0,0,0c0,0,0,0.1,0,0.1c0,0,0,0.1-0.1,0.1l0,0l0,0l0,0l0,0l0,0l0,0l0,0l0,0l0,0l0,0l0,0l0,0
		c0,0,0,0-0.1,0c0,0-0.1,0-0.1,0c0,0,0,0,0,0l0,0h-0.1h-0.1l0,0c0,0,0.1,0,0.1,0l0,0l0,0l0,0l0,0c0.1,0,0.1,0,0.1-0.1l0,0
		c0,0,0,0,0,0l0,0l0,0c0,0,0,0,0.1-0.1c0,0,0,0,0,0l0,0c0,0,0,0,0,0c0,0,0,0,0,0c0,0,0,0,0-0.1l0,0l0,0c0,0-0.1,0-0.1,0l0,0
		c0,0,0,0-0.1,0l0,0l0,0c0,0-0.1,0-0.1,0l0,0l0,0l0,0l0,0l0,0c0,0,0,0,0,0c0,0-0.1,0-0.1,0c0,0,0,0-0.1,0l0,0c0,0,0,0,0-0.1
		c0,0,0,0,0,0l0,0l0,0l0,0l0,0c0,0,0,0,0,0c0,0,0.1,0,0.1-0.1c0,0,0,0,0.1,0c0,0,0,0,0.1,0c0,0,0,0,0,0c0,0,0,0,0,0l0,0
		c0,0-0.1,0-0.1,0c0,0,0,0,0,0l0,0l0,0c0,0,0,0-0.1,0c0,0,0,0-0.1,0c0,0,0,0-0.1,0c0,0-0.1,0-0.1,0c0,0,0,0,0-0.1c0,0,0,0,0,0
		c0,0,0,0,0,0c0,0,0.1,0,0.1-0.1l0,0l0,0c0,0,0,0,0.1,0l0,0l0,0l0,0l0,0l0,0l0,0c0,0,0,0,0-0.1c0,0-0.1,0-0.1,0
		c-0.1,0-0.1,0-0.2,0.1c0,0,0,0-0.1,0c0,0-0.1,0-0.1,0c0,0,0,0,0,0c0,0,0,0,0,0c0,0,0,0,0,0l0,0l0,0l0,0l0,0c0,0,0,0,0,0
		c0,0,0,0,0,0l0,0l0,0c0,0,0,0,0.1,0c0,0,0.1-0.1,0.1-0.1c0,0,0,0,0,0c0,0,0,0-0.1,0c0,0,0,0,0,0l0,0c0,0-0.1,0-0.1,0c0,0,0,0-0.1,0
		l0,0l0,0l0,0c0,0,0,0-0.1,0c0,0,0,0,0,0l0,0c-0.1,0-0.1,0-0.2,0l0,0l0,0l0,0l0,0c0,0,0,0,0.1,0l0,0l0,0l0,0l0,0l0,0l0,0l0,0l0,0
		c0,0,0,0,0,0l0,0c0,0,0,0,0,0l0,0l0,0l0,0l0,0l0,0c0,0,0,0,0,0l0,0l0,0l0,0l0,0l0,0l0,0c0,0,0-0.1,0-0.2l0,0l0,0l0,0l0,0l0,0l0,0
		l0,0l0,0c0,0-0.1,0-0.1,0c0,0,0,0,0,0c0,0,0,0,0,0c0,0,0,0,0,0l0,0l0,0c0,0,0,0,0,0l0,0l0,0l0,0l0,0l0,0l0,0l0,0l0,0
		c0,0,0-0.1,0.1-0.1c0,0,0,0,0-0.1c0,0,0,0,0,0l0,0l0,0c0,0,0,0,0,0.1l0,0l0,0l0,0l0,0l0,0l0,0l0,0l0,0l0,0c0,0,0,0,0,0l0,0l0,0l0,0
		l0,0c0,0,0,0,0,0l0,0l0,0l0,0l0,0l0,0c0,0-0.1,0-0.1,0.1c0,0-0.1,0-0.1,0.1c0,0,0,0-0.1,0.1c0,0-0.1,0-0.1,0.1l0,0c0,0,0,0-0.1,0
		c0,0.1,0.1,0,0.1,0c0,0,0,0,0,0c0,0,0,0,0.1,0l0,0c0,0,0,0,0,0c0,0,0,0,0,0.1c0,0,0,0-0.1,0c0,0,0,0,0,0c0,0-0.1,0-0.1,0
		c0,0,0,0-0.1,0c0,0,0,0-0.1-0.1c0,0-0.1-0.1-0.1-0.1c0,0,0,0-0.1-0.1l0,0l0,0l0,0l0,0l0,0c0,0,0,0,0,0c0,0,0,0-0.1,0
		c0,0-0.1,0-0.1-0.1l0,0l0,0l0,0l0,0c0,0,0,0-0.1,0c0,0-0.1,0-0.1,0c0,0,0,0,0,0l0,0c0,0,0.1,0,0.1-0.1l0,0l0,0c0,0,0,0,0,0
		c0,0,0,0,0,0l0,0l0,0l0,0l0,0l0,0l0,0l0,0l0,0l0,0l0,0l0,0l0,0l0,0c-0.1,0-0.2,0.1-0.2,0.1l0,0c0,0,0,0,0,0c0,0-0.1,0-0.1,0l0,0
		c0,0,0,0,0,0c0,0,0,0-0.1,0c0,0-0.1,0-0.1,0l0,0l0,0c0,0,0,0,0,0l0,0l0,0l0,0l0,0l0,0l0,0l0,0l0,0l0,0c0,0,0,0,0,0l0,0
		c0,0,0.1,0,0.1-0.1l0,0c0,0-0.1,0-0.1,0h-0.1l0,0c0,0,0,0-0.1,0l0,0c0,0-0.1,0-0.1,0l0,0c0,0,0,0-0.1,0c0,0,0,0,0-0.1c0,0,0,0,0,0
		c0,0,0,0,0,0c0,0,0.1,0,0.1-0.1l0,0c0,0,0,0,0.1-0.1h-0.1l0,0c0,0,0,0-0.1,0l0,0l0,0l0,0c0,0,0,0-0.1,0l0,0h-0.1l0,0l0,0l0,0l0,0
		l0,0l0,0l0,0l0,0l0,0l0,0c0,0,0,0,0,0c0,0,0.1,0,0.1-0.1c0,0,0,0,0,0c-0.1,0-0.1,0-0.2,0.1c0,0,0,0-0.1,0c0,0,0,0,0,0
		c0,0,0,0-0.1,0c0,0-0.1,0-0.1,0c0,0,0,0,0,0l0,0l0,0l0,0l0,0l0,0c0,0,0,0,0.1-0.1c0,0,0.1,0,0.1-0.1c0,0-0.1,0-0.1,0c0,0,0,0-0.1,0
		c0,0,0,0-0.1,0c0,0,0,0,0,0c0,0,0,0,0,0c0,0,0,0,0,0c0,0-0.1,0-0.1,0l0,0c0,0,0,0,0-0.1c0,0,0.1-0.1,0.1-0.1l0,0l0,0l0,0
		c0,0,0,0,0.1,0l0,0l0,0l0,0l0,0l0,0l0,0l0,0l0,0l0,0l0,0l0,0c0,0,0,0-0.1,0l0,0c0,0,0,0-0.1,0l0,0l0,0l0,0l0,0l0,0l0,0
		c0,0-0.1,0-0.1,0c0,0,0,0-0.1,0c0,0,0,0-0.1,0c0,0,0,0-0.1,0c0,0,0,0,0,0c0,0,0,0,0,0l0,0l0,0l0,0c0,0,0,0,0,0c0,0,0.1,0,0.1-0.1
		l0,0l0,0c0,0,0.1,0,0.1-0.1c0,0,0,0,0.1-0.1l0,0c0,0-0.1,0-0.1,0c0,0-0.1,0-0.1,0c0,0-0.1,0-0.1,0l0,0l0,0c0,0,0,0-0.1,0l0,0
		c0,0,0,0-0.1,0l0,0c0,0,0,0,0,0c0,0,0,0,0,0c0,0,0,0,0,0l0,0l0,0l0,0l0,0l0,0c0,0,0,0,0.1,0.1c0,0,0,0.1,0.1,0.1c0,0,0,0,0,0.1l0,0
		l0,0c0,0,0,0,0,0l0,0c0,0,0,0,0,0c0,0,0,0,0.1,0c0,0,0,0,0.1,0.1c0,0,0,0,0,0l0,0l0,0l0,0c0,0,0,0,0.1,0.1l0,0c0,0,0,0,0.1,0
		c0,0,0.1,0,0.1,0.1l0,0l0,0l0,0l0,0l0,0l0,0l0,0l0,0c0,0,0,0,0,0c0,0,0,0,0.1,0.1c0,0,0,0,0,0l0,0c0,0,0,0,0,0l0,0l0,0l0,0l0,0l0,0
		l0,0l0,0l0,0l0,0c0,0,0,0,0,0l0,0l0,0l0,0l0,0l0,0l0,0l0,0l0,0l0,0l0,0l0,0l0,0l0,0l0,0l0,0l0,0l0,0l0,0l0,0c0,0,0,0,0,0l0,0l0,0
		l0,0l0,0l0,0l0,0l0,0l0,0l0,0l0,0l0,0l0,0l0,0l0,0l0,0l0,0l0,0l0,0c0,0,0,0,0,0c0,0,0,0,0,0l0,0l0,0c0,0,0.1,0,0.1,0.1l0,0l0,0
		c0,0,0,0,0,0v0c0,0,0,0,0,0c0,0,0,0,0,0.1c0,0,0,0,0,0c0,0.1,0.1,0.1,0.1,0.2c0,0,0,0,0,0.1c0,0,0,0,0,0c0,0,0,0,0,0c0,0,0,0,0,0.1
		c0,0,0,0.1,0,0.1s0,0,0,0.1c0,0,0,0.1,0,0.1c0,0,0,0.1,0,0.1c0,0,0,0,0,0c0,0-0.1,0.1-0.1,0.1l0,0l0,0c0,0-0.1,0-0.1,0.1
		c0,0-0.1,0-0.1,0.1l0,0l0,0c0,0,0,0,0,0l0,0c0.1,0,0.1,0,0.2-0.1c0,0,0,0,0,0l0,0c0,0,0,0,0.1,0l0,0c0,0,0.1,0,0.1-0.1l0,0l0,0
		c0,0,0,0,0,0l0,0l0,0l0,0l0,0l0,0l0,0l0,0l0,0l0,0c0,0,0,0,0,0l0,0v0.1c0,0,0,0,0,0.1c0,0,0,0,0,0.1l0,0l0,0l0,0l0,0l0,0l0,0l0,0
		l0,0l0,0l0,0l0,0l0,0l0,0l0,0l0,0l0,0c0,0,0,0,0,0l0,0l0,0l0,0c0,0,0,0,0,0c0,0,0,0,0,0c0,0,0,0-0.1,0l0,0l0,0l0,0c0,0,0.1,0,0.1,0
		c0,0,0,0,0.1,0l0,0c0,0,0,0,0,0l0,0c0,0,0,0,0,0c0,0,0,0,0,0l0,0l0,0c0,0,0,0,0.1-0.1l0,0l0,0l0,0l0,0l0,0l0,0l0,0l0,0c0,0,0,0,0,0
		l0,0c0,0,0,0,0,0.1v0c0,0,0,0,0,0.1l0,0c0,0,0,0,0,0l0,0l0,0l0,0l0,0l0,0c0,0-0.1,0-0.1,0.1c0,0,0,0,0,0c0,0,0,0,0,0l0,0l0,0l0,0
		l0,0l0,0l0,0c0,0,0,0,0.1,0c0,0,0.1,0,0.1,0c0,0,0,0,0.1,0c0,0,0,0,0,0c0,0,0,0,0,0c0,0,0,0,0,0c0,0,0.1-0.1,0.1-0.1
		c0,0,0,0.1,0,0.1l0,0l0,0c0,0,0,0-0.1,0.1c0,0,0,0,0,0c0,0-0.1,0-0.1,0.1c0,0-0.1,0-0.1,0.1c0,0,0,0,0,0l0,0c0,0,0,0,0.1,0
		c0,0,0,0,0,0c0,0,0.1,0,0.1,0c0,0,0,0,0,0c0,0,0,0,0,0c0,0,0,0-0.1,0l0,0c0,0,0,0,0,0l0,0l0,0c0,0,0,0-0.1,0c0,0-0.1,0-0.1,0l0,0
		l0,0l0,0l0,0l0,0l0,0l0,0c0,0,0,0,0,0c0,0,0,0,0-0.1l0,0l0,0l0,0l0,0l0,0l0,0l0,0c0,0,0,0,0,0c0,0,0,0,0,0c0,0,0,0,0,0c0,0,0,0,0,0
		l0,0c0,0,0,0,0-0.1c0,0,0-0.1-0.1-0.1l0,0c0,0,0,0-0.1-0.1c0,0,0,0,0,0l0,0l0,0l0,0l0,0l0,0l0,0l0,0l0,0l0,0l0,0c0,0,0,0,0,0l0,0
		l0,0l0,0l0,0c0,0,0,0,0,0l0,0l0,0l0,0l0,0c0,0,0,0,0,0l0,0l0,0l0,0l0,0l0,0l0,0l0,0l0,0l0,0l0,0l0,0c0,0-0.1,0-0.1-0.1l0,0l0,0l0,0
		l0,0l0,0l0,0c0,0,0,0,0,0l0,0c0,0,0,0,0,0c0,0,0,0-0.1,0l0,0c0,0,0,0,0,0l0,0c0,0,0,0-0.1,0l0,0l0,0l0,0c0,0,0,0,0,0c0,0,0,0,0,0
		l0,0l0,0l0,0l0,0l0,0l0,0l0,0l0,0l0,0l0,0l0,0l0,0l0,0l0,0l0,0l0,0l0,0l0,0c0,0,0,0,0,0l0,0l0,0l0,0l0,0l0,0l0,0l0,0c0,0,0,0,0,0
		c0,0,0,0-0.1,0l0,0c0,0,0,0,0,0c0,0,0,0,0.1,0c0,0,0,0,0,0l0,0l0,0l0,0l0,0l0,0l0,0l0,0l0,0c0,0,0,0,0.1,0c0,0,0,0,0,0l0,0l0,0
		c0,0,0.1-0.1,0.1-0.1l0,0c-0.1,0-0.1,0.1-0.2,0.1c0,0,0,0-0.1,0c0,0,0,0-0.1,0c0,0-0.1,0.1-0.1,0.1l0,0l0,0l0,0h-0.1l0,0l0,0
		c0,0,0,0,0,0c0.1-0.1,0.1-0.1,0.2-0.2l0,0l0,0l0,0l0,0c0,0,0,0,0,0l0,0c0,0,0,0,0.1-0.1l0,0l0,0l0,0h0l0,0c0,0,0,0,0,0l0,0
		c0,0,0,0,0,0l0,0c0,0-0.1,0-0.1,0l0,0l0,0l0,0l0,0l0,0l0,0l0,0c0,0,0,0-0.1,0l0,0l0,0c0,0,0,0,0,0c0,0,0,0,0,0l0,0l0,0c0,0,0,0,0,0
		c0,0,0,0,0.1,0c0,0,0,0,0.1,0l0,0l0,0l0,0l0,0c0,0,0,0,0.1,0c0,0,0,0,0.1,0c0,0,0,0,0,0l0,0l0,0l0,0c0,0,0,0.1,0,0.1l0,0l0,0l0,0
		l0,0l0,0l0,0H21l0,0c0,0,0,0,0,0l0,0l0,0l0,0c0,0,0,0,0,0c0,0,0.1,0,0.1,0.1c0,0,0,0,0.1,0c0,0,0,0,0,0l0,0l0,0l0,0
		c0,0,0.1,0,0.1,0.1l0,0l0,0l0,0l0,0l0,0l0,0l0,0l0,0c0,0,0.1,0,0.1,0l0,0l0,0l0,0c0,0,0,0,0,0c0,0,0,0,0,0l0,0c0,0,0,0,0,0
		c0,0,0,0,0.1,0.1l0,0l0,0l0,0l0,0c0,0,0,0,0,0l0,0l0,0l0,0l0,0l0,0l0,0l0,0l0,0l0,0l0,0l0,0l0,0l0,0l0,0l0,0l0,0c0,0,0,0,0,0.1
		c0,0,0,0,0,0c0,0,0,0,0,0v0.1l0,0c0,0,0,0,0.1,0l0,0l0,0c0,0,0,0,0,0c0,0,0,0,0,0l0,0l0,0l0,0c0,0,0,0.1,0,0.1v0.1l0,0c0,0,0,0,0,0
		l0,0l0,0l0,0l0,0l0,0l0,0l0,0l0,0c0,0,0,0-0.1,0V78l0,0l0,0l0,0l0,0l0,0l0,0l0,0c0,0,0,0,0,0c0,0,0,0,0-0.1c0,0,0,0.1-0.1,0.1l0,0
		l0,0l0,0l0,0l0,0c0,0,0,0-0.1,0c0,0,0,0,0,0l0,0l0,0l0,0c0,0,0,0-0.1,0l0,0l0,0l0,0l0,0l0,0l0,0h0c0,0,0,0,0,0c0,0-0.1,0-0.1,0l0,0
		l0,0l0,0l0,0c0,0,0,0,0,0c0,0,0,0,0.1,0h0l0,0l0,0l0,0l0,0c0,0,0,0,0,0l0,0c0,0,0,0,0,0c0,0,0,0,0,0l0,0l0,0c0,0-0.1,0-0.1,0.1l0,0
		c0,0,0,0-0.1,0l0,0l0,0c0,0-0.1,0-0.1,0l0,0l0,0c0,0-0.1,0-0.1,0h-0.1c0,0,0,0,0,0c0,0,0,0,0.1,0l0,0c0,0,0,0,0.1,0c0,0,0,0,0,0
		l0,0c0,0,0,0,0.1,0l0,0l0,0l0,0l0,0l0,0l0,0l0,0l0,0c0,0,0,0,0,0l0,0c0,0,0,0,0,0c0,0,0,0-0.1,0c0,0,0,0-0.1,0c0,0,0,0-0.1,0
		c0,0,0,0-0.1,0l0,0c0,0,0,0-0.1,0l0,0c0,0-0.1,0-0.1,0h-0.1c0,0,0,0,0,0l0,0l0,0c0,0,0,0,0,0l0,0c0,0,0,0,0.1,0c0,0,0.1,0,0.1,0
		c0,0,0.1,0,0.1-0.1l0,0c0,0,0,0,0,0l0,0l0,0l0,0l0,0c0,0-0.1,0-0.1,0c0,0,0,0-0.1,0c0,0,0,0,0,0l0,0c0,0-0.1,0-0.1,0c0,0,0,0-0.1,0
		c0,0-0.1,0-0.1,0h-0.1l0,0l0,0c0,0,0,0,0,0l0,0l0,0l0,0l0,0c0,0,0,0,0,0l0,0l0,0l0,0c0,0,0,0,0,0c0,0,0.1,0,0.1-0.1c0,0,0,0,0,0
		l0,0l0,0c-0.1,0-0.1,0-0.2,0.1c0,0-0.1,0-0.1,0.1c0,0,0,0-0.1,0l0,0l0,0c0,0-0.1,0-0.1,0l0,0c0,0,0,0,0,0c0,0,0.1,0,0.1-0.1
		c0,0,0,0,0,0c0,0,0,0,0,0l0,0l0,0c0,0,0,0,0,0c0,0,0,0,0,0c0,0,0,0,0,0l0,0l0,0c0,0-0.1,0-0.1,0c0,0,0,0-0.1,0l0,0
		c-0.1,0-0.1,0-0.2,0.1c0,0,0,0-0.1,0h-0.1c0,0,0,0-0.1,0l0,0l0,0c0,0,0,0,0,0l0,0l0,0l0,0l0,0l0,0l0,0l0,0l0,0l0,0c0,0,0,0,0.1,0
		l0,0l0,0c0,0,0.1,0,0.1-0.1c0,0-0.1,0-0.1,0l0,0c0,0,0,0-0.1,0l0,0l0,0l0,0c0,0,0,0-0.1,0c0,0,0,0,0,0c0,0-0.1,0-0.1,0v-0.1
		c0,0,0.1-0.1,0.1-0.1l0,0l0,0l0,0c0,0,0,0,0,0l0,0l0,0c0,0,0.1,0,0.1-0.1h0l0,0c0,0-0.1,0-0.1,0.1c0,0-0.1,0-0.1,0c0,0,0,0,0,0l0,0
		l0,0l0,0l0,0h-0.1c0,0,0,0-0.1,0v0l0,0l0,0l0,0c0,0,0,0,0.1-0.1c0,0,0,0,0,0c0,0,0,0,0,0l0,0c0,0,0,0,0,0l0,0l0,0l0,0l0,0
		c0,0,0.1-0.1,0.1-0.1l0,0c-0.1,0-0.2,0.1-0.3,0.1c0,0-0.1,0.1-0.1,0.1h0l0,0h-0.1c0,0,0,0,0,0l0,0l0,0l0,0l0,0l0,0v0l0,0
		c0,0,0,0,0.1-0.1l0,0l0.1,0l0,0c0,0,0,0,0,0l0,0l0,0l0,0l0,0l0,0h0l0,0l0,0c0,0-0.1,0-0.1,0c0,0,0,0,0,0c0,0,0,0-0.1,0l0,0l0,0
		c0,0,0,0,0,0c0,0,0,0-0.1,0c0,0-0.1,0-0.1-0.1l0,0l0,0c0,0,0,0-0.1,0l0,0l0,0l0,0l0,0c0,0,0,0-0.1,0l0,0h-0.1c0,0,0,0-0.1,0h0l0,0
		l0,0l0,0c0,0,0,0-0.1,0l0,0l0,0l0,0l0,0l0,0c0,0,0,0-0.1,0l0,0l0,0l0,0l0,0c0,0,0,0,0,0l0,0l0,0l0,0l0,0l0,0c0,0-0.1,0-0.1,0.1
		c0,0,0,0-0.1,0l0,0c0,0,0,0-0.1,0l0,0l0,0l0,0h-0.1c0,0,0,0,0,0c0,0,0.1-0.1,0.1-0.1l0,0l0,0l0,0l0,0l0,0l0,0l0,0l0,0l0,0l0,0
		c0,0,0,0,0,0c0,0,0,0,0.1,0c0,0,0,0,0.1-0.1l0,0l0,0l0,0l0,0l0,0c0,0,0,0,0.1,0c0,0,0,0,0,0l0,0l0,0l0,0l0,0l0,0l0,0l0,0l0,0l0,0
		l0,0l0,0l0,0l0,0l0,0l0,0c0,0,0,0,0,0l0,0l0,0l0,0l0,0c0,0-0.1,0-0.1,0.1c0,0-0.1,0-0.1,0.1l0,0l0,0l0,0l0,0l0,0l0,0l0,0l0,0l0,0
		l0,0l0,0l0,0l0,0l0,0l0,0c0,0,0,0,0,0c0,0,0,0-0.1,0h0l0,0l0,0c0,0,0,0,0,0c0,0,0,0-0.1,0l0,0l0,0l0,0c0,0,0,0,0,0l0,0l0,0l0,0l0,0
		l0,0c0,0,0,0-0.1,0c0,0,0,0-0.1,0l0,0l0,0l0,0l0,0c0,0-0.1,0-0.1,0c0,0,0,0,0-0.1l0,0l0,0l0,0c0,0,0.1-0.1,0.1-0.1l0,0c0,0,0,0,0,0
		l0,0c0.1,0,0.1-0.1,0.2-0.1c0,0,0.1-0.1,0.1-0.1c0,0,0,0,0.1-0.1c0,0,0,0,0.1-0.1c0,0,0,0,0,0c0,0,0,0,0,0c0,0,0,0,0.1-0.1
		c0,0,0,0,0,0l0,0l0,0c0,0,0,0,0-0.1l0,0c0,0,0,0,0.1-0.1c-0.1,0-0.1,0.1-0.1,0.1l0,0l0,0l0,0l0,0l0,0l0,0l0,0l0,0c0,0,0,0-0.1,0
		l0,0l0,0c0,0,0,0-0.1,0l0,0l0,0l0,0l0,0l0,0l0,0l0,0l0,0l0,0c0,0,0,0-0.1,0c0,0-0.1,0.1-0.1,0.1l0,0c0,0,0,0,0,0l0,0c0,0,0,0,0,0
		l0,0l0,0c0,0,0,0-0.1,0l0,0l0,0l0,0l0,0l0,0l0,0c0,0,0,0-0.1,0.1c-0.1,0.1-0.1,0.1-0.2,0.2l0,0l0,0l0,0l0,0l0,0l0,0l0,0l0,0l0,0
		c0,0,0,0,0,0c0,0,0,0,0,0l0,0l0,0l0,0l0,0c0,0,0,0,0,0l0,0c0,0,0,0,0,0l0,0l0,0c0,0-0.1,0-0.1,0c0,0,0,0,0,0c0,0,0,0,0-0.1l0,0l0,0
		l0,0l0,0l0,0l0,0l0.1-0.1c0.1-0.1,0.1-0.1,0.2-0.2l0,0l0,0l0,0l0,0l0,0c0,0,0,0,0.1-0.1c0,0,0,0,0.1-0.1l0,0c0,0,0,0,0.1-0.1
		c0,0,0,0,0.1-0.1c0,0,0,0,0,0c0,0,0,0,0.1-0.1c0,0,0,0,0.1-0.1c0,0,0,0,0,0l0,0l0,0l0,0l0,0c0,0,0.1,0,0.1-0.1c0,0,0,0-0.1,0l0,0
		l0,0c-0.1,0-0.1,0.1-0.2,0.1l0,0l0,0l0,0l0,0c0,0,0,0,0,0l0,0l0,0l0,0l0,0c0,0,0,0,0,0c0,0,0,0,0,0l0,0c0,0-0.1,0-0.1,0.1
		c0,0,0,0,0,0c0,0,0,0-0.1,0.1l0,0l0,0l0,0c0,0,0,0-0.1,0.1c0,0-0.1,0.1-0.1,0.1l0,0l0,0c0,0,0,0,0,0l0,0l0,0c0,0,0,0,0,0l0,0l0,0
		l0,0l0,0l0,0l0,0l0,0l0,0H17c0,0,0,0,0,0c0,0,0.1-0.1,0.1-0.1l0,0l0,0l0,0l0,0c0,0,0,0,0.1-0.1c0,0,0,0,0.1,0c0,0,0,0,0.1-0.1l0,0
		l0,0l0,0l0,0c0,0,0,0,0.1-0.1c0,0,0.1-0.1,0.1-0.1l0,0c0,0,0,0,0.1-0.1l0,0c0,0,0,0,0,0l0,0l0,0c0,0,0.1-0.1,0.1-0.1
		c0,0,0,0,0.1-0.1l0,0l0,0l0,0c0,0,0,0,0,0l0,0l0,0l0,0l0,0l0,0l0,0c0,0,0.1-0.1,0.1-0.1c0,0,0,0,0,0l0,0l0,0l0,0l0,0c0,0,0,0,0,0
		c0,0,0,0-0.1,0l0,0l0,0l0,0l0,0l0,0l0,0c0,0,0,0-0.1,0c0,0-0.1,0-0.1,0.1l0,0c0,0,0,0,0,0c-0.1,0.1-0.1,0.1-0.2,0.2c0,0,0,0,0,0
		l0,0c0,0-0.1,0.1-0.1,0.1l0,0l0,0l0,0c0,0-0.1,0.1-0.1,0.1l0,0l0,0l0,0l0,0l0,0c0,0,0,0-0.1,0c0,0,0,0,0,0l0,0l0,0c0,0,0,0,0,0l0,0
		c0,0,0,0,0,0c0,0,0,0,0,0c0,0,0,0-0.1,0.1l0,0l0,0l0,0l0,0c0,0,0,0-0.1,0c0,0,0,0,0,0c0,0-0.1,0-0.1,0l0,0c0,0,0,0,0-0.1
		c0,0,0,0,0,0l0,0c0,0,0,0,0,0l0,0l0,0l0,0l0,0l0,0l0,0l0,0l0,0l0,0c0,0,0,0,0,0l0,0l0,0l0,0l0,0l0,0c0,0,0,0,0,0l0,0l0,0l0,0l0,0
		c0,0,0,0,0,0c0,0,0,0,0,0l0,0l0,0l0,0l0,0l0,0c0,0,0,0,0,0l0,0l0,0l0,0c0,0,0,0,0,0c0,0,0.1-0.1,0.1-0.1c0,0,0,0,0.1-0.1l0,0
		c0,0,0,0,0,0c0,0-0.1,0-0.1,0l0,0l0,0c0,0,0,0,0,0l0,0l0,0l0,0l0,0c0,0,0,0,0,0l0,0c0,0,0,0,0,0l0,0l0,0c0,0,0,0,0,0l0,0l0,0l0,0
		l0,0c0,0,0,0,0,0c0,0,0,0,0,0l0,0c0,0,0,0-0.1,0l0,0c0,0,0,0-0.1,0.1c0,0,0,0-0.1,0.1l0,0l0,0l0,0l0,0l0,0l0,0l0,0l0,0
		c0,0-0.1,0.1-0.1,0.1l0,0l0,0l0,0l0,0l0,0l0,0l0,0c0,0,0,0-0.1,0c0,0,0,0,0-0.1c0,0,0,0,0-0.1c0,0,0,0,0,0l0,0c0,0,0,0,0,0l0,0l0,0
		l0,0c0,0,0.1-0.1,0.1-0.1l0,0l0,0l0,0l0,0l0,0l0,0l0,0l0,0c0,0,0.1-0.1,0.1-0.1l0,0l0,0l0,0c0,0,0,0,0,0l0,0l0,0l0,0l0,0l0,0l0,0
		l0,0h0l0,0l0,0l0,0c0,0,0,0,0,0l0,0c0,0-0.1,0.1-0.1,0.1l0,0l0,0l0,0c0,0,0,0,0,0l0,0l0,0c0,0,0,0-0.1,0c0,0-0.1,0-0.1,0.1l0,0l0,0
		l0,0l0,0l0,0l0,0l0,0c0,0-0.1,0.1-0.1,0.1c0,0,0,0-0.1,0c0,0,0,0-0.1,0l0,0c0,0-0.1,0.1-0.1,0.1l0,0l0,0c0,0,0,0,0,0c0,0,0,0-0.1,0
		l0,0l0,0c0,0,0,0,0-0.1c0,0,0,0,0,0l0,0l0,0c0,0,0,0,0.1-0.1l0,0c0,0,0,0,0,0l0,0c0,0,0,0,0-0.1l0,0l0,0c0,0,0,0,0,0l0,0l0,0l0,0
		l0,0l0,0l0,0l0,0l0,0l0,0l0,0l0,0l0,0c0,0,0,0,0,0l0,0l0,0l0,0l0,0l0,0l0,0l0,0c0,0,0,0,0,0c0,0,0,0,0,0l0,0l0,0c0,0-0.1,0-0.1,0.1
		c0,0,0,0-0.1,0c0,0-0.1,0-0.1,0.1l0,0c0,0-0.1,0.1-0.1,0.1c0,0-0.1,0.1-0.1,0.1c0,0,0,0,0,0c0,0,0,0,0,0c0,0,0,0,0,0l0,0
		c0,0,0,0,0,0l0,0l0,0c0,0,0,0,0,0l0,0c0,0,0,0-0.1,0.1c0,0,0,0,0,0l0,0l0,0l0,0c0,0,0,0,0,0l0,0c0,0,0,0,0,0c0,0,0,0,0,0
		c0,0,0,0,0,0l0,0l0,0c0,0,0,0,0.1-0.1c0,0,0,0,0,0l0,0l0,0l0,0c0,0,0-0.1,0.1-0.1c0,0,0,0,0,0c0,0,0,0,0,0l0,0c0,0,0,0,0.1-0.1
		c0,0,0,0,0,0c0,0,0,0,0,0l0,0l0,0l0,0c0,0,0,0,0.1,0c0,0,0,0,0,0l0,0c0,0,0,0,0,0l0,0l0,0l0,0l0,0l0,0l0,0c0,0,0,0,0,0l0,0l0,0l0,0
		l0,0l0,0l0,0c0,0,0,0,0,0l0,0l0,0l0,0l0,0l0,0l0,0l0,0c0,0,0,0,0.1-0.1l0,0l0,0l0,0l0,0l0,0c0,0,0,0,0.1-0.1c0,0,0,0,0,0l0,0l0,0
		l0,0l0,0c0,0,0,0,0,0l0,0l0,0c-0.1,0-0.1,0.1-0.2,0.1l0,0l0,0l0,0l0,0c0,0,0,0-0.1,0l0,0l0,0l0,0l0,0c0,0,0,0,0,0c0,0,0,0,0,0l0,0
		c0,0,0,0,0,0l0,0l0,0l0,0l0,0l0,0l0,0l0,0l0,0c0,0,0,0,0,0l0,0l0,0c0,0,0,0,0,0l0,0l0,0l0,0l0,0c0,0,0,0,0,0c0,0,0,0,0,0l0,0l0,0
		c0,0,0,0,0,0c0,0-0.1,0.1-0.1,0.1l0,0l0,0l0,0c-0.1,0.1-0.1,0.1-0.2,0.2l0,0l0,0c0,0,0,0-0.1,0.1l0,0l0,0l0,0l0,0l0,0l0,0l0,0l0,0
		l0,0l0,0c0,0,0,0,0,0c0,0,0,0,0,0h0c0,0,0,0,0,0c0,0,0,0,0,0l0,0l0,0c0,0,0,0,0.1,0c0,0,0-0.1,0.1-0.1c0,0,0,0,0,0l0,0l0,0l0,0l0,0
		l0,0l0,0c0,0,0,0,0.1-0.1l0,0l0,0c0,0,0,0,0,0c0.1,0,0.1-0.1,0.1-0.1l0,0l0,0c0,0,0,0,0,0l0,0l0,0l0,0l0,0l0,0l0,0l0,0
		c0,0,0,0,0.1-0.1l0,0l0,0l0,0c0,0,0,0,0,0c0,0,0,0,0,0l0,0l0,0l0,0l0,0l0,0c0,0,0.1-0.1,0.1-0.1l0,0l0,0l0,0c0,0,0.1-0.1,0.1-0.1
		l0,0l0,0l0,0c0,0,0,0-0.1,0l0,0c0,0,0,0,0,0l0,0l0,0l0,0l0,0l0,0l0,0l0,0l0,0l0,0l0,0l0,0c0,0-0.1,0.1-0.1,0.1l0,0c0,0,0,0-0.1,0
		c0,0,0,0,0,0l0,0c0,0,0,0-0.1,0.1c0,0,0,0-0.1,0l0,0c0,0,0,0-0.1,0c0,0-0.1,0-0.1,0.1c0,0,0,0,0,0c0,0,0,0,0,0l0,0
		c-0.1,0.1-0.1,0.1-0.2,0.2c0,0,0,0-0.1,0.1l0,0c0,0,0,0,0,0c0,0,0,0-0.1,0.1l0,0l0,0l0,0l-0.1,0.1c0,0-0.1,0.1-0.1,0.1c0,0,0,0,0,0
		l0,0c0,0-0.1,0.1-0.1,0.1l0,0l0,0c0,0,0,0-0.1,0c0,0,0,0,0-0.1c0,0,0,0,0-0.1l0,0l0,0v0l0,0c0,0,0,0,0.1-0.1l0,0l0,0l0,0l0,0l0,0
		c0,0,0.1,0,0.1-0.1l0,0l0,0l0,0l0,0l0,0c0,0,0,0,0,0l0,0l0,0l0,0l0,0l0,0l0,0l0,0l0,0l0,0l0,0l0,0c0,0,0,0,0,0l0,0l0,0
		c0,0,0,0,0.1-0.1l0,0l0,0l0,0l0,0l0,0l0,0c-0.1,0-0.1,0.1-0.2,0.1l0,0l0,0l0,0l0,0l0,0c0,0,0,0-0.1,0l0,0l0,0l0,0l0,0c0,0,0,0,0,0
		c0,0,0,0,0,0c0,0,0,0,0,0c0,0,0,0,0,0c0,0,0,0,0,0c0,0-0.1,0-0.1,0.1c0,0-0.1,0-0.1,0.1c-0.1,0-0.1,0.1-0.1,0.1l0,0
		c0,0,0,0-0.1,0.1l0,0l0,0c0,0,0,0,0,0l0,0l0,0l0,0c0,0,0,0-0.1,0c0,0,0,0,0,0l0,0c0,0-0.1,0-0.1,0l0,0c0,0,0,0,0,0l0,0
		c0,0-0.1,0-0.1,0c0,0,0,0,0,0s-0.1,0-0.1,0c0,0,0,0-0.1,0c0,0,0,0,0,0c0,0,0,0,0,0h0c0,0-0.1,0-0.1,0l0,0l0,0c0,0,0,0-0.1,0
		c-0.1,0-0.2,0-0.4,0c0,0-0.1,0-0.1,0l0,0l0,0l0,0c0,0-0.1,0-0.1,0c0,0-0.1,0-0.1,0h-0.1c0,0,0,0-0.1,0c0,0,0,0,0,0
		c-0.1,0-0.3,0-0.4,0v0.3l0,0l0,0l0,0l0,0l0,0c0,0,0,0,0.1,0c0,0,0,0,0.1,0c0.1,0,0.2,0,0.3,0c0,0,0,0,0,0c0,0,0,0,0.1,0
		c0.1,0,0.1,0,0.2,0c0.1,0,0.2,0,0.3,0c0,0,0,0,0.1,0c0,0,0.1,0,0.1,0c0.2,0,0.4,0,0.5,0c0.1,0,0.1,0,0.2,0c0,0,0.1,0,0.2,0
		c0.2,0,0.4,0,0.6,0c0,0,0.1,0,0.1,0s0.1,0,0.1,0l0,0c0,0,0.1,0,0.1,0c0.1,0,0.1,0,0.2,0s0.1,0,0.1,0c0.1,0,0.2,0,0.3,0
		c0,0,0,0,0.1,0c0.2,0,0.4,0,0.6,0c0,0,0,0,0,0c0,0,0,0,0,0l0,0c0,0,0,0.1,0,0.1l0,0c0,0,0,0.1,0.1,0.1l0,0l0,0l0,0l0,0l0,0l0,0
		c0,0,0,0,0,0.1c0,0,0,0,0,0.1c0,0,0,0.1,0.1,0.1c0,0,0,0.1,0.1,0.1l0,0c0,0,0,0,0,0c0,0,0,0,0,0c0,0,0.1,0,0.1,0c0,0,0,0,0.1,0h0.1
		c0,0,0,0,0,0l0,0l0,0l0,0l0,0l0,0c0,0,0,0,0,0c0,0,0,0,0,0h0.1h0l0,0l0,0l0,0l0,0l0,0l0,0l0,0c0,0,0,0,0,0.1c0,0,0,0,0,0l0,0l0,0
		l0,0l0,0l0,0l0,0l0,0l0,0l0,0c0,0,0,0,0,0l0,0l0,0l0,0l0,0l0,0l0,0l0,0c0,0,0.1,0,0.1,0.1c0,0,0.1,0.1,0.2,0.1c0.1,0,0.1,0,0.2,0
		c0,0,0,0,0.1,0c0,0,0,0,0,0c0,0,0,0,0,0l0,0l0,0l0,0c0,0,0,0,0,0.1c0,0,0,0,0,0c0,0,0,0,0,0l0,0l0,0c0,0,0,0,0,0l0,0l0.1,0.1l0,0
		l0,0l0,0c0,0,0,0,0.1,0l0,0l0,0l0,0c0,0,0,0,0,0l0,0l0,0c0,0,0.1,0,0.1,0c0,0,0,0,0.1,0l0,0c0,0,0.1,0,0.1,0H18c0,0,0,0,0.1,0
		c0.1,0,0.1,0,0.2-0.1c0,0,0,0,0,0l0,0l0,0l0,0c0,0,0,0.1,0.1,0.1c0,0,0,0,0,0c0,0,0,0,0,0c0,0,0,0,0,0c0,0,0,0,0.1,0l0,0l0,0
		c0,0,0,0,0,0l0,0c0,0,0.1,0,0.1,0.1l0,0l0,0l0,0c0,0,0.1,0,0.1,0c0,0,0.1,0,0.1,0h0.1l0,0l0,0h0.1c0,0,0,0,0,0l0,0l0,0
		c0,0,0,0,0.1,0l0,0l0,0l0,0c0,0,0,0,0.1,0l0,0l0,0c0,0,0,0,0.1,0c0,0,0.1,0,0.1,0l0,0l0,0c0,0,0,0,0,0c0.1,0,0.1,0.1,0.2,0.1l0.1,0
		c0,0,0,0,0,0c0,0,0,0,0,0l0,0c0,0,0,0,0,0l0,0l0,0c0,0,0,0,0,0l0,0l0,0c0,0,0,0,0.1,0c0,0,0.1,0,0.1,0c0,0,0,0,0.1,0h0l0,0l0,0l0,0
		l0,0l0,0c0,0,0,0,0,0l0,0l0,0l0,0l0,0l0,0l0,0l0,0l0,0l0,0l0,0l0,0l0,0l0,0l0,0c0,0,0,0,0,0l0,0l0,0l0,0l0,0c0,0,0,0,0,0
		c0,0,0-0.1,0-0.1l0,0l0,0l0,0v-0.1l0,0l0,0l0,0c0,0,0,0,0,0c0,0,0,0,0,0c0,0,0,0,0,0l0,0c0,0,0,0,0.1,0c0,0,0,0,0,0
		c0.1,0,0.1,0,0.1,0h0.1c0,0,0,0,0.1,0l0,0l0,0l0,0l0,0c0,0,0,0,0,0c0,0,0,0,0.1-0.1l0.1-0.1l0,0c0,0,0,0,0,0l0,0c0,0,0,0,0,0l0,0
		c0,0,0,0,0,0c0,0,0,0,0,0c0,0,0,0,0.1,0c0,0,0,0,0,0c0,0,0,0,0,0c0,0,0,0,0,0l0,0c0,0,0,0,0.1,0h0c0,0,0,0,0.1,0l0,0l0,0
		c0,0,0,0,0.1,0c0,0,0,0,0,0c0,0,0,0,0,0c0.1,0,0.1-0.1,0.1-0.1c0,0,0,0,0,0l0,0l0,0l0,0c0,0,0,0,0-0.1c0,0,0-0.1,0-0.1l0,0
		c0,0,0,0,0,0l0,0h0.1c0,0,0,0,0.1,0l0,0l0,0c0,0,0,0,0,0l0,0c0,0,0.1,0,0.1-0.1l0,0c0,0,0.1,0,0.1-0.1c0,0,0,0,0,0l0,0l0,0l0,0l0,0
		c0,0,0,0,0,0l0,0l0,0l0,0l0,0l0,0l0,0c0,0,0,0,0-0.1l0,0c0,0,0.1,0,0.1,0c0,0,0.1,0,0.1,0c0,0,0,0,0,0l0,0l0,0l0,0c0,0,0,0,0,0l0,0
		l0,0l0,0l0,0l0,0l0,0l0,0l0,0l0,0c0,0,0,0,0,0l0,0l0,0l0,0c0,0,0.1,0,0.1,0c0,0,0,0,0.1,0c0,0,0,0,0,0h0.1c0.2,0,0.3,0,0.5,0
		c0.1,0,0.2,0,0.3,0c0.2,0,0.4,0,0.6,0c0.1,0,0.2,0,0.2,0c0,0,0.1,0,0.1,0l0,0c0.1,0,0.1,0,0.2,0c0,0,0.1,0,0.1,0c0.4,0,0.7,0,1,0.1
		c0.1,0,0.1,0,0.2,0c0,0,0,0,0,0h0.1l0,0c0,0,0.1,0,0.1,0c0,0,0.1,0,0.1,0c0,0,0,0,0,0c0.1,0,0.1,0,0.2,0c0.1,0,0.2,0,0.4,0
		c0.5,0,1.1,0.1,1.6,0.1v-0.2L32.3,75.8z M18.8,70.8C18.8,70.8,18.8,70.8,18.8,70.8C18.8,70.8,18.8,70.8,18.8,70.8
		c0.1,0,0.1,0,0.1,0c0,0,0,0,0,0c0,0,0,0,0,0c0,0,0,0,0.1,0c0,0,0,0,0,0l0,0l0,0c0,0,0,0,0,0c0,0,0,0,0,0l0,0c0,0,0,0,0.1,0l0,0l0,0
		l0,0v0c0,0,0,0,0,0l0,0l0,0c0,0,0,0,0,0l0,0l0,0l0,0l0,0c0,0,0,0-0.1,0c0,0,0,0,0,0l0,0l0,0l0,0l0,0l0,0c0,0,0,0-0.1,0
		c0,0-0.1,0-0.1,0c0,0,0,0,0,0c0,0,0,0,0,0c0,0,0,0,0,0c0,0,0,0,0,0c0,0,0,0,0.1,0 M21.1,76.4C21.1,76.4,21.1,76.4,21.1,76.4
		c0.1,0,0.1,0,0.1,0l0,0l0,0l0,0l0,0l0,0l0,0l0,0l0,0c0,0,0,0,0,0.1c0,0,0,0,0,0c0,0,0,0-0.1,0l0,0h-0.1c0,0-0.1,0-0.1,0
		c0,0,0,0,0,0c0,0,0,0,0.1,0c0,0,0,0,0,0c0,0,0,0,0,0c0,0,0,0,0,0l0,0l0,0l0,0c0,0,0,0-0.1,0.1l0,0l0,0l0,0l0,0l0,0l0,0l0,0
		c0,0,0,0-0.1,0c0,0,0,0-0.1,0l0,0l0,0l0,0l0,0l0,0c0,0,0,0,0,0v-0.1l0,0l0,0l0,0c0,0,0,0,0,0l0,0l0,0l0,0c0,0,0,0,0,0l0,0
		c0,0,0,0,0.1,0c0,0,0,0,0,0l0,0l0,0c0,0-0.1,0-0.1,0l0,0c0,0,0,0,0-0.1l0,0l0,0c0,0,0,0,0,0l0,0C21,76.5,21,76.5,21.1,76.4
		 M20.6,77.2C20.6,77.2,20.7,77.2,20.6,77.2L20.6,77.2L20.6,77.2L20.6,77.2c0.1,0,0.1,0,0.1,0l0,0l0,0l0,0l0,0
		C20.7,77.2,20.7,77.2,20.6,77.2L20.6,77.2L20.6,77.2L20.6,77.2C20.7,77.2,20.7,77.2,20.6,77.2L20.6,77.2L20.6,77.2 M20.5,75
		L20.5,75C20.5,75,20.5,75,20.5,75C20.5,75,20.5,75,20.5,75L20.5,75L20.5,75L20.5,75L20.5,75L20.5,75L20.5,75L20.5,75
		c0.1,0,0.1,0,0.1,0c0,0,0,0,0,0l0,0c0,0,0,0.1,0,0.1c0,0,0,0,0,0l0,0c0,0,0,0-0.1,0l0,0c0,0-0.1,0.1-0.1,0.1l0,0l0,0c0,0,0,0,0,0
		c0,0,0,0,0,0h-0.1c0,0,0,0,0,0l0,0l0,0l0,0c0.1,0,0.1-0.1,0.2-0.1C20.3,75.1,20.3,75.1,20.5,75 M19.6,75.5
		C19.6,75.5,19.6,75.5,19.6,75.5L19.6,75.5c0,0,0-0.1,0.1-0.1c0,0,0.1-0.1,0.1-0.1c0,0,0.1-0.1,0.1-0.1l0,0l0,0l0,0l0,0l0,0l0,0l0,0
		l0,0l0,0l0,0c0,0,0,0,0.1,0c0,0,0,0,0,0l0,0l0,0c0,0,0.1,0,0.1,0c0,0,0,0,0,0.1l0,0l0,0c0,0-0.1,0-0.1,0.1c0,0,0,0,0,0l0,0l0,0l0,0
		l0,0l0,0l0,0c0,0,0,0,0,0l0,0l0,0c0,0-0.1,0-0.1,0.1c0,0-0.1,0-0.1,0.1l0,0c0,0,0,0,0,0c0,0,0,0,0,0C19.7,75.4,19.6,75.4,19.6,75.5
		L19.6,75.5C19.6,75.4,19.6,75.5,19.6,75.5C19.5,75.4,19.5,75.4,19.6,75.5 M19.6,75.6L19.6,75.6L19.6,75.6L19.6,75.6L19.6,75.6
		L19.6,75.6L19.6,75.6C19.6,75.6,19.6,75.6,19.6,75.6C19.6,75.6,19.6,75.6,19.6,75.6L19.6,75.6C19.6,75.7,19.6,75.7,19.6,75.6
		L19.6,75.6L19.6,75.6L19.6,75.6L19.6,75.6 M18.4,75.8c0,0,0.1,0,0.1-0.1l0,0l0,0l0,0l0,0l0,0l0,0c0,0,0,0,0.1,0l0,0l0,0l0,0
		c0,0,0,0,0,0l0,0c0,0,0.1,0,0.1,0c0,0,0.1,0,0.1,0c0,0,0.1,0,0.1,0c0,0,0,0,0,0c0,0,0,0,0,0l0,0l0,0l0,0c0,0,0,0,0,0.1l0,0l0,0l0,0
		l0,0c0,0,0,0.1,0.1,0.1c0,0,0,0,0,0.1c0,0,0,0,0,0l0,0l0,0v0c0,0,0,0,0,0c0,0,0,0,0,0.1l0,0l0,0c0,0,0,0,0,0c0,0,0,0-0.1,0l0,0l0,0
		v-0.1v0c0,0,0,0,0,0l0,0l0,0c0,0,0,0-0.1-0.1l0,0l0,0c0,0-0.1-0.1-0.1-0.1c0,0,0,0,0,0c0,0,0,0,0-0.1l0,0c0,0,0,0-0.1,0
		c-0.1,0-0.1,0-0.2,0l0,0l0,0C18.5,75.8,18.5,75.8,18.4,75.8C18.4,75.8,18.4,75.8,18.4,75.8c0,0-0.1,0.1-0.1,0l0,0 M19.3,76.7
		C19.3,76.7,19.3,76.7,19.3,76.7C19.3,76.6,19.3,76.6,19.3,76.7c0.1-0.1,0.1-0.1,0.1-0.1c0,0,0,0,0.1,0c0,0,0,0,0,0l0,0l0,0
		c0,0,0,0,0,0c0,0,0,0,0,0c0,0,0,0,0,0c0,0,0,0-0.1,0c0,0,0,0-0.1,0l0,0l0,0l0,0l0,0l0,0l0,0C19.4,76.7,19.4,76.7,19.3,76.7
		L19.3,76.7 M18.3,76.1C18.3,76.1,18.3,76.1,18.3,76.1c0,0,0.1-0.1,0.1-0.1c0,0,0.1,0,0.1,0l0,0l0,0c0,0,0,0,0.1,0c0,0,0,0,0.1,0
		l0,0l0,0c0,0,0,0,0,0c0,0,0,0,0.1,0l0,0c0,0,0,0,0.1,0c0,0,0,0,0,0l0,0l0,0l0,0l0,0l0,0l0,0l0,0c0,0,0,0,0,0c0,0,0,0,0,0.1
		c0,0,0,0,0,0c0,0,0,0,0,0.1l0,0l0,0l0,0l0,0l0,0l0,0c0,0,0,0-0.1,0c0,0,0,0,0,0l0,0l0,0c0,0,0,0,0,0l0,0l0,0l0,0l0,0l0,0l0,0
		c0,0,0,0,0,0c0,0,0,0-0.1,0l0,0c0,0,0,0,0,0l0,0c0,0,0,0-0.1,0l0,0l0,0c0,0,0,0,0-0.1c0,0,0,0,0-0.1c0,0,0-0.1,0-0.1
		c0,0,0-0.1,0-0.1 M17.6,76.4c0,0-0.1,0-0.1,0c0,0-0.1,0-0.1,0c0,0,0,0-0.1,0l0,0l0,0l0,0l0,0l0,0l0,0l0,0l0,0l0,0l0,0l0,0l0,0l0,0
		l0,0c0,0,0,0,0-0.1c0,0,0,0,0-0.1l0,0h0c0,0,0,0,0.1,0l0,0l0,0l0,0l0,0l0,0l0,0l0,0c0,0,0,0,0,0c0,0,0,0,0,0c0,0,0,0,0.1,0l0,0l0,0
		l0,0l0,0l0,0l0,0l0,0l0,0l0,0L17.6,76.4 M18,75.9L18,75.9c0,0-0.1,0-0.1,0.1c0,0,0,0-0.1,0c0,0,0,0,0,0l0,0l0,0c0,0,0,0.1,0.1,0.1
		c0,0,0,0,0,0c0,0,0,0-0.1,0c0,0,0,0-0.1,0l0,0c0,0,0,0,0,0c0,0,0,0-0.1,0l0,0l0,0l0,0c0,0,0,0,0,0l0,0l0,0c0,0,0,0,0,0l0,0l0,0l0,0
		l0,0l0,0l0,0l0,0v0l0,0l0,0l0,0l0,0l0,0c0,0,0.1,0,0.1,0l0,0l0,0c0,0,0,0,0.1,0l0,0l0,0l0,0l0,0l0,0l0,0c0,0,0,0,0.1,0c0,0,0,0,0,0
		c0,0,0,0-0.1,0c0,0,0,0-0.1,0c0,0-0.1,0-0.1,0c0,0,0,0-0.1,0c0,0,0,0-0.1,0l0,0c0,0,0,0,0,0l0,0h-0.1l0,0l0,0l0,0c0,0,0,0,0,0l0,0
		l0,0c0,0,0,0,0,0l0,0l0,0l0,0c0,0,0,0,0,0l0,0l0,0l0,0l0,0c0,0,0,0,0,0l0.1,0c0,0-0.1,0-0.1,0l0,0c0,0,0,0-0.1,0l0,0h0h-0.1
		c0,0,0,0,0-0.1l0,0l0,0l0,0l0,0c0,0,0.1-0.1,0.1-0.1c0,0,0,0,0,0c0,0,0,0,0.1,0l0,0c0,0,0,0,0.1,0c0,0,0,0,0,0c0,0,0.1,0,0.1,0l0,0
		h0.1c0,0,0.1,0,0.1,0c0,0,0,0,0,0l0,0l0,0c0,0,0.1,0,0.1,0.1c0,0,0,0,0,0l0,0l0,0l0,0c0,0,0,0,0,0C17.9,75.7,17.9,75.8,18,75.9
		C17.9,75.8,17.9,75.8,18,75.9L18,75.9C17.9,75.9,17.9,75.9,18,75.9c-0.1,0-0.1,0.1-0.1,0.1c0,0,0,0-0.1,0l0,0l0,0l0,0l0,0
		 M18.9,76.9L18.9,76.9L18.9,76.9C18.9,76.9,18.9,76.9,18.9,76.9L18.9,76.9L18.9,76.9L18.9,76.9L18.9,76.9L18.9,76.9L18.9,76.9
		L18.9,76.9L18.9,76.9c0,0-0.1,0-0.1,0c0,0,0,0,0,0c0,0,0,0-0.1,0c0,0-0.1,0-0.1,0l0,0c0,0,0,0,0,0c0,0-0.1,0-0.1,0l0,0c0,0,0,0,0,0
		c0,0,0,0,0,0c0,0,0,0,0,0l0,0l0,0l0,0l0,0l0,0l0,0l0,0l0,0l0,0l0,0l0,0c0,0,0,0,0,0c0,0,0,0,0,0c0,0,0-0.1,0-0.1c0,0,0,0,0,0l0,0
		l0,0l0,0l0,0l0,0l0,0c0,0,0,0,0,0c0,0,0,0,0,0l0,0l0,0l0,0c0,0,0,0,0,0l0,0c0,0,0,0,0,0l0,0c0,0,0,0,0,0l0,0l0,0c0,0,0,0,0,0.1l0,0
		l0,0l0,0l0,0l0,0l0,0l0,0l0,0l0,0l0,0c0,0,0,0-0.1,0.1c0,0,0,0,0.1,0l0,0l0,0c0,0,0.1,0,0.1,0h0.1c0,0,0.1,0,0.1,0l0,0l0,0l0,0v0.1
		l0,0l0,0c0,0,0,0,0,0l0,0l0,0c0,0,0,0,0,0c0,0,0,0,0,0c0,0,0,0-0.1,0l0,0l0,0c0,0,0,0,0,0l0,0c0,0,0,0,0.1,0h0.1l0,0l0,0
		c0,0,0,0,0,0c0,0,0,0,0.1,0h0l0,0l0,0l0,0C18.8,76.9,18.9,76.8,18.9,76.9c0,0,0,0,0.1-0.1l0,0c0,0,0,0,0.1,0l0,0l0,0c0,0,0,0-0.1,0
		C19,76.8,19,76.8,18.9,76.9L18.9,76.9C19,76.8,19,76.9,18.9,76.9L18.9,76.9c0,0-0.1,0.1-0.1,0.1c0,0,0,0,0.1,0l0,0l0,0
		C18.9,77,19,77,18.9,76.9c0.1,0.1,0.1,0.1,0.1,0.1c0,0,0.1,0,0.1-0.1l0,0l0,0l0,0l0,0l0,0l0,0c0,0,0,0,0,0l0,0c0,0,0,0,0,0
		c0,0,0,0.1,0,0.1l0,0l0,0l0,0l0,0c0,0,0,0,0,0c0,0,0,0,0,0 M20.4,77.3L20.4,77.3L20.4,77.3C20.4,77.3,20.4,77.3,20.4,77.3
		c0,0-0.1,0.1-0.1,0.1c0,0-0.1,0.1-0.1,0.1l0,0l0,0c0,0,0,0-0.1,0.1l0,0c0,0-0.1,0-0.1,0c0,0,0,0-0.1,0c0,0,0,0-0.1,0h-0.1h-0.1
		c0,0,0,0,0,0l0,0l0,0l0,0l0,0c0,0,0,0,0,0l0,0c0,0,0,0,0,0l0,0l0,0c0,0,0,0,0,0c0,0,0,0,0,0c0,0,0,0,0,0c0,0,0,0,0-0.1
		c0,0,0,0,0-0.1l0,0l0,0c0,0,0,0,0,0.1c0,0,0,0,0,0c0,0,0,0,0,0l0,0l0,0l0,0l0,0c0,0,0,0,0,0c0,0,0,0,0.1,0h0.1c0,0,0,0,0.1,0
		c0,0,0.1,0,0.2,0c0,0,0,0,0.1,0c0,0,0,0,0.1,0l0,0l0,0l0,0l0,0c0,0,0.1,0,0.1-0.1l0,0l0,0l0,0c0,0-0.1,0-0.1,0l0,0c0,0-0.1,0-0.1,0
		c0,0-0.1,0-0.1,0c0,0-0.1,0-0.1,0l0,0l0,0c0,0,0,0,0,0c0,0,0,0,0,0l0,0c0,0,0,0,0,0c0,0,0,0,0,0c0,0,0,0,0,0c0,0,0,0,0.1,0
		c0,0,0,0,0.1,0l0,0l0,0l0,0l0,0l0,0c0,0,0.1,0,0.1,0l0,0l0,0l0,0c0,0,0,0,0,0c0,0,0,0,0,0c0,0,0,0,0.1,0c0,0,0,0,0.1,0
		C20.3,77.4,20.3,77.4,20.4,77.3c-0.1,0.1-0.2,0.1-0.3,0.1c0,0-0.1,0-0.1,0c0,0-0.1,0-0.1,0c-0.1,0-0.1,0-0.2,0.1
		c-0.1,0-0.1,0-0.2,0c0,0,0,0,0,0c0,0,0,0,0,0c0,0,0,0,0,0l0,0l0,0c0,0,0,0,0,0c0,0,0,0,0.1,0l0,0l0,0l0,0l0,0l0,0c0,0,0,0,0.1,0
		c0,0,0,0,0,0c0,0,0,0,0,0l0,0l0,0c0,0,0,0,0.1,0c0,0,0,0,0.1,0c0,0,0,0,0.1,0l0,0c0,0,0,0,0,0c0,0,0.1,0,0.1-0.1c0,0,0.1,0,0.1,0
		c0,0,0,0-0.1,0c0,0-0.1,0-0.1,0c-0.1,0-0.1,0-0.2,0l0,0l0,0c0,0,0,0-0.1,0c0,0,0,0-0.1,0c0,0,0,0-0.1,0c0,0,0,0-0.1,0
		c0,0,0,0-0.1,0h-0.1c0,0,0,0,0,0l0,0l0,0l0,0l0,0l0,0l0,0l0,0l0,0c0,0,0.1,0,0.1,0c0,0,0,0,0.1,0l0,0l0,0l0,0c0,0,0,0,0.1,0
		c0,0,0,0,0.1,0l0,0l0,0l0,0l0,0c0,0,0,0,0,0c0,0,0.1,0,0.1,0c0,0,0,0,0.1,0l0,0c0,0,0,0,0.1,0l0,0l0,0l0,0l0,0h0c0,0,0,0,0.1,0
		c0,0,0,0,0.1,0l0,0c0,0,0,0,0.1,0l0,0l0,0l0,0l0,0l0,0l0,0l0,0l0,0l0,0l0,0l0,0l0,0c0,0,0,0,0,0l0,0c0,0,0,0,0-0.1c0,0,0,0,0,0
		c0,0,0,0,0,0l0,0l0,0l0,0l0,0l0,0c0,0,0,0,0,0c0,0,0,0,0,0c0-0.1-0.1-0.1-0.1-0.2l0,0l0,0l0,0c0,0,0,0,0,0c0,0,0,0,0,0l0,0l0,0l0,0
		l0,0c0,0,0,0-0.1,0c0,0-0.1,0-0.1,0h0c0,0,0,0-0.1,0l0,0c0,0,0,0,0,0l0,0l0,0l0,0c0,0,0,0,0,0l0,0l0,0c0,0,0,0,0,0l0,0c0,0,0,0,0,0
		l0,0c0,0-0.1,0.1-0.1,0.1c0,0,0,0.1-0.1,0.1l0,0l0,0v0.1l0,0c0,0,0,0,0,0c0,0,0,0-0.1,0c0,0,0,0,0,0c0,0,0,0-0.1,0c0,0,0,0,0,0l0,0
		l0,0l0,0c0,0,0,0,0-0.1l0,0l0,0l0,0l0,0l0,0l0,0l0,0l0,0l0,0l0,0l0,0l0,0l0,0l0,0l0,0l0,0l0,0c0,0,0,0,0,0l0,0l0,0l0,0
		c0,0,0,0,0.1-0.1l0,0c0,0,0,0,0.1,0c0,0,0,0,0,0l0,0l0,0l0,0l0,0l0,0l0,0h0.1l0,0c0,0,0,0,0.1,0c0,0,0,0,0.1,0l0,0l0,0
		c0.1,0,0.2,0,0.2,0l0,0l0,0l0,0l0,0c0,0,0,0,0,0l0,0l0,0l0,0c0,0,0,0,0,0.1l0,0c0,0,0,0,0,0l0,0l0,0c0,0,0,0,0,0.1l0,0l0,0v0.1l0,0
		l0,0c0,0,0,0,0,0l0,0c0,0.1,0,0.1-0.1,0.1l0,0l0,0l0,0c0,0,0,0,0,0l0,0v0.1c0,0,0,0,0,0l0,0c0,0,0,0,0,0.1c0,0,0,0.1-0.1,0.1l0,0
		l0,0c0,0,0,0,0,0c0,0,0,0,0,0l0,0l0,0l0,0l0,0l0,0l0,0l0,0c0,0,0,0-0.1,0.1l0,0l0,0l0,0l0,0l0,0l0,0l0,0c0,0,0,0,0,0c0,0,0,0,0,0.1
		l0,0 M20,77L20,77L20,77L20,77L20,77L20,77L20,77c0,0-0.1,0.1-0.1,0.1l0,0l0,0l0,0l0,0c0,0,0,0,0,0l0,0l0,0l0,0l0,0l0,0
		c0.1,0,0.1,0,0.2,0c0,0,0,0,0,0c0,0,0,0-0.1,0.1c0,0,0,0,0,0l0,0c0,0,0,0,0,0c0,0,0,0-0.1,0c0,0,0,0-0.1,0c0,0,0,0,0,0l0,0l0,0l0,0
		l0,0c0,0,0,0-0.1,0c0,0-0.1,0-0.1-0.1l0,0c0,0,0,0,0,0l0,0c0,0,0,0,0-0.1c0,0,0,0,0,0c0,0,0,0,0-0.1c0,0,0-0.1,0-0.1c0,0,0,0,0-0.1
		c0,0,0,0,0-0.1l0,0l0,0l0,0l0,0l0,0l0,0c0,0,0-0.1,0.1-0.1c0,0,0.1,0,0.2,0l0,0l0,0c0,0,0,0,0,0c0,0,0,0,0.1,0l0,0l0,0l0,0l0,0l0,0
		l0,0c0,0,0,0,0,0l0,0l0,0l0,0l0,0 M20.6,78.1C20.6,78.1,20.6,78.1,20.6,78.1L20.6,78.1c0,0.1,0,0.1,0,0.1l0,0c0,0,0,0,0,0l0,0l0,0
		l0,0l0,0l0,0l0,0l0,0l0,0l0,0l0,0l0,0l0,0c0,0,0,0,0,0l0,0l0,0c0,0,0,0,0,0l0,0c0,0,0,0,0,0c0,0,0,0,0,0c0,0,0,0,0,0c0,0,0,0-0.1,0
		l0,0c0,0,0.1,0,0.1,0l0,0c0,0,0,0,0.1,0c0.1,0,0.1,0,0.1,0c0,0,0,0,0,0c0,0,0,0,0,0c0,0,0,0,0,0c0,0,0,0,0,0l0,0l0,0l0,0l0,0
		c0,0,0,0-0.1,0c0,0,0,0-0.1,0c-0.1,0-0.1,0-0.2,0c0,0,0,0-0.1,0l0,0c0,0,0,0,0,0c0,0,0,0-0.1,0c0,0,0,0-0.1,0c0,0,0,0-0.1,0l0,0h0
		l0,0l0,0l0,0l0,0c0,0,0,0,0,0l0,0l0,0l0,0l0,0l0,0c0,0,0,0,0.1,0l0,0l0,0l0,0c0,0,0.1,0,0.1,0c0,0,0,0,0,0l0,0l0,0l0,0l0,0
		c0.1,0,0.1,0,0.1,0c0,0,0,0,0.1-0.1C20.5,78.1,20.5,78.1,20.6,78.1L20.6,78.1L20.6,78.1L20.6,78.1L20.6,78.1L20.6,78.1
		C20.5,78.1,20.5,78.1,20.6,78.1L20.6,78.1c-0.1,0.1-0.1,0.1-0.1,0.1c0,0,0,0,0,0c0,0,0,0-0.1,0c0,0,0,0-0.1,0h-0.1h-0.1H20
		c-0.1,0-0.1,0-0.2,0c0,0,0,0,0,0c0,0,0.1,0,0.1,0c0,0,0,0,0.1,0l0,0l0,0l0,0l0,0l0,0l0,0c0,0,0,0,0.1,0l0,0l0,0c0,0,0.1,0,0.1,0
		l0,0l0,0l0,0l0,0l0,0c0,0,0,0,0.1,0l0,0l0,0c-0.1,0-0.1,0-0.2,0l0,0l0,0l0,0c0,0,0,0-0.1,0l0,0l0,0l0,0c0,0-0.1,0-0.1,0
		c0,0,0,0-0.1,0c0,0,0,0-0.1,0l0,0c0,0,0,0,0,0l0,0l0,0c0,0,0,0,0,0c0,0,0,0,0,0c0,0,0.1,0,0.2-0.1l0,0l0,0c0,0,0,0,0.1,0l0,0
		c0.1,0,0.1,0,0.2-0.1c0,0,0,0,0.1-0.1c0,0,0.1-0.1,0.1-0.1l0,0l0,0l0,0l0,0l0,0l0,0c0,0,0,0,0,0l0,0c0,0,0,0,0,0c0,0,0,0,0,0l0,0
		c0,0,0-0.1,0-0.1c0,0,0,0,0,0c0,0,0,0,0,0l0,0c0,0,0,0,0-0.1c0,0,0,0,0,0c0,0-0.1-0.1-0.1-0.1c0,0,0,0-0.1,0c0,0,0,0,0,0
		c0,0,0,0,0,0c0,0,0,0,0,0c0,0,0,0,0,0c0,0,0,0,0-0.1c0,0,0,0,0.1,0l0,0c0,0,0,0,0,0l0,0c0,0,0.1,0,0.1,0.1c0,0,0,0,0,0l0,0l0,0l0,0
		c0,0,0,0,0,0l0,0l0,0l0,0c0,0,0,0,0,0.1c0,0,0,0,0,0.1l0,0l0,0v0l0,0c0,0,0,0,0,0.1l0,0c0,0,0,0,0,0l0,0l0,0c0,0,0,0,0,0
		c0,0,0,0,0,0.1c0,0,0,0,0,0.1l0,0l0,0l0,0l0,0c0,0,0,0,0,0l0,0l0,0l0,0c0,0,0,0,0,0c0,0,0,0,0,0.1c0,0,0,0,0,0.1l0,0l0,0l0,0l0,0
		l0,0 M22,78.2C22,78.2,22,78.2,22,78.2L22,78.2L22,78.2C22,78.2,22,78.2,22,78.2L22,78.2L22,78.2L22,78.2L22,78.2
		C21.9,78.2,21.9,78.2,22,78.2L22,78.2L22,78.2L22,78.2L22,78.2c-0.1,0.1-0.1,0.1-0.1,0.1l0,0c0,0,0,0,0,0l0,0c0,0,0,0-0.1,0
		c0,0-0.1,0-0.1,0l0,0c0,0,0,0,0,0l0,0l0,0l0,0l0,0l0,0l0,0l0,0l0,0l0,0l0,0l0,0l0,0l0,0l0,0l0,0l0,0c0,0-0.1-0.1-0.1-0.1l0,0l0,0
		l0,0l0,0l0,0l0,0l0,0l0,0l0,0l0,0l0,0l0,0l0,0l0,0l0,0l0,0l0,0l0,0c0,0,0-0.1,0.1-0.1c0,0,0,0,0,0c0,0,0,0,0,0c0,0,0,0,0,0
		c0,0,0,0,0,0c0,0,0,0,0,0c0,0,0,0,0,0l0,0l0,0c0,0,0,0,0,0l0,0c0,0,0,0,0,0l0,0c0,0,0,0,0-0.1c0,0,0,0,0,0l0,0l0,0
		c0.1,0,0.2,0,0.3,0c0,0,0.1,0,0.1,0.1l0,0l0,0l0,0c0,0,0,0,0,0l0,0l0,0l0,0l0,0l0,0c0,0,0,0-0.1,0.1c0,0,0,0,0,0l0,0l0,0l0,0l0,0
		c0,0-0.1,0-0.1,0.1c0,0,0,0-0.1,0l0,0l0,0l0,0l0,0l0,0l0,0l0,0l0,0l0,0l0,0l0,0l0,0l0,0l0,0l0,0c0,0,0,0,0,0c0,0,0,0,0.1,0
		c0,0,0,0,0.1,0c0,0,0,0,0,0c0,0,0,0,0.1,0l0,0c0,0,0,0,0,0l0,0l0,0c0,0,0.1,0,0.1-0.1l0,0l0,0c0,0,0,0,0,0l0,0l0,0c0,0,0,0,0,0l0,0
		l0,0c0,0,0,0,0,0l0,0c0,0,0,0,0,0c0,0,0,0.1,0,0.1l0,0c0,0,0,0,0,0l0,0l0,0c0,0,0,0,0,0l0,0c0,0,0,0,0,0c0,0,0,0,0,0l0,0l0,0l0,0
		l0,0C22.1,78.1,22,78.1,22,78.2C22,78.1,22,78.1,22,78.2L22,78.2L22,78.2L22,78.2L22,78.2L22,78.2L22,78.2L22,78.2L22,78.2L22,78.2
		L22,78.2L22,78.2L22,78.2L22,78.2L22,78.2L22,78.2C22,78.1,22,78.1,22,78.2C21.9,78.1,22,78.1,22,78.2C22,78.1,22,78.1,22,78.2
		c0.1,0,0.1,0,0.1,0c0,0,0,0,0.1,0l0,0c0,0,0,0,0,0l0,0l0,0c0,0,0,0,0.1,0l0,0l0,0l0,0c0,0,0,0,0,0l0,0l0,0l0,0l0,0l0,0
		c0,0,0,0,0.1,0c0,0,0-0.1,0.1,0v0c0,0,0,0,0,0.1l0,0l0,0c0,0,0,0,0,0.1c0,0,0,0-0.1,0.1c0,0,0,0,0,0l0,0l0,0l0,0l0,0l0,0l0,0l0,0
		c0,0,0,0,0,0l0,0l0,0l0,0l0,0l0,0l0,0c0,0,0,0,0.1,0c0,0,0,0,0,0l0,0l0,0c0,0,0,0,0,0l0,0l0,0l0,0c0,0,0,0,0,0l0,0c0,0,0,0,0.1,0
		l0,0l0,0l0,0l0,0l0,0c0,0,0,0,0.1,0l0,0c0,0,0.1-0.1,0.1,0l0,0l0,0l0,0l0,0l0,0l0,0l0,0l0,0c0,0,0,0-0.1,0.1c0,0,0,0,0,0l0,0l0,0
		l0,0c0,0,0,0-0.1,0.1c0,0,0,0-0.1,0.1c0,0,0.1,0,0.1,0c0,0,0,0,0,0c0,0,0,0,0,0c0,0,0,0,0,0l0,0c0,0,0,0,0.1,0c0,0,0,0,0,0
		c0,0,0,0,0.1,0c0,0,0,0.1,0,0.1 M23.8,77.8L23.8,77.8L23.8,77.8L23.8,77.8L23.8,77.8L23.8,77.8C23.8,77.8,23.8,77.8,23.8,77.8
		L23.8,77.8C23.8,77.9,23.8,77.9,23.8,77.8L23.8,77.8L23.8,77.8L23.8,77.8c0,0.1,0,0.1-0.1,0.1c0,0,0,0-0.1,0l0,0c0,0,0,0,0,0
		c0,0,0,0,0,0l0,0c0,0,0,0-0.1,0c0,0-0.1,0-0.1,0c0,0,0,0-0.1,0l0,0l0,0l0,0l0,0l0,0l0,0l0,0l0,0l0,0l0,0l0,0
		c-0.1,0-0.1-0.1-0.2-0.1l0,0l0,0l0,0l0,0l0,0c0,0,0,0,0,0c0,0-0.1,0-0.1-0.1c0,0-0.1,0-0.1-0.1l0,0l0,0l0,0l0,0l0,0l0,0l0,0
		c0,0-0.1-0.1-0.1-0.1c0,0,0,0,0,0c0,0,0,0,0.1,0c0,0,0,0,0.1,0c0,0,0,0,0,0c0,0,0,0,0.1,0l0,0c0,0,0,0,0,0c0,0,0,0,0,0.1
		c0,0-0.1,0-0.1,0l0,0c0,0,0,0,0,0c0,0,0,0,0.1,0c0,0,0,0,0,0l0,0c0,0,0,0,0.1,0l0,0l0,0c0,0,0,0,0,0l0,0c0,0,0,0,0.1,0l0,0l0,0
		c0,0,0,0,0.1,0l0,0c0,0,0,0,0,0c0,0,0,0,0.1,0c0,0,0,0,0,0l0,0l0,0c0,0,0,0,0.1,0l0,0l0,0l0,0l0,0l0,0l0,0l0,0l0,0c0,0,0,0,0,0l0,0
		c0,0,0,0,0,0l0,0l0,0l0,0l0,0l0,0c0,0,0,0,0,0.1c0,0,0,0,0,0l0,0c0,0,0,0,0,0l0,0c0,0,0,0,0,0l0,0l0,0c0,0,0,0,0,0l0,0c0,0,0,0,0,0
		c0,0,0,0,0,0l0,0l0,0l0,0l0,0c0,0-0.1,0-0.1,0c0,0,0,0-0.1,0l0,0l0,0l0,0l0,0l0,0l0,0l0,0l0,0l0,0l0,0l0,0l0,0l0,0l0,0l0,0
		c0,0,0,0,0,0c0,0,0,0,0.1,0c0,0,0,0,0,0c0,0,0,0,0.1,0l0,0l0,0c0,0,0.1,0,0.1,0l0,0h0.1c0,0,0,0,0.1,0l0,0l0,0l0,0l0,0l0,0
		c0,0,0,0,0.1,0l0,0l0,0c0,0,0,0,0.1,0c0,0,0,0,0,0c0,0,0,0,0.1,0l0,0l0,0l0,0l0,0l0,0l0,0c0,0,0,0,0,0c0,0,0,0-0.1,0.1
		C23.8,77.7,23.8,77.8,23.8,77.8c0,0-0.1,0-0.1,0l0,0l0,0l0,0l0,0l0,0l0,0l0,0c0,0,0,0,0,0l0,0l0,0l0,0l0,0l0,0l0,0
		C23.6,77.9,23.7,77.9,23.8,77.8C23.7,77.9,23.7,77.9,23.8,77.8L23.8,77.8C23.8,77.9,23.8,77.9,23.8,77.8
		C23.8,77.9,23.8,77.9,23.8,77.8c0.1,0,0.1,0,0.1,0l0,0c0,0,0,0,0.1,0l0,0l0,0l0,0l0,0l0,0c0,0,0,0,0.1,0l0,0c0,0,0.1-0.1,0.1,0l0,0
		c0,0,0,0,0,0c0,0,0,0,0,0.1l0,0c0,0,0,0,0,0l0,0l0,0l0,0c0,0,0,0,0,0l0,0c0,0,0,0-0.1,0.1c0,0,0,0-0.1,0.1c0,0,0.1,0,0.1,0
		c0,0,0,0,0,0c0,0,0,0,0,0l0,0c0,0,0,0,0,0c0,0,0,0,0,0l0,0c0,0,0,0,0,0c0,0,0,0,0,0c0,0,0,0,0,0.1 M26,76.9L26,76.9
		C26,76.9,26,76.9,26,76.9L26,76.9L26,76.9C26,76.9,26,76.9,26,76.9L26,76.9L26,76.9L26,76.9L26,76.9L26,76.9L26,76.9L26,76.9
		L26,76.9c0,0.1,0,0.1-0.1,0.1c0,0-0.1,0-0.1,0h-0.1c0,0,0.1,0,0.1,0l0,0l0,0l0,0l0,0l0,0c0,0,0,0,0.1,0
		C25.9,76.9,25.9,76.9,26,76.9L26,76.9C26,76.9,26,76.8,26,76.9c0-0.1,0-0.1,0.1-0.1l0,0l0,0l0,0"/>
	<path class="st2" d="M32.3,75.2L32.3,75.2C32.3,75.2,32.3,75.2,32.3,75.2L32.3,75.2C32.2,75.2,32.2,75.2,32.3,75.2
		c-0.1,0-0.1,0-0.1,0c0,0-0.1,0-0.1,0.1l0,0l0,0c0,0,0,0,0,0l0,0l0,0l0,0c0,0,0,0,0,0l0,0c0,0,0,0,0,0c0,0,0,0,0.1,0c0,0,0,0,0,0h0
		l0,0c0,0,0,0,0.1,0l0,0l0,0l0,0c0,0,0,0,0,0l0,0c0,0,0.1,0,0.1-0.1v-0.2L32.3,75.2z"/>
	<path class="st2" d="M32.3,74.8c0,0-0.1,0-0.1,0.1c-0.1,0-0.1,0.1-0.2,0.2c-0.1,0.1-0.2,0.1-0.2,0.2l0,0l0,0l0,0c0,0,0,0-0.1,0l0,0
		c0,0-0.1,0-0.1,0.1l0,0l0,0c0,0,0,0-0.1,0.1c0,0,0,0,0,0c0,0,0,0,0,0c0,0,0,0,0,0.1c0,0,0,0,0.1,0l0,0l0,0l0,0l0,0l0,0
		c0.1,0,0.1,0,0.2-0.1c0,0,0.1-0.1,0.1-0.1l0,0l0,0c0,0,0,0,0.1-0.1c0,0,0,0,0,0l0,0l0,0c0,0,0,0,0,0c0,0,0,0,0,0
		c0.1,0,0.1-0.1,0.1-0.1c0,0,0-0.1,0.1-0.1l0,0c0,0,0,0,0,0c0,0,0,0,0,0l0,0V75L32.3,74.8z"/>
	<path class="st3" d="M114.8,80.8h-5.7l-1.7-4.2h-9.5l-1.6,4.2h-5.6l8.5-21.2h6.1L114.8,80.8L114.8,80.8z M102.4,64.7L99.4,73h6.5
		L102.4,64.7L102.4,64.7z"/>
	<rect x="117.2" y="59.7" class="st3" width="5.3" height="21.2"/>
	<path class="st3" d="M136.3,59.7c7.7,0,11.7,4.8,11.7,10.6c0,5.8-3.9,10.6-12.3,10.6h-8.8V59.7H136.3L136.3,59.7z M132.2,77h3.4
		c5.3,0,6.9-3.6,6.9-6.7c0-3.6-1.9-6.7-6.9-6.7h-3.4V77z"/>
	<path class="st3" d="M12.1,83.8c0,0,0.1,1.4,1.7,2.4v-2.4H12.1z"/>
	<path class="st3" d="M14.6,83.8h2.3v3.8c0,0-1.5-0.3-2.3-0.8V83.8z"/>
	<path class="st3" d="M17.8,83.8v3.9c0,0,0.8,0.1,1,0.1c0.1,0,1,0.1,1.3,0.3v-4.4C20.1,83.8,17.8,83.8,17.8,83.8z"/>
	<path class="st3" d="M32.3,83.8c0,0-0.1,1.4-1.7,2.4v-2.4H32.3z"/>
	<path class="st3" d="M29.7,83.8h-2.3v3.8c0,0,1.5-0.3,2.3-0.8V83.8z"/>
	<path class="st3" d="M26.6,83.8v3.9c0,0-0.8,0.1-1,0.1c-0.1,0-1,0.1-1.3,0.3v-4.4C24.2,83.8,26.6,83.8,26.6,83.8z"/>
	<path class="st3" d="M22.2,89.6c-0.4-0.7-1.1-1.1-1.1-1.1v-4.8h2.3v4.8C23.3,88.6,22.6,88.9,22.2,89.6"/>
	<polygon class="st0" points="14.1,81.4 14.9,81.4 14.9,81.5 14.3,81.9 14.5,82.7 14.5,82.7 13.9,82.2 13.3,82.7 13.3,82.7 
		13.5,81.9 12.9,81.5 12.9,81.4 13.6,81.4 13.9,80.7 13.9,80.7 	"/>
	<polygon class="st0" points="16.9,81.4 17.7,81.4 17.7,81.5 17.1,81.9 17.3,82.7 17.3,82.7 16.7,82.2 16,82.7 16,82.7 16.3,81.9 
		15.6,81.5 15.6,81.4 16.4,81.4 16.7,80.7 16.7,80.7 	"/>
	<polygon class="st0" points="19.7,81.4 20.5,81.4 20.5,81.5 19.9,81.9 20.1,82.7 20.1,82.7 19.5,82.2 18.8,82.7 18.8,82.7 
		19.1,81.9 18.4,81.5 18.4,81.4 19.2,81.4 19.4,80.7 19.5,80.7 	"/>
	<polygon class="st0" points="22.5,81.4 23.3,81.4 23.3,81.5 22.6,81.9 22.9,82.7 22.9,82.7 22.2,82.2 21.6,82.7 21.6,82.7 
		21.8,81.9 21.2,81.5 21.2,81.4 22,81.4 22.2,80.7 22.2,80.7 	"/>
	<polygon class="st0" points="25.2,81.4 26.1,81.4 26.1,81.5 25.4,81.9 25.7,82.7 25.6,82.7 25,82.2 24.4,82.7 24.4,82.7 24.6,81.9 
		24,81.5 24,81.4 24.8,81.4 25,80.7 25,80.7 	"/>
	<polygon class="st0" points="28,81.4 28.8,81.4 28.8,81.5 28.2,81.9 28.4,82.7 28.4,82.7 27.8,82.2 27.2,82.7 27.2,82.7 27.4,81.9 
		26.8,81.5 26.8,81.4 27.6,81.4 27.8,80.7 27.8,80.7 	"/>
	<polygon class="st0" points="30.8,81.4 31.6,81.4 31.6,81.5 31,81.9 31.2,82.7 31.2,82.7 30.6,82.2 30,82.7 30,82.7 30.2,81.9 
		29.6,81.5 29.6,81.4 30.3,81.4 30.6,80.7 30.6,80.7 	"/>
	<path class="st0" d="M17.6,63v1.9c0,1.1-0.7,1.5-1.7,1.5c-1,0-1.7-0.5-1.7-1.5V63h0.8V65c0,0.5,0.4,0.8,0.8,0.8
		c0.4,0,0.9-0.2,0.9-0.8v-1.8L17.6,63L17.6,63z"/>
	<path class="st0" d="M20.5,63.9c-0.5-0.2-0.8-0.3-1.1-0.3c-0.3,0-0.5,0.1-0.5,0.3c0,0.5,1.7,0.4,1.7,1.5c0,0.6-0.5,1-1.3,1
		c-0.6,0-0.9-0.1-1.2-0.3v-0.7c0.5,0.3,0.8,0.4,1.1,0.4c0.3,0,0.5-0.1,0.5-0.3c0-0.5-1.7-0.4-1.7-1.5c0-0.6,0.5-1,1.3-1
		c0.4,0,0.7,0.1,1.1,0.2V63.9z"/>
	<path class="st0" d="M24.7,66.4h-0.9l-0.3-0.7H22l-0.2,0.7h-0.9l1.3-3.3h1C23.2,63,24.7,66.4,24.7,66.4z M22.7,63.9l-0.5,1.3h1
		L22.7,63.9z"/>
	<rect x="25.1" y="63" class="st0" width="0.8" height="3.3"/>
	<path class="st0" d="M28.1,63c1.2,0,1.8,0.7,1.8,1.7c0,1-0.6,1.7-1.9,1.7h-1.4V63C26.7,63,28.1,63,28.1,63z M27.5,65.8H28
		c0.9,0,1.1-0.6,1.1-1.1c0-0.6-0.3-1.1-1.1-1.1h-0.5V65.8L27.5,65.8z"/>
</g>
</svg>
