<?xml version="1.0" encoding="utf-8"?>
<!-- Generator: Adobe Illustrator 25.2.0, SVG Export Plug-In . SVG Version: 6.00 Build 0)  -->
<svg version="1.1" id="Layer_1" xmlns="http://www.w3.org/2000/svg" xmlns:xlink="http://www.w3.org/1999/xlink" x="0px" y="0px"
	 viewBox="0 0 148 148" style="enable-background:new 0 0 148 148;" xml:space="preserve">
<style type="text/css">
	.st0{fill:#E03A2A;}
	.st1{fill:#FFFFFF;}
	.st2{fill:#5E6365;stroke:#5E6365;stroke-width:0.1;stroke-miterlimit:10;}
	.st3{fill:#016C4E;}
</style>
<g>
	<rect y="54.1" class="st0" width="27.3" height="31"/>
	<polyline class="st1" points="26.6,83.7 22.5,54.9 21.1,65.2 	"/>
	<polyline class="st1" points="23.8,83.7 18.5,55.4 18.2,66.4 	"/>
	<polyline class="st1" points="22.3,83.7 15.3,59.3 14.9,68.5 	"/>
	<polyline class="st1" points="20.6,83.7 12,63.8 11.5,72.6 	"/>
	<polyline class="st1" points="18.4,83.7 8.3,68.6 7.9,75.9 	"/>
	<polyline class="st1" points="16.3,83.8 4.8,73.9 4.5,80.8 	"/>
	<polyline class="st1" points="15.1,84.4 1.4,80.7 0.7,84.1 	"/>
	<g>
		<path class="st2" d="M36.8,61.1c0,0,0.1-0.2,0.1-0.2h3c1.7,0,2.5,1.2,2.5,2.9c0,1.3-0.5,2.1-1.1,2.4l0,0c0.6,0.2,1.3,1.1,1.3,2.6
			c0,2.1-1,3.2-2.7,3.2H37c0,0-0.1-0.1-0.1-0.2L36.8,61.1L36.8,61.1z M39.9,65.8c0.9,0,1.5-0.7,1.5-1.7s-0.6-1.7-1.5-1.7H38
			c0,0-0.1,0-0.1,0.1v3.3c0,0,0,0.1,0.1,0.1H39.9z M38,70.8h2c1,0,1.5-0.7,1.5-1.8s-0.6-1.8-1.5-1.8h-2c0,0-0.1,0-0.1,0.1L38,70.8
			C37.9,70.7,37.9,70.8,38,70.8z"/>
		<path class="st2" d="M47.2,72.2c0,0-0.1-0.1-0.1-0.2v-0.7l0,0c-0.3,0.6-0.9,1-1.7,1c-1.1,0-2-0.8-2-2.4c0-1.6,0.9-2.4,2.3-2.4H47
			c0,0,0.1,0,0.1-0.1v-0.6c0-1.1-0.3-1.5-1.4-1.5c-0.7,0-1.1,0.2-1.4,0.6c-0.1,0.1-0.1,0.1-0.2,0l-0.3-0.8c0,0,0-0.2,0-0.2
			c0.5-0.5,1.1-0.8,2-0.8c1.7,0,2.3,0.7,2.3,2.7v5.2c0,0-0.1,0.2-0.1,0.2L47.2,72.2L47.2,72.2z M47.1,69.6v-0.9c0,0,0-0.1-0.1-0.1
			h-1.2c-1,0-1.5,0.4-1.5,1.3c0,0.8,0.5,1.2,1.2,1.2C46.5,71.2,47.1,70.6,47.1,69.6L47.1,69.6z"/>
		<path class="st2" d="M53.3,72.2c0,0-0.1-0.1-0.1-0.2v-4.6c0-1.3-0.4-2-1.3-2c-0.8,0-1.4,0.8-1.4,1.9V72c0,0-0.1,0.2-0.1,0.2h-0.8
			c0,0-0.1-0.1-0.1-0.2v-7.6c0,0,0.1-0.2,0.1-0.2h0.8c0,0,0.1,0.1,0.1,0.2v0.7l0,0c0.3-0.6,0.9-1.1,1.7-1.1c1.3,0,2.1,1.2,2.1,3v4.9
			c0,0-0.1,0.2-0.1,0.2L53.3,72.2L53.3,72.2z"/>
		<path class="st2" d="M55.4,74.1c0,0-0.1-0.2,0-0.2l0.5-0.7c0,0,0.1-0.1,0.2,0c0.4,0.5,0.8,0.8,1.4,0.8c1,0,1.5-0.7,1.5-2.1V71l0,0
			c-0.3,0.6-0.8,1.1-1.7,1.1c-1,0-1.7-0.7-2-1.9c-0.2-0.6-0.2-1.2-0.2-2.1c0-0.9,0.1-1.5,0.2-2.1c0.3-1.2,1-1.9,2-1.9
			c0.9,0,1.4,0.4,1.7,1.1l0,0v-0.7c0,0,0.1-0.2,0.1-0.2H60c0,0,0.1,0.1,0.1,0.2v7.4c0,2.2-0.9,3.5-2.6,3.5
			C56.7,75.3,55.9,74.8,55.4,74.1L55.4,74.1z M58.9,69.6c0.1-0.4,0.1-0.9,0.1-1.5c0-0.7,0-1.1-0.1-1.5c-0.2-0.8-0.6-1.2-1.3-1.2
			c-0.6,0-1,0.4-1.3,1.2c-0.1,0.4-0.2,0.9-0.2,1.5c0,0.6,0.1,1.1,0.2,1.5c0.2,0.8,0.6,1.2,1.3,1.2S58.7,70.4,58.9,69.6z"/>
		<path class="st2" d="M62.9,72.2c-1,0-1.4-0.6-1.4-2.1v-9.1c0,0,0.1-0.2,0.1-0.2h0.8c0,0,0.1,0.1,0.1,0.2v9c0,0.6,0.2,0.9,0.6,0.9
			h0.2c0,0,0.1,0.1,0.1,0.2v1c0,0-0.1,0.2-0.1,0.2L62.9,72.2L62.9,72.2z"/>
		<path class="st2" d="M67.9,72.2c0,0-0.1-0.1-0.1-0.2v-0.7l0,0c-0.3,0.6-0.9,1-1.7,1c-1.1,0-2-0.8-2-2.4c0-1.6,0.9-2.4,2.3-2.4h1.4
			c0,0,0.1,0,0.1-0.1v-0.6c0-1.1-0.3-1.5-1.4-1.5c-0.7,0-1.1,0.2-1.4,0.6c-0.1,0.1-0.1,0.1-0.2,0l-0.3-0.8c0,0,0-0.2,0-0.2
			c0.5-0.5,1.1-0.8,2-0.8c1.7,0,2.3,0.7,2.3,2.7v5.2c0,0-0.1,0.2-0.1,0.2L67.9,72.2L67.9,72.2z M67.7,69.6v-0.9c0,0,0-0.1-0.1-0.1
			h-1.2c-1,0-1.5,0.4-1.5,1.3c0,0.8,0.5,1.2,1.2,1.2C67.2,71.2,67.7,70.6,67.7,69.6L67.7,69.6z"/>
		<path class="st2" d="M73.8,72.2c0,0-0.1-0.1-0.1-0.2v-0.8l0,0c-0.3,0.6-0.8,1.1-1.7,1.1c-1,0-1.7-0.6-2.1-1.9
			c-0.2-0.6-0.2-1.3-0.2-2.2c0-1,0.1-1.6,0.2-2.2c0.3-1.3,1-1.9,2.1-1.9c0.9,0,1.4,0.5,1.7,1.1l0,0v-4.1c0,0,0.1-0.2,0.1-0.2h0.8
			c0,0,0.1,0.1,0.1,0.2V72c0,0-0.1,0.2-0.1,0.2L73.8,72.2L73.8,72.2z M73.6,69.9c0.1-0.4,0.1-0.9,0.1-1.7c0-0.8,0-1.3-0.1-1.7
			c-0.2-0.8-0.6-1.2-1.3-1.2c-0.7,0-1.1,0.4-1.3,1.2c-0.1,0.4-0.1,1-0.1,1.7s0,1.2,0.1,1.7c0.2,0.8,0.6,1.2,1.3,1.2
			C72.9,71.1,73.4,70.7,73.6,69.9z"/>
		<path class="st2" d="M76,70.2c-0.1-0.5-0.2-1.1-0.2-2c0-0.9,0.1-1.5,0.2-2c0.3-1.4,1.2-2.1,2.3-2.1c1.1,0,2,0.8,2.3,2.1
			c0.1,0.5,0.2,1,0.2,2.3c0,0.1-0.1,0.2-0.1,0.2h-3.7c0,0-0.1,0-0.1,0.1c0,0.4,0,0.7,0.1,1c0.2,0.9,0.8,1.4,1.5,1.4s1.2-0.4,1.5-0.9
			c0.1-0.1,0.1-0.1,0.2,0l0.5,0.6c0,0,0.1,0.2,0,0.2c-0.5,0.8-1.3,1.4-2.3,1.4C77.2,72.4,76.4,71.6,76,70.2L76,70.2z M79.6,67.5
			C79.6,67.5,79.7,67.5,79.6,67.5c0.1-0.5,0.1-0.7,0-1c-0.2-0.8-0.7-1.2-1.4-1.2c-0.6,0-1.2,0.4-1.4,1.2c-0.1,0.2-0.1,0.5-0.1,0.9
			c0,0.1,0,0.1,0.1,0.1H79.6L79.6,67.5z"/>
		<path class="st2" d="M81.5,71.2c0,0-0.1-0.2,0-0.2l0.5-0.7c0,0,0.1-0.1,0.2,0c0.5,0.5,1.1,0.9,1.8,0.9c0.9,0,1.3-0.5,1.3-1.2
			c0-0.6-0.2-1-1.1-1.1l-0.6-0.1c-1.2-0.2-1.8-1-1.8-2.2c0-1.5,0.8-2.4,2.2-2.4c0.9,0,1.6,0.4,2.1,0.9c0.1,0.1,0.1,0.2,0,0.2
			l-0.4,0.7c0,0-0.1,0.1-0.2,0c-0.4-0.3-1-0.6-1.6-0.6c-0.7,0-1.1,0.4-1.1,1.1s0.3,1,1.2,1.1l0.6,0.1c1.2,0.2,1.8,1,1.8,2.2
			c0,1.5-0.8,2.6-2.4,2.6C82.7,72.4,81.9,71.7,81.5,71.2L81.5,71.2z"/>
		<path class="st2" d="M91.2,72.2c0,0-0.1-0.1-0.1-0.2v-4.6c0-1.3-0.4-2-1.3-2c-0.8,0-1.4,0.8-1.4,1.9V72c0,0-0.1,0.2-0.1,0.2h-0.8
			c0,0-0.1-0.1-0.1-0.2V61.2c0,0,0.1-0.2,0.1-0.2h0.8c0,0,0.1,0.1,0.1,0.2v4.1l0,0c0.3-0.6,0.9-1.1,1.7-1.1c1.3,0,2.1,1.2,2.1,3v4.9
			c0,0-0.1,0.2-0.1,0.2L91.2,72.2L91.2,72.2z"/>
		<path class="st2" d="M95.8,61.1c0,0,0.1-0.2,0.1-0.2h0.9c0,0,0.1,0.1,0.1,0.2V72c0,0-0.1,0.2-0.1,0.2h-0.9c0,0-0.1-0.1-0.1-0.2
			C95.8,72,95.8,61.1,95.8,61.1z"/>
		<path class="st2" d="M102.2,72.2c0,0-0.1-0.1-0.1-0.2v-4.6c0-1.3-0.4-2-1.3-2c-0.8,0-1.4,0.8-1.4,1.9V72c0,0-0.1,0.2-0.1,0.2h-0.8
			c0,0-0.1-0.1-0.1-0.2v-7.6c0,0,0.1-0.2,0.1-0.2h0.8c0,0,0.1,0.1,0.1,0.2v0.7l0,0c0.3-0.6,0.9-1.1,1.7-1.1c1.3,0,2.1,1.2,2.1,3v4.9
			c0,0-0.1,0.2-0.1,0.2L102.2,72.2L102.2,72.2z"/>
		<path class="st2" d="M105.9,72.2c0,0-0.1-0.1-0.2-0.2l-2.1-7.6c0,0,0-0.2,0.1-0.2h0.9c0,0,0.1,0.1,0.2,0.2l1.5,5.7l0,0l1.5-5.7
			c0,0,0.1-0.2,0.2-0.2h0.8c0,0,0.1,0.1,0.1,0.2l-2.1,7.6c0,0-0.1,0.2-0.2,0.2H105.9L105.9,72.2z"/>
		<path class="st2" d="M109.4,70.2c-0.1-0.5-0.2-1.1-0.2-2c0-0.9,0.1-1.5,0.2-2c0.3-1.4,1.2-2.1,2.3-2.1c1.1,0,2,0.8,2.3,2.1
			c0.1,0.5,0.2,1,0.2,2.3c0,0.1-0.1,0.2-0.1,0.2h-3.7c0,0-0.1,0-0.1,0.1c0,0.4,0,0.7,0.1,1c0.2,0.9,0.8,1.4,1.5,1.4
			c0.7,0,1.2-0.4,1.5-0.9c0.1-0.1,0.1-0.1,0.2,0l0.5,0.6c0,0,0.1,0.2,0,0.2c-0.5,0.8-1.3,1.4-2.3,1.4
			C110.7,72.4,109.8,71.6,109.4,70.2L109.4,70.2z M113.1,67.5C113.1,67.5,113.2,67.5,113.1,67.5c0.1-0.5,0.1-0.7,0-1
			c-0.2-0.8-0.7-1.2-1.4-1.2c-0.6,0-1.2,0.4-1.4,1.2c-0.1,0.2-0.1,0.5-0.1,0.9c0,0.1,0,0.1,0.1,0.1H113.1L113.1,67.5z"/>
		<path class="st2" d="M114.9,71.2c0,0-0.1-0.2,0-0.2l0.5-0.7c0,0,0.1-0.1,0.2,0c0.5,0.5,1.1,0.9,1.8,0.9c0.9,0,1.3-0.5,1.3-1.2
			c0-0.6-0.2-1-1.1-1.1l-0.6-0.1c-1.2-0.2-1.8-1-1.8-2.2c0-1.5,0.8-2.4,2.2-2.4c0.9,0,1.6,0.4,2.1,0.9c0.1,0.1,0.1,0.2,0,0.2
			l-0.4,0.7c0,0-0.1,0.1-0.2,0c-0.4-0.3-1-0.6-1.6-0.6c-0.7,0-1.1,0.4-1.1,1.1s0.3,1,1.2,1.1l0.6,0.1c1.2,0.2,1.8,1,1.8,2.2
			c0,1.5-0.8,2.6-2.4,2.6C116.1,72.4,115.3,71.7,114.9,71.2L114.9,71.2z"/>
		<path class="st2" d="M122.5,72.2c-1.1,0-1.6-0.7-1.6-2.2v-4.5c0,0,0-0.1-0.1-0.1h-0.5c0,0-0.1-0.1-0.1-0.2v-0.8
			c0,0,0.1-0.2,0.1-0.2h0.5c0,0,0.1,0,0.1-0.1V62c0,0,0.1-0.2,0.1-0.2h0.8c0,0,0.1,0.1,0.1,0.2v2.2c0,0,0,0.1,0.1,0.1h1
			c0,0,0.1,0.1,0.1,0.2v0.8c0,0-0.1,0.2-0.1,0.2h-1c0,0-0.1,0-0.1,0.1V70c0,0.8,0.2,1,0.8,1h0.2c0,0,0.1,0.1,0.1,0.2v1
			c0,0-0.1,0.2-0.1,0.2C122.9,72.2,122.5,72.2,122.5,72.2z"/>
		<path class="st2" d="M131.6,72.2c0,0-0.1-0.1-0.1-0.2v-4.6c0-1.3-0.4-2-1.3-2c-0.8,0-1.4,0.8-1.4,1.9V72c0,0-0.1,0.2-0.1,0.2h-0.8
			c0,0-0.1-0.1-0.1-0.2v-4.6c0-1.3-0.4-2-1.3-2c-0.8,0-1.4,0.8-1.4,1.9V72c0,0-0.1,0.2-0.1,0.2h-0.8c0,0-0.1-0.1-0.1-0.2v-7.6
			c0,0,0.1-0.2,0.1-0.2h0.8c0,0,0.1,0.1,0.1,0.2v0.7l0,0c0.3-0.6,0.9-1.1,1.7-1.1c0.8,0,1.4,0.4,1.7,1.2l0,0c0.4-0.8,1-1.2,1.9-1.2
			c1.4,0,2.1,1.2,2.1,3v4.9c0,0-0.1,0.2-0.1,0.2L131.6,72.2L131.6,72.2z"/>
		<path class="st2" d="M133.7,70.2c-0.1-0.5-0.2-1.1-0.2-2c0-0.9,0.1-1.5,0.2-2c0.3-1.4,1.2-2.1,2.3-2.1c1.1,0,2,0.8,2.3,2.1
			c0.1,0.5,0.2,1,0.2,2.3c0,0.1-0.1,0.2-0.1,0.2h-3.7c0,0-0.1,0-0.1,0.1c0,0.4,0,0.7,0.1,1c0.2,0.9,0.8,1.4,1.5,1.4s1.2-0.4,1.5-0.9
			c0.1-0.1,0.1-0.1,0.2,0l0.5,0.6c0,0,0.1,0.2,0,0.2c-0.5,0.8-1.3,1.4-2.3,1.4C135,72.4,134.1,71.6,133.7,70.2L133.7,70.2z
			 M137.4,67.5C137.4,67.5,137.4,67.5,137.4,67.5c0.1-0.5,0.1-0.7,0-1c-0.2-0.8-0.7-1.2-1.4-1.2c-0.6,0-1.2,0.4-1.4,1.2
			c-0.1,0.2-0.1,0.5-0.1,0.9c0,0.1,0,0.1,0.1,0.1H137.4L137.4,67.5z"/>
		<path class="st2" d="M143.4,72.2c0,0-0.1-0.1-0.1-0.2v-4.6c0-1.3-0.4-2-1.3-2c-0.8,0-1.4,0.8-1.4,1.9V72c0,0-0.1,0.2-0.1,0.2h-0.8
			c0,0-0.1-0.1-0.1-0.2v-7.6c0,0,0.1-0.2,0.1-0.2h0.8c0,0,0.1,0.1,0.1,0.2v0.7l0,0c0.3-0.6,0.9-1.1,1.7-1.1c1.3,0,2.1,1.2,2.1,3v4.9
			c0,0-0.1,0.2-0.1,0.2L143.4,72.2L143.4,72.2z"/>
		<path class="st2" d="M147.4,72.2c-1.1,0-1.6-0.7-1.6-2.2v-4.5c0,0,0-0.1-0.1-0.1h-0.5c0,0-0.1-0.1-0.1-0.2v-0.8
			c0,0,0.1-0.2,0.1-0.2h0.5c0,0,0.1,0,0.1-0.1V62c0,0,0.1-0.2,0.1-0.2h0.8c0,0,0.1,0.1,0.1,0.2v2.2c0,0,0,0.1,0.1,0.1h1
			c0,0,0.1,0.1,0.1,0.2v0.8c0,0-0.1,0.2-0.1,0.2h-1c0,0-0.1,0-0.1,0.1V70c0,0.8,0.2,1,0.8,1h0.2c0,0,0.1,0.1,0.1,0.2v1
			c0,0-0.1,0.2-0.1,0.2C147.9,72.2,147.4,72.2,147.4,72.2z"/>
		<path class="st2" d="M36.8,77.5c0,0,0.1-0.2,0.1-0.2h2.8c1.4,0,2.4,0.8,2.7,2.4c0.2,0.6,0.2,1.2,0.2,3.2s-0.1,2.6-0.2,3.2
			c-0.4,1.6-1.3,2.4-2.7,2.4H37c0,0-0.1-0.1-0.1-0.2V77.5L36.8,77.5z M38,87.1h1.5c1,0,1.7-0.5,1.9-1.5c0.1-0.4,0.2-1,0.2-2.7
			c0-1.7-0.1-2.3-0.2-2.7c-0.3-1.1-0.9-1.5-1.9-1.5H38c0,0-0.1,0-0.1,0.1L38,87.1C37.9,87,37.9,87.1,38,87.1z"/>
		<path class="st2" d="M43.7,86.5c-0.1-0.5-0.2-1.1-0.2-2s0.1-1.5,0.2-2c0.3-1.4,1.2-2.1,2.3-2.1s2,0.8,2.3,2.1
			c0.1,0.5,0.2,1,0.2,2.3c0,0.1-0.1,0.2-0.1,0.2h-3.7c0,0-0.1,0-0.1,0.1c0,0.4,0,0.7,0.1,1c0.2,0.9,0.8,1.4,1.5,1.4
			c0.7,0,1.2-0.4,1.5-0.9c0.1-0.1,0.1-0.1,0.2,0l0.5,0.6c0,0,0.1,0.2,0,0.2c-0.5,0.8-1.3,1.4-2.3,1.4C45,88.7,44.1,87.9,43.7,86.5
			L43.7,86.5z M47.4,83.9C47.4,83.9,47.5,83.8,47.4,83.9c0.1-0.5,0.1-0.7,0-1c-0.2-0.8-0.7-1.2-1.4-1.2s-1.2,0.4-1.4,1.2
			c-0.1,0.2-0.1,0.5-0.1,0.9c0,0.1,0,0.1,0.1,0.1H47.4L47.4,83.9z"/>
		<path class="st2" d="M51.2,88.5c0,0-0.1-0.1-0.2-0.2l-2.1-7.6c0,0,0-0.2,0.1-0.2h0.9c0,0,0.1,0.1,0.2,0.2l1.5,5.7l0,0l1.5-5.7
			c0,0,0.1-0.2,0.2-0.2H54c0,0,0.1,0.1,0.1,0.2L52,88.3c0,0-0.1,0.2-0.2,0.2H51.2L51.2,88.5z"/>
		<path class="st2" d="M54.7,86.5c-0.1-0.5-0.2-1.1-0.2-2s0.1-1.5,0.2-2c0.3-1.4,1.2-2.1,2.3-2.1s2,0.8,2.3,2.1
			c0.1,0.5,0.2,1,0.2,2.3c0,0.1-0.1,0.2-0.1,0.2h-3.7c0,0-0.1,0-0.1,0.1c0,0.4,0,0.7,0.1,1c0.2,0.9,0.8,1.4,1.5,1.4
			c0.7,0,1.2-0.4,1.5-0.9c0.1-0.1,0.1-0.1,0.2,0l0.5,0.6c0,0,0.1,0.2,0,0.2c-0.5,0.8-1.3,1.4-2.3,1.4C55.9,88.7,55.1,87.9,54.7,86.5
			L54.7,86.5z M58.3,83.9C58.3,83.9,58.4,83.8,58.3,83.9c0.1-0.5,0.1-0.7,0-1c-0.2-0.8-0.7-1.2-1.4-1.2c-0.6,0-1.2,0.4-1.4,1.2
			c-0.1,0.2-0.1,0.5-0.1,0.9c0,0.1,0,0.1,0.1,0.1H58.3L58.3,83.9z"/>
		<path class="st2" d="M62,88.6c-1,0-1.4-0.6-1.4-2.1v-9.1c0,0,0.1-0.2,0.1-0.2h0.8c0,0,0.1,0.1,0.1,0.2v9c0,0.6,0.2,0.9,0.6,0.9
			h0.2c0,0,0.1,0.1,0.1,0.2v1c0,0-0.1,0.2-0.1,0.2L62,88.6L62,88.6z"/>
		<path class="st2" d="M63.2,86.5c-0.1-0.6-0.2-1.1-0.2-2s0.1-1.4,0.2-2c0.3-1.4,1.2-2.1,2.3-2.1c1.1,0,2,0.8,2.3,2.1
			c0.1,0.6,0.2,1.1,0.2,2s-0.1,1.5-0.2,2c-0.3,1.3-1.2,2.1-2.3,2.1C64.4,88.7,63.5,87.9,63.2,86.5z M66.9,86.1
			c0.1-0.4,0.1-0.9,0.1-1.6c0-0.8,0-1.2-0.1-1.6c-0.2-0.8-0.7-1.2-1.4-1.2c-0.7,0-1.1,0.5-1.4,1.2c-0.1,0.4-0.1,0.8-0.1,1.6
			c0,0.8,0,1.2,0.1,1.6c0.2,0.8,0.7,1.2,1.4,1.2C66.2,87.4,66.7,86.9,66.9,86.1z"/>
		<path class="st2" d="M69.2,91.4c0,0-0.1-0.1-0.1-0.2V80.8c0,0,0.1-0.2,0.1-0.2H70c0,0,0.1,0.1,0.1,0.2v0.7l0,0
			c0.3-0.6,0.8-1.1,1.7-1.1c1,0,1.7,0.6,2.1,1.9c0.2,0.6,0.2,1.3,0.2,2.2c0,1-0.1,1.6-0.2,2.2c-0.3,1.3-1,1.9-2.1,1.9
			c-0.9,0-1.4-0.5-1.7-1.1l0,0v3.7c0,0-0.1,0.2-0.1,0.2H69.2z M72.9,86.2c0.1-0.4,0.1-0.9,0.1-1.7c0-0.7,0-1.2-0.1-1.7
			c-0.2-0.8-0.6-1.2-1.3-1.2c-0.6,0-1.1,0.4-1.3,1.2c-0.1,0.4-0.1,0.9-0.1,1.7c0,0.8,0,1.3,0.1,1.7c0.2,0.8,0.6,1.2,1.3,1.2
			C72.3,87.4,72.7,86.9,72.9,86.2z"/>
		<path class="st2" d="M82.7,88.5c0,0-0.1-0.1-0.1-0.2v-4.6c0-1.3-0.4-2-1.3-2c-0.8,0-1.4,0.8-1.4,1.9v4.7c0,0-0.1,0.2-0.1,0.2H79
			c0,0-0.1-0.1-0.1-0.2v-4.6c0-1.3-0.4-2-1.3-2c-0.8,0-1.4,0.8-1.4,1.9v4.7c0,0-0.1,0.2-0.1,0.2h-0.8c0,0-0.1-0.1-0.1-0.2v-7.6
			c0,0,0.1-0.2,0.1-0.2h0.8c0,0,0.1,0.1,0.1,0.2v0.7l0,0c0.3-0.6,0.9-1.1,1.7-1.1c0.8,0,1.4,0.4,1.7,1.2l0,0c0.4-0.8,1-1.2,1.9-1.2
			c1.4,0,2.1,1.2,2.1,3v4.9c0,0-0.1,0.2-0.1,0.2L82.7,88.5L82.7,88.5z"/>
		<path class="st2" d="M84.8,86.5c-0.1-0.5-0.2-1.1-0.2-2s0.1-1.5,0.2-2c0.3-1.4,1.2-2.1,2.3-2.1c1.1,0,2,0.8,2.3,2.1
			c0.1,0.5,0.2,1,0.2,2.3c0,0.1-0.1,0.2-0.1,0.2h-3.7c0,0-0.1,0-0.1,0.1c0,0.4,0,0.7,0.1,1c0.2,0.9,0.8,1.4,1.5,1.4
			c0.7,0,1.2-0.4,1.5-0.9c0.1-0.1,0.1-0.1,0.2,0l0.5,0.6c0,0,0.1,0.2,0,0.2c-0.5,0.8-1.3,1.4-2.3,1.4C86.1,88.7,85.2,87.9,84.8,86.5
			L84.8,86.5z M88.5,83.9C88.5,83.9,88.6,83.8,88.5,83.9c0.1-0.5,0.1-0.7,0-1c-0.2-0.8-0.7-1.2-1.4-1.2c-0.6,0-1.2,0.4-1.4,1.2
			c-0.1,0.2-0.1,0.5-0.1,0.9c0,0.1,0,0.1,0.1,0.1H88.5L88.5,83.9z"/>
		<path class="st2" d="M94.6,88.5c0,0-0.1-0.1-0.1-0.2v-4.6c0-1.3-0.4-2-1.3-2c-0.8,0-1.4,0.8-1.4,1.9v4.7c0,0-0.1,0.2-0.1,0.2h-0.8
			c0,0-0.1-0.1-0.1-0.2v-7.6c0,0,0.1-0.2,0.1-0.2h0.8c0,0,0.1,0.1,0.1,0.2v0.7l0,0c0.3-0.6,0.9-1.1,1.7-1.1c1.3,0,2.1,1.2,2.1,3v4.9
			c0,0-0.1,0.2-0.1,0.2L94.6,88.5L94.6,88.5z"/>
		<path class="st2" d="M98.6,88.6c-1.1,0-1.6-0.7-1.6-2.2v-4.5c0,0,0-0.1-0.1-0.1h-0.5c0,0-0.1-0.1-0.1-0.2v-0.8
			c0,0,0.1-0.2,0.1-0.2h0.5c0,0,0.1,0,0.1-0.1v-2.2c0,0,0.1-0.2,0.1-0.2h0.8c0,0,0.1,0.1,0.1,0.2v2.2c0,0,0,0.1,0.1,0.1h1
			c0,0,0.1,0.1,0.1,0.2v0.8c0,0-0.1,0.2-0.1,0.2h-1c0,0-0.1,0-0.1,0.1v4.5c0,0.8,0.2,1,0.8,1H99c0,0,0.1,0.1,0.1,0.2v1
			c0,0-0.1,0.2-0.1,0.2C99,88.6,98.6,88.6,98.6,88.6z"/>
		<path class="st2" d="M104.7,77.5c0,0,0.1-0.2,0.2-0.2h0.8c0,0,0.1,0.1,0.2,0.2l2.9,10.9c0,0,0,0.2-0.1,0.2h-0.9
			c0,0-0.1-0.1-0.2-0.2l-0.6-2.4h-3.4l-0.6,2.4c0,0-0.1,0.2-0.2,0.2h-0.9c0,0-0.1-0.1-0.1-0.2C101.7,88.3,104.7,77.5,104.7,77.5z
			 M106.5,84.5l-1.3-5.1l0,0l-1.4,5.1H106.5z"/>
		<path class="st2" d="M113,88.5c0,0-0.1-0.1-0.1-0.2v-0.7l0,0c-0.3,0.6-0.9,1.1-1.6,1.1c-1.3,0-2.1-1.2-2.1-3v-4.9
			c0,0,0.1-0.2,0.1-0.2h0.8c0,0,0.1,0.1,0.1,0.2v4.6c0,1.3,0.4,2,1.3,2c0.8,0,1.4-0.8,1.4-1.9v-4.7c0,0,0.1-0.2,0.1-0.2h0.8
			c0,0,0.1,0.1,0.1,0.2v7.6c0,0-0.1,0.2-0.1,0.2H113L113,88.5z"/>
		<path class="st2" d="M117.1,88.6c-1.1,0-1.6-0.7-1.6-2.2v-4.5c0,0,0-0.1-0.1-0.1h-0.5c0,0-0.1-0.1-0.1-0.2v-0.8
			c0,0,0.1-0.2,0.1-0.2h0.5c0,0,0.1,0,0.1-0.1v-2.2c0,0,0.1-0.2,0.1-0.2h0.8c0,0,0.1,0.1,0.1,0.2v2.2c0,0,0,0.1,0.1,0.1h1
			c0,0,0.1,0.1,0.1,0.2v0.8c0,0-0.1,0.2-0.1,0.2h-1c0,0-0.1,0-0.1,0.1v4.5c0,0.8,0.2,1,0.8,1h0.2c0,0,0.1,0.1,0.1,0.2v1
			c0,0-0.1,0.2-0.1,0.2C117.5,88.6,117.1,88.6,117.1,88.6z"/>
		<path class="st2" d="M122.5,88.5c0,0-0.1-0.1-0.1-0.2v-4.6c0-1.3-0.4-2-1.3-2c-0.8,0-1.4,0.8-1.4,1.9v4.7c0,0-0.1,0.2-0.1,0.2
			h-0.8c0,0-0.1-0.1-0.1-0.2V77.5c0,0,0.1-0.2,0.1-0.2h0.8c0,0,0.1,0.1,0.1,0.2v4.1l0,0c0.3-0.6,0.9-1.1,1.7-1.1
			c1.3,0,2.1,1.2,2.1,3v4.9c0,0-0.1,0.2-0.1,0.2L122.5,88.5L122.5,88.5z"/>
		<path class="st2" d="M124.6,86.5c-0.1-0.6-0.2-1.1-0.2-2s0.1-1.4,0.2-2c0.3-1.4,1.2-2.1,2.3-2.1c1.1,0,2,0.8,2.3,2.1
			c0.1,0.6,0.2,1.1,0.2,2s-0.1,1.5-0.2,2c-0.3,1.3-1.2,2.1-2.3,2.1C125.8,88.7,124.9,87.9,124.6,86.5z M128.3,86.1
			c0.1-0.4,0.1-0.9,0.1-1.6c0-0.8,0-1.2-0.1-1.6c-0.2-0.8-0.7-1.2-1.4-1.2c-0.7,0-1.1,0.5-1.4,1.2c-0.1,0.4-0.1,0.8-0.1,1.6
			c0,0.8,0,1.2,0.1,1.6c0.2,0.8,0.7,1.2,1.4,1.2C127.6,87.4,128.1,86.9,128.3,86.1z"/>
		<path class="st2" d="M130.7,88.5c0,0-0.1-0.1-0.1-0.2v-7.6c0,0,0.1-0.2,0.1-0.2h0.8c0,0,0.1,0.1,0.1,0.2v0.8l0,0
			c0.2-0.7,0.8-1.2,1.6-1.2c0.5,0,0.9,0.2,1.2,0.6c0.1,0.1,0.1,0.2,0,0.2l-0.5,0.8c0,0-0.1,0.1-0.2,0c-0.3-0.2-0.6-0.4-0.9-0.4
			c-0.9,0-1.3,1-1.3,2.3v4.3c0,0-0.1,0.2-0.1,0.2H130.7L130.7,88.5z"/>
		<path class="st2" d="M135.1,78.8c0,0-0.1-0.1-0.1-0.2v-1.2c0,0,0.1-0.2,0.1-0.2h0.8c0,0,0.1,0.1,0.1,0.2v1.2c0,0-0.1,0.2-0.1,0.2
			H135.1z M135.1,88.5c0,0-0.1-0.1-0.1-0.2v-7.6c0,0,0.1-0.2,0.1-0.2h0.8c0,0,0.1,0.1,0.1,0.2v7.6c0,0-0.1,0.2-0.1,0.2H135.1z"/>
		<path class="st2" d="M139.2,88.6c-1.1,0-1.6-0.7-1.6-2.2v-4.5c0,0,0-0.1-0.1-0.1H137c0,0-0.1-0.1-0.1-0.2v-0.8
			c0,0,0.1-0.2,0.1-0.2h0.5c0,0,0.1,0,0.1-0.1v-2.2c0,0,0.1-0.2,0.1-0.2h0.8c0,0,0.1,0.1,0.1,0.2v2.2c0,0,0,0.1,0.1,0.1h1
			c0,0,0.1,0.1,0.1,0.2v0.8c0,0-0.1,0.2-0.1,0.2h-1c0,0-0.1,0-0.1,0.1v4.5c0,0.8,0.2,1,0.8,1h0.2c0,0,0.1,0.1,0.1,0.2v1
			c0,0-0.1,0.2-0.1,0.2C139.6,88.6,139.2,88.6,139.2,88.6z"/>
		<path class="st2" d="M140.8,91.4c0,0-0.1-0.1-0.1-0.2v-1c0,0,0.1-0.2,0.1-0.2h0.2c0.5,0,0.7-0.3,1-1.2l0.2-0.7l-2.2-7.5
			c0,0,0-0.2,0.1-0.2h0.9c0,0,0.1,0.1,0.2,0.2l1.6,5.7l0,0l1.5-5.7c0,0,0.1-0.2,0.2-0.2h0.8c0,0,0.1,0.1,0.1,0.2l-2.3,8.3
			c-0.5,1.9-1,2.4-1.9,2.4L140.8,91.4L140.8,91.4z"/>
	</g>
	<g>
		<path class="st3" d="M0,93.9v-6.4h4.4c0.6,0,1,0.1,1.3,0.4c0.3,0.2,0.5,0.6,0.5,1v0.8c0,0.5-0.2,0.8-0.7,1c0.5,0.2,0.7,0.5,0.7,1
			v0.6c0,0.5-0.2,0.8-0.5,1.1c-0.4,0.3-0.9,0.5-1.4,0.5L0,93.9L0,93.9z M1.3,90.2h2.9c0.2,0,0.5-0.1,0.6-0.2C4.9,89.9,5,89.8,5,89.6
			V89c0-0.3-0.2-0.5-0.7-0.6H4.1H1.3L1.3,90.2L1.3,90.2z M1.3,93h2.8c0.2,0,0.5-0.1,0.6-0.2C4.9,92.6,5,92.5,5,92.3v-0.6
			c0-0.2-0.2-0.3-0.5-0.5c-0.1-0.1-0.3-0.1-0.4-0.1H1.3V93z"/>
		<path class="st3" d="M9.1,93.9v-6.4h1.3v6.4H9.1z"/>
		<path class="st3" d="M13.3,93.9v-6.4h4.4c0.6,0,1,0.2,1.3,0.4c0.3,0.3,0.5,0.6,0.5,1v3.6c0,0.4-0.2,0.7-0.6,1
			c-0.4,0.2-0.9,0.4-1.4,0.4L13.3,93.9L13.3,93.9z M14.5,93h2.9c0.6,0,0.9-0.2,0.9-0.8V89c0-0.4-0.3-0.6-0.9-0.6h-2.8V93L14.5,93z"
			/>
		<path class="st3" d="M21.5,93.9l2.9-5.8c0.2-0.4,0.5-0.6,1-0.6c0.3,0,0.6,0.1,0.8,0.2c0.1,0.1,0.2,0.2,0.3,0.4l2.9,5.8h-1.3
			l-0.7-1.4h-3.7l-0.6,1.4L21.5,93.9L21.5,93.9z M23.9,91.6h2.9l-1.4-2.9L23.9,91.6z"/>
	</g>
</g>
</svg>
