<?xml version="1.0" encoding="utf-8"?>
<!-- Generator: Adobe Illustrator 25.2.0, SVG Export Plug-In . SVG Version: 6.00 Build 0)  -->
<svg version="1.1" id="Layer_1" xmlns="http://www.w3.org/2000/svg" xmlns:xlink="http://www.w3.org/1999/xlink" x="0px" y="0px"
	 viewBox="0 0 148 148" style="enable-background:new 0 0 148 148;" xml:space="preserve">
<style type="text/css">
	.st0{fill:#04874B;}
	.st1{fill:#EF3E25;}
</style>
<g>
	<g>
		<path class="st0" d="M29.9,96.2c-0.5,0-0.9-0.4-0.9-0.9s0.4-0.9,0.9-0.9s0.9,0.4,0.9,0.9S30.4,96.2,29.9,96.2z M29.9,95
			c-0.2,0-0.4,0.1-0.4,0.4s0.1,0.4,0.4,0.4c0.2,0,0.4-0.1,0.4-0.4S30.2,95,29.9,95z"/>
		<path class="st0" d="M0.9,96.3C0.4,96.3,0,96,0,95.5s0.4-0.9,0.9-0.9s0.9,0.4,0.9,0.9S1.3,96.3,0.9,96.3z M0.9,95.1
			c-0.2,0-0.4,0.1-0.4,0.4s0.1,0.4,0.4,0.4s0.4-0.1,0.4-0.4S1.1,95.1,0.9,95.1z"/>
		<path class="st0" d="M13.2,75.4H7.5c0,0-0.2-0.1-0.2-0.2c0-0.1,0.1-0.2,0.2-0.2h5.7c0,0,0.2,0.1,0.2,0.2
			C13.5,75.3,13.4,75.4,13.2,75.4z"/>
		<path class="st0" d="M0.9,95.2c0,0-0.2-0.1-0.2-0.2V76.2c0-0.7,0.6-1.3,1.3-1.3h5.4v-4.2c0,0,0.1-0.2,0.2-0.2
			c0.1,0,0.2,0.1,0.2,0.2v4.5c0,0-0.1,0.2-0.2,0.2H1.9c-0.4,0-0.8,0.4-0.8,0.8v18.7C1.1,94.9,1,95.2,0.9,95.2z"/>
		<path class="st0" d="M8.2,79.8H5.8c0,0-0.2-0.1-0.2-0.2c0-0.1,0.1-0.2,0.2-0.2h2.3c0.4,0,0.8-0.4,0.8-0.8v-1c0,0,0.1-0.2,0.2-0.2
			s0.2,0.1,0.2,0.2v1C9.4,79.2,8.9,79.8,8.2,79.8z"/>
		<path class="st0" d="M5.2,80.4c-0.5,0-0.9-0.4-0.9-0.9s0.4-0.9,0.9-0.9c0.5,0,0.9,0.4,0.9,0.9S5.7,80.4,5.2,80.4z M5.2,79.2
			c-0.2,0-0.4,0.1-0.4,0.4s0.1,0.4,0.4,0.4c0.2,0,0.4-0.1,0.4-0.4S5.4,79.2,5.2,79.2z"/>
		<path class="st0" d="M12.7,78.4c-0.5,0-0.9-0.4-0.9-0.9c0-0.5,0.4-0.9,0.9-0.9s0.9,0.4,0.9,0.9C13.5,78,13.1,78.4,12.7,78.4z
			 M12.7,77.2c-0.2,0-0.4,0.1-0.4,0.4c0,0.2,0.1,0.4,0.4,0.4s0.4-0.1,0.4-0.4C13,77.3,12.9,77.2,12.7,77.2z"/>
		<path class="st0" d="M1.6,79.3c0,0-0.2,0-0.4-0.2c-0.2-0.2-0.5-0.6-0.5-0.6c-0.1-0.1-0.1-0.3,0-0.4c0.1-0.1,0.3-0.1,0.4,0
			c0,0,0.3,0.4,0.5,0.5c0,0,0,0,0,0l0,0c0,0,0.1,0,0.2-0.2c0.5-0.5,0.6-0.6,0.6-0.7c0,0,0.1-0.1,0.2-0.2c0.2-0.2,0.4-0.4,0.7-0.4H12
			c0,0,0.2,0.1,0.2,0.2c0,0.1-0.1,0.2-0.2,0.2H3.4c0,0-0.2,0-0.4,0.2c-0.1,0.1-0.2,0.2-0.2,0.2c-0.1,0.1-0.2,0.2-0.7,0.7
			C2,79,1.8,79.2,1.6,79.3L1.6,79.3L1.6,79.3z"/>
		<path class="st0" d="M12.1,96.3h-1.6c0,0-0.2-0.1-0.2-0.2c0-0.1,0.1-0.2,0.2-0.2h1.6c0.4,0,0.9-0.5,0.9-0.9v-7.7
			c0,0,0.1-0.2,0.2-0.2s0.2,0.1,0.2,0.2v7.7C13.5,95.6,12.8,96.4,12.1,96.3L12.1,96.3z"/>
		<path class="st0" d="M7.1,96.3H4.2c-0.7,0-1.3-0.6-1.3-1.3V82.7c0-0.7,0.7-1.5,1.4-1.5h5.2c0,0,0.2,0.1,0.2,0.2s-0.1,0.2-0.2,0.2
			H4.4c-0.4,0-0.9,0.6-0.9,1V95c0,0.4,0.3,0.8,0.7,0.8h2.8c0,0,0.2,0.1,0.2,0.2C7.3,96.2,7.2,96.3,7.1,96.3L7.1,96.3z"/>
		<path class="st0" d="M13.3,86.4c-0.5,0-0.9-0.4-0.9-0.9s0.4-0.9,0.9-0.9s0.9,0.4,0.9,0.9S13.7,86.4,13.3,86.4z M13.3,85.2
			c-0.2,0-0.4,0.1-0.4,0.4s0.1,0.4,0.4,0.4s0.4-0.1,0.4-0.4S13.5,85.2,13.3,85.2z"/>
		<path class="st0" d="M13.3,85.3c0,0-0.2-0.1-0.2-0.2v-2.5c0-0.4-0.4-0.8-0.8-0.8H9.8v2.8c0,0-0.1,0.2-0.2,0.2s-0.2-0.1-0.2-0.2
			v-3.1c0,0,0.1-0.2,0.2-0.2h2.7c0.7,0,1.3,0.6,1.3,1.3V85C13.5,85,13.4,85.2,13.3,85.3L13.3,85.3z"/>
		<path class="st0" d="M7.4,85.1c-0.5,0-0.9-0.4-0.9-0.9s0.4-0.9,0.9-0.9c0.5,0,0.9,0.4,0.9,0.9S7.8,85.1,7.4,85.1z M7.4,83.9
			c-0.2,0-0.4,0.1-0.4,0.4s0.1,0.4,0.4,0.4c0.2,0,0.4-0.1,0.4-0.4S7.6,83.9,7.4,83.9z"/>
		<path class="st0" d="M8.6,96.3H5.9c0,0-0.2-0.1-0.2-0.2c0-0.1,0.1-0.2,0.2-0.2h2.7c0.4,0,0.8-0.4,0.8-0.8v-4.3
			c0-0.2-0.1-0.5-0.4-0.7l-0.2-0.2c0,0-0.2-0.2-0.5-0.5C8,89.1,8,89,7.9,89l-0.1-0.1c0,0-0.2-0.2-0.2-0.2c-0.4-0.4-0.5-0.5-0.5-1
			v-2.8c0,0,0.1-0.2,0.2-0.2c0.1,0,0.2,0.1,0.2,0.2v2.8c0,0.2,0.1,0.4,0.3,0.6c0.3,0.3,0.1,0.1,0.2,0.2l0.1,0.1c0,0,0.1,0.1,0.4,0.4
			c0.2,0.2,0.4,0.4,0.5,0.5l0.2,0.2c0.4,0.4,0.5,0.5,0.5,1.1V95C9.8,95.7,9.3,96.3,8.6,96.3L8.6,96.3z"/>
		<path class="st0" d="M11.6,96.3c0,0-0.2-0.1-0.2-0.2v-6.5c0-0.2,0-0.4-0.1-0.6c-0.1-0.1-0.3-0.2-0.7-0.2c-1.3,0-1.3-0.7-1.3-1.3
			v-0.9c0,0,0.1-0.2,0.2-0.2s0.2,0.1,0.2,0.2v0.9c0,0.6,0,0.8,0.8,0.8c0.6,0,0.9,0.1,1.1,0.4c0.2,0.2,0.2,0.6,0.2,0.9v6.5
			C11.9,96.1,11.8,96.3,11.6,96.3L11.6,96.3z"/>
		<path class="st0" d="M9.6,86.9c-0.5,0-0.9-0.4-0.9-0.9s0.4-0.9,0.9-0.9s0.9,0.4,0.9,0.9S10,86.9,9.6,86.9z M9.6,85.7
			c-0.2,0-0.4,0.1-0.4,0.4s0.1,0.4,0.4,0.4s0.4-0.1,0.4-0.4S9.8,85.7,9.6,85.7z"/>
		<path class="st0" d="M9.6,87.8c0,0-0.2-0.1-0.2-0.2v-0.9c0,0,0.1-0.2,0.2-0.2c0.1,0,0.2,0.1,0.2,0.2v0.9
			C9.8,87.6,9.7,87.8,9.6,87.8z"/>
		<path class="st0" d="M6.4,93.1c-0.5,0-0.9-0.4-0.9-0.9s0.4-0.9,0.9-0.9s0.9,0.4,0.9,0.9S6.9,93.1,6.4,93.1z M6.4,91.9
			c-0.2,0-0.4,0.1-0.4,0.4s0.1,0.4,0.4,0.4s0.4-0.1,0.4-0.4S6.6,91.9,6.4,91.9z"/>
		<path class="st0" d="M6.4,96.3c0,0-0.2-0.1-0.2-0.2v-3.3c0,0,0.1-0.2,0.2-0.2s0.2,0.1,0.2,0.2v3.3C6.7,96.1,6.6,96.3,6.4,96.3z"/>
		<path class="st0" d="M26.5,58.6h-2.7c0,0-0.2-0.1-0.2-0.2s0.1-0.2,0.2-0.2h2.7c0.4,0,0.8-0.4,0.8-0.8v-1.8h-3.1
			c0,0-0.2-0.1-0.2-0.2s0.1-0.2,0.2-0.2h3.3c0,0,0.2,0.1,0.2,0.2v2C27.7,58.1,27.2,58.6,26.5,58.6z"/>
		<path class="st0" d="M20.1,58.6c0,0-0.2-0.1-0.2-0.2v-2.2c0-0.7,0.4-1.1,1.1-1.1h3v-4c0,0,0.1-0.2,0.2-0.2c0.1,0,0.2,0.1,0.2,0.2
			v4.2c0,0-0.1,0.2-0.2,0.2h-3.2c-0.4,0-0.6,0.2-0.6,0.6v2.2C20.3,58.4,20.2,58.6,20.1,58.6z"/>
		<path class="st0" d="M24.1,51.2c-0.5,0-0.9-0.4-0.9-0.9s0.4-0.9,0.9-0.9c0.5,0,0.9,0.4,0.9,0.9S24.6,51.2,24.1,51.2z M24.1,50
			c-0.2,0-0.4,0.1-0.4,0.4c0,0.2,0.1,0.4,0.4,0.4c0.2,0,0.4-0.1,0.4-0.4C24.5,50.1,24.4,50,24.1,50z"/>
		<path class="st0" d="M24.1,52.1c0,0-0.2-0.1-0.2-0.2v-0.9c0,0,0.1-0.2,0.2-0.2c0.1,0,0.2,0.1,0.2,0.2v0.9
			C24.4,51.8,24.3,52.1,24.1,52.1z"/>
		<path class="st0" d="M28.4,64.1c-0.5,0-0.9-0.4-0.9-0.9c0-0.5,0.4-0.9,0.9-0.9c0.5,0,0.9,0.4,0.9,0.9
			C29.2,63.7,28.8,64.1,28.4,64.1z M28.4,62.9c-0.2,0-0.4,0.1-0.4,0.4c0,0.2,0.1,0.4,0.4,0.4c0.2,0,0.4-0.1,0.4-0.4
			C28.7,63,28.6,62.9,28.4,62.9z"/>
		<path class="st0" d="M25.5,62.4c-0.5,0-0.9-0.4-0.9-0.9c0-0.5,0.4-0.9,0.9-0.9c0.5,0,0.9,0.4,0.9,0.9C26.4,62,26,62.4,25.5,62.4z
			 M25.5,61.2c-0.2,0-0.4,0.1-0.4,0.4c0,0.2,0.1,0.4,0.4,0.4c0.2,0,0.4-0.1,0.4-0.4C25.9,61.3,25.7,61.2,25.5,61.2z"/>
		<path class="st0" d="M16.6,62.5c0,0-0.2-0.1-0.2-0.2v-0.8c0,0,0.1-0.2,0.2-0.2h8.3c0,0,0.2,0.1,0.2,0.2s-0.1,0.2-0.2,0.2h-8v0.5
			C16.9,62.3,16.8,62.5,16.6,62.5z"/>
		<path class="st0" d="M31,66.9c0,0-0.2-0.1-0.2-0.2v-6.8H16.9v4.6c0,0.4,0.4,0.8,0.8,0.8h4.3c0.3,0,0.5-0.3,0.8-0.9
			c0.5-1.1,0.5-1.2,1.3-1.2h3.8c0,0,0.2,0.1,0.2,0.2s-0.1,0.2-0.2,0.2H24c-0.3,0-0.3,0-0.4,0.1c-0.1,0.1-0.2,0.4-0.4,0.9
			c-0.4,1-0.5,1.2-1.3,1.2h-4.3c-0.7,0-1.3-0.6-1.3-1.3v-4.8c0,0,0.1-0.2,0.2-0.2H31c0,0,0.2,0.1,0.2,0.2v7.1
			C31.3,66.7,31.2,66.9,31,66.9L31,66.9z"/>
		<path class="st0" d="M21.8,78.1c-0.5,0-0.9-0.4-0.9-0.9s0.4-0.9,0.9-0.9c0.5,0,0.9,0.4,0.9,0.9S22.2,78.1,21.8,78.1z M21.8,76.9
			c-0.2,0-0.4,0.1-0.4,0.4c0,0.2,0.1,0.4,0.4,0.4c0.2,0,0.4-0.1,0.4-0.4C22.1,77,22,76.9,21.8,76.9z"/>
		<path class="st0" d="M21.8,76.9c0,0-0.2-0.1-0.2-0.2v-3c0-0.7,0.6-1.3,1.3-1.3h5.5c0,0,0.2,0.1,0.2,0.2c0,0.1-0.1,0.2-0.2,0.2
			h-5.5c-0.4,0-0.8,0.4-0.8,0.8v3C22,76.6,21.9,76.9,21.8,76.9z"/>
		<path class="st0" d="M28.3,79.7c-0.5,0-0.9-0.4-0.9-0.9c0-0.5,0.4-0.9,0.9-0.9c0.5,0,0.9,0.4,0.9,0.9
			C29.1,79.3,28.7,79.7,28.3,79.7z M28.3,78.5c-0.2,0-0.4,0.1-0.4,0.4s0.1,0.4,0.4,0.4c0.2,0,0.4-0.1,0.4-0.4S28.5,78.5,28.3,78.5z"
			/>
		<path class="st0" d="M28.3,78.5c0,0-0.2-0.1-0.2-0.2v-6.8c0-0.4-0.4-0.8-0.8-0.8h-4c-0.7,0-1.3-0.6-1.3-1.3v-2.7
			c0,0,0.1-0.2,0.2-0.2s0.2,0.1,0.2,0.2v2.7c0,0.4,0.4,0.8,0.8,0.8h4c0.7,0,1.3,0.6,1.3,1.3v6.8C28.5,78.3,28.4,78.5,28.3,78.5z"/>
		<path class="st0" d="M17.6,93.6c-0.5,0-0.9-0.4-0.9-0.9s0.4-0.9,0.9-0.9s0.9,0.4,0.9,0.9S18.1,93.6,17.6,93.6z M17.6,92.4
			c-0.2,0-0.4,0.1-0.4,0.4s0.1,0.4,0.4,0.4S18,93,18,92.8S17.8,92.4,17.6,92.4z"/>
		<path class="st0" d="M17.6,76c-0.5,0-0.9-0.4-0.9-0.9s0.4-0.9,0.9-0.9s0.9,0.4,0.9,0.9S18.1,76,17.6,76z M17.6,74.8
			c-0.2,0-0.4,0.1-0.4,0.4s0.1,0.4,0.4,0.4s0.4-0.1,0.4-0.4S17.8,74.8,17.6,74.8z"/>
		<path class="st0" d="M17.6,92.4c0,0-0.2-0.1-0.2-0.2V75.7c0,0,0.1-0.2,0.2-0.2s0.2,0.1,0.2,0.2v16.5
			C17.9,92.2,17.8,92.4,17.6,92.4z"/>
		<path class="st0" d="M30,69.9c-0.5,0-0.9-0.4-0.9-0.9s0.4-0.9,0.9-0.9s0.9,0.4,0.9,0.9S30.5,69.9,30,69.9z M30,68.7
			c-0.2,0-0.4,0.1-0.4,0.4s0.1,0.4,0.4,0.4c0.2,0,0.4-0.1,0.4-0.4S30.2,68.7,30,68.7z"/>
		<path class="st0" d="M23.1,96.3h-7.9c0,0-0.2-0.1-0.2-0.2V67.7c0-0.7,0.6-1.3,1.3-1.3h15c0.7,0,1.3,0.6,1.3,1.3v10.8
			c0,0.7-0.6,1.3-1.3,1.3h-0.1c-0.7,0-1.3-0.6-1.3-1.3v-8.8c0,0,0.1-0.2,0.2-0.2c0.1,0,0.2,0.1,0.2,0.2v8.8c0,0.4,0.4,0.8,0.8,0.8
			h0.1c0.4,0,0.8-0.4,0.8-0.8V67.7c0-0.4-0.4-0.8-0.8-0.8h-15c-0.4,0-0.8,0.4-0.8,0.8v28.2h7.4v-5.8c0-0.5,0-0.9,0.7-1.2l1.6-1.1
			c0.3-0.2,0.3-0.4,0.3-0.7c0,0,0-0.1,0-0.1v-3.7c0-0.7,0.6-1.3,1.3-1.3h2.2c0.7,0,1.3,0.6,1.3,1.3v11.5c0,0-0.1,0.2-0.2,0.2
			s-0.2-0.1-0.2-0.2V83.2c0-0.4-0.4-0.8-0.8-0.8h-2.2c-0.4,0-0.8,0.4-0.8,0.8v3.7V87c0,0.3,0,0.9-0.5,1.2l-1.6,1.1
			c-0.5,0.3-0.5,0.4-0.5,0.8v6C23.4,96.1,23.3,96.3,23.1,96.3L23.1,96.3z"/>
		<path class="st0" d="M31.6,98.1H0.9c0,0-0.2-0.1-0.2-0.2c0-0.1,0.1-0.2,0.2-0.2h30.8c0.4,0,0.8-0.4,0.8-0.8v-15
			c0-0.4-0.4-0.8-0.8-0.8h-5.8c0,0-0.2-0.1-0.2-0.2c0-0.1,0.1-0.2,0.2-0.2h5.8c0.7,0,1.3,0.6,1.3,1.3v15
			C32.9,97.5,32.3,98.1,31.6,98.1z"/>
		<path class="st0" d="M25.2,81.6c-0.5,0-0.9-0.4-0.9-0.9s0.4-0.9,0.9-0.9c0.5,0,0.9,0.4,0.9,0.9S25.6,81.6,25.2,81.6z M25.2,80.4
			c-0.2,0-0.4,0.1-0.4,0.4s0.1,0.4,0.4,0.4c0.2,0,0.4-0.1,0.4-0.4S25.4,80.4,25.2,80.4z"/>
		<path class="st0" d="M19.9,95c-0.5,0-0.9-0.4-0.9-0.9s0.4-0.9,0.9-0.9c0.5,0,0.9,0.4,0.9,0.9S20.4,95,19.9,95z M19.9,93.8
			c-0.2,0-0.4,0.1-0.4,0.4s0.1,0.4,0.4,0.4c0.2,0,0.4-0.1,0.4-0.4S20.2,93.8,19.9,93.8z"/>
		<path class="st0" d="M17.8,69.9c-0.5,0-0.9-0.4-0.9-0.9s0.4-0.9,0.9-0.9c0.5,0,0.9,0.4,0.9,0.9S18.2,69.9,17.8,69.9z M17.8,68.7
			c-0.2,0-0.4,0.1-0.4,0.4s0.1,0.4,0.4,0.4c0.2,0,0.4-0.1,0.4-0.4S18,68.7,17.8,68.7z"/>
		<path class="st0" d="M19.9,93.8c0,0-0.2-0.1-0.2-0.2V74.7c0-0.2-0.2-0.5-0.7-0.7l-0.2-0.1c0,0-0.2-0.1-0.3-0.1
			c-0.7-0.4-0.9-0.5-0.9-1.2v-2.9c0,0,0.1-0.2,0.2-0.2s0.2,0.1,0.2,0.2v2.9c0,0.2,0.2,0.5,0.7,0.7c0.7,0.4,0.2,0.1,0.3,0.1l0.2,0.1
			c0.7,0.4,1,0.5,1,1.2v18.8C20.2,93.5,20.1,93.7,19.9,93.8L19.9,93.8z"/>
		<path class="st0" d="M24.9,76c-0.5,0-0.9-0.4-0.9-0.9s0.4-0.9,0.9-0.9c0.5,0,0.9,0.4,0.9,0.9S25.3,76,24.9,76z M24.9,74.8
			c-0.2,0-0.4,0.1-0.4,0.4s0.1,0.4,0.4,0.4c0.2,0,0.4-0.1,0.4-0.4S25.1,74.8,24.9,74.8z"/>
		<path class="st0" d="M21.9,87.2h-2c0,0-0.2-0.1-0.2-0.2c0-0.1,0.1-0.2,0.2-0.2h2c0.3,0,0.5-0.4,0.5-0.8V80c0-0.7,0.4-1,1.1-1.7
			l0.1-0.1c0.7-0.7,0.9-0.9,0.9-1.2v-1.2c0,0,0.1-0.2,0.2-0.2s0.2,0.1,0.2,0.2v1.2c0,0.6-0.3,1-1.1,1.6l-0.1,0.1
			c-0.7,0.7-1,0.9-1,1.4v5.9C22.9,86.7,22.5,87.2,21.9,87.2L21.9,87.2z"/>
	</g>
	<g>
		<g>
			<path class="st1" d="M8.1,70.1c0,0.3-0.3,0.6-0.6,0.6s-0.6-0.3-0.6-0.6s0.3-0.6,0.6-0.6S8.1,69.7,8.1,70.1z"/>
			<path class="st1" d="M7.5,70.9c-0.5,0-0.8-0.4-0.8-0.8s0.4-0.8,0.8-0.8s0.8,0.4,0.8,0.8S8,70.9,7.5,70.9z M7.5,69.7
				c-0.2,0-0.4,0.2-0.4,0.4s0.2,0.4,0.4,0.4c0.2,0,0.4-0.2,0.4-0.4S7.8,69.7,7.5,69.7z"/>
		</g>
		<g>
			<path class="st1" d="M11.5,67c0,0-0.2,0-0.2-0.1c-0.9-1.1-2.3-1.7-3.7-1.7s-2.8,0.6-3.7,1.7c-0.1,0.1-0.4,0.1-0.5,0
				s-0.1-0.4,0-0.5c1.1-1.2,2.6-1.9,4.2-1.9s3.2,0.7,4.2,1.9c0.1,0.1,0.1,0.4,0,0.5C11.6,67,11.5,67,11.5,67L11.5,67z"/>
			<path class="st1" d="M10.3,68c0,0-0.2,0-0.2-0.1c-0.6-0.7-1.6-1.2-2.5-1.2S5.7,67.1,5,67.9c-0.1,0.1-0.4,0.1-0.5,0
				s-0.1-0.4,0-0.5C5.3,66.5,6.4,66,7.5,66s2.3,0.5,3.1,1.4c0.1,0.1,0.1,0.4,0,0.5C10.5,68,10.4,68,10.3,68L10.3,68z"/>
			<path class="st1" d="M9.2,69c0,0-0.2,0-0.2-0.1c-0.4-0.4-0.9-0.6-1.4-0.6s-1.1,0.2-1.4,0.6c-0.1,0.1-0.4,0.1-0.5,0
				s-0.1-0.4,0-0.5c0.5-0.6,1.2-0.9,1.9-0.9s1.4,0.3,1.9,0.9c0.1,0.1,0.1,0.4,0,0.5C9.4,69,9.3,69,9.2,69L9.2,69z"/>
			<path class="st1" d="M10.3,68c0,0-0.2,0-0.2-0.1c-0.6-0.7-1.6-1.2-2.5-1.2S5.7,67.1,5,67.9c-0.1,0.1-0.4,0.1-0.5,0
				s-0.1-0.4,0-0.5C5.3,66.5,6.4,66,7.5,66s2.3,0.5,3.1,1.4c0.1,0.1,0.1,0.4,0,0.5C10.5,68,10.4,68,10.3,68L10.3,68z"/>
			<path class="st1" d="M9.2,69c0,0-0.2,0-0.2-0.1c-0.4-0.4-0.9-0.6-1.4-0.6s-1.1,0.2-1.4,0.6c-0.1,0.1-0.4,0.1-0.5,0
				s-0.1-0.4,0-0.5c0.5-0.6,1.2-0.9,1.9-0.9s1.4,0.3,1.9,0.9c0.1,0.1,0.1,0.4,0,0.5C9.4,69,9.3,69,9.2,69L9.2,69z"/>
		</g>
	</g>
	<g>
		<path class="st0" d="M44.9,63.3c0,0-0.3-0.3-0.5-0.4c0.1-0.1,0.1-0.1,0.2-0.2c0.1-0.2,0.2-0.4,0.3-0.6c0.1-0.2,0.1-0.4,0.1-0.7
			c0-0.4-0.1-0.7-0.2-1c-0.1-0.3-0.4-0.6-0.6-0.8c-0.2-0.2-0.6-0.4-1-0.5c-0.4-0.1-0.8-0.1-1.3-0.1h-1.9c-0.2,0-0.4,0.1-0.6,0.2
			c-0.1,0.1-0.4,0.3-0.4,0.7v6.8c0,0.4,0.2,0.6,0.4,0.7c0.2,0.1,0.4,0.2,0.6,0.2h2.1c0.3,0,0.6,0,0.9-0.1c0.3,0,0.5-0.1,0.8-0.2
			s0.5-0.2,0.7-0.4c0.2-0.1,0.4-0.3,0.5-0.5c0.1-0.2,0.3-0.4,0.4-0.7c0.1-0.2,0.1-0.5,0.1-0.8c0-0.3-0.1-0.6-0.2-0.9
			C45.3,63.7,45.2,63.4,44.9,63.3L44.9,63.3z M43.4,65c0,0,0,0.2-0.1,0.3c0,0.1-0.1,0.2-0.2,0.2c-0.1,0.1-0.2,0.1-0.3,0.2
			c-0.1,0-0.3,0.1-0.5,0.1h-1.1v-1.7h0.8c0.3,0,0.5,0,0.7,0.1c0.2,0,0.3,0.1,0.4,0.2c0.1,0.1,0.1,0.1,0.2,0.2
			C43.4,64.7,43.4,64.9,43.4,65L43.4,65z M41.2,62.3v-1.5h0.6c0.2,0,0.5,0,0.6,0.1c0.1,0,0.2,0.1,0.3,0.1c0.1,0,0.1,0.1,0.1,0.2
			c0,0.1,0,0.2,0,0.3c0,0.1,0,0.2,0,0.3c0,0.1-0.1,0.1-0.1,0.2c-0.1,0.1-0.1,0.1-0.2,0.2c-0.1,0-0.2,0.1-0.5,0.1L41.2,62.3
			L41.2,62.3z"/>
		<path class="st0" d="M55.2,59.5c0,0-0.1-0.2-0.2-0.3c-0.1-0.1-0.2-0.1-0.4-0.2c-0.1,0-0.2,0-0.3,0c-0.2,0-0.5,0-0.7,0
			c-0.1,0-0.2,0-0.3,0c-0.1,0-0.2,0.1-0.3,0.2c-0.1,0.1-0.1,0.2-0.2,0.3l-2.7,7.1c0,0-0.1,0.2-0.1,0.4c0,0.2,0.1,0.4,0.2,0.5
			c0.1,0.1,0.2,0.1,0.4,0.2c0.2,0,0.5,0,0.7,0c0.1,0,0.2,0,0.3-0.1s0.2-0.1,0.3-0.2c0.1-0.1,0.1-0.1,0.1-0.2l0.5-1.5h2.7l0.6,1.6
			c0,0,0.1,0.1,0.1,0.2c0.1,0.1,0.2,0.2,0.3,0.2c0.1,0,0.2,0,0.3,0c0.1,0,0.2,0,0.4,0s0.3,0,0.4,0c0.2,0,0.3-0.1,0.4-0.2
			c0.1-0.1,0.2-0.3,0.2-0.5c0-0.1,0-0.2-0.1-0.4L55.2,59.5L55.2,59.5z M54.7,63.8h-1.4l0.7-1.9L54.7,63.8L54.7,63.8z"/>
		<path class="st0" d="M69.2,59c0,0-0.2-0.1-0.3-0.1c-0.2,0-0.5,0-0.6,0c-0.1,0-0.2,0-0.3,0.1c-0.1,0.1-0.2,0.1-0.3,0.2
			c-0.1,0.1-0.1,0.2-0.1,0.4v4.1c-0.1-0.2-0.2-0.4-0.3-0.6l-1.9-3.4c0,0-0.2-0.2-0.2-0.4c-0.1-0.1-0.2-0.2-0.3-0.3
			c-0.1-0.1-0.2-0.1-0.4-0.2c-0.1,0-0.2,0-0.4,0h-0.5c-0.2,0-0.4,0.1-0.6,0.2c-0.1,0.1-0.4,0.3-0.4,0.7V67c0,0,0,0.2,0.1,0.4
			c0.1,0.1,0.2,0.2,0.3,0.2c0.1,0,0.1,0,0.2,0.1c0.1,0,0.2,0,0.3,0c0.1,0,0.2,0,0.3,0c0.1,0,0.2,0,0.2-0.1c0.1,0,0.3-0.1,0.4-0.2
			c0.1-0.1,0.1-0.2,0.1-0.4v-4.4l2.3,4.1c0,0,0.2,0.3,0.3,0.4c0.1,0.1,0.2,0.2,0.3,0.3c0.1,0.1,0.3,0.2,0.4,0.2c0.1,0,0.2,0,0.4,0
			h0.4c0,0,0.2,0,0.3,0c0.1,0,0.2-0.1,0.3-0.2c0.1-0.1,0.2-0.2,0.2-0.3c0.1-0.1,0.1-0.3,0.1-0.4v-7.1c0,0,0-0.3-0.1-0.4
			C69.4,59.1,69.3,59,69.2,59L69.2,59z"/>
		<path class="st0" d="M81.4,59.7c0,0-0.2-0.2-0.4-0.3c-0.2-0.1-0.4-0.2-0.6-0.2c-0.2-0.1-0.5-0.1-0.8-0.2c-0.3-0.1-0.6-0.1-1-0.1
			c-0.7,0-1.3,0.1-1.9,0.3c-0.6,0.2-1.1,0.5-1.5,0.9c-0.4,0.4-0.7,0.9-1,1.4c-0.2,0.6-0.3,1.2-0.3,1.9c0,0.7,0.1,1.2,0.3,1.8
			c0.2,0.5,0.5,1,0.9,1.4c0.4,0.4,0.9,0.7,1.5,0.9c0.5,0.2,1.2,0.3,1.9,0.3c0.2,0,0.5,0,0.7,0c0.2,0,0.5-0.1,0.7-0.1
			c0.2,0,0.5-0.1,0.6-0.2c0.2-0.1,0.4-0.1,0.5-0.2c0.2-0.1,0.4-0.2,0.5-0.4c0.1-0.1,0.1-0.3,0.1-0.5v-2.9c0,0,0-0.2-0.1-0.4
			c0-0.1-0.1-0.2-0.2-0.4c-0.1-0.1-0.2-0.1-0.3-0.2c-0.1,0-0.2,0-0.3,0h-2.6c0,0-0.2,0-0.4,0.1c-0.1,0.1-0.2,0.1-0.2,0.2
			c0,0.1-0.1,0.2-0.1,0.3c0,0.1,0,0.2,0,0.3c0,0.2,0,0.4,0.1,0.6c0.1,0.2,0.4,0.4,0.6,0.4h1.4v1.4c0,0-0.2,0.1-0.3,0.1
			c-0.6,0.1-1.2,0.1-1.7-0.1c-0.3-0.1-0.5-0.3-0.7-0.5c-0.2-0.2-0.4-0.5-0.5-0.8c-0.1-0.3-0.2-0.7-0.2-1.1c0-0.4,0.1-0.7,0.2-1
			c0.1-0.3,0.2-0.6,0.5-0.8c0.2-0.2,0.5-0.4,0.7-0.5s0.6-0.2,1-0.2c0.3,0,0.6,0,0.9,0.1c0.2,0.1,0.5,0.1,0.6,0.2
			c0.2,0.1,0.3,0.1,0.4,0.2c0.2,0.1,0.5,0.3,0.9,0.1c0.1-0.1,0.2-0.2,0.2-0.3c0-0.1,0.1-0.2,0.1-0.3c0-0.1,0-0.2,0-0.3
			c0-0.2,0-0.3-0.1-0.5C81.6,60,81.5,59.8,81.4,59.7L81.4,59.7z"/>
		<path class="st0" d="M91.3,66.1c0,0-0.1-0.2-0.2-0.2c-0.1-0.1-0.2-0.1-0.4-0.1h-2.5v-6.1c0,0,0-0.3-0.1-0.4S87.9,59,87.8,59
			c-0.1,0-0.1,0-0.2-0.1c-0.2,0-0.5,0-0.7,0c-0.1,0-0.2,0-0.2,0.1c-0.1,0-0.2,0.1-0.4,0.2c-0.1,0.1-0.1,0.2-0.1,0.4v7.1
			c0,0.4,0.2,0.6,0.4,0.7c0.2,0.1,0.4,0.2,0.6,0.2h3.6c0,0,0.2,0,0.4-0.1c0.1-0.1,0.2-0.2,0.2-0.3c0-0.1,0.1-0.2,0.1-0.3
			c0-0.1,0-0.2,0-0.3s0-0.2,0-0.3C91.4,66.3,91.4,66.1,91.3,66.1L91.3,66.1z"/>
		<path class="st0" d="M101.1,59.5c0,0-0.1-0.2-0.2-0.3c-0.1-0.1-0.2-0.1-0.4-0.2c-0.1,0-0.2,0-0.3,0c-0.2,0-0.5,0-0.7,0
			c-0.1,0-0.2,0-0.3,0c-0.1,0-0.2,0.1-0.3,0.2c-0.1,0.1-0.1,0.2-0.2,0.3l-2.7,7.1c0,0-0.1,0.2-0.1,0.4c0,0.2,0.1,0.4,0.2,0.5
			c0.1,0.1,0.2,0.1,0.4,0.2c0.2,0,0.5,0,0.7,0c0.1,0,0.2,0,0.3-0.1c0.1,0,0.2-0.1,0.3-0.2c0.1-0.1,0.1-0.1,0.1-0.2l0.5-1.5h2.7
			l0.6,1.6c0,0,0.1,0.1,0.1,0.2c0.1,0.1,0.2,0.2,0.3,0.2c0.1,0,0.2,0,0.3,0.1c0.1,0,0.2,0,0.4,0s0.3,0,0.4,0c0.2,0,0.3-0.1,0.4-0.2
			c0.1-0.1,0.2-0.3,0.2-0.5c0-0.1,0-0.2-0.1-0.4L101.1,59.5L101.1,59.5z M100.5,63.8h-1.4l0.7-1.9L100.5,63.8L100.5,63.8z"/>
		<path class="st0" d="M114.5,60.1c-0.4-0.4-0.9-0.6-1.4-0.9c-0.5-0.2-1.2-0.3-2-0.3h-1.9c-0.2,0-0.4,0.1-0.6,0.2
			c-0.1,0.1-0.4,0.3-0.4,0.7v6.8c0,0.4,0.2,0.6,0.4,0.7c0.2,0.1,0.4,0.2,0.6,0.2h1.7c0.7,0,1.4-0.1,2-0.2c0.6-0.2,1.1-0.5,1.5-0.9
			c0.4-0.4,0.7-0.9,0.9-1.4c0.2-0.6,0.3-1.2,0.3-1.9c0-0.6-0.1-1.2-0.3-1.7C115.1,60.9,114.8,60.4,114.5,60.1z M113.5,63.2
			c0,0.5,0,0.9-0.1,1.2c-0.1,0.3-0.2,0.6-0.4,0.7c-0.2,0.2-0.4,0.3-0.7,0.4c-0.3,0.1-0.7,0.1-1.2,0.1h-0.6v-4.9h0.6
			c0.5,0,0.9,0.1,1.2,0.2c0.3,0.1,0.5,0.3,0.7,0.5c0.2,0.2,0.3,0.5,0.4,0.7C113.4,62.6,113.5,62.9,113.5,63.2z"/>
		<path class="st0" d="M125.5,66.1c0,0-0.1-0.2-0.2-0.2s-0.2-0.1-0.3-0.1h-2.7V64h2.2c0,0,0.2,0,0.3-0.1c0.1-0.1,0.2-0.1,0.3-0.2
			c0.1-0.1,0.1-0.2,0.1-0.3c0-0.1,0-0.2,0-0.2c0-0.1,0-0.2,0-0.3c0-0.1-0.1-0.2-0.1-0.3c-0.1-0.1-0.1-0.2-0.2-0.2
			c-0.1-0.1-0.2-0.1-0.4-0.1h-2.2v-1.4h2.7c0,0,0.2,0,0.3-0.1c0.1-0.1,0.2-0.1,0.3-0.3c0-0.1,0.1-0.2,0.1-0.3c0-0.1,0-0.2,0-0.3
			s0-0.2,0-0.3c0-0.1,0-0.2-0.1-0.2c-0.1-0.1-0.1-0.2-0.3-0.3c-0.1-0.1-0.2-0.1-0.3-0.1H121c-0.2,0-0.4,0.1-0.6,0.2
			c-0.1,0.1-0.4,0.3-0.4,0.7v6.8c0,0.4,0.2,0.6,0.4,0.7c0.2,0.1,0.4,0.2,0.6,0.2h4c0,0,0.2,0,0.4-0.1c0.1-0.1,0.2-0.1,0.2-0.2
			c0.1-0.1,0.1-0.2,0.1-0.3c0-0.1,0-0.2,0-0.2c0-0.1,0-0.2,0-0.3c0-0.1-0.1-0.2-0.1-0.3H125.5z"/>
		<path class="st0" d="M135.3,63.2c-0.2-0.2-0.4-0.4-0.7-0.5c-0.2-0.1-0.5-0.2-0.7-0.4l-0.7-0.3c-0.2-0.1-0.4-0.2-0.5-0.3
			c-0.1-0.1-0.2-0.2-0.3-0.3c0-0.1-0.1-0.1-0.1-0.2c0-0.1,0-0.1,0-0.2c0-0.1,0.1-0.1,0.1-0.1c0.1,0,0.1-0.1,0.2-0.1
			c0.2-0.1,0.7-0.1,1,0c0.2,0,0.3,0.1,0.4,0.1c0.1,0.1,0.2,0.1,0.4,0.2c0.2,0.1,0.5,0.2,0.8,0c0.1-0.1,0.2-0.2,0.2-0.3
			c0-0.1,0-0.1,0-0.2c0-0.1,0-0.1,0-0.2c0-0.1,0-0.2,0-0.2c0-0.1,0-0.1,0-0.2c0-0.1,0-0.1-0.1-0.2c0-0.1-0.1-0.1-0.2-0.2
			c-0.1,0-0.1-0.1-0.4-0.2c-0.1-0.1-0.3-0.1-0.5-0.2c-0.2-0.1-0.4-0.1-0.6-0.1c-0.6-0.1-1.2-0.1-1.7,0.1c-0.4,0.1-0.7,0.2-1,0.5
			c-0.3,0.2-0.5,0.5-0.7,0.8c-0.1,0.3-0.2,0.7-0.2,1.1c0,0.4,0.1,0.7,0.2,1c0.1,0.3,0.3,0.5,0.5,0.7c0.2,0.2,0.4,0.4,0.7,0.5
			c0.2,0.1,0.5,0.2,0.7,0.4l0.7,0.3c0.2,0.1,0.4,0.2,0.5,0.3c0.1,0.1,0.2,0.2,0.3,0.3c0,0.1,0.1,0.1,0.1,0.2c0,0.1,0,0.2-0.1,0.3
			c0,0.1-0.1,0.1-0.2,0.2c-0.1,0.1-0.2,0.1-0.4,0.2c-0.4,0.1-0.9,0.1-1.2,0c-0.2-0.1-0.4-0.1-0.5-0.2c-0.1-0.1-0.3-0.1-0.4-0.2
			c-0.3-0.2-0.6-0.2-0.8-0.1c-0.1,0.1-0.2,0.2-0.3,0.3c0,0.1-0.1,0.2-0.1,0.3c0,0.1,0,0.2,0,0.3c0,0.2,0,0.3,0.1,0.5
			c0,0.1,0.1,0.3,0.2,0.4c0.1,0.1,0.2,0.2,0.4,0.2c0.1,0.1,0.3,0.1,0.5,0.2c0.2,0.1,0.4,0.1,0.7,0.2c0.2,0,0.5,0.1,0.9,0.1
			c0.4,0,0.9-0.1,1.2-0.2s0.7-0.3,1.1-0.5c0.3-0.2,0.6-0.5,0.7-0.9c0.2-0.4,0.3-0.7,0.3-1.2c0-0.4-0.1-0.7-0.2-1
			C135.7,63.7,135.6,63.4,135.3,63.2L135.3,63.2z"/>
		<path class="st0" d="M147.3,59.2c0,0-0.2-0.2-0.3-0.2c-0.1,0-0.1,0-0.2-0.1c-0.2,0-0.5,0-0.7,0c-0.1,0-0.2,0-0.2,0.1
			c-0.1,0-0.2,0.1-0.4,0.2c-0.1,0.1-0.1,0.2-0.1,0.4v2.6h-2.7v-2.6c0,0,0-0.3-0.1-0.4c-0.1-0.1-0.2-0.2-0.4-0.2
			c-0.1,0-0.1,0-0.2-0.1c-0.2,0-0.5,0-0.7,0c-0.1,0-0.2,0-0.2,0.1c-0.1,0-0.2,0.1-0.4,0.2c-0.1,0.1-0.1,0.2-0.1,0.4V67
			c0,0,0,0.3,0.1,0.4c0.1,0.1,0.2,0.2,0.3,0.2c0.1,0,0.2,0,0.2,0.1c0.1,0,0.2,0,0.3,0s0.2,0,0.3,0c0.1,0,0.2,0,0.2-0.1
			c0.1,0,0.2-0.1,0.4-0.2c0.1-0.1,0.1-0.2,0.1-0.4v-2.9h2.7V67c0,0,0,0.3,0.1,0.4c0.1,0.1,0.2,0.2,0.3,0.2c0.1,0,0.1,0,0.2,0.1
			c0.2,0,0.5,0,0.7,0c0.1,0,0.2,0,0.2-0.1c0.1,0,0.2-0.1,0.4-0.2c0.1-0.1,0.1-0.2,0.1-0.4v-7.4c0,0,0-0.3-0.1-0.4H147.3z"/>
	</g>
	<g>
		<path class="st0" d="M43.9,90.5c0,0-0.1-0.2-0.2-0.3c-0.1-0.1-0.2-0.1-0.4-0.2c-0.1,0-0.1,0-0.2,0c-0.1,0-0.4,0-0.5,0
			c-0.1,0-0.2,0-0.2,0c-0.1,0-0.2,0.1-0.3,0.2c-0.1,0.1-0.2,0.2-0.2,0.4l-2.7,6.7c0,0-0.1,0.3-0.1,0.5c0,0.2,0.1,0.5,0.4,0.6
			c0.1,0.1,0.2,0.1,0.4,0.1c0.1,0,0.4,0,0.6,0c0.1,0,0.2,0,0.3-0.1c0.1,0,0.2-0.1,0.3-0.2c0.1-0.1,0.1-0.2,0.2-0.3l0.6-1.4h2.6
			l0.6,1.5c0,0,0.1,0.1,0.1,0.2c0.1,0.1,0.2,0.2,0.4,0.2c0.1,0,0.2,0,0.3,0.1c0.1,0,0.1,0,0.2,0c0.1,0,0.2,0,0.3,0
			c0.2,0,0.3-0.1,0.4-0.1c0.2-0.1,0.3-0.4,0.4-0.6c0-0.1,0-0.3-0.1-0.5L43.9,90.5L43.9,90.5z M43.4,94.5h-1l0.5-1.3L43.4,94.5z"/>
		<path class="st0" d="M59.6,90c0,0-0.1,0-0.2-0.1c-0.1,0-0.4,0-0.5,0c-0.1,0-0.2,0-0.2,0.1c-0.1,0.1-0.3,0.2-0.4,0.3
			c-0.1,0.1-0.1,0.3-0.1,0.5v4.3c0,0.2,0,0.5-0.1,0.6c-0.1,0.2-0.1,0.3-0.2,0.4c-0.1,0.1-0.2,0.2-0.4,0.2c-0.4,0.1-1,0.1-1.4,0
			c-0.2-0.1-0.3-0.1-0.4-0.2c-0.1-0.1-0.2-0.2-0.2-0.4s-0.1-0.4-0.1-0.7v-4.3c0,0,0-0.4-0.1-0.5c-0.1-0.1-0.2-0.2-0.4-0.3
			c-0.1,0-0.1,0-0.2-0.1c-0.1,0-0.4,0-0.5,0c-0.1,0-0.1,0-0.2,0.1c-0.2,0.1-0.3,0.1-0.4,0.3c-0.1,0.1-0.1,0.3-0.1,0.5v4.4
			c0,0.5,0.1,1,0.2,1.4c0.2,0.4,0.4,0.8,0.7,1.1s0.7,0.5,1.1,0.6c0.4,0.1,0.9,0.2,1.3,0.2c0.5,0,1-0.1,1.4-0.2
			c0.4-0.1,0.8-0.4,1.1-0.6s0.6-0.7,0.7-1.1c0.2-0.4,0.2-0.9,0.2-1.4v-4.3c0,0,0-0.4-0.1-0.5c-0.1-0.1-0.2-0.2-0.4-0.3L59.6,90z"/>
		<path class="st0" d="M73.3,90.3c0,0-0.2-0.2-0.3-0.3c-0.1-0.1-0.2-0.1-0.4-0.1h-5.4c0,0-0.3,0-0.4,0.1c-0.1,0.1-0.2,0.1-0.3,0.3
			c-0.1,0.1-0.1,0.2-0.1,0.3c0,0.1,0,0.2,0,0.3s0,0.2,0,0.3c0,0.1,0.1,0.2,0.1,0.4c0.1,0.1,0.2,0.2,0.3,0.2c0.1,0.1,0.2,0.1,0.4,0.1
			h1.7v5.6c0,0,0,0.4,0.1,0.5c0.1,0.1,0.2,0.2,0.4,0.3c0.1,0,0.1,0,0.2,0.1c0.1,0,0.2,0,0.2,0s0.2,0,0.3,0s0.2,0,0.2-0.1
			c0.1-0.1,0.3-0.1,0.4-0.3c0.1-0.1,0.1-0.3,0.1-0.5v-5.6h1.7c0,0,0.2,0,0.4-0.1c0.1-0.1,0.2-0.1,0.3-0.3c0.1-0.1,0.1-0.2,0.1-0.4
			c0-0.1,0-0.2,0-0.3s0-0.2,0-0.3C73.5,90.5,73.4,90.4,73.3,90.3L73.3,90.3z"/>
		<path class="st0" d="M85.9,90c0,0-0.1,0-0.2-0.1c-0.1,0-0.4,0-0.5,0c-0.1,0-0.2,0-0.2,0.1c-0.1,0.1-0.3,0.2-0.4,0.3
			c-0.1,0.1-0.1,0.3-0.1,0.5V93h-2.6v-2.2c0,0,0-0.4-0.1-0.5c-0.1-0.1-0.2-0.2-0.4-0.3c-0.1,0-0.1,0-0.2-0.1c-0.1,0-0.4,0-0.5,0
			c-0.1,0-0.2,0-0.2,0.1c-0.1,0.1-0.3,0.2-0.4,0.3c-0.1,0.1-0.1,0.3-0.1,0.5v6.8c0,0,0,0.4,0.1,0.5c0.1,0.1,0.2,0.2,0.4,0.3
			c0.1,0,0.1,0,0.2,0.1c0.1,0,0.4,0,0.5,0c0.1,0,0.2,0,0.2-0.1c0.1-0.1,0.3-0.1,0.4-0.3c0.1-0.1,0.1-0.3,0.1-0.5v-2.6h2.6v2.6
			c0,0,0,0.4,0.1,0.5c0.1,0.1,0.2,0.2,0.4,0.3c0.1,0,0.1,0,0.2,0.1c0.1,0,0.1,0,0.3,0c0.1,0,0.2,0,0.3,0c0.1,0,0.2,0,0.2-0.1
			c0.1-0.1,0.3-0.1,0.4-0.3c0.1-0.1,0.1-0.3,0.1-0.5v-6.8c0,0,0-0.4-0.1-0.5C86.2,90.1,86.1,90,85.9,90L85.9,90z"/>
		<path class="st0" d="M99.6,91c-0.4-0.4-0.8-0.7-1.3-0.9c-0.5-0.2-1.1-0.3-1.7-0.3c-0.6,0-1.2,0.1-1.8,0.3c-0.5,0.2-1,0.5-1.3,0.9
			c-0.4,0.4-0.6,0.9-0.8,1.4c-0.2,0.5-0.2,1.1-0.2,1.7s0.1,1.2,0.2,1.7c0.1,0.5,0.4,1,0.7,1.4c0.4,0.4,0.8,0.7,1.3,0.9
			c0.5,0.2,1.1,0.3,1.7,0.3c0.7,0,1.2-0.1,1.8-0.3s1-0.5,1.4-0.9c0.4-0.4,0.6-0.9,0.8-1.4c0.2-0.5,0.2-1.1,0.2-1.7
			c0-0.6-0.1-1.2-0.2-1.7C100.2,91.8,100,91.4,99.6,91L99.6,91z M98.5,94.1c0,0.3,0,0.7-0.1,1c-0.1,0.3-0.2,0.5-0.3,0.7
			c-0.1,0.2-0.3,0.4-0.6,0.5c-0.2,0.1-0.6,0.2-1,0.2s-0.7-0.1-1-0.2c-0.2-0.1-0.4-0.2-0.5-0.4c-0.1-0.2-0.2-0.4-0.3-0.7
			c-0.1-0.3-0.1-0.6-0.1-1c0-0.3,0-0.7,0.1-1c0.1-0.2,0.2-0.5,0.3-0.7c0.1-0.2,0.4-0.4,0.6-0.5c0.2-0.1,0.6-0.2,1-0.2s0.7,0.1,1,0.2
			c0.2,0.1,0.4,0.2,0.6,0.4s0.2,0.4,0.3,0.7C98.5,93.5,98.6,93.8,98.5,94.1L98.5,94.1z"/>
		<path class="st0" d="M113,96.9l-0.7-1.6c-0.1-0.2-0.2-0.4-0.3-0.5c-0.1-0.1-0.1-0.2-0.2-0.4c0.1-0.1,0.2-0.2,0.3-0.2
			c0.2-0.2,0.4-0.4,0.5-0.7c0.1-0.3,0.2-0.6,0.2-0.9c0-0.4,0-0.6-0.1-0.9c-0.1-0.3-0.3-0.5-0.5-0.8c-0.2-0.2-0.5-0.4-0.7-0.5
			c-0.3-0.1-0.6-0.2-1-0.3c-0.1,0-0.2,0-0.4,0c-0.1,0-0.3,0-0.5,0h-1.5c-0.2,0-0.4,0.1-0.6,0.2c-0.3,0.2-0.4,0.5-0.4,0.9v6.6
			c0,0,0,0.4,0.1,0.5c0.1,0.1,0.2,0.2,0.4,0.3c0.1,0,0.1,0,0.2,0.1c0.1,0,0.4,0,0.5,0c0.1,0,0.2,0,0.2-0.1c0.1-0.1,0.3-0.1,0.4-0.3
			c0.1-0.1,0.1-0.3,0.1-0.5v-2.5h0.2c0.2,0,0.4,0,0.5,0.1c0.1,0,0.2,0.1,0.3,0.2c0.1,0.1,0.1,0.2,0.2,0.3c0.1,0.1,0.2,0.3,0.2,0.5
			l0.7,1.7c0,0,0.1,0.2,0.1,0.3c0.1,0.1,0.2,0.2,0.3,0.2c0.1,0,0.2,0.1,0.3,0.1c0.1,0,0.1,0,0.2,0s0.2,0,0.3,0c0.1,0,0.2,0,0.3-0.1
			c0.1-0.1,0.3-0.2,0.4-0.3c0.1-0.1,0.1-0.3,0.1-0.4c0-0.1,0-0.2-0.1-0.3c0-0.1-0.1-0.2-0.1-0.4V96.9z M110.5,92.6c0,0,0,0.1,0,0.2
			c0,0-0.1,0.1-0.1,0.1c-0.1,0.1-0.2,0.1-0.3,0.2c-0.2,0-0.4,0.1-0.6,0.1H109V92h0.3c0.2,0,0.4,0,0.5,0c0.1,0,0.2,0,0.3,0
			c0.3,0.1,0.4,0.2,0.4,0.2C110.5,92.3,110.5,92.4,110.5,92.6z"/>
		<path class="st0" d="M122,90c0,0-0.1,0-0.2-0.1c-0.1,0-0.4,0-0.5,0c-0.1,0-0.2,0-0.2,0.1c-0.1,0-0.2,0.1-0.4,0.2
			c-0.1,0.1-0.2,0.3-0.2,0.5v6.8c0,0,0,0.4,0.1,0.5c0.1,0.1,0.2,0.2,0.4,0.3c0.1,0,0.1,0,0.2,0.1c0.1,0,0.2,0,0.2,0
			c0.1,0,0.2,0,0.3,0c0.1,0,0.2,0,0.2-0.1c0.1-0.1,0.3-0.1,0.4-0.3c0.1-0.1,0.1-0.3,0.1-0.5v-6.8c0,0,0-0.4-0.1-0.5
			C122.3,90.1,122.2,90,122,90L122,90z"/>
		<path class="st0" d="M135.8,90.3c0,0-0.2-0.2-0.3-0.3s-0.2-0.1-0.4-0.1h-5.4c0,0-0.3,0-0.4,0.1c-0.1,0.1-0.2,0.1-0.3,0.3
			c-0.1,0.1-0.1,0.2-0.1,0.4c0,0.1,0,0.2,0,0.3s0,0.2,0,0.3c0,0.1,0.1,0.2,0.1,0.4c0.1,0.1,0.2,0.2,0.3,0.2c0.1,0.1,0.2,0.1,0.4,0.1
			h1.7v5.6c0,0,0,0.4,0.1,0.5c0.1,0.1,0.2,0.2,0.4,0.3c0.1,0,0.1,0,0.2,0.1c0.1,0,0.2,0,0.2,0s0.2,0,0.2,0c0.1,0,0.2,0,0.2-0.1
			c0.1-0.1,0.3-0.2,0.4-0.3c0.1-0.1,0.1-0.3,0.1-0.5V92h1.7c0,0,0.2,0,0.4-0.1c0.1-0.1,0.2-0.1,0.3-0.3c0.1-0.1,0.1-0.2,0.1-0.4
			c0-0.1,0-0.2,0-0.3s0-0.2,0-0.3C136,90.5,135.9,90.4,135.8,90.3z"/>
		<path class="st0" d="M147.7,90.1c0,0-0.2-0.1-0.5-0.2c-0.1,0-0.4,0-0.6,0c-0.1,0-0.2,0-0.2,0.1c-0.1,0-0.2,0.1-0.3,0.2
			c-0.1,0.1-0.1,0.1-0.1,0.2l-1.2,2.2c0,0-0.1,0.1-0.1,0.2c0-0.1-0.1-0.1-0.1-0.2l-1.2-2.2c0,0-0.1-0.1-0.1-0.1
			c-0.1-0.1-0.2-0.2-0.4-0.2c-0.1,0-0.1,0-0.2,0c-0.1,0-0.4,0-0.6,0s-0.3,0.1-0.4,0.2c-0.2,0.2-0.3,0.5-0.3,0.7
			c0,0.1,0.1,0.2,0.1,0.4l2.2,3.9v2.5c0,0,0,0.3,0.1,0.5c0.1,0.1,0.2,0.2,0.4,0.3c0.1,0,0.1,0,0.2,0.1c0.1,0,0.1,0,0.3,0
			c0.1,0,0.2,0,0.3,0c0.1,0,0.2,0,0.2-0.1c0.1-0.1,0.3-0.1,0.4-0.3c0.1-0.1,0.1-0.3,0.1-0.5v-2.5l2.2-3.9c0,0,0.1-0.2,0.1-0.4
			C148,90.6,147.9,90.4,147.7,90.1L147.7,90.1z"/>
	</g>
	<g>
		<path class="st1" d="M48,72.9h-1.5c-0.2,0-0.5,0.2-0.5,0.5v4.2h-4.5v-4.2c0-0.2-0.2-0.5-0.5-0.5h-1.4c-0.2,0-0.5,0.2-0.5,0.5v11.1
			c0,0.2,0.2,0.5,0.5,0.5h1.4c0.2,0,0.5-0.2,0.5-0.5v-4.7h4.5v4.7c0,0.2,0.2,0.5,0.5,0.5H48c0.2,0,0.5-0.2,0.5-0.5V73.4
			C48.5,73.1,48.3,72.9,48,72.9z"/>
		<path class="st1" d="M51.8,72.9h1.4c0.3,0,0.5,0.2,0.5,0.5v11.1c0,0.3-0.2,0.5-0.5,0.5h-1.4c-0.3,0-0.5-0.2-0.5-0.5V73.4
			C51.4,73.1,51.6,72.9,51.8,72.9z"/>
		<path class="st1" d="M56.3,79h4c0.3,0,0.5,0.2,0.5,0.5v1c0,0.3-0.2,0.5-0.5,0.5h-4c-0.3,0-0.5-0.2-0.5-0.5v-1
			C55.8,79.2,56,79,56.3,79z"/>
		<path class="st1" d="M69.5,72.9h-8.2c-0.2,0-0.5,0.2-0.5,0.5v1.2c0,0.2,0.2,0.5,0.5,0.5h2.9v9.4c0,0.2,0.2,0.5,0.5,0.5h1.5
			c0.2,0,0.5-0.2,0.5-0.5v-9.4h2.9c0.2,0,0.5-0.2,0.5-0.5v-1.2C70,73.1,69.8,72.9,69.5,72.9L69.5,72.9z"/>
		<path class="st1" d="M78.3,82.8h-4.3v-3.1h3.8c0.2,0,0.5-0.2,0.5-0.5V78c0-0.2-0.2-0.5-0.5-0.5h-3.8V75H78c0.2,0,0.5-0.2,0.5-0.5
			v-1.2c0-0.2-0.2-0.5-0.5-0.5h-6c-0.2,0-0.5,0.2-0.5,0.5v11.1c0,0.2,0.2,0.5,0.5,0.5h6.2c0.2,0,0.5-0.2,0.5-0.5v-1.2
			C78.7,82.9,78.5,82.7,78.3,82.8L78.3,82.8z"/>
		<path class="st1" d="M86.6,74.8c1,0,1.7,0.2,2,0.4c0.1,0.1,0.2,0.1,0.4,0c0.1-0.1,0.2-0.1,0.2-0.3l0.4-1.2c0.1-0.2,0-0.4-0.2-0.5
			c-0.3-0.2-1.2-0.5-2.8-0.5c-3.7,0-6.2,2.6-6.2,6.3s2.3,6.1,5.9,6.1c1.5,0,2.6-0.3,3.1-0.6c0.2-0.1,0.3-0.3,0.2-0.5l-0.3-1.1
			c0,0-0.1-0.2-0.2-0.3c-0.1-0.1-0.2-0.1-0.4,0c-0.5,0.2-1.4,0.4-2.1,0.4c-2.4,0-3.8-1.5-3.8-4C82.8,76.5,84.3,74.8,86.6,74.8
			L86.6,74.8z"/>
		<path class="st1" d="M100.5,72.9h-1.5c-0.2,0-0.5,0.2-0.5,0.5v4.2h-4.5v-4.2c0-0.2-0.2-0.5-0.5-0.5h-1.4c-0.2,0-0.5,0.2-0.5,0.5
			v11.1c0,0.2,0.2,0.5,0.5,0.5h1.4c0.2,0,0.5-0.2,0.5-0.5v-4.7h4.5v4.7c0,0.2,0.2,0.5,0.5,0.5h1.5c0.2,0,0.5-0.2,0.5-0.5V73.4
			C101,73.1,100.8,72.9,100.5,72.9z"/>
		<path class="st1" d="M115.3,73.9c-0.7-0.7-1.9-1-3.4-1c-1,0-2,0.1-2.8,0.2c-0.2,0-0.4,0.2-0.4,0.5v10.9c0,0.2,0.2,0.5,0.5,0.5h1.4
			c0.2,0,0.5-0.2,0.5-0.5v-3.9c0.2,0,0.5,0,0.7,0c1.6,0,2.9-0.5,3.7-1.4c0.6-0.7,1-1.6,1-2.7S116.1,74.5,115.3,73.9L115.3,73.9z
			 M114.1,76.6c0,1.6-1.3,1.9-2.3,1.9c-0.3,0-0.5,0-0.7,0v-3.6c0.2,0,0.5,0,0.9,0C112.9,74.9,114.1,75.2,114.1,76.6z"/>
		<path class="st1" d="M122.9,73.2c-0.1-0.2-0.2-0.3-0.4-0.3h-1.7c-0.2,0-0.4,0.1-0.4,0.3l-3.8,11.1c0,0,0,0.3,0.1,0.4
			c0.1,0.1,0.2,0.2,0.4,0.2h1.5c0.2,0,0.4-0.1,0.4-0.3l1-3.2h3.3l1.1,3.2c0.1,0.2,0.2,0.3,0.4,0.3h1.5c0,0,0.3-0.1,0.4-0.2
			c0.1-0.1,0.1-0.3,0.1-0.4C126.7,84.3,122.9,73.2,122.9,73.2z M122.6,79.4h-2.1l0.9-2.6c0,0,0.1-0.3,0.1-0.5c0,0.2,0.1,0.3,0.2,0.5
			L122.6,79.4L122.6,79.4z"/>
		<path class="st1" d="M136,81.3c-0.2-1-0.6-1.7-1.1-2.1c1-0.6,1.6-1.6,1.6-2.9c0-1-0.4-1.9-1-2.5c-0.8-0.7-1.9-1-3.5-1
			c-1,0-2.1,0.1-2.8,0.2c-0.2,0-0.4,0.2-0.4,0.4v10.9c0,0.2,0.2,0.5,0.5,0.5h1.4c0.2,0,0.5-0.2,0.5-0.5v-4.3h0.9
			c1,0,1.5,0.3,1.8,1.8c0.4,1.7,0.6,2.5,0.8,2.8c0.1,0.1,0.2,0.2,0.4,0.2h1.5c0,0,0.3-0.1,0.4-0.2c0.1-0.1,0.1-0.3,0-0.5
			C136.6,83.8,136.3,82.7,136,81.3L136,81.3z M134.1,76.5c0,1-0.8,1.6-2,1.6h-1v-3.2c0.2,0,0.6-0.1,1-0.1
			C133.5,74.8,134.2,75.4,134.1,76.5L134.1,76.5z"/>
		<path class="st1" d="M147.5,84.2l-4.1-6.1l3.8-4.5c0,0,0.1-0.3,0.1-0.5c-0.1-0.2-0.2-0.2-0.4-0.2H145c0,0-0.2,0.1-0.4,0.2
			l-3.4,4.2c0,0-0.1,0.1-0.1,0.1v-4c0-0.2-0.2-0.5-0.5-0.5h-1.4c-0.2,0-0.5,0.2-0.5,0.5v11.1c0,0.2,0.2,0.5,0.5,0.5h1.4
			c0.2,0,0.5-0.2,0.5-0.5v-4.1l0.6-0.6l3.3,4.9c0,0,0.2,0.2,0.4,0.2h1.7c0,0,0.3-0.1,0.4-0.2C147.6,84.5,147.6,84.3,147.5,84.2
			L147.5,84.2z"/>
	</g>
</g>
</svg>
