<svg width="23" height="24" viewBox="0 0 23 24" fill="none" xmlns="http://www.w3.org/2000/svg">
<path d="M12.9323 4.50583C12.6678 4.50583 12.4531 4.29117 12.4531 4.02667V2.41667C12.4531 1.88862 12.0228 1.45833 11.4948 1.45833C10.9668 1.45833 10.5365 1.88862 10.5365 2.41667V4.02667C10.5365 4.29117 10.3218 4.50583 10.0573 4.50583C9.79279 4.50583 9.57812 4.29212 9.57812 4.02667V2.41667C9.57812 1.35962 10.4377 0.5 11.4948 0.5C12.5518 0.5 13.4115 1.35962 13.4115 2.41667V4.02667C13.4115 4.29212 13.1968 4.50583 12.9323 4.50583Z" fill="#B83806" stroke="#B83806" stroke-width="0.1"/>
<path d="M8.09062 20.1471C8.09062 22.0243 9.61759 23.5513 11.4948 23.5513C13.372 23.5513 14.899 22.0243 14.899 20.1471C14.899 19.855 14.6619 19.618 14.3698 19.618C14.0777 19.618 13.8406 19.855 13.8406 20.1471C13.8406 21.4401 12.7878 22.493 11.4948 22.493C10.2018 22.493 9.14896 21.4401 9.14896 20.1471C9.14896 19.855 8.91191 19.618 8.61979 19.618C8.32768 19.618 8.09062 19.855 8.09062 20.1471Z" fill="#B83806" stroke="#B83806" stroke-width="0.1"/>
<path d="M19.6432 20.625H3.35156C2.55902 20.625 1.91406 19.98 1.91406 19.1875C1.91406 18.7668 2.0971 18.3691 2.41719 18.095C3.92752 16.8185 4.78906 14.9612 4.78906 12.9947V10.0833C4.78906 6.38417 7.79823 3.375 11.4974 3.375C15.1966 3.375 18.2057 6.38417 18.2057 10.0833V12.9947C18.2057 14.9622 19.0673 16.8185 20.5699 18.0883C20.8977 18.3691 21.0807 18.7668 21.0807 19.1875C21.0807 19.98 20.4367 20.625 19.6432 20.625ZM11.4974 4.33333C8.32627 4.33333 5.7474 6.91221 5.7474 10.0833V12.9947C5.7474 15.2449 4.76223 17.3676 3.04394 18.8205C2.93373 18.9144 2.8724 19.0476 2.8724 19.1875C2.8724 19.452 3.08706 19.6667 3.35156 19.6667H19.6432C19.9077 19.6667 20.1224 19.452 20.1224 19.1875C20.1224 19.0476 20.0611 18.9144 19.9547 18.8233C18.2335 17.3676 17.2474 15.244 17.2474 12.9947V10.0833C17.2474 6.91221 14.6685 4.33333 11.4974 4.33333Z" fill="#B83806" stroke="#B83806" stroke-width="0.2"/>
</svg>
