<svg width="24" height="24" viewBox="0 0 24 24" fill="none" xmlns="http://www.w3.org/2000/svg">
<path d="M12 1.5C6.21021 1.5 1.5 6.21021 1.5 12C1.5 17.7898 6.21021 22.5 12 22.5C17.7898 22.5 22.5 17.7898 22.5 12C22.5 6.21021 17.7898 1.5 12 1.5ZM12 21C7.03711 21 3 16.9625 3 12C3 7.03748 7.03711 3 12 3C16.9629 3 21 7.03748 21 12C21 16.9625 16.9629 21 12 21Z" fill="#FE3000"/>
<path d="M15.7139 15.7107C15.5674 15.8572 15.3755 15.9304 15.1836 15.9304C14.9917 15.9304 14.7998 15.8572 14.6533 15.7107L12.002 13.059L9.48315 15.5781C9.33667 15.7246 9.14478 15.7979 8.95288 15.7979C8.76099 15.7979 8.56909 15.7246 8.42261 15.5781C8.12964 15.2855 8.12964 14.8105 8.42261 14.5176L10.9415 11.9984L8.29004 9.34668C7.99707 9.05371 7.99707 8.5791 8.29004 8.28613C8.58301 7.99316 9.05762 7.99316 9.35059 8.28613L12.002 10.9378L14.5208 8.4187C14.8137 8.12573 15.2883 8.12573 15.5813 8.4187C15.8743 8.7113 15.8743 9.18628 15.5813 9.47925L13.0625 11.9984L15.7139 14.6501C16.0068 14.9431 16.0068 15.4177 15.7139 15.7107Z" fill="#FE3000"/>
</svg>
