<?xml version="1.0" encoding="utf-8"?>
<svg viewBox="0 0 500 500" xmlns="http://www.w3.org/2000/svg">
  <ellipse style="stroke-miterlimit: 1; paint-order: fill; fill: rgb(236, 97, 45); stroke: rgb(236, 97, 45);" cx="250.202" cy="250" rx="249.1" ry="249.1"/>
  <path d="M 71.039 235.37 C 65.831 235.046 63.232 236.976 63.232 241.481 L 63.232 241.797 L 71.039 241.797 L 71.039 250.799 L 63.232 250.799 L 63.232 278.137 L 53.802 278.137 L 53.802 250.799 L 48.594 250.799 L 48.594 241.797 L 53.802 241.797 L 53.802 241.481 C 53.802 236.331 55.101 232.479 58.032 229.904 C 60.962 227.327 65.185 226.036 71.039 226.366 L 71.039 235.37 Z" style="fill: rgb(255, 255, 255);"/>
  <path d="M 100.639 240.189 L 110.077 240.189 L 110.077 276.523 L 100.639 276.523 L 100.639 272.348 C 98.361 275.885 94.793 277.492 89.585 277.492 C 85.677 277.492 82.423 276.208 79.824 273.632 C 77.224 271.057 75.924 267.205 75.924 262.7 L 75.924 240.513 L 85.355 240.513 L 85.355 261.416 C 85.355 263.984 86 265.599 87.309 266.874 C 88.608 268.166 90.232 268.812 92.508 268.812 C 95.108 268.812 97.062 268.166 98.361 266.56 C 99.993 264.953 100.639 262.7 100.639 259.801 L 100.639 240.189 Z" style="fill: rgb(255, 255, 255);"/>
  <path d="M 139.999 249.193 L 131.877 249.193 L 131.877 264.307 C 131.877 265.599 132.2 266.56 132.853 267.205 C 133.5 267.843 134.477 268.166 135.776 268.166 C 137.076 268.166 138.377 268.166 140.331 268.166 L 140.331 276.523 C 133.83 277.168 129.269 276.523 126.67 274.601 C 124.061 272.671 122.762 269.135 122.762 264.307 L 122.762 249.193 L 116.262 249.193 L 116.262 240.189 L 122.762 240.189 L 122.762 232.793 L 132.2 229.904 L 132.2 240.189 L 140.331 240.189 L 140.331 249.193 L 139.999 249.193 Z" style="fill: rgb(255, 255, 255);"/>
  <path d="M 174.483 240.189 L 183.922 240.189 L 183.922 276.523 L 174.483 276.523 L 174.483 272.348 C 172.214 275.885 168.63 277.492 163.43 277.492 C 159.522 277.492 156.269 276.208 153.668 273.632 C 151.069 271.057 149.769 267.205 149.769 262.7 L 149.769 240.513 L 159.2 240.513 L 159.2 261.416 C 159.2 263.984 159.845 265.599 161.146 266.874 C 162.453 268.166 164.076 268.812 166.353 268.812 C 168.961 268.812 170.915 268.166 172.214 266.56 C 173.83 264.953 174.483 262.7 174.483 259.801 L 174.483 240.189 Z" style="fill: rgb(255, 255, 255);"/>
  <path d="M 201.814 246.624 C 202.791 244.372 204.091 242.442 206.037 241.481 C 207.991 240.513 210.268 239.867 212.867 239.867 L 212.867 250.161 C 209.944 249.838 207.337 250.484 205.06 251.768 C 202.791 253.374 201.814 255.628 201.814 259.164 L 201.814 276.523 L 192.376 276.523 L 192.376 240.189 L 201.814 240.189 L 201.814 246.624 Z" style="fill: rgb(255, 255, 255);"/>
  <path d="M 225.229 262.377 C 226.528 266.874 229.782 269.135 235.636 269.135 C 239.212 269.135 242.143 267.843 243.775 265.599 L 251.259 270.096 C 247.675 275.239 242.467 277.815 235.313 277.815 C 229.137 277.815 224.252 275.885 220.675 272.348 C 217.09 268.812 215.144 264.307 215.144 258.517 C 215.144 253.051 217.09 248.554 220.675 245.018 C 224.252 241.481 228.806 239.552 234.659 239.552 C 240.189 239.552 244.42 241.481 248.005 245.018 C 251.574 248.554 253.205 253.374 253.205 258.517 C 253.205 259.801 253.205 261.094 252.874 262.377 L 225.229 262.377 Z M 224.906 254.981 L 243.775 254.981 C 243.12 252.414 242.143 250.799 240.521 249.515 C 238.89 248.224 236.936 247.593 234.659 247.593 C 232.06 247.593 230.114 248.224 228.482 249.515 C 226.528 250.799 225.551 252.729 224.906 254.981 Z" style="fill: rgb(255, 255, 255);"/>
  <path d="M 280.858 239.22 C 285.735 239.22 289.958 241.15 293.543 244.686 C 297.12 248.224 298.751 253.051 298.751 258.203 C 298.751 263.669 297.12 268.166 293.543 271.702 C 289.958 275.239 285.735 277.168 280.858 277.168 C 275.65 277.168 271.751 275.562 269.151 272.026 L 269.151 276.208 L 259.713 276.208 L 259.713 225.721 L 269.151 225.721 L 269.151 244.372 C 271.751 241.15 275.974 239.22 280.858 239.22 Z M 272.066 265.913 C 274.02 267.843 276.297 268.812 279.228 268.812 C 282.159 268.812 284.436 267.843 286.39 265.913 C 288.344 263.984 289.321 261.416 289.321 258.517 C 289.321 255.628 288.344 253.051 286.39 251.13 C 284.436 249.193 282.159 248.224 279.228 248.224 C 276.297 248.224 274.02 249.193 272.066 251.13 C 270.12 253.051 269.151 255.628 269.151 258.517 C 269.151 261.416 270.12 263.984 272.066 265.913 Z" style="fill: rgb(255, 255, 255);"/>
  <path d="M 333.227 240.189 L 342.665 240.189 L 342.665 276.523 L 333.227 276.523 L 333.227 272.348 C 330.304 275.885 326.404 277.492 321.196 277.492 C 316.311 277.492 312.088 275.562 308.512 272.026 C 304.928 268.489 303.304 263.669 303.304 258.517 C 303.304 253.051 304.928 248.554 308.512 245.018 C 312.088 241.481 316.311 239.552 321.196 239.552 C 326.404 239.552 330.304 241.15 333.227 244.686 L 333.227 240.189 Z M 315.988 265.913 C 317.943 267.843 320.219 268.812 323.15 268.812 C 326.073 268.812 328.358 267.843 330.304 265.913 C 332.25 263.984 333.227 261.416 333.227 258.517 C 333.227 255.628 332.25 253.051 330.304 251.13 C 328.358 249.193 326.073 248.224 323.15 248.224 C 320.219 248.224 317.943 249.193 315.988 251.13 C 314.034 253.051 313.065 255.628 313.065 258.517 C 313.065 261.416 314.034 263.984 315.988 265.913 Z" style="fill: rgb(255, 255, 255);"/>
  <path d="M 362.826 267.843 L 379.095 267.843 L 379.095 276.523 L 350.142 276.523 L 350.142 270.419 L 365.434 249.193 L 350.796 249.193 L 350.796 240.513 L 378.118 240.513 L 378.118 246.624 L 362.826 267.843 Z" style="fill: rgb(255, 255, 255);"/>
  <path d="M 411.625 240.189 L 421.056 240.189 L 421.056 276.523 L 411.625 276.523 L 411.625 272.348 C 408.702 275.885 404.794 277.492 399.595 277.492 C 394.711 277.492 390.48 275.562 386.903 272.026 C 383.326 268.489 381.695 263.669 381.695 258.517 C 381.695 253.051 383.326 248.554 386.903 245.018 C 390.48 241.481 394.711 239.552 399.595 239.552 C 404.794 239.552 408.702 241.15 411.625 244.686 L 411.625 240.189 Z M 394.064 265.913 C 396.018 267.843 398.295 268.812 401.218 268.812 C 404.141 268.812 406.418 267.843 408.372 265.913 C 410.326 263.984 411.303 261.416 411.303 258.517 C 411.303 255.628 410.326 253.051 408.372 251.13 C 406.418 249.193 404.141 248.224 401.218 248.224 C 398.295 248.224 396.018 249.193 394.064 251.13 C 392.11 253.051 391.133 255.628 391.133 258.517 C 391.457 261.416 392.11 263.984 394.064 265.913 Z" style="fill: rgb(255, 255, 255);"/>
  <path d="M 438.948 246.624 C 439.925 244.372 441.224 242.442 443.178 241.481 C 445.124 240.189 447.401 239.867 450.009 239.867 L 450.009 250.161 C 447.078 249.838 444.478 250.484 442.201 251.768 C 439.925 253.374 438.948 255.628 438.948 259.164 L 438.948 276.523 L 429.509 276.523 L 429.509 240.189 L 438.948 240.189 L 438.948 246.624 Z" style="fill: rgb(255, 255, 255);"/>
</svg>