<svg width="148" height="69" viewBox="0 0 148 69" fill="none" xmlns="http://www.w3.org/2000/svg">
<g clip-path="url(#clip0_301_2)">
<path d="M8.27553 28.4536C6.35656 28.3351 5.39708 29.0464 5.39708 30.7062V30.8247H8.27553V34.1443H5.39708V44.2217H1.91896V34.1443H0V30.8247H1.91896V30.7062C1.91896 28.8093 2.3987 27.3866 3.47812 26.4381C4.55754 25.4897 6.11669 25.0155 8.27553 25.134V28.4536Z" fill="#020203"/>
<path d="M19.1893 30.232H22.6674V43.6289H19.1893V42.0876C18.3497 43.3918 17.0305 43.9845 15.1115 43.9845C13.6723 43.9845 12.4729 43.5103 11.5134 42.5619C10.554 41.6134 10.0742 40.1907 10.0742 38.5309V30.3505H13.5523V38.0567C13.5523 39.0052 13.7922 39.5979 14.2719 40.0722C14.7517 40.5464 15.3514 40.7835 16.1909 40.7835C17.1504 40.7835 17.87 40.5464 18.3497 39.9536C18.9494 39.3608 19.1893 38.5309 19.1893 37.4639V30.232Z" fill="#020203"/>
<path d="M33.7025 33.5515H30.7042V39.1237C30.7042 39.5979 30.8241 39.9536 31.064 40.1907C31.3038 40.4278 31.6636 40.5464 32.1434 40.5464C32.6231 40.5464 33.1029 40.5464 33.8225 40.5464V43.6289C31.4238 43.866 29.7447 43.6289 28.7852 42.9175C27.8257 42.2062 27.346 40.9021 27.346 39.1237V33.5515H24.9473V30.232H27.346V27.5052L30.8241 26.4381V30.232H33.8225V33.5515H33.7025Z" fill="#020203"/>
<path d="M46.4159 30.232H49.894V43.6289H46.4159V42.0876C45.5763 43.3918 44.257 43.9845 42.3381 43.9845C40.8988 43.9845 39.6995 43.5103 38.74 42.5619C37.7805 41.6134 37.3008 40.1907 37.3008 38.5309V30.3505H40.7789V38.0567C40.7789 39.0052 41.0188 39.5979 41.4985 40.0722C41.9783 40.5464 42.5779 40.7835 43.4175 40.7835C44.377 40.7835 45.0966 40.5464 45.5763 39.9536C46.176 39.3608 46.4159 38.5309 46.4159 37.4639V30.232Z" fill="#020203"/>
<path d="M56.4898 32.6031C56.8496 31.7732 57.3294 31.0619 58.049 30.7062C58.7686 30.3505 59.6082 30.1134 60.5676 30.1134V33.9072C59.4882 33.7887 58.5287 34.0258 57.6892 34.5C56.8496 35.0928 56.4898 35.9227 56.4898 37.2268V43.6289H53.0117V30.232H56.4898V32.6031Z" fill="#020203"/>
<path d="M65.1242 38.4124C65.604 40.0722 66.8033 40.9021 68.9622 40.9021C70.2815 40.9021 71.3609 40.4278 71.9605 39.5979L74.7191 41.2577C73.3998 43.1546 71.4808 44.1031 68.8422 44.1031C66.5635 44.1031 64.7644 43.3917 63.4451 42.0876C62.1259 40.7835 61.4062 39.1237 61.4062 36.9897C61.4062 34.9742 62.1259 33.3144 63.4451 32.0103C64.7644 30.7062 66.4435 29.9948 68.6024 29.9948C70.6413 29.9948 72.2004 30.7062 73.5197 32.0103C74.839 33.3144 75.4387 35.0928 75.4387 36.9897C75.4387 37.4639 75.4387 37.9381 75.3187 38.4124H65.1242ZM65.0043 35.6856H71.9605C71.7207 34.7371 71.3609 34.1443 70.7612 33.6701C70.1615 33.1959 69.4419 32.9588 68.6024 32.9588C67.6429 32.9588 66.9233 33.1959 66.3236 33.6701C65.604 34.1443 65.2442 34.8557 65.0043 35.6856Z" fill="#020203"/>
<path d="M85.6337 29.8763C87.4327 29.8763 88.9919 30.5876 90.3111 31.8918C91.6304 33.1959 92.2301 34.9742 92.2301 36.8711C92.2301 38.8866 91.6304 40.5464 90.3111 41.8505C88.9919 43.1546 87.4327 43.866 85.6337 43.866C83.7147 43.866 82.2755 43.2732 81.316 41.9691V43.5103H77.8379V24.8969H81.316V31.7732C82.2755 30.5876 83.8346 29.8763 85.6337 29.8763ZM82.3954 39.7165C83.115 40.4278 83.9546 40.7835 85.034 40.7835C86.1134 40.7835 86.953 40.4278 87.6726 39.7165C88.3922 39.0052 88.752 38.0567 88.752 36.9897C88.752 35.9227 88.3922 34.9742 87.6726 34.2629C86.953 33.5516 86.1134 33.1959 85.034 33.1959C83.9546 33.1959 83.115 33.5516 82.3954 34.2629C81.6758 34.9742 81.316 35.9227 81.316 36.9897C81.316 38.0567 81.6758 39.0052 82.3954 39.7165Z" fill="#020203"/>
<path d="M104.944 30.232H108.422V43.6289H104.944V42.0876C103.865 43.3917 102.426 43.9845 100.507 43.9845C98.7076 43.9845 97.1484 43.2732 95.8291 41.9691C94.5098 40.6649 93.9102 38.8866 93.9102 36.9897C93.9102 34.9742 94.5098 33.3144 95.8291 32.0103C97.1484 30.7062 98.7076 29.9948 100.507 29.9948C102.426 29.9948 103.865 30.5876 104.944 31.8917V30.232ZM98.5876 39.7165C99.3072 40.4278 100.147 40.7835 101.226 40.7835C102.306 40.7835 103.145 40.4278 103.865 39.7165C104.584 39.0052 104.944 38.0567 104.944 36.9897C104.944 35.9227 104.584 34.9742 103.865 34.2629C103.145 33.5515 102.306 33.1959 101.226 33.1959C100.147 33.1959 99.3072 33.5515 98.5876 34.2629C97.868 34.9742 97.5082 35.9227 97.5082 36.9897C97.5082 38.0567 97.868 39.0052 98.5876 39.7165Z" fill="#020203"/>
<path d="M115.857 40.4278H121.854V43.6289H111.18V41.3763L116.817 33.5516H111.42V30.3505H121.494V32.6031L115.857 40.4278Z" fill="#020203"/>
<path d="M133.848 30.232H137.327V43.6289H133.848V42.0876C132.769 43.3917 131.33 43.9845 129.411 43.9845C127.612 43.9845 126.053 43.2732 124.733 41.9691C123.414 40.6649 122.814 38.8866 122.814 36.9897C122.814 34.9742 123.414 33.3144 124.733 32.0103C126.053 30.7062 127.612 29.9948 129.411 29.9948C131.33 29.9948 132.769 30.5876 133.848 31.8917V30.232ZM127.372 39.7165C128.092 40.4278 128.931 40.7835 130.011 40.7835C131.09 40.7835 131.93 40.4278 132.649 39.7165C133.369 39.0052 133.729 38.0567 133.729 36.9897C133.729 35.9227 133.369 34.9742 132.649 34.2629C131.93 33.5515 131.09 33.1959 130.011 33.1959C128.931 33.1959 128.092 33.5515 127.372 34.2629C126.652 34.9742 126.293 35.9227 126.293 36.9897C126.413 38.0567 126.652 39.0052 127.372 39.7165Z" fill="#020203"/>
<path d="M143.921 32.6031C144.281 31.7732 144.761 31.0619 145.481 30.7062C146.2 30.232 147.04 30.1134 147.999 30.1134V33.9072C146.92 33.7887 145.96 34.0258 145.121 34.5C144.281 35.0928 143.921 35.9227 143.921 37.2268V43.6289H140.443V30.232H143.921V32.6031Z" fill="#020203"/>
<path d="M82.6347 23.3557C87.1922 11.1443 99.0658 2.48969 112.978 2.48969C126.891 2.48969 138.644 11.1443 143.322 23.3557H146.08C141.283 9.72165 128.21 0 112.978 0C97.6266 0 84.6736 9.72165 79.9961 23.3557H82.6347Z" fill="#EC612D"/>
<path d="M142.961 46.2371C138.164 58.0928 126.53 66.3918 112.858 66.3918C99.1849 66.3918 87.6711 58.0928 82.8737 46.2371H80.1152C85.0326 59.5155 97.8656 69 112.858 69C127.849 69 140.802 59.5155 145.6 46.2371H142.961Z" fill="#EC612D"/>
</g>
<defs>
<clipPath id="clip0_301_2">
<rect width="148" height="69" fill="white"/>
</clipPath>
</defs>
</svg>
