<?xml version="1.0" encoding="utf-8"?>
<!-- Generator: Adobe Illustrator 25.2.0, SVG Export Plug-In . SVG Version: 6.00 Build 0)  -->
<svg version="1.1" id="Layer_1" xmlns="http://www.w3.org/2000/svg" xmlns:xlink="http://www.w3.org/1999/xlink" x="0px" y="0px"
	 viewBox="0 0 148 69" style="enable-background:new 0 0 148 69;" xml:space="preserve">
<style type="text/css">
	.st0{clip-path:url(#SVGID_2_);}
	.st1{fill:#FFFFFF;}
	.st2{fill:#EC612D;}
</style>
<g>
	<defs>
		<rect id="SVGID_1_" width="148" height="69"/>
	</defs>
	<clipPath id="SVGID_2_">
		<use xlink:href="#SVGID_1_"  style="overflow:visible;"/>
	</clipPath>
	<g class="st0">
		<path class="st1" d="M8.3,28.5c-1.9-0.1-2.9,0.6-2.9,2.3v0.1h2.9v3.3H5.4v10.1H1.9V34.1H0v-3.3h1.9v-0.1c0-1.9,0.5-3.3,1.6-4.3
			c1.1-0.9,2.6-1.4,4.8-1.3V28.5z"/>
		<path class="st1" d="M19.2,30.2h3.5v13.4h-3.5v-1.5C18.3,43.4,17,44,15.1,44c-1.4,0-2.6-0.5-3.6-1.4c-1-0.9-1.4-2.4-1.4-4v-8.2
			h3.5v7.7c0,0.9,0.2,1.5,0.7,2c0.5,0.5,1.1,0.7,1.9,0.7c1,0,1.7-0.2,2.2-0.8c0.6-0.6,0.8-1.4,0.8-2.5V30.2z"/>
		<path class="st1" d="M33.7,33.6h-3v5.6c0,0.5,0.1,0.8,0.4,1.1c0.2,0.2,0.6,0.4,1.1,0.4c0.5,0,1,0,1.7,0v3.1c-2.4,0.2-4.1,0-5-0.7
			c-1-0.7-1.4-2-1.4-3.8v-5.6h-2.4v-3.3h2.4v-2.7l3.5-1.1v3.8h3v3.3H33.7z"/>
		<path class="st1" d="M46.4,30.2h3.5v13.4h-3.5v-1.5c-0.8,1.3-2.2,1.9-4.1,1.9c-1.4,0-2.6-0.5-3.6-1.4c-1-0.9-1.4-2.4-1.4-4v-8.2
			h3.5v7.7c0,0.9,0.2,1.5,0.7,2c0.5,0.5,1.1,0.7,1.9,0.7c1,0,1.7-0.2,2.2-0.8c0.6-0.6,0.8-1.4,0.8-2.5V30.2z"/>
		<path class="st1" d="M56.5,32.6c0.4-0.8,0.8-1.5,1.6-1.9s1.6-0.6,2.5-0.6v3.8c-1.1-0.1-2,0.1-2.9,0.6c-0.8,0.6-1.2,1.4-1.2,2.7
			v6.4H53V30.2h3.5V32.6z"/>
		<path class="st1" d="M65.1,38.4c0.5,1.7,1.7,2.5,3.8,2.5c1.3,0,2.4-0.5,3-1.3l2.8,1.7c-1.3,1.9-3.2,2.8-5.9,2.8
			c-2.3,0-4.1-0.7-5.4-2c-1.3-1.3-2-3-2-5.1c0-2,0.7-3.7,2-5c1.3-1.3,3-2,5.2-2c2,0,3.6,0.7,4.9,2s1.9,3.1,1.9,5
			c0,0.5,0,0.9-0.1,1.4H65.1z M65,35.7h7c-0.2-0.9-0.6-1.5-1.2-2c-0.6-0.5-1.3-0.7-2.2-0.7c-1,0-1.7,0.2-2.3,0.7
			C65.6,34.1,65.2,34.9,65,35.7z"/>
		<path class="st1" d="M85.6,29.9c1.8,0,3.4,0.7,4.7,2c1.3,1.3,1.9,3.1,1.9,5c0,2-0.6,3.7-1.9,5c-1.3,1.3-2.9,2-4.7,2
			c-1.9,0-3.4-0.6-4.3-1.9v1.5h-3.5V24.9h3.5v6.9C82.3,30.6,83.8,29.9,85.6,29.9z M82.4,39.7c0.7,0.7,1.6,1.1,2.6,1.1
			c1.1,0,1.9-0.4,2.6-1.1s1.1-1.7,1.1-2.7s-0.4-2-1.1-2.7s-1.6-1.1-2.6-1.1c-1.1,0-1.9,0.4-2.6,1.1c-0.7,0.7-1.1,1.7-1.1,2.7
			S81.7,39,82.4,39.7z"/>
		<path class="st1" d="M104.9,30.2h3.5v13.4h-3.5v-1.5c-1.1,1.3-2.5,1.9-4.4,1.9c-1.8,0-3.4-0.7-4.7-2c-1.3-1.3-1.9-3.1-1.9-5
			c0-2,0.6-3.7,1.9-5s2.9-2,4.7-2c1.9,0,3.4,0.6,4.4,1.9V30.2z M98.6,39.7c0.7,0.7,1.6,1.1,2.6,1.1c1.1,0,1.9-0.4,2.6-1.1
			c0.7-0.7,1.1-1.7,1.1-2.7s-0.4-2-1.1-2.7c-0.7-0.7-1.6-1.1-2.6-1.1c-1.1,0-1.9,0.4-2.6,1.1c-0.7,0.7-1.1,1.7-1.1,2.7
			S97.9,39,98.6,39.7z"/>
		<path class="st1" d="M115.9,40.4h6v3.2h-10.7v-2.3l5.6-7.8h-5.4v-3.2h10.1v2.3L115.9,40.4z"/>
		<path class="st1" d="M133.8,30.2h3.5v13.4h-3.5v-1.5c-1.1,1.3-2.5,1.9-4.4,1.9c-1.8,0-3.4-0.7-4.7-2c-1.3-1.3-1.9-3.1-1.9-5
			c0-2,0.6-3.7,1.9-5c1.3-1.3,2.9-2,4.7-2c1.9,0,3.4,0.6,4.4,1.9V30.2z M127.4,39.7c0.7,0.7,1.6,1.1,2.6,1.1c1.1,0,1.9-0.4,2.6-1.1
			c0.7-0.7,1.1-1.7,1.1-2.7s-0.4-2-1.1-2.7c-0.7-0.7-1.6-1.1-2.6-1.1c-1.1,0-1.9,0.4-2.6,1.1c-0.7,0.7-1.1,1.7-1.1,2.7
			C126.4,38.1,126.7,39,127.4,39.7z"/>
		<path class="st1" d="M143.9,32.6c0.4-0.8,0.8-1.5,1.6-1.9c0.7-0.5,1.6-0.6,2.5-0.6v3.8c-1.1-0.1-2,0.1-2.9,0.6
			c-0.8,0.6-1.2,1.4-1.2,2.7v6.4h-3.5V30.2h3.5V32.6z"/>
		<path class="st2" d="M82.6,23.4C87.2,11.1,99.1,2.5,113,2.5c13.9,0,25.7,8.7,30.3,20.9h2.8C141.3,9.7,128.2,0,113,0
			C97.6,0,84.7,9.7,80,23.4H82.6z"/>
		<path class="st2" d="M143,46.2c-4.8,11.9-16.4,20.2-30.1,20.2c-13.7,0-25.2-8.3-30-20.2h-2.8C85,59.5,97.9,69,112.9,69
			c15,0,27.9-9.5,32.7-22.8H143z"/>
	</g>
</g>
</svg>
