<svg width="125" height="125" viewBox="0 0 125 125" fill="none" xmlns="http://www.w3.org/2000/svg">
<path d="M105.196 19.9214C105.902 19.2318 107.04 19.25 107.705 19.9798C117.597 30.8409 123.627 45.28 123.627 61.1278C123.627 94.8878 96.2597 122.256 62.4999 122.256C28.7133 122.256 1.22026 94.6325 1.3727 60.8461C1.44381 45.1106 7.46028 30.7795 17.2914 19.9836C17.9573 19.2523 19.097 19.2316 19.8048 19.9224C30.8226 30.6769 45.8872 37.3039 62.4997 37.3039C79.1127 37.3037 94.1778 30.6764 105.196 19.9214V19.9214Z" fill="#06995F"/>
<path d="M60.296 113.523C60.296 118.738 56.3671 123.197 50.8149 125C45.2628 123.197 41.3339 118.738 41.3339 113.523C41.3339 109.939 43.1897 106.712 46.153 104.459C46.7528 104.003 46.8007 103.136 46.2827 102.589C45.2256 101.472 44.5774 99.9633 44.5774 98.3034C44.5774 94.7265 47.5879 91.853 51.2134 92.0783C54.3172 92.2712 56.8441 94.7956 57.0397 97.8992C57.1545 99.7213 56.4866 101.388 55.3399 102.597C54.8241 103.14 54.8795 104.005 55.4758 104.458C58.4397 106.712 60.296 109.939 60.296 113.523V113.523ZM32.1058 104.458C31.5093 104.005 31.4539 103.14 31.9699 102.597C33.1166 101.388 33.7845 99.7213 33.6697 97.8992C33.4741 94.7956 30.9472 92.2712 27.8434 92.0783C24.2179 91.8533 21.2074 94.7268 21.2074 98.3036C21.2074 99.9633 21.8556 101.472 22.9127 102.589C23.4304 103.137 23.3828 104.003 22.783 104.459C19.8197 106.712 17.9639 109.939 17.9639 113.523C17.9639 118.738 21.8928 123.197 27.4449 125C32.9971 123.197 36.9259 118.738 36.9259 113.523C36.9259 109.939 35.0697 106.712 32.1058 104.458V104.458ZM78.8459 104.458C78.2493 104.005 78.1939 103.14 78.7099 102.597C79.8566 101.388 80.5245 99.7213 80.4097 97.8992C80.2141 94.7956 77.6872 92.2712 74.5834 92.0783C70.9581 91.853 67.9474 94.7268 67.9474 98.3034C67.9474 99.963 68.5956 101.472 69.6527 102.589C70.1705 103.136 70.1228 104.003 69.523 104.459C66.5597 106.712 64.7039 109.939 64.7039 113.523C64.7039 118.738 68.6328 123.197 74.1849 125C79.7371 123.197 83.666 118.738 83.666 113.523C83.6657 109.939 81.8094 106.712 78.8459 104.458V104.458ZM102.216 104.458C101.619 104.005 101.564 103.14 102.08 102.597C103.226 101.388 103.894 99.7213 103.779 97.8992C103.584 94.7956 101.057 92.2712 97.9531 92.0783C94.3276 91.8533 91.3172 94.7268 91.3172 98.3036C91.3172 99.9633 91.9654 101.472 93.0225 102.589C93.5402 103.137 93.4926 104.003 92.8928 104.459C89.9294 106.712 88.0736 109.939 88.0736 113.523C88.0736 118.738 92.0025 123.197 97.5547 125C103.107 123.197 107.036 118.738 107.036 113.523C107.036 109.939 105.179 106.712 102.216 104.458V104.458Z" fill="#FDBF43"/>
<path d="M53.6218 123.79C52.7468 124.271 51.8067 124.678 50.8149 125C45.2628 123.197 41.3339 118.738 41.3339 113.523C41.3339 109.939 43.1897 106.712 46.153 104.459C46.7528 104.003 46.8007 103.136 46.2827 102.589C45.2256 101.472 44.5774 99.9633 44.5774 98.3034C44.5774 94.7265 47.5879 91.853 51.2134 92.0783C52.0707 92.1315 52.8835 92.3627 53.6158 92.7348C51.5841 93.7632 50.1912 95.8705 50.1912 98.3034C50.1912 99.963 50.8394 101.471 51.8965 102.589C52.4142 103.136 52.3666 104.003 51.7668 104.459C48.8034 106.712 46.9477 109.939 46.9477 113.523C46.9477 117.806 49.5981 121.58 53.6218 123.79ZM54.4327 107.036C53.0547 107.036 51.9377 109.829 51.9377 113.274C51.9377 116.719 53.0547 119.511 54.4327 119.511C55.8107 119.511 56.9277 116.719 56.9277 113.274C56.9277 109.829 55.8104 107.036 54.4327 107.036ZM23.5776 113.523C23.5776 109.939 25.4334 106.712 28.3968 104.459C28.9966 104.003 29.0442 103.136 28.5265 102.589C27.4694 101.472 26.8212 99.9633 26.8212 98.3034C26.8212 95.8705 28.2141 93.7629 30.2458 92.7348C29.5135 92.3627 28.7004 92.1317 27.8434 92.0783C24.2179 91.8533 21.2074 94.7268 21.2074 98.3036C21.2074 99.9633 21.8556 101.472 22.9127 102.589C23.4304 103.137 23.3828 104.003 22.783 104.459C19.8197 106.712 17.9639 109.939 17.9639 113.523C17.9639 118.738 21.8928 123.197 27.4449 125C28.4367 124.678 29.3768 124.271 30.2518 123.79C26.2283 121.58 23.5776 117.806 23.5776 113.523ZM31.0627 107.036C29.6847 107.036 28.5677 109.829 28.5677 113.274C28.5677 116.719 29.6847 119.511 31.0627 119.511C32.4407 119.511 33.5577 116.719 33.5577 113.274C33.5577 109.829 32.4407 107.036 31.0627 107.036ZM101.172 107.036C99.7945 107.036 98.6774 109.829 98.6774 113.274C98.6774 116.719 99.7945 119.511 101.172 119.511C102.55 119.511 103.667 116.719 103.667 113.274C103.667 109.829 102.55 107.036 101.172 107.036ZM93.6874 113.523C93.6874 109.939 95.5432 106.712 98.5065 104.459C99.1063 104.003 99.154 103.136 98.6363 102.589C97.5791 101.472 96.9309 99.9633 96.9309 98.3034C96.9309 95.8705 98.3239 93.7629 100.356 92.7348C99.6233 92.3627 98.8102 92.1317 97.9531 92.0783C94.3276 91.8533 91.3172 94.7268 91.3172 98.3036C91.3172 99.9633 91.9654 101.472 93.0225 102.589C93.5402 103.137 93.4926 104.003 92.8928 104.459C89.9294 106.712 88.0737 109.939 88.0737 113.523C88.0737 118.738 92.0025 123.197 97.5547 125C98.5465 124.678 99.4866 124.271 100.362 123.79C96.3381 121.58 93.6874 117.806 93.6874 113.523ZM70.3174 113.523C70.3174 109.939 72.1735 106.712 75.1365 104.459C75.7363 104.003 75.784 103.136 75.2663 102.589C74.2091 101.472 73.5609 99.9633 73.5609 98.3034C73.5609 95.8705 74.9539 93.7629 76.9856 92.7348C76.2533 92.3627 75.4402 92.1317 74.5831 92.0783C70.9576 91.853 67.9472 94.7265 67.9472 98.3034C67.9472 99.963 68.5954 101.471 69.6525 102.589C70.1702 103.136 70.1226 104.003 69.5228 104.459C66.5594 106.712 64.7036 109.939 64.7036 113.523C64.7036 118.738 68.6325 123.197 74.1847 125C75.1764 124.678 76.1166 124.271 76.9916 123.79C72.9681 121.58 70.3174 117.806 70.3174 113.523ZM77.8024 107.036C76.4245 107.036 75.3074 109.829 75.3074 113.274C75.3074 116.719 76.4245 119.511 77.8024 119.511C79.1804 119.511 80.2975 116.719 80.2975 113.274C80.2975 109.829 79.1804 107.036 77.8024 107.036Z" fill="#FD8F01"/>
<path d="M107.785 20.0671V94.5609C107.785 97.3169 105.551 99.5509 102.795 99.5509H22.2058C19.4499 99.5509 17.2158 97.3169 17.2158 94.5609V20.0671C28.3992 7.74077 44.5457 0 62.5002 0C80.4548 0 96.6013 7.74077 107.785 20.0671V20.0671Z" fill="#D73131"/>
<path d="M107.785 20.0671V94.5609C107.785 97.3169 105.551 99.5509 102.795 99.5509H31.0633C28.3073 99.5509 26.0732 97.3169 26.0732 94.5609V12.0347C36.2466 4.47355 48.8509 0 62.5004 0C80.455 0 96.6014 7.74077 107.785 20.0671V20.0671Z" fill="#FD4343"/>
<path d="M99.994 46.3841L67.4164 9.45391C66.1726 8.04398 64.3807 7.23535 62.5005 7.23535C60.6202 7.23535 58.8283 8.04398 57.5843 9.45416L25.0069 46.3841C22.8258 48.8561 22.8258 52.5852 25.0069 55.0572L57.5845 91.9874V91.9876C58.8283 93.3973 60.6202 94.2062 62.5005 94.2062C64.3807 94.2062 66.1726 93.3975 67.4166 91.9874L99.994 55.0572C102.175 52.5852 102.175 48.8561 99.994 46.3841V46.3841ZM96.252 51.7561L63.6746 88.686C63.2679 89.1473 62.7644 89.2159 62.5005 89.2159C62.2365 89.2159 61.733 89.1473 61.3263 88.686V88.6862L28.749 51.7561C28.2283 51.1657 28.2283 50.2753 28.749 49.685L61.3263 12.7553C61.733 12.294 62.2365 12.2254 62.5005 12.2254C62.7644 12.2254 63.2679 12.294 63.6746 12.7551L96.2522 49.6852C96.7729 50.2755 96.7729 51.1657 96.252 51.7561V51.7561Z" fill="#D73131"/>
<path d="M60.1961 80.6912L35.5504 52.7529C34.5262 51.5917 34.5262 49.8497 35.5504 48.6885L60.1961 20.7501C61.4189 19.3639 63.5803 19.3639 64.8034 20.7501L89.4491 48.6885C90.4733 49.8497 90.4733 51.5917 89.4491 52.7529L64.8034 80.6912C63.5806 82.0775 61.4191 82.0775 60.1961 80.6912V80.6912Z" fill="#FDBF43"/>
<path d="M32.6928 29.6931L25.6331 21.6904C25.3397 21.3578 25.3397 20.8588 25.6331 20.5262L32.6928 12.5235C33.0431 12.1263 33.6621 12.1263 34.0124 12.5235L41.072 20.5262C41.3654 20.8588 41.3654 21.3578 41.072 21.6904L34.0124 29.6931C33.6623 30.0904 33.0431 30.0904 32.6928 29.6931V29.6931ZM90.9872 29.6931L83.9275 21.6904C83.6341 21.3578 83.6341 20.8588 83.9275 20.5262L90.9872 12.5235C91.3375 12.1263 91.9565 12.1263 92.3068 12.5235L99.3664 20.5262C99.6598 20.8588 99.6598 21.3578 99.3664 21.6904L92.3068 29.6931C91.9567 30.0904 91.3375 30.0904 90.9872 29.6931ZM32.6928 89.5734L25.6331 81.5706C25.3397 81.238 25.3397 80.7391 25.6331 80.4065L32.6928 72.4037C33.0431 72.0065 33.6621 72.0065 34.0124 72.4037L41.072 80.4065C41.3654 80.7391 41.3654 81.238 41.072 81.5706L34.0124 89.5734C33.6623 89.9706 33.0431 89.9706 32.6928 89.5734ZM90.9872 89.5734L83.9275 81.5706C83.6341 81.238 83.6341 80.7391 83.9275 80.4065L90.9872 72.4037C91.3375 72.0065 91.9565 72.0065 92.3068 72.4037L99.3664 80.4065C99.6598 80.7391 99.6598 81.238 99.3664 81.5706L92.3068 89.5734C91.9567 89.9706 91.3375 89.9706 90.9872 89.5734Z" fill="#FFDF8E"/>
<path d="M60.389 71.724L43.5038 52.5831C42.5651 51.5189 42.5651 49.9229 43.5038 48.8588L60.389 29.7178C61.5095 28.4476 63.4903 28.4476 64.6108 29.7178L81.496 48.8588C82.4347 49.9229 82.4347 51.5189 81.496 52.5831L64.6108 71.724C63.4903 72.9942 61.5098 72.9942 60.389 71.724Z" fill="#0573CD"/>
<path d="M32.6927 24.7059L30.0326 21.6904C29.7391 21.3578 29.7391 20.8588 30.0326 20.5263L32.6927 17.5108C33.043 17.1136 33.6621 17.1136 34.0124 17.5108L36.6725 20.5263C36.9659 20.8588 36.9659 21.3578 36.6725 21.6904L34.0124 24.7059C33.6623 25.1031 33.043 25.1031 32.6927 24.7059ZM90.9872 24.7059L88.327 21.6904C88.0336 21.3578 88.0336 20.8588 88.327 20.5263L90.9872 17.5108C91.3375 17.1136 91.9565 17.1136 92.3068 17.5108L94.9669 20.5263C95.2604 20.8588 95.2604 21.3578 94.9669 21.6904L92.3068 24.7059C91.9567 25.1031 91.3375 25.1031 90.9872 24.7059ZM32.6927 84.5861L30.0326 81.5707C29.7391 81.2381 29.7391 80.7391 30.0326 80.4065L32.6927 77.391C33.043 76.9938 33.6621 76.9938 34.0124 77.391L36.6725 80.4065C36.9659 80.7391 36.9659 81.2381 36.6725 81.5707L34.0124 84.5861C33.6623 84.9833 33.043 84.9833 32.6927 84.5861ZM90.9872 84.5861L88.327 81.5707C88.0336 81.2381 88.0336 80.7391 88.327 80.4065L90.9872 77.391C91.3375 76.9938 91.9565 76.9938 92.3068 77.391L94.9669 80.4065C95.2604 80.7391 95.2604 81.2381 94.9669 81.5707L92.3068 84.5861C91.9567 84.9833 91.3375 84.9833 90.9872 84.5861ZM62.4999 65.6685C61.5917 65.6685 60.7262 65.278 60.1251 64.5969L49.7327 52.8157C48.6793 51.6213 48.6793 49.8202 49.7327 48.6261L60.1251 36.8446C60.7262 36.1637 61.5917 35.773 62.4999 35.773C63.4081 35.773 64.2736 36.1635 64.8746 36.8446L75.2673 48.6258C76.3207 49.8202 76.3207 51.6213 75.2673 52.8154L64.8749 64.5969C64.2736 65.278 63.4081 65.6685 62.4999 65.6685ZM52.8751 50.7209L62.4999 61.6313L72.1246 50.7209L62.4999 39.8104L52.8751 50.7209Z" fill="#004B92"/>
<path d="M65.8688 50.1678L63.1266 47.0593C62.9681 46.8794 62.7396 46.7764 62.5001 46.7764C62.2606 46.7764 62.032 46.8794 61.8736 47.0593L59.1313 50.1678C58.8534 50.483 58.8534 50.958 59.1313 51.2734L61.8736 54.3819C62.032 54.5618 62.2606 54.6646 62.5001 54.6646C62.7396 54.6646 62.9681 54.5615 63.1266 54.3819L65.8688 51.2734C66.147 50.9583 66.147 50.4832 65.8688 50.1678Z" fill="#FFDF8E"/>
</svg>
