<svg width="339" height="306" viewBox="0 0 339 306" fill="none" xmlns="http://www.w3.org/2000/svg">
<path d="M171.22 94.0176C175.909 94.687 176.914 93.6823 177.583 89.329C178.588 82.6309 181.267 70.9088 186.96 59.1868C193.324 46.4612 203.37 32.3946 217.437 23.0172C229.493 15.3144 248.918 6.60687 263.988 3.59264C276.379 0.913389 287.766 0.578542 297.813 1.24836C318.241 2.92283 329.628 8.61631 335.321 15.9843C337.331 18.6635 338.671 22.0126 338.671 24.3569C338.671 28.0409 337.331 32.7296 331.973 37.4183C326.614 41.772 315.563 47.8001 300.492 52.4887C284.751 57.5126 262.983 63.2059 241.549 67.8945C223.464 71.9136 213.418 75.2621 204.711 78.2764C190.31 82.965 186.291 96.6966 194.998 101.051C207.725 107.079 215.762 113.443 222.795 119.136C233.177 127.508 244.899 136.885 259.633 154.301C273.029 170.376 294.799 200.852 302.836 230.324C311.543 262.81 306.186 293.622 287.43 302.329C269.012 310.702 244.229 298.645 227.148 281.23C210.739 264.485 199.353 245.06 188.3 214.918C178.923 189.13 175.239 151.286 175.239 131.527C175.239 124.829 175.239 123.489 175.239 117.796C175.909 112.772 161.508 108.419 146.438 118.131C129.023 129.182 111.943 148.942 101.895 160.33C97.5422 165.352 91.5136 172.721 85.151 180.424C76.7788 190.47 67.7359 201.188 59.3636 207.215C46.637 216.258 26.543 219.942 12.4775 209.895C4.77473 204.536 0.421631 194.154 0.421631 183.437C0.421631 176.069 2.09577 169.371 6.11484 162.673C10.8033 154.635 18.5061 145.928 30.8974 135.881C43.6227 125.499 64.0522 114.112 84.4816 106.074C115.627 94.0176 149.117 90.3338 171.22 94.0176Z" fill="#01ACFB"/>
</svg>
