<svg width="162" height="162" viewBox="0 0 162 162" fill="none" xmlns="http://www.w3.org/2000/svg">
<path d="M127.913 99.7974C124.733 93.169 113.36 83.9685 102.371 75.0788C96.2416 70.1242 90.4501 65.4398 86.758 61.7476C85.8331 60.8161 84.4495 60.519 83.2278 60.9579C80.9532 61.7815 79.549 62.4159 78.4422 62.9085C76.7548 63.6644 76.1878 63.921 73.9128 64.1504C72.907 64.2517 72.0027 64.7918 71.4423 65.6287C66.67 72.7633 61.729 72.1558 58.4282 71.049C57.3752 70.6981 57.1863 70.2457 57.0851 69.8138C56.3763 66.8506 59.9337 59.952 64.5437 55.3417C75.5126 44.3662 81.169 41.6188 93.1165 46.9582C106.67 53.0196 120.251 57.765 120.387 57.8122C122.162 58.4263 124.072 57.4948 124.686 55.7331C125.294 53.9713 124.369 52.0476 122.607 51.4334C122.472 51.3863 109.161 46.7354 95.8771 40.7886C80.3995 33.8697 71.9077 38.426 59.778 50.5627C55.161 55.1797 48.8901 64.5216 50.5101 71.373C51.2053 74.289 53.2575 76.4491 56.3083 77.4547C63.9561 79.9793 70.9354 77.5626 76.133 70.6643C78.2795 70.3336 79.4474 69.8476 81.2022 69.0579C81.8366 68.7744 82.5792 68.4437 83.5648 68.0454C87.4259 71.6701 92.6368 75.8888 98.1245 80.3235C108.047 88.3492 119.299 97.4484 121.831 102.713C123.08 105.312 121.736 107.006 120.825 107.783C119.488 108.93 117.659 109.295 116.667 108.599C115.573 107.85 114.149 107.803 113.022 108.478C111.888 109.153 111.254 110.428 111.395 111.738C111.625 113.884 109.66 115.113 108.81 115.538C106.65 116.632 104.395 116.443 103.552 115.66C102.606 114.782 101.25 114.526 100.048 114.971C98.8469 115.423 98.0097 116.531 97.8882 117.813C97.6857 120.027 96.0454 122.153 93.9056 122.983C92.8728 123.375 91.3743 123.611 90.0312 122.382C89.1943 121.627 88.0331 121.336 86.9465 121.599C85.8464 121.869 84.962 122.666 84.5773 123.726C84.4491 124.063 84.1587 124.873 80.9997 124.873C78.7519 124.873 74.7086 123.354 72.731 122.045C70.3618 120.486 55.5049 109.402 42.6734 98.6561C40.8711 97.1374 37.7526 93.8837 34.9986 91.0082C32.555 88.4567 30.3209 86.1416 29.1733 85.1696C27.7355 83.9546 25.6093 84.1368 24.4145 85.568C23.2131 86.9921 23.3884 89.1253 24.8129 90.3267C25.8593 91.2111 27.8843 93.3506 30.1184 95.6793C33.129 98.8247 36.2405 102.078 38.3333 103.833C50.9019 114.357 66.0084 125.717 69.0186 127.695C71.5028 129.328 76.8554 131.623 81 131.623C84.3276 131.623 86.8861 130.86 88.6612 129.369C91.037 130.294 93.7373 130.3 96.3359 129.288C99.4073 128.1 101.932 125.703 103.363 122.801C106.022 123.368 109.067 122.97 111.834 121.579C114.541 120.216 116.498 118.13 117.47 115.693C120.157 115.835 122.924 114.883 125.212 112.919C129.087 109.605 130.153 104.448 127.913 99.7974Z" fill="white"/>
<path d="M67.4999 43.874H37.1249C35.2619 43.874 33.7498 45.3861 33.7498 47.2491C33.7498 49.1121 35.2619 50.6242 37.1249 50.6242H67.4999C69.3629 50.6242 70.875 49.1121 70.875 47.2491C70.875 45.3861 69.3629 43.874 67.4999 43.874Z" fill="white"/>
<path d="M137.801 92.6159C136.755 91.0703 134.663 90.645 133.117 91.698L123.248 98.3264C121.703 99.3658 121.291 101.465 122.331 103.011C122.985 103.976 124.052 104.503 125.139 104.503C125.78 104.503 126.435 104.32 127.015 103.929L136.884 97.3006C138.429 96.2609 138.841 94.1619 137.801 92.6159Z" fill="white"/>
<path d="M116.849 108.721C114.433 106.818 103.626 95.7548 96.9434 88.7888C95.654 87.4387 93.5145 87.3916 92.171 88.6876C90.8209 89.9769 90.7804 92.1165 92.0698 93.4599C93.8046 95.2688 109.107 111.219 112.664 114.027C113.278 114.513 114.021 114.75 114.75 114.75C115.742 114.75 116.734 114.304 117.409 113.46C118.564 112.002 118.314 109.876 116.849 108.721Z" fill="white"/>
<path d="M103.363 115.491C99.3193 112.258 89.1608 101.465 86.8655 98.9673C85.5964 97.5903 83.4702 97.5093 82.0932 98.7648C80.7228 100.027 80.6285 102.167 81.8907 103.537C82.0122 103.665 94.1353 116.754 99.1437 120.763C99.7648 121.256 100.514 121.499 101.25 121.499C102.235 121.499 103.221 121.06 103.889 120.237C105.05 118.778 104.814 116.652 103.363 115.491Z" fill="white"/>
<path d="M89.9303 122.289C85.1174 118.233 75.2693 107.75 73.3455 105.691C72.0698 104.327 69.9299 104.253 68.5732 105.529C67.2098 106.805 67.142 108.937 68.4111 110.301C71.1788 113.264 80.6016 123.255 85.5765 127.453C86.2109 127.986 86.9804 128.249 87.7499 128.249C88.7083 128.249 89.667 127.838 90.3353 127.048C91.5366 125.617 91.3544 123.491 89.9303 122.289Z" fill="white"/>
<path d="M39.447 38.0487C33.6621 32.5676 10.53 30.7922 3.57761 30.3806C2.61921 30.3334 1.73486 30.6505 1.05996 31.2918C0.38475 31.9262 0 32.8172 0 33.7487V94.4987C0 96.3617 1.51211 97.8738 3.37511 97.8738H23.6251C25.0831 97.8738 26.3791 96.9357 26.8313 95.5451C27.3239 94.033 38.9544 58.3392 40.4864 40.7891C40.5744 39.763 40.1963 38.7505 39.447 38.0487ZM21.1613 91.1239H6.7499V37.3668C17.5973 38.224 29.3018 40.087 33.5543 42.1525C31.7656 56.935 23.6723 83.1992 21.1613 91.1239Z" fill="white"/>
<path d="M158.625 37.124C132.124 37.124 117.423 43.9078 116.809 44.1913C115.931 44.6029 115.276 45.3658 115.006 46.2906C114.736 47.2155 114.871 48.2077 115.378 49.031C119.549 55.7474 132.61 93.0479 135.121 102.147C135.526 103.611 136.856 104.624 138.375 104.624H158.625C160.488 104.624 162 103.112 162 101.249V40.4988C162 38.6292 160.488 37.124 158.625 37.124ZM155.25 97.874H140.9C137.7 87.4519 128.25 60.2764 122.978 49.0446C128.128 47.2965 139.192 44.2925 155.25 43.9147V97.874Z" fill="white"/>
</svg>
