<svg width="126" height="125" viewBox="0 0 126 125" fill="none" xmlns="http://www.w3.org/2000/svg">
<g clip-path="url(#clip0_88_108)">
<path d="M125.201 62.5C125.201 97.0182 97.2194 125 62.7012 125C28.1829 125 0.201172 97.0182 0.201172 62.5C0.201172 27.9818 28.1829 0 62.7012 0C97.2194 0 125.201 27.9818 125.201 62.5Z" fill="#684359"/>
<path d="M62.7011 125C77.8121 125 91.6709 119.637 102.477 110.711C107.408 96.4319 112.704 76.7605 113.638 56.226C113.818 52.2577 112.589 48.3524 110.213 45.1681L100.518 32.1733H24.8841L15.1891 45.1681C12.8135 48.3524 11.5842 52.2577 11.7644 56.226C12.6981 76.7605 17.9938 96.4319 22.9243 110.711C33.7314 119.637 47.5902 125 62.7011 125Z" fill="#F9E178"/>
<path d="M47.4395 110.345C44.2819 95.1292 40.9001 73.1317 40.347 56.226C40.2173 52.2577 41.1014 48.3524 42.8113 45.1691L49.7865 32.1733H24.8841L15.1891 45.1681C12.8135 48.3524 11.5842 52.2577 11.7644 56.226C12.6981 76.7605 17.9938 96.4319 22.9243 110.711C32.3123 118.466 44.0043 123.529 56.8189 124.725C52.1029 121.37 48.6716 116.283 47.4395 110.345Z" fill="#FFD737"/>
<path d="M62.7009 125C77.8119 125 91.6707 119.636 102.477 110.711C107.408 96.4317 112.704 76.7602 113.638 56.2257C113.681 55.2615 113.64 54.3012 113.521 53.3542C110.824 53.9664 109.878 55.314 105.722 55.314C100.343 55.314 100.343 53.0566 94.9647 53.0566C89.5869 53.0566 89.5869 55.314 84.2091 55.314C78.8313 55.314 78.8313 53.0566 73.4536 53.0566C68.0758 53.0566 68.0758 55.314 62.698 55.314C57.3203 55.314 57.3203 53.0566 51.9434 53.0566C46.5657 53.0566 46.5657 55.314 41.1889 55.314C35.8111 55.314 35.8111 53.0566 30.4343 53.0566C25.0565 53.0566 25.0565 55.314 19.6787 55.314C15.5226 55.314 14.5766 53.9664 11.8805 53.3542C11.7613 54.3012 11.7203 55.2615 11.7642 56.2257C12.6978 76.7602 17.9936 96.4317 22.925 110.711C33.7311 119.636 47.5899 125 62.7009 125V125Z" fill="#FFB61C"/>
<path d="M47.4394 110.345C44.2818 95.1289 40.9001 73.1315 40.347 56.2257C40.3365 55.9148 40.3355 55.6039 40.3374 55.293C35.797 55.0679 35.5109 53.0566 30.4335 53.0566C25.0557 53.0566 25.0557 55.3149 19.678 55.3149C15.5228 55.3149 14.5768 53.9674 11.8807 53.3542C11.8798 53.3599 11.8798 53.3647 11.8788 53.3694C11.8206 53.8377 11.7806 54.3088 11.7615 54.7828C11.7606 54.8066 11.7606 54.8314 11.7606 54.8562C11.752 55.0698 11.7472 55.2844 11.7482 55.499C11.7482 55.7412 11.7539 55.9835 11.7644 56.2267C12.699 76.7612 17.9947 96.4326 22.9252 110.712C31.2861 117.617 41.3674 122.295 52.2307 124.123C53.7413 124.378 55.2691 124.58 56.814 124.724C56.816 124.725 56.8179 124.725 56.8198 124.725C52.1029 121.37 48.6716 116.282 47.4394 110.345V110.345Z" fill="#FF9500"/>
<path d="M107.496 38.3379L100.988 32.1733H24.414L17.9415 38.3474C15.4705 40.7059 17.1394 44.8725 20.5555 44.8725H104.893C108.315 44.8725 109.981 40.6925 107.496 38.3379Z" fill="#BC6F55"/>
<path d="M101.022 2.38323C99.6306 0.864029 97.665 0 95.6051 0C87.1212 0 36.6585 0 29.8511 0C24.3141 0 20.7674 5.90801 23.3604 10.7937L26.6182 16.9325H98.838L102.096 10.7937C103.555 8.0452 103.124 4.67587 101.022 2.38323Z" fill="#BC6F55"/>
<path d="M41.522 38.3474L46.3114 32.1724H24.4141L17.9415 38.3474C15.4705 40.7058 17.1394 44.8724 20.5555 44.8724H43.4561C40.9279 44.8724 39.6929 40.7058 41.522 38.3474Z" fill="#A05745"/>
<path d="M50.3361 0C40.4961 0 32.3145 0 29.8511 0C24.3141 0 20.7674 5.90706 23.3604 10.7937L26.6182 16.9325H47.9443L45.5324 10.7937C43.6127 5.90706 46.2381 0 50.3361 0Z" fill="#A05745"/>
<path d="M100.989 32.1731H24.4144C22.3097 32.1731 20.6045 30.467 20.6045 28.3632C20.6045 26.2584 22.3097 24.5532 24.4144 24.5532H100.989C103.094 24.5532 104.799 26.2584 104.799 28.3632C104.799 30.467 103.094 32.1731 100.989 32.1731V32.1731Z" fill="#EFE4E8"/>
<path d="M100.989 24.5535H24.4144C22.3097 24.5535 20.6045 22.8473 20.6045 20.7435C20.6045 18.6388 22.3097 16.9336 24.4144 16.9336H100.989C103.094 16.9336 104.799 18.6388 104.799 20.7435C104.799 22.8473 103.094 24.5535 100.989 24.5535V24.5535Z" fill="#F4EDF0"/>
<path d="M51.3467 32.1731H71.6657V24.5532H51.3467C53.4505 24.5532 55.1566 26.2584 55.1566 28.3632C55.1566 30.467 53.4505 32.1731 51.3467 32.1731Z" fill="#E2D9DD"/>
<path d="M51.3467 24.5535H71.6657V16.9336H51.3467C53.4505 16.9336 55.1566 18.6388 55.1566 20.7435C55.1566 22.8473 53.4505 24.5535 51.3467 24.5535Z" fill="#E2D9DD"/>
<path d="M82.8288 21.0791L81.3535 23.9954L84.6218 30.4518C84.7286 30.6645 84.8115 30.8819 84.8764 31.1022C92.5077 36.7413 97.1797 45.7516 97.1797 55.5001C97.1797 57.6039 98.8849 59.31 100.99 59.31C103.093 59.31 104.8 57.6039 104.8 55.5001C104.799 40.4692 96.0086 27.1941 82.8288 21.0791Z" fill="#F4EDF0"/>
<path d="M76.3428 33.8937L84.057 18.654C85.0069 16.7762 84.2554 14.4836 82.3786 13.5337C80.5008 12.5829 78.2091 13.3354 77.2583 15.2122L69.544 30.4519C68.5942 32.3297 69.3457 34.6223 71.2234 35.5722C73.1041 36.5249 75.3948 35.7667 76.3428 33.8937V33.8937Z" fill="#E2D9DD"/>
<path d="M64.8311 24.9556C55.2686 32.0099 49.4131 43.2928 49.4131 55.4998C49.4131 57.6037 51.1183 59.3098 53.223 59.3098C55.3268 59.3098 57.0329 57.6037 57.0329 55.4998C57.0329 46.0737 61.3626 37.4983 68.3359 31.8802L64.8311 24.9556Z" fill="#E2D9DD"/>
<path d="M69.354 33.8937L61.6397 18.654C60.6899 16.7762 61.4414 14.4836 63.3192 13.5337C65.196 12.5829 67.4877 13.3354 68.4385 15.2122L76.1527 30.4519C77.1026 32.3297 76.3511 34.6223 74.4743 35.5722C72.5927 36.5249 70.302 35.7667 69.354 33.8937Z" fill="#EFE4E8"/>
<path d="M77.8228 33.8937L70.1085 18.654C69.1586 16.7762 69.9101 14.4836 71.787 13.5337C73.6648 12.5829 75.9564 13.3354 76.9072 15.2122L84.6206 30.4519C85.5714 32.3297 84.8199 34.6223 82.9421 35.5722C81.0615 36.5249 78.7707 35.7667 77.8228 33.8937Z" fill="#F4EDF0"/>
<path d="M64.8302 24.9556C60.1849 28.3821 56.4188 32.8081 53.7695 37.8502C56.5476 35.9715 60.3918 37.8025 60.6064 41.2129C62.5271 37.6213 65.1554 34.4418 68.335 31.8802L64.8302 24.9556Z" fill="#CCC2C7"/>
<path d="M100.455 37.8685C96.6218 30.5701 90.4649 24.622 82.8288 21.0791L81.3535 23.9954L84.6218 30.4518C84.7286 30.6645 84.8115 30.8819 84.8764 31.1022C88.5414 33.8107 91.5216 37.2982 93.6321 41.2712C93.7217 37.797 97.6604 35.8715 100.455 37.8685Z" fill="#E2D9DD"/>
<path d="M96.2351 66.842C94.4212 66.0037 92.2716 66.7943 91.4343 68.6082C90.596 70.4221 91.3866 72.5707 93.2005 73.409C95.0134 74.2473 97.163 73.4567 98.0013 71.6428C98.8396 69.8289 98.049 67.6803 96.2351 66.842Z" fill="#FFD737"/>
<path d="M87.6462 75.6996C83.7867 73.9162 79.211 75.5994 77.4276 79.459C75.6442 83.3194 77.3275 87.8942 81.187 89.6776C85.0465 91.4619 89.6222 89.7787 91.4056 85.9182C93.189 82.0587 91.5057 77.4839 87.6462 75.6996V75.6996Z" fill="#FFD737"/>
</g>
<defs>
<clipPath id="clip0_88_108">
<rect width="125" height="125" fill="white" transform="translate(0.201172)"/>
</clipPath>
</defs>
</svg>
