<svg width="512" height="512" viewBox="0 0 512 512" fill="none" xmlns="http://www.w3.org/2000/svg">
<g clip-path="url(#clip0_69_83)">
<path d="M236.954 29.6255C222.295 10.5203 200.076 -0.436035 175.994 -0.436035C151.912 -0.436035 129.693 10.5213 115.034 29.6265C100.375 48.7318 95.5404 73.0295 101.774 96.2903C102.847 100.295 106.96 102.668 110.968 101.599C114.972 100.526 117.348 96.4094 116.275 92.405C111.26 73.688 115.149 54.1374 126.945 38.7653C138.74 23.3932 156.618 14.5767 175.995 14.5767C195.371 14.5767 213.25 23.3932 225.046 38.7653C236.841 54.1374 240.73 73.689 235.715 92.405L217.941 158.737H204.035L222.74 88.928C226.667 74.2795 223.623 58.9755 214.39 46.9403C205.155 34.909 191.161 28.0072 175.994 28.0072C160.827 28.0072 146.833 34.908 137.6 46.9413C128.366 58.9745 125.323 74.2785 129.249 88.928L147.953 158.737H134.048L125.745 127.75C124.673 123.746 120.558 121.372 116.551 122.442C112.547 123.514 110.171 127.631 111.244 131.635L119.503 162.46C118.322 164.024 117.62 165.97 117.62 168.076V343.488C117.62 345.594 118.322 347.54 119.503 349.104L101.774 415.274C95.5404 438.534 100.375 462.833 115.034 481.937C129.693 501.042 151.913 512 175.994 512C200.076 512 222.295 501.043 236.954 481.937C251.613 462.832 256.447 438.534 250.214 415.274L232.484 349.104C233.665 347.54 234.368 345.594 234.368 343.488V168.076C234.368 165.97 233.666 164.023 232.484 162.46L250.214 96.2903C256.447 73.0295 251.614 48.7308 236.954 29.6255V29.6255ZM177.401 352.826L168.745 385.137C168.741 385.15 168.738 385.163 168.734 385.176L156.724 429.996C155.106 436.035 156.361 442.345 160.166 447.306C168.154 457.714 183.832 457.723 191.823 447.305C195.63 442.344 196.885 436.035 195.265 429.998L183.765 387.079L190.718 361.131L208.239 426.521C210.948 436.625 208.848 447.182 202.479 455.482C196.11 463.782 186.457 468.543 175.995 468.543C165.534 468.543 155.881 463.783 149.511 455.483C143.143 447.182 141.042 436.626 143.75 426.52L163.495 352.826H177.401ZM179.911 438.167C178.928 439.449 177.609 440.099 175.994 440.099C174.379 440.099 173.059 439.449 172.077 438.167C171.094 436.885 170.805 435.443 171.224 433.881L175.994 416.081L180.765 433.884C181.182 435.444 180.896 436.885 179.911 438.167ZM132.634 337.813V314.155H219.355V337.813C147.185 337.813 171.95 337.813 132.634 337.813V337.813ZM219.355 299.142H132.634V212.421H219.355V299.142ZM149.51 56.08C155.88 47.78 165.533 43.0199 175.994 43.0199C186.456 43.0199 196.109 47.78 202.478 56.08C208.847 64.3811 210.947 74.9371 208.238 85.0417L188.493 158.736H174.587L183.245 126.425C183.246 126.422 183.247 126.419 183.247 126.415L195.265 81.5617C198.661 68.894 189.126 56.4494 175.994 56.4494C162.873 56.4494 153.326 68.8849 156.723 81.5637L168.223 124.48L161.269 150.43L143.749 85.0417C141.041 74.9371 143.142 64.3811 149.51 56.08V56.08ZM180.765 77.6774L175.994 95.4806L171.224 77.6804C170.805 76.1191 171.093 74.6779 172.077 73.3958C173.06 72.1137 174.379 71.4641 175.994 71.4641C177.609 71.4641 178.928 72.1137 179.911 73.3958C180.896 74.6789 181.182 76.1191 180.765 77.6774ZM219.355 173.75V197.408H132.634V173.75C187.17 173.754 195.087 173.75 219.355 173.75ZM225.045 472.799C213.249 488.171 195.371 496.987 175.994 496.987C156.618 496.987 138.739 488.171 126.944 472.799C115.148 457.427 111.259 437.876 116.274 419.159L134.048 352.827H147.953L129.249 422.636C125.323 437.285 128.366 452.589 137.6 464.624C146.834 476.656 160.828 483.557 175.994 483.557C191.16 483.557 205.155 476.655 214.389 464.623C223.622 452.588 226.666 437.284 222.739 422.637L204.034 352.827H217.94L235.714 419.16C240.729 437.875 236.84 457.426 225.045 472.799V472.799Z" fill="#545454"/>
<path d="M416.296 29.6256C401.637 10.5203 379.417 -0.437012 355.336 -0.437012C331.254 -0.437012 309.035 10.5203 294.376 29.6256C279.716 48.7308 274.882 73.0295 281.116 96.2893L298.846 162.46C297.665 164.024 296.963 165.97 296.963 168.076V256.841C296.963 260.986 300.323 264.347 304.469 264.347C308.616 264.347 311.976 260.986 311.976 256.841V212.421H398.696V299.142H311.976V291.871C311.976 287.725 308.616 284.364 304.469 284.364C300.323 284.364 296.963 287.725 296.963 291.871V343.487C296.963 345.593 297.665 347.539 298.846 349.103L281.116 415.274C274.882 438.535 279.716 462.833 294.376 481.937C309.035 501.042 331.255 512 355.336 512C379.418 512 401.637 501.043 416.296 481.937C430.955 462.832 435.789 438.535 429.556 415.274L411.826 349.103C413.007 347.539 413.708 345.593 413.708 343.487V168.076C413.708 165.97 413.007 164.024 411.826 162.46L429.556 96.2893C435.788 73.0295 430.955 48.7308 416.296 29.6256V29.6256ZM311.975 197.408V173.75H398.695V197.408H311.975ZM360.106 77.6785L355.335 95.4816L350.565 77.6815C350.146 76.1201 350.433 74.6789 351.417 73.3968C352.401 72.1147 353.719 71.4652 355.335 71.4652C356.95 71.4652 358.269 72.1147 359.252 73.3968C360.237 74.6789 360.523 76.1191 360.106 77.6785ZM370.059 150.432L363.106 124.484L374.606 81.5648C378.002 68.897 368.467 56.4524 355.335 56.4524C342.213 56.4524 332.666 68.888 336.064 81.5668L348.073 126.388C348.077 126.401 348.08 126.414 348.084 126.427L356.741 158.738H342.835L323.089 85.0437C320.382 74.9381 322.483 64.3811 328.851 56.0821C335.22 47.783 344.874 43.022 355.335 43.022C365.797 43.022 375.45 47.782 381.818 56.0831C388.188 64.3831 390.287 74.9391 387.579 85.0447L370.059 150.432ZM398.696 314.155V337.813C348.851 337.813 360.876 337.813 311.976 337.813V314.155H398.696ZM350.566 433.883L355.336 416.082L360.107 433.886C360.524 435.444 360.238 436.885 359.253 438.167C359.253 438.167 359.253 438.167 359.252 438.167C358.27 439.448 356.951 440.099 355.336 440.099C353.72 440.099 352.401 439.449 351.418 438.167C350.434 436.885 350.147 435.444 350.566 433.883V433.883ZM347.565 387.081L336.065 429.997C334.447 436.036 335.702 442.346 339.507 447.307C347.495 457.715 363.172 457.724 371.164 447.306C374.97 442.345 376.225 436.036 374.606 429.999L362.588 385.146C362.587 385.143 362.586 385.14 362.586 385.136L353.927 352.825H367.833L387.579 426.52C390.287 436.626 388.188 447.182 381.818 455.482C375.45 463.782 365.797 468.542 355.335 468.542C344.874 468.542 335.22 463.782 328.851 455.482C322.483 447.182 320.382 436.625 323.089 426.519L340.61 361.129L347.565 387.081ZM404.386 472.799C392.59 488.171 374.713 496.987 355.336 496.987C335.96 496.987 318.081 488.171 306.286 472.799C294.49 457.427 290.601 437.876 295.616 419.159L313.39 352.827H327.295L308.59 422.636C304.665 437.285 307.708 452.589 316.942 464.623C326.176 476.655 340.17 483.556 355.336 483.556C370.503 483.556 384.497 476.654 393.729 464.622C402.963 452.588 406.007 437.285 402.08 422.635L383.376 352.826H397.281L415.055 419.158C420.07 437.875 416.181 457.426 404.386 472.799V472.799ZM415.055 92.405L397.281 158.737H383.376L402.08 88.928C406.007 74.2776 402.963 58.9745 393.729 46.9413C384.496 34.9081 370.503 28.0072 355.336 28.0072C340.17 28.0072 326.175 34.9081 316.942 46.9413C307.709 58.9745 304.665 74.2776 308.59 88.928L327.295 158.737H313.39L295.616 92.405C290.601 73.6881 294.49 54.1374 306.286 38.7653C318.081 23.3933 335.959 14.5768 355.336 14.5768C374.712 14.5768 392.59 23.3933 404.386 38.7653C416.181 54.1374 420.07 73.6881 415.055 92.405V92.405Z" fill="#545454"/>
</g>
<defs>
<clipPath id="clip0_69_83">
<rect width="512" height="512" fill="white"/>
</clipPath>
</defs>
</svg>
