<svg width="126" height="125" viewBox="0 0 126 125" fill="none" xmlns="http://www.w3.org/2000/svg">
<g clip-path="url(#clip0_88_415)">
<path d="M122.717 65.1856C122.717 89.9024 107.725 111.118 86.3384 120.234C85.4739 120.603 84.6147 118.484 83.73 118.813C77.2483 121.218 70.2366 122.533 62.9177 122.533C55.3149 122.533 48.0435 121.114 41.3533 118.528C40.7095 118.279 40.0554 120.486 39.4224 120.216C18.0593 111.089 3.08789 89.8858 3.08789 65.1856C3.08789 32.1509 29.8677 5.37109 62.9023 5.37109C95.937 5.37109 122.717 32.1509 122.717 65.1856V65.1856Z" fill="#00C8DE"/>
<path d="M111.73 61.501C111.73 88.468 89.8694 110.329 62.9023 110.329C35.9353 110.329 14.0742 88.468 14.0742 61.501C14.0742 34.5339 35.9353 12.6729 62.9023 12.6729C89.8694 12.6729 111.73 34.5339 111.73 61.501V61.501Z" fill="#00C8DE"/>
<path d="M15.6988 106.492C6.81894 106.492 6.42709 93.1345 15.3004 92.7905C15.4247 92.7856 15.5499 92.7832 15.6761 92.7832H53.9886C55.337 92.7832 56.43 93.8762 56.43 95.2246V106.492H15.6988V106.492Z" fill="#00A86D"/>
<path d="M56.43 105.06V110.206C56.43 111.555 55.337 112.648 53.9886 112.648H12.4014C11.8233 112.648 11.2869 112.346 10.9867 111.852L10.8897 111.692L8.2928 106.212C7.96907 105.679 7.26644 105.613 8.88069 105.06H56.43Z" fill="#00915D"/>
<path d="M63.7295 23.4395L44.627 54.8855C43.8274 56.2017 42.2258 56.7927 40.7627 56.3115L31.4431 53.2456L55.5239 13.6045L57.9202 14.8105C62.7449 14.0312 66.2669 19.2629 63.7295 23.4395ZM32.9607 60.3264C32.8088 59.3489 31.8391 58.7219 30.8853 58.9846L30.3005 59.1457L4.63965 101.388L10.8894 111.693L30.1843 79.9299L33.5542 82.1086C34.7546 82.8848 36.3081 81.8769 36.0886 80.4644L32.9607 60.3264Z" fill="#4BCD5C"/>
<path d="M55.8596 13.773L31.8083 53.3655L26.6619 51.6724C25.2451 51.2063 24.6311 49.5425 25.4055 48.2678L45.4814 15.2192C46.3821 13.7366 47.991 12.8315 49.7258 12.8315H53.9888L55.8596 13.773ZM10.7793 67.3833L13.5166 69.1531C13.4199 69.2817 13.3291 69.416 13.2446 69.5552L1.36475 89.1116C0.081543 91.2239 0.081543 93.8748 1.36475 95.9871L4.85864 101.748L30.8264 59.0007L11.2385 64.3975C9.86035 64.7771 9.5791 66.6074 10.7793 67.3833V67.3833Z" fill="#00C53B"/>
<path d="M105 42.5928L97.2838 61.4551C97.2057 61.6462 97.0963 61.8145 96.9642 61.9563C96.7108 62.2288 96.2599 62.1628 96.0665 61.845L66.6671 13.5378C66.4786 13.228 66.7015 12.8315 67.0641 12.8315H79.3199C81.0545 12.8315 82.6637 13.7368 83.5643 15.2192L99.5804 41.5845L102.916 40.4055C104.264 39.929 105.541 41.2698 105 42.5928V42.5928Z" fill="#BAED6A"/>
<path d="M96.9898 61.9287C96.4924 62.4883 95.6516 62.6623 94.9543 62.2786L77.0996 52.4539C75.8472 51.7646 75.9983 49.9192 77.3459 49.4429L80.4468 48.3469L58.8721 12.8315H67.1094L96.9898 61.9287Z" fill="#A3E72D"/>
<path d="M109.614 63.4068L124.678 88.138C125.541 89.555 125.633 91.2967 124.954 92.7835C124.874 92.9595 122.819 93.1319 122.717 93.2996L112.664 109.848L104.964 93.9683L90.8844 70.8348C89.9977 69.3777 90.6991 67.4749 92.3192 66.9419L106.524 62.2686C107.694 61.8841 108.974 62.3555 109.614 63.4068V63.4068Z" fill="#00A86D"/>
<path d="M117.592 101.737L112.664 109.848L104.964 93.9685L90.8844 70.835C89.9977 69.3779 90.6991 67.4751 92.3192 66.9421L97.0028 65.4014L111.61 89.4019L117.592 101.737Z" fill="#00915D"/>
<path d="M86.2324 120.279C79.0635 123.319 71.1792 125 62.9021 125C58.2329 125 53.6885 124.465 49.3271 123.453C48.7214 123.312 45.2708 121.491 45.2637 120.144C45.2637 120.135 45.2637 120.126 45.2637 120.117V65.918C45.2637 64.0889 46.2693 62.4949 47.7581 61.6582C46.229 60.3159 45.2637 58.3469 45.2637 56.1523C45.2637 54.3364 45.9246 52.675 47.0188 51.3953C45.8877 48.647 45.2637 45.6367 45.2637 42.4805V40.5273C45.2637 30.6914 51.3228 22.2705 59.9121 18.7937V5.44458C60.9026 5.39575 61.8994 5.37109 62.9021 5.37109C65.8879 5.37109 68.8227 5.58984 71.6912 6.01221V17.208C71.6912 18.1477 72.2327 19 73.0789 19.4084C80.926 23.197 86.3396 31.23 86.3396 40.5273V42.4805C86.3396 45.6367 85.7156 48.6472 84.5845 51.3953C85.6787 52.675 86.3396 54.3364 86.3396 56.1523C86.3396 58.3469 85.3743 60.3159 83.8452 61.6582C85.334 62.4949 86.3396 64.0889 86.3396 65.918V120.117C86.3042 120.171 86.2678 120.226 86.2324 120.279V120.279Z" fill="#D5F3F7"/>
<path d="M79.0068 64.1047C78.9229 65.4023 77.7874 66.3838 76.4871 66.3838H52.0164C49.804 66.3838 48.0103 68.1775 48.0103 70.3899V120.117C48.0103 121.407 48.5105 122.58 49.3274 123.453C45.9575 122.671 42.6968 121.604 39.572 120.279C39.5366 120.226 39.5002 120.171 39.4648 120.117V65.918C39.4648 64.0889 40.4705 62.4949 41.9592 61.6582C40.4302 60.3159 39.4648 58.3469 39.4648 56.1523C39.4648 54.3364 40.1257 52.675 41.22 51.3953C40.0889 48.6472 39.4648 45.6367 39.4648 42.4805V40.5273C39.4648 31.23 44.8784 23.197 52.7256 19.4087C53.5718 19 54.1133 18.1479 54.1133 17.2083V6.01221C56.9038 5.60132 59.7568 5.38306 62.6587 5.37158V15.7217C62.6587 17.5146 61.6668 19.1465 60.0989 20.0161C52.8899 24.0134 48.0103 31.7004 48.0103 40.5273V42.4805V42.5212C48.0139 44.7146 49.823 46.4785 52.0166 46.4785H76.4871C77.7874 46.4785 78.9229 47.4597 79.0068 48.7576C79.0989 50.1794 77.9729 51.3613 76.5708 51.3613C76.5708 51.3613 58.6138 51.3765 52.0947 51.3882C50.2646 51.3914 48.6541 52.6299 48.2197 54.4075C48.083 54.9665 48.0105 55.551 48.0105 56.1523C48.0105 57.2405 48.2478 58.2732 48.6736 59.2014C49.3203 60.6121 50.7478 61.501 52.2998 61.501H76.5711C77.9729 61.501 79.0989 62.6829 79.0068 64.1047V64.1047Z" fill="#AFEAF2"/>
<path d="M62.4812 13.1733H55.9258C54.5774 13.1733 53.4844 12.0803 53.4844 10.7319V5.84912C53.4844 4.50073 54.5774 3.40771 55.9258 3.40771H62.4812C63.8296 3.40771 64.9226 4.50073 64.9226 5.84912V10.7319C64.9226 12.0803 63.8293 13.1733 62.4812 13.1733Z" fill="#87E0EC"/>
<path d="M69.8789 13.1733H61.8652C60.5168 13.1733 59.4238 12.0803 59.4238 10.7319V5.84912C59.4238 4.50073 60.5168 3.40771 61.8652 3.40771H69.8789C71.2273 3.40771 72.3203 4.50073 72.3203 5.84912V10.7319C72.3203 12.0803 71.2273 13.1733 69.8789 13.1733Z" fill="#AFEAF2"/>
<path d="M64.7334 9.76562H54.1133C52.7649 9.76562 51.6719 8.67261 51.6719 7.32422V2.44141C51.6719 1.09302 52.7649 0 54.1133 0H64.7334C66.0818 0 67.1748 1.09302 67.1748 2.44141V7.32422C67.1748 8.67261 66.0818 9.76562 64.7334 9.76562Z" fill="#005AAF"/>
<path d="M71.6914 9.76562H62.6582C61.3098 9.76562 60.2168 8.67261 60.2168 7.32422V2.44141C60.2168 1.09302 61.3098 0 62.6582 0H71.6914C73.0398 0 74.1328 1.09302 74.1328 2.44141V7.32422C74.1328 8.67261 73.0398 9.76562 71.6914 9.76562Z" fill="#0573CF"/>
<path d="M124.954 92.7835L114.396 110.26C113.495 111.743 111.886 112.648 110.152 112.648H77.8469V116.276C77.8469 117.705 76.1572 118.463 75.09 117.512L59.8771 103.951C59.1386 103.293 59.1386 102.138 59.8771 101.48L75.09 87.919C76.1572 86.9678 77.8469 87.7254 77.8469 89.1548V92.783H124.954V92.7835Z" fill="#4BCD5C"/>
<path d="M117.555 105.06L114.396 110.26C113.495 111.742 111.886 112.647 110.152 112.647H77.8469V116.276C77.8469 117.705 76.1572 118.462 75.0901 117.511L61.1211 105.06H117.555V105.06Z" fill="#00C53B"/>
</g>
<defs>
<clipPath id="clip0_88_415">
<rect width="125" height="125" fill="white" transform="translate(0.402344)"/>
</clipPath>
</defs>
</svg>
