<svg width="311" height="269" viewBox="0 0 311 269" fill="none" xmlns="http://www.w3.org/2000/svg">
<g clip-path="url(#clip0_936:2988)">
<path d="M264.031 215.377C266.866 214.048 270.052 213.662 273.122 214.277C274.769 214.546 276.493 215.046 277.609 216.277C278.725 217.507 278.949 219.691 277.656 220.752C276.821 221.319 275.812 221.573 274.808 221.467C272.398 221.467 269.735 221.014 267.818 222.459C266.718 223.282 265.994 224.651 264.686 225.059C264.027 225.212 263.336 225.144 262.72 224.867C262.104 224.589 261.596 224.116 261.276 223.521C260.654 222.318 260.516 220.923 260.891 219.622C261.052 218.721 261.42 217.869 261.964 217.133C262.509 216.396 263.216 215.795 264.031 215.377Z" fill="#FF725E"/>
<path d="M257.658 203.165C259.351 205.572 262.638 204.78 264.162 203.303C265.686 201.827 266.325 199.697 266.91 197.667C268.249 193.014 269.604 188.139 268.611 183.401C268.364 181.978 267.733 180.649 266.787 179.556C266.304 179.014 265.688 178.608 264.999 178.379C264.31 178.149 263.573 178.105 262.861 178.249C261.199 178.687 260.175 180.31 259.428 181.848C257.233 186.408 256.084 191.399 256.065 196.459C256.065 198.812 256.334 201.273 257.658 203.219" fill="#FF725E"/>
<path d="M253.017 206.626C253.886 205.492 254.466 204.163 254.704 202.754C254.943 201.346 254.834 199.9 254.387 198.543C253.456 195.841 251.8 193.447 249.599 191.622C247.096 189.397 244.184 187.681 241.024 186.57C239.804 186.077 238.491 185.854 237.176 185.916C236.518 185.953 235.88 186.151 235.316 186.491C234.753 186.832 234.281 187.305 233.943 187.869C233.034 189.592 233.943 191.676 234.836 193.375C236.483 196.376 238.367 199.241 240.47 201.942C242.156 204.119 244.088 206.264 246.666 207.248C249.245 208.233 251.908 208.11 253.271 206.333" fill="#FF725E"/>
<path d="M257.55 239.547C257.635 239.189 257.684 238.823 257.697 238.455C257.781 237.686 257.874 236.655 257.989 235.463C258.137 233.989 258.363 232.523 258.667 231.072C259.058 229.307 259.59 227.577 260.26 225.897C260.917 224.219 261.809 222.642 262.908 221.214C263.803 220.049 264.947 219.098 266.256 218.43C267.143 217.99 268.094 217.694 269.073 217.553C269.442 217.54 269.808 217.489 270.166 217.399C269.795 217.359 269.421 217.359 269.05 217.399C268.035 217.481 267.042 217.742 266.117 218.168C264.739 218.816 263.53 219.774 262.584 220.968C261.441 222.419 260.517 224.031 259.844 225.751C259.161 227.454 258.631 229.214 258.259 231.011C257.975 232.48 257.78 233.964 257.674 235.456C257.574 236.725 257.543 237.763 257.527 238.463C257.492 238.824 257.5 239.188 257.55 239.547Z" fill="#263238"/>
<path d="M257.751 237.248C257.774 237.079 257.774 236.908 257.751 236.74V235.31C257.751 234.048 257.751 232.234 257.812 229.927C257.928 225.412 258.312 220.56 259.067 213.716C259.775 207.279 260.729 199.789 261.738 194.921C261.953 193.814 262.169 192.814 262.377 191.945C262.584 191.076 262.738 190.315 262.9 189.707C263.062 189.1 263.146 188.661 263.239 188.292C263.281 188.125 263.312 187.956 263.331 187.785C263.254 187.936 263.194 188.096 263.154 188.262C263.039 188.631 262.9 189.092 262.731 189.661C262.561 190.23 262.346 191.015 262.13 191.884C261.915 192.753 261.661 193.745 261.422 194.852C260.188 200.618 259.261 206.445 258.643 212.309C257.874 219.168 257.55 225.382 257.527 229.934C257.527 232.195 257.527 234.025 257.604 235.317C257.604 235.909 257.666 236.394 257.689 236.771C257.695 236.931 257.716 237.091 257.751 237.248Z" fill="#263238"/>
<path d="M257.781 225.205C257.824 224.693 257.824 224.179 257.781 223.667C257.694 222.288 257.537 220.915 257.312 219.553C256.982 217.529 256.534 215.526 255.972 213.554C255.321 211.127 254.482 208.754 253.463 206.456C251.721 202.221 249.225 198.336 246.097 194.99C245.551 194.419 244.97 193.882 244.357 193.383C244.095 193.152 243.857 192.929 243.587 192.753L242.918 192.291C242.514 191.982 242.084 191.709 241.632 191.476C243.11 192.63 244.512 193.878 245.827 195.213C248.862 198.583 251.294 202.448 253.017 206.641C254.015 208.925 254.858 211.273 255.541 213.67C256.12 215.622 256.596 217.604 256.965 219.606C257.281 221.321 257.466 222.682 257.573 223.682C257.605 224.194 257.675 224.703 257.781 225.205Z" fill="#263238"/>
<path d="M246.128 246.453L247.336 262.986H268.604L269.812 246.453H246.128Z" fill="#263238"/>
<path d="M272.352 239.931H244.08V246.453H272.352V239.931Z" fill="#263238"/>
<path d="M244.08 262.356V264.163H245.404H271.883V262.356H244.08Z" fill="#455A64"/>
<path d="M246.705 267.339L245.404 264.163H270.867L269.35 267.339H246.705Z" fill="#455A64"/>
<path d="M269.42 251.851C269.42 251.851 269.42 251.913 269.32 252.005L269.004 252.428L267.765 254.012L267.711 254.081L267.657 254.004L264.617 249.805H264.801L261.799 254.043L261.707 254.173L261.599 254.05L258.051 249.821H258.251L258.058 250.067L254.879 254.043L254.779 254.181L254.679 254.043C253.602 252.505 252.593 251.09 251.677 249.805H251.854L248.167 254.004L248.098 254.081L248.044 253.997C247.559 253.181 247.175 252.528 246.89 252.059L246.597 251.543C246.558 251.486 246.527 251.424 246.505 251.359C246.505 251.359 246.551 251.405 246.628 251.52L246.959 252.02L248.167 253.92H248.052L251.685 249.667L251.777 249.559L251.862 249.675L254.887 253.897H254.679L257.874 249.921L258.074 249.675L258.174 249.544L258.274 249.667L261.822 253.904H261.622L264.647 249.682L264.732 249.559L264.824 249.682C266.017 251.397 267.041 252.851 267.803 253.935H267.688L268.981 252.397L269.327 251.997L269.42 251.851Z" fill="#E0E0E0"/>
<path d="M270.105 246.337C270.105 246.414 264.778 246.476 258.205 246.476C251.631 246.476 246.305 246.414 246.305 246.337C246.305 246.26 251.631 246.207 258.205 246.207C264.778 246.207 270.105 246.268 270.105 246.337Z" fill="#455A64"/>
<path d="M271.182 264.34C271.182 264.409 265.386 264.471 258.251 264.471C251.115 264.471 245.319 264.409 245.319 264.34C245.319 264.271 251.108 264.201 258.251 264.201C265.394 264.201 271.182 264.263 271.182 264.34Z" fill="#263238"/>
<path d="M61.4395 211.586C61.3779 211.655 60.893 211.363 60.3542 210.932C59.8154 210.501 59.4228 210.094 59.4844 210.017C59.546 209.94 60.0232 210.24 60.562 210.671C61.1008 211.101 61.4934 211.509 61.4395 211.586Z" fill="#263238"/>
<path d="M76.2182 189.561C76.4278 187.51 76.2582 185.438 75.7179 183.448C75.0713 181.487 73.5627 179.695 71.546 179.272C69.2368 178.795 66.8815 180.248 65.5883 182.217C64.2952 184.186 63.8564 186.57 63.4716 188.884C60.8455 204.879 59.8782 221.101 60.5851 237.294L70.0065 238.616C74.1092 221.721 75.4485 206.949 76.2182 189.561Z" fill="#455A64"/>
<path d="M70.1992 179.172L70.153 179.326L69.9991 179.749L69.3679 181.379C69.2371 181.733 69.06 182.148 68.9215 182.555L68.4673 183.978L67.9362 185.616L67.4513 187.485C66.6604 190.571 66.0512 193.701 65.627 196.859C65.119 200.397 64.788 204.319 64.5186 208.44C64.0414 216.692 63.9644 224.182 63.7489 229.596C63.6488 232.311 63.5565 234.502 63.4564 236.009C63.4025 236.778 63.364 237.324 63.3333 237.755C63.3333 237.932 63.3333 238.086 63.3333 238.201C63.3333 238.316 63.3333 238.355 63.3333 238.355C63.3333 238.355 63.3333 238.309 63.3333 238.201C63.3333 238.093 63.3333 237.932 63.3333 237.747C63.3333 237.324 63.3333 236.74 63.3871 236.002C63.4487 234.464 63.5026 232.303 63.5719 229.588C63.7258 224.205 63.7643 216.684 64.2492 208.425C64.5109 204.295 64.8573 200.366 65.3807 196.813C65.8222 193.665 66.4571 190.547 67.2819 187.477L67.79 185.608C67.9901 185.034 68.1748 184.488 68.3442 183.97L68.8368 182.548C68.983 182.117 69.1678 181.733 69.3063 181.379L69.9991 179.779C70.0709 179.61 70.1325 179.472 70.1838 179.364C70.1783 179.3 70.1835 179.235 70.1992 179.172Z" fill="#263238"/>
<path d="M71.0688 179.21C71.5599 179.79 71.9501 180.447 72.2234 181.156C72.9438 183.101 73.2352 185.179 73.0778 187.246C72.8315 192.453 72.362 199.62 71.7462 207.541C71.1304 215.461 70.4299 222.613 69.8757 227.789C69.5909 230.373 69.3523 232.464 69.1753 233.941C69.0829 234.641 69.0137 235.194 68.9598 235.602L68.8982 236.033C68.9018 236.081 68.9018 236.13 68.8982 236.179C68.8982 236.179 68.8982 236.132 68.8982 236.033C68.8982 235.933 68.8982 235.771 68.8982 235.594C68.8982 235.187 68.9829 234.633 69.0444 233.925C69.1907 232.449 69.3908 230.365 69.6371 227.773C70.1298 222.59 70.784 215.469 71.4075 207.518C72.031 199.566 72.5313 192.437 72.8392 187.246C73.0068 185.203 72.7446 183.146 72.0695 181.21C71.7957 180.515 71.4609 179.846 71.0688 179.21Z" fill="#263238"/>
<path d="M77.6038 203.58C76.9855 203.535 76.3805 203.379 75.818 203.119C75.2201 202.963 74.6545 202.703 74.1477 202.35C74.7667 202.39 75.3725 202.547 75.9335 202.811C76.532 202.965 77.0979 203.226 77.6038 203.58Z" fill="#263238"/>
<path d="M78.7431 193.983C78.2326 194.391 77.6577 194.71 77.0421 194.929C76.47 195.245 75.8477 195.461 75.2024 195.567C76.2817 194.838 77.4798 194.302 78.7431 193.983Z" fill="#263238"/>
<path d="M78.1504 186.147C77.22 186.315 76.2625 186.249 75.364 185.955C75.8194 185.824 76.2988 185.8 76.7649 185.885C77.2408 185.864 77.715 185.954 78.1504 186.147Z" fill="#263238"/>
<path d="M68.421 181.133C68.3441 181.179 67.9284 180.664 67.5051 179.987C67.197 179.596 66.9789 179.142 66.8662 178.657C66.9432 178.61 67.3588 179.118 67.7899 179.802C68.2209 180.487 68.5211 181.079 68.421 181.133Z" fill="#263238"/>
<path d="M65.2112 185.87C64.7826 186.024 64.323 186.071 63.8719 186.008C63.4183 186.052 62.961 185.983 62.5403 185.808C62.9689 185.654 63.4285 185.607 63.8796 185.67C64.3332 185.627 64.7905 185.695 65.2112 185.87Z" fill="#263238"/>
<path d="M62.902 195.321C62.4094 195.301 61.9277 195.17 61.4935 194.937C61.0183 194.802 60.5791 194.563 60.208 194.237C60.7007 194.256 61.1824 194.388 61.6166 194.621C62.0918 194.756 62.5309 194.995 62.902 195.321Z" fill="#263238"/>
<path d="M62.6559 203.311C62.6559 203.403 62.1401 203.596 61.4551 203.734C60.77 203.872 60.2081 203.926 60.185 203.834C60.1619 203.742 60.7084 203.549 61.3858 203.411C61.7943 203.273 62.2308 203.239 62.6559 203.311Z" fill="#263238"/>
<path d="M61.5935 216.354C61.5935 216.446 61.0393 216.623 60.3158 216.753C59.8835 216.882 59.4264 216.903 58.9841 216.815C59.3724 216.584 59.8106 216.449 60.2619 216.423C60.6931 216.29 61.1508 216.266 61.5935 216.354Z" fill="#263238"/>
<path d="M60.8238 223.551C60.87 223.628 60.3928 223.967 59.7616 224.32C59.1304 224.674 58.5839 224.859 58.5454 224.774C58.5069 224.69 58.9765 224.359 59.6076 224.005C60.2388 223.651 60.8238 223.467 60.8238 223.551Z" fill="#263238"/>
<path d="M66.7277 231.718C66.6507 231.764 66.2351 231.195 65.804 230.442C65.4923 230.011 65.277 229.518 65.1729 228.996C65.2498 228.95 65.6655 229.519 66.0965 230.273C66.4083 230.704 66.6236 231.197 66.7277 231.718Z" fill="#263238"/>
<path d="M68.4286 218.145C68.4902 218.207 68.0284 218.768 67.3972 219.391C66.766 220.014 66.1964 220.46 66.1271 220.391C66.0579 220.322 66.5274 219.768 67.1586 219.145C67.7897 218.522 68.3594 218.076 68.4286 218.145Z" fill="#263238"/>
<path d="M68.0515 211.017C67.9823 211.086 67.5589 210.732 67.0971 210.248C66.6352 209.763 66.3274 209.294 66.3889 209.232C66.4505 209.171 66.8816 209.517 67.3434 210.001C67.8052 210.486 68.1208 210.955 68.0515 211.017Z" fill="#263238"/>
<path d="M69.2215 201.919C69.2908 201.981 68.9059 202.527 68.3594 203.127C67.8129 203.726 67.3203 204.18 67.251 204.119C67.1817 204.057 67.5666 203.511 68.1054 202.904C68.6442 202.296 69.1522 201.858 69.2215 201.919Z" fill="#263238"/>
<path d="M69.8759 195.321C69.8066 195.39 69.2755 194.967 68.6751 194.383C68.0747 193.798 67.6514 193.268 67.713 193.199C67.7746 193.129 68.3134 193.552 68.9137 194.144C69.5141 194.737 69.9375 195.252 69.8759 195.321Z" fill="#263238"/>
<path d="M71.169 186.385C71.0671 186.87 70.8595 187.327 70.5609 187.723C70.153 188.415 69.7527 188.938 69.6758 188.892C69.5988 188.846 69.8605 188.246 70.2761 187.554C70.6918 186.862 71.0844 186.339 71.169 186.385Z" fill="#263238"/>
<path d="M73.5936 178.111C73.6783 178.157 73.4397 178.757 73.0625 179.449C72.6853 180.141 72.2928 180.671 72.2312 180.633C72.3045 180.152 72.4861 179.695 72.7623 179.295C73.1395 178.595 73.5089 178.072 73.5936 178.111Z" fill="#263238"/>
<path d="M76.3493 181.871C76.3878 181.956 76.0106 182.217 75.5026 182.463C74.9946 182.709 74.5558 182.832 74.5174 182.748C74.4789 182.663 74.856 182.402 75.3641 182.156C75.8721 181.91 76.3108 181.786 76.3493 181.871Z" fill="#263238"/>
<path d="M76.4109 211.586C75.1323 211.492 73.9214 210.975 72.9702 210.117C73.5695 210.298 74.1496 210.538 74.7021 210.832C75.296 211.024 75.8686 211.277 76.4109 211.586Z" fill="#263238"/>
<path d="M75.287 217.876C75.287 217.968 74.7405 218.153 74.0169 218.291C73.5869 218.429 73.1294 218.458 72.6853 218.376C73.0703 218.14 73.5053 217.998 73.9553 217.961C74.6789 217.822 75.2716 217.784 75.287 217.876Z" fill="#263238"/>
<path d="M73.9092 228.665C73.8553 228.742 73.1394 228.242 72.4775 227.412C72.0367 226.938 71.7264 226.357 71.5769 225.728C72.0071 226.185 72.396 226.679 72.7392 227.204C73.1733 227.654 73.5649 228.143 73.9092 228.665Z" fill="#263238"/>
<path d="M58.7533 233.602C58.6917 233.533 59.0766 233.103 59.6077 232.649C60.1388 232.195 60.6237 231.88 60.6853 231.957C60.7469 232.034 60.362 232.449 59.8309 232.91C59.2998 233.372 58.8149 233.672 58.7533 233.602Z" fill="#263238"/>
<path d="M54.3967 210.055C53.7809 208.14 52.634 205.91 50.625 205.88C50.0264 205.912 49.4476 206.105 48.9492 206.438C48.4508 206.77 48.0513 207.231 47.7924 207.771C47.2395 208.839 46.9742 210.031 47.0227 211.232C47.2708 219.755 48.7246 228.201 51.3409 236.317H58.7072C58.6179 227.395 57.1643 218.539 54.3967 210.055Z" fill="#455A64"/>
<path d="M41.0881 198.005C40.7238 196.211 39.7669 194.592 38.3711 193.407C36.9753 192.221 35.2214 191.539 33.3908 191.468C30.1349 192.037 28.8725 195.236 28.4877 198.512C28.1028 201.788 29.1189 205.049 30.1272 208.194C33.3498 218.284 36.5775 228.376 39.8104 238.47L48.9701 237.471C46.1067 223.951 44.4441 211.416 41.0881 198.005Z" fill="#455A64"/>
<path d="M50.6251 205.88C50.387 206.207 50.1784 206.554 50.0016 206.918C49.6219 207.957 49.503 209.074 49.6552 210.171C49.7938 211.57 49.9554 213.247 50.194 215.092C50.4326 216.938 50.7636 218.937 51.1793 221.075C52.0106 225.305 52.9496 229.088 53.5423 231.841C53.8425 233.218 54.0734 234.341 54.212 235.117C54.2736 235.479 54.3274 235.771 54.3659 236.017C54.4044 236.263 54.4121 236.332 54.3659 236.332C54.3259 236.235 54.295 236.135 54.2736 236.032L54.058 235.148C53.8579 234.325 53.5962 233.226 53.2883 231.895C52.634 229.142 51.6565 225.366 50.8252 221.129C50.4095 219.007 50.0555 216.976 49.863 215.115C49.7399 214.193 49.6629 213.301 49.5859 212.478C49.509 211.655 49.432 210.878 49.3935 210.171C49.2619 209.042 49.4209 207.899 49.8553 206.849C50.0385 206.474 50.3012 206.143 50.6251 205.88Z" fill="#263238"/>
<path d="M33.5602 191.207C33.1521 191.672 32.7814 192.168 32.4518 192.691C31.6088 194.153 31.1309 195.796 31.0586 197.482C31.0203 199.981 31.4028 202.469 32.1901 204.841C32.9598 207.564 33.8758 210.555 34.8072 213.685C36.6314 219.96 38.2786 225.635 39.4871 229.78L40.8726 234.671C41.0266 235.225 41.142 235.663 41.2344 236.002C41.2847 236.154 41.3183 236.311 41.3345 236.471C41.2639 236.328 41.2072 236.179 41.1651 236.025C41.0651 235.686 40.9188 235.256 40.7495 234.702C40.3877 233.526 39.8797 231.872 39.2639 229.85L34.4839 213.777C33.5602 210.632 32.6904 207.625 31.8899 204.918C31.1058 202.512 30.7438 199.988 30.82 197.459C30.9192 195.741 31.4485 194.075 32.3595 192.614C32.6792 192.082 33.085 191.607 33.5602 191.207Z" fill="#263238"/>
<path d="M47.0073 236.494C46.9298 236.352 46.8604 236.206 46.7995 236.056C46.684 235.756 46.4916 235.333 46.2838 234.764C45.845 233.641 45.2831 231.988 44.7443 229.911C44.2055 227.835 43.5897 225.297 43.0355 222.529C42.4813 219.76 41.9271 216.661 41.3113 213.431C40.6956 210.201 39.972 207.164 39.1484 204.449C38.4339 202.036 37.5411 199.679 36.4775 197.397C35.7544 195.862 34.9289 194.377 34.0066 192.953C33.6911 192.445 33.4063 192.068 33.2369 191.807C33.1405 191.676 33.0555 191.537 32.9829 191.391C33.0958 191.506 33.1988 191.629 33.2908 191.761C33.4832 192.022 33.7834 192.376 34.1144 192.883C35.0879 194.285 35.9501 195.761 36.693 197.297C37.7971 199.573 38.716 201.934 39.4409 204.357C40.3102 207.322 41.0245 210.33 41.5807 213.37C42.1888 216.592 42.7584 219.668 43.2818 222.475C43.8053 225.282 44.3595 227.766 44.9137 229.85C45.4679 231.934 45.9836 233.587 46.3838 234.718C46.5686 235.294 46.7456 235.725 46.8457 236.025C46.917 236.175 46.9713 236.332 47.0073 236.494Z" fill="#263238"/>
<path d="M30.3272 206.687C30.3272 206.772 29.85 206.972 29.2111 207.125C28.5723 207.279 28.0411 207.333 28.0257 207.241C28.0104 207.148 28.4953 206.956 29.1342 206.802C29.773 206.649 30.3041 206.595 30.3272 206.687Z" fill="#263238"/>
<path d="M29.3575 200.443C28.8571 200.583 28.337 200.64 27.818 200.612C27.306 200.684 26.7854 200.668 26.2786 200.566C26.7579 200.337 27.2882 200.237 27.818 200.274C28.3372 200.198 28.8671 200.256 29.3575 200.443Z" fill="#263238"/>
<path d="M30.389 194.737C30.3275 194.814 29.8271 194.491 29.2806 194.021C28.7341 193.552 28.3262 193.114 28.3877 193.045C28.4493 192.976 28.9419 193.291 29.4962 193.76C30.0504 194.229 30.4506 194.667 30.389 194.737Z" fill="#263238"/>
<path d="M33.1831 189.461C33.2754 189.461 33.2447 189.93 33.237 190.461C33.2293 190.992 33.237 191.445 33.1215 191.461C33.006 191.476 32.8829 191.03 32.8983 190.453C32.9137 189.876 33.1138 189.438 33.1831 189.461Z" fill="#263238"/>
<path d="M38.8867 191.945C38.9637 191.999 38.7405 192.453 38.3864 192.953C38.0323 193.452 37.686 193.822 37.6167 193.768C37.5474 193.714 37.7629 193.268 38.1093 192.76C38.4557 192.253 38.8098 191.891 38.8867 191.945Z" fill="#263238"/>
<path d="M42.589 198.397C42.589 198.489 42.1503 198.759 41.5345 199.012C40.9187 199.266 40.3799 199.397 40.3491 199.312C40.3183 199.228 40.7878 198.951 41.4036 198.705C42.0194 198.459 42.5582 198.289 42.589 198.397Z" fill="#263238"/>
<path d="M44.8367 204.988C44.4294 205.341 43.9251 205.563 43.3896 205.626C42.8765 205.792 42.3271 205.81 41.804 205.68C42.2978 205.484 42.8155 205.355 43.3434 205.295C43.8268 205.132 44.3283 205.029 44.8367 204.988Z" fill="#263238"/>
<path d="M34.5224 203.111C34.4378 203.111 34.5224 202.627 34.6687 202.088C34.8149 201.55 35.0459 201.142 35.1305 201.173C35.2152 201.204 35.1305 201.658 34.9843 202.196C34.838 202.734 34.6533 203.142 34.5224 203.111Z" fill="#263238"/>
<path d="M35.9617 211.416C35.9928 210.932 36.135 210.461 36.3773 210.04C36.6929 209.317 37.0162 208.763 37.1009 208.802C37.0697 209.286 36.9275 209.757 36.6852 210.178C36.3696 210.901 36.0463 211.47 35.9617 211.416Z" fill="#263238"/>
<path d="M32.4057 213.693C31.9521 213.682 31.505 213.583 31.0894 213.401C30.389 213.178 29.8194 212.978 29.8425 212.885C30.3006 212.827 30.7661 212.893 31.1895 213.078C31.9053 213.301 32.4442 213.608 32.4057 213.693Z" fill="#263238"/>
<path d="M34.4531 220.46C34.507 220.537 34.1144 220.906 33.5833 221.291C33.0522 221.675 32.5596 221.921 32.5057 221.852C32.4518 221.783 32.8444 221.398 33.3832 221.014C33.922 220.629 34.3992 220.383 34.4531 220.46Z" fill="#263238"/>
<path d="M36.1002 227.212C36.1002 227.297 35.6384 227.496 35.0149 227.643C34.3914 227.789 33.8757 227.843 33.8526 227.758C33.8295 227.673 34.3144 227.473 34.9379 227.32C35.5614 227.166 36.0771 227.12 36.1002 227.212Z" fill="#263238"/>
<path d="M45.0213 210.632C45.0675 210.709 44.6518 211.04 44.0514 211.263C43.451 211.486 42.9122 211.516 42.8968 211.432C42.8815 211.347 43.3587 211.17 43.9283 210.947C44.4979 210.724 44.9751 210.547 45.0213 210.632Z" fill="#263238"/>
<path d="M46.2913 221.129C46.2528 221.214 45.7602 221.068 45.1906 220.798C44.621 220.529 44.19 220.245 44.2285 220.16C44.2669 220.076 44.7673 220.229 45.3369 220.491C45.9065 220.752 46.3375 221.044 46.2913 221.129Z" fill="#263238"/>
<path d="M48.5467 228.65C48.0369 228.624 47.5384 228.491 47.0842 228.258C46.3145 227.958 45.7218 227.643 45.7526 227.55C46.2599 227.576 46.7558 227.71 47.2074 227.943C47.9771 228.242 48.5775 228.558 48.5467 228.65Z" fill="#263238"/>
<path d="M36.462 234.541C36.4158 234.456 37.0162 234.056 37.7089 233.51C38.4017 232.964 38.9405 232.472 39.0098 232.541C39.079 232.61 38.6403 233.203 37.9168 233.772C37.5142 234.16 37.0099 234.427 36.462 234.541Z" fill="#263238"/>
<path d="M42.4044 230.696C42.312 230.696 42.1812 230.203 41.9503 229.619C41.7193 229.035 41.4884 228.565 41.5654 228.512C41.6424 228.458 42.0272 228.858 42.2658 229.496C42.5045 230.134 42.4968 230.696 42.4044 230.696Z" fill="#263238"/>
<path d="M40.811 221.675C40.7571 221.752 40.3722 221.567 39.9489 221.267C39.5255 220.968 39.233 220.66 39.2869 220.583C39.3408 220.506 39.7257 220.691 40.149 220.991C40.5724 221.291 40.8879 221.598 40.811 221.675Z" fill="#263238"/>
<path d="M54.6662 207.51C54.7201 207.587 54.3429 207.956 53.8272 208.333C53.3115 208.71 52.8496 208.963 52.7957 208.886C52.7419 208.81 53.1113 208.448 53.627 208.064C54.1428 207.679 54.6662 207.433 54.6662 207.51Z" fill="#263238"/>
<path d="M56.7829 213.216C56.7829 213.308 56.2056 213.431 55.482 213.354C54.7585 213.277 54.212 213.031 54.2351 212.947C54.2582 212.862 54.8278 212.947 55.5205 213.016C56.2133 213.085 56.7752 213.124 56.7829 213.216Z" fill="#263238"/>
<path d="M47.8001 214.5C47.8001 214.585 47.2844 214.777 46.5763 214.823C45.8681 214.869 45.3139 214.754 45.3216 214.662C45.3293 214.569 45.8835 214.539 46.5609 214.492C47.2382 214.446 47.7847 214.408 47.8001 214.5Z" fill="#263238"/>
<path d="M48.5776 209.102C48.5776 209.194 48.0234 209.209 47.423 208.925C46.8226 208.64 46.4762 208.233 46.5378 208.156C46.5994 208.079 47.015 208.371 47.5615 208.617C48.108 208.863 48.5853 209.009 48.5776 209.102Z" fill="#263238"/>
<path d="M57.5526 219.345C57.5064 219.422 56.9445 219.16 56.2979 218.753C55.6514 218.345 55.1741 217.984 55.228 217.876C55.2819 217.768 55.8361 218.068 56.4827 218.468C57.1292 218.868 57.6065 219.268 57.5526 219.345Z" fill="#263238"/>
<path d="M79.4667 235.363H31.5513V243.846H79.4667V235.363Z" fill="#FF725E"/>
<path d="M35.1304 242.162L40.9572 267.516H69.514L75.895 242.162H35.1304Z" fill="#FF725E"/>
<path d="M79.4435 243.853C79.4435 243.946 68.6673 244.023 55.3049 244.023C41.9424 244.023 31.1663 243.946 31.1663 243.853C31.1663 243.761 41.9424 243.684 55.3049 243.684C68.6673 243.684 79.4435 243.769 79.4435 243.853Z" fill="#263238"/>
<path d="M52.7955 214.685C52.7185 214.731 52.3875 214.354 52.0642 213.831C51.741 213.308 51.5408 212.847 51.6178 212.801C51.6948 212.755 52.0257 213.131 52.349 213.654C52.6723 214.177 52.8724 214.631 52.7955 214.685Z" fill="#263238"/>
<path d="M52.811 221.506C52.7879 221.063 52.8752 220.622 53.065 220.222C53.2882 219.537 53.5499 219.007 53.6346 219.037C53.6583 219.482 53.571 219.926 53.3806 220.329C53.1266 221.006 52.9034 221.537 52.811 221.506Z" fill="#263238"/>
<path d="M55.151 228.673C55.0664 228.719 54.7123 228.142 54.3813 227.397C54.1157 226.964 53.9476 226.478 53.8887 225.974C53.9733 225.928 54.3274 226.504 54.6584 227.25C54.924 227.683 55.0921 228.169 55.151 228.673Z" fill="#263238"/>
<path d="M50.0939 234.441C50.0246 234.379 50.3094 233.941 50.7327 233.449C51.1561 232.956 51.5487 232.618 51.6256 232.68C51.7026 232.741 51.4101 233.187 50.9868 233.672C50.5634 234.156 50.1631 234.541 50.0939 234.441Z" fill="#263238"/>
<path d="M49.0317 223.974C49.0317 224.067 48.5545 224.059 48.0003 223.974C47.4461 223.89 47.015 223.728 47.0304 223.636C47.0458 223.544 47.5077 223.551 48.0542 223.636C48.6007 223.721 49.0471 223.882 49.0317 223.974Z" fill="#263238"/>
<path d="M215.731 177.049H102.104V267.577H215.731V177.049Z" fill="#E0E0E0"/>
<g opacity="0.3">
<path opacity="0.3" d="M110.379 177.234C123.756 182.002 138.512 183.025 152.868 183.294C155.846 183.348 158.856 183.34 161.735 184.063C164.614 184.786 167.392 186.424 168.87 189C170.479 191.807 170.309 195.321 169.394 198.42C168.478 201.519 166.9 204.388 165.76 207.41C163.743 212.757 163.126 218.53 163.967 224.182C164.226 226.59 165.037 228.906 166.338 230.949C166.997 231.965 167.884 232.812 168.929 233.424C169.974 234.035 171.148 234.394 172.357 234.471C176.675 234.533 179.631 230.296 181.771 226.543C190.553 211.163 200.052 193.706 205.671 176.919L110.379 177.234Z" fill="black"/>
</g>
<path d="M140.821 267.093C140.706 267.093 140.621 247.029 140.621 222.283C140.621 197.536 140.706 177.465 140.821 177.465C140.937 177.465 141.022 197.528 141.022 222.283C141.022 247.037 140.929 267.093 140.821 267.093Z" fill="#455A64"/>
<path d="M187.382 110.145C187.044 107.885 180.285 100.425 180.285 100.425C180.285 100.425 176.914 86.8829 175.898 82.8917C175.56 81.7378 175.065 80.6356 174.428 79.6157C172.038 75.6383 168.639 72.3621 164.575 70.1184L155.223 64.8661L152.991 59.8983L130.53 48.3631L124.442 59.1293C124.442 59.1293 109.655 63.8202 107.7 67.15C105.745 70.4799 108.67 115.444 108.67 115.444C108.67 115.444 102.512 141.375 101.181 146.743C99.849 152.11 101.596 158.509 101.596 158.509L112.611 144.705C116.036 140.414 123.549 138.437 128.945 138.514L175.059 138.722L173.204 125.818L210.512 133.031C210.512 133.031 216.924 120.527 217.44 120.281C217.956 120.035 187.382 110.145 187.382 110.145Z" fill="#FF725E"/>
<path d="M129.576 63.3204C129.252 62.9897 132.177 72.8715 135.857 82.9378C137.836 88.3774 138.844 94.122 138.836 99.9099V136.361L160.942 134.861L157.64 110.853C157.64 110.853 154.946 95.365 154.192 89.4744C153.499 84.0913 151.113 69.4801 151.113 69.4801C151.113 69.4801 138.836 72.7407 129.576 63.3204Z" fill="white"/>
<path d="M178.638 119.189C178.603 119.003 178.603 118.813 178.638 118.628C178.689 118.125 178.787 117.628 178.93 117.143C179.398 115.526 180.266 114.053 181.455 112.86C182.651 111.671 184.124 110.799 185.743 110.322C186.227 110.179 186.725 110.081 187.228 110.03C187.411 109.995 187.599 109.995 187.782 110.03C187.782 110.099 187.013 110.184 185.827 110.591C184.289 111.119 182.892 111.991 181.743 113.141C180.594 114.292 179.724 115.69 179.2 117.228C178.792 118.42 178.707 119.189 178.638 119.189Z" fill="#263238"/>
<path d="M179.777 110.453C180.804 109.851 181.966 109.515 183.156 109.476C184.335 109.313 185.536 109.456 186.643 109.892C186.643 110.015 185.104 109.715 183.187 109.892C181.271 110.069 179.824 110.568 179.777 110.453Z" fill="#263238"/>
<g opacity="0.3">
<path opacity="0.3" d="M106.446 130.347L104.521 132.516C106.528 134.991 109.247 136.789 112.311 137.668C115.399 138.323 118.554 138.607 121.709 138.514C122.987 138.576 124.268 138.454 125.512 138.153C126.766 137.791 127.929 137.084 129.229 137.007C130.102 137.011 130.97 137.135 131.808 137.376C132.652 137.615 133.544 137.628 134.394 137.415C134.815 137.301 135.189 137.055 135.459 136.713C135.729 136.371 135.882 135.951 135.895 135.515C126.299 132.713 116.423 130.98 106.446 130.347Z" fill="black"/>
</g>
<path d="M169.563 133.131L164.175 127.379L152.975 124.572C152.975 124.572 142.753 127.648 142.507 127.648C142.261 127.648 133.609 125.28 133.609 125.28L130.584 136.369L146.171 137.438L163.967 136.722C163.967 136.722 164.898 135.861 164.344 135.269C163.79 134.677 167.323 136.269 167.739 136.284C168.154 136.3 168.955 136.622 169.509 135.961C169.886 135.469 170.394 134.016 169.563 133.131Z" fill="#FFBE9D"/>
<path d="M164.344 135.231C163.74 135.117 163.147 134.947 162.574 134.723C161.496 134.385 159.995 133.954 158.325 133.493C156.655 133.031 155.115 132.724 153.999 132.531C153.388 132.452 152.787 132.31 152.206 132.108C152.822 132.081 153.44 132.128 154.045 132.247C155.518 132.452 156.977 132.74 158.417 133.108C159.859 133.474 161.278 133.926 162.666 134.462C163.256 134.645 163.82 134.904 164.344 135.231Z" fill="#EB996E"/>
<path d="M169.563 133.131C168.724 132.919 167.896 132.662 167.084 132.362C165.545 131.855 163.444 131.224 161.081 130.57C158.718 129.917 156.624 129.171 155.031 129.078C154.172 129.034 153.312 129.068 152.46 129.178C152.668 129.064 152.895 128.986 153.129 128.948C153.759 128.812 154.403 128.76 155.046 128.794C156.693 128.794 158.895 129.494 161.204 130.186C163.513 130.878 165.684 131.516 167.192 132.101C167.962 132.385 168.539 132.647 168.955 132.831C169.171 132.901 169.376 133.002 169.563 133.131Z" fill="#EB996E"/>
<path d="M107.7 67.15C107.7 67.15 99.6564 72.7407 97.6936 80.7846C95.7308 88.8284 87.2562 121.704 88.9958 126.618C90.7353 131.532 124.557 136.361 124.557 136.361L128.567 119.443L111.387 114.744C111.387 114.744 111.61 99.0947 111.826 92.612C112.041 86.1292 107.7 67.15 107.7 67.15Z" fill="#FF725E"/>
<path d="M128.352 121.988L133.886 123.349L130.561 136.107L125.119 135.231L128.352 121.988Z" fill="white"/>
<path d="M88.8725 124.88C88.8725 124.88 88.8725 125.164 88.9572 125.649C89.1443 126.392 89.5554 127.061 90.1349 127.564C91.6051 128.932 94.4145 130.071 97.9707 130.709C99.5948 131.247 101.45 131.67 103.428 132.116C105.406 132.562 107.546 133.016 109.794 133.47C114.297 134.392 119.277 135.361 124.557 136.346L124.326 136.492C124.703 134.954 125.096 133.27 125.519 131.585C126.466 127.74 127.39 123.957 128.259 120.396L128.398 120.627L113.165 116.313C111.062 115.428 108.786 115.029 106.507 115.144C104.775 115.24 103.073 115.641 101.481 116.328C100.468 116.766 99.5016 117.302 98.5942 117.928L97.8937 118.435C97.8171 118.497 97.7346 118.551 97.6474 118.597C97.6474 118.597 97.7167 118.52 97.8629 118.397C98.0092 118.274 98.2324 118.082 98.5403 117.851C99.4343 117.189 100.397 116.624 101.411 116.167C103.014 115.441 104.735 115.011 106.492 114.898C108.811 114.75 111.133 115.134 113.281 116.021L128.56 120.296L128.744 120.343L128.698 120.527C127.828 124.088 126.912 127.84 125.973 131.724C125.558 133.4 125.157 135.061 124.773 136.622L124.726 136.807H124.542C119.261 135.815 114.289 134.831 109.786 133.892C107.538 133.423 105.406 132.954 103.42 132.493C101.434 132.031 99.5717 131.593 97.9399 131.032C94.3376 130.347 91.5281 129.163 90.0425 127.725C89.4535 127.196 89.0489 126.493 88.8879 125.718C88.8324 125.442 88.8272 125.158 88.8725 124.88Z" fill="#263238"/>
<path d="M112.326 115.89C112.28 115.944 111.703 115.413 110.671 114.729C107.97 112.922 104.777 111.99 101.527 112.06C100.28 112.06 99.5178 112.229 99.5024 112.16C100.147 111.927 100.826 111.8 101.511 111.783C104.851 111.542 108.167 112.505 110.856 114.498C111.419 114.878 111.916 115.348 112.326 115.89Z" fill="#263238"/>
<path d="M114.581 88.3594C114.61 88.7023 114.61 89.0469 114.581 89.3898C114.581 90.0589 114.512 91.0124 114.42 92.1967C114.227 94.5576 113.881 97.8105 113.258 101.379C112.77 104.431 112.058 107.444 111.125 110.392C110.941 110.953 110.741 111.46 110.579 111.93L110.086 113.037C109.942 113.353 109.764 113.652 109.555 113.929C109.652 113.599 109.781 113.28 109.94 112.975C110.071 112.645 110.209 112.268 110.371 111.853C110.533 111.437 110.687 110.899 110.856 110.315C111.697 107.356 112.368 104.352 112.865 101.317C113.481 97.7644 113.873 94.5268 114.135 92.1736C114.251 91.0586 114.351 90.1281 114.428 89.3898C114.438 89.0414 114.489 88.6955 114.581 88.3594Z" fill="#263238"/>
<path d="M134.194 79.6465C134.194 79.6465 134.117 79.4388 133.932 79.0774C133.659 78.5651 133.259 78.131 132.77 77.8162C132.409 77.5685 131.996 77.4065 131.562 77.3425C131.129 77.2786 130.686 77.3143 130.269 77.4471C129.739 77.6281 129.266 77.9439 128.896 78.3633C128.527 78.7827 128.273 79.2913 128.159 79.8387L128.052 80.3847L127.813 79.8772C126.913 77.9468 126.129 75.9643 125.465 73.9404C124.289 70.5691 123.701 67.0212 123.726 63.4511C123.726 62.7667 123.818 62.1514 123.857 61.6055C123.895 61.0595 124.018 60.6057 124.103 60.2366C124.184 59.8485 124.298 59.4679 124.442 59.0985C124.179 60.5353 124.032 61.9908 124.003 63.4511C124.066 66.9817 124.687 70.4802 125.843 73.8173C126.507 75.8257 127.277 77.7972 128.152 79.7233L127.805 79.7695C127.938 79.1647 128.228 78.6055 128.645 78.1479C129.063 77.6903 129.593 77.3505 130.184 77.1625C130.642 77.0243 131.126 76.9948 131.598 77.0762C132.07 77.1577 132.516 77.3478 132.901 77.6316C133.401 77.9828 133.795 78.4642 134.04 79.0236C134.107 79.1709 134.157 79.3258 134.186 79.485C134.202 79.5849 134.21 79.6465 134.194 79.6465Z" fill="#263238"/>
<path d="M152.96 81.3767C152.877 81.0767 152.818 80.7707 152.783 80.4616C152.614 79.6139 152.56 78.7475 152.621 77.8854C152.794 76.559 153.456 75.3446 154.476 74.4787C155.107 73.9598 155.899 73.6746 156.716 73.6712C157.162 73.6661 157.603 73.7577 158.01 73.9396C158.416 74.1215 158.779 74.3894 159.071 74.7248L158.733 74.9247L158.002 73.0868C156.562 69.4648 155.284 66.1657 154.376 63.7895L153.322 60.9518C153.175 60.613 153.064 60.26 152.991 59.8983C153.18 60.2162 153.34 60.5508 153.468 60.898C153.776 61.667 154.168 62.5667 154.646 63.6895C155.623 66.0503 156.955 69.3186 158.379 72.9176L159.102 74.7632L159.572 75.9475L158.802 74.9555C158.548 74.6609 158.232 74.4257 157.877 74.2662C157.522 74.1068 157.136 74.0271 156.747 74.0327C156.014 74.028 155.302 74.275 154.73 74.7325C153.768 75.536 153.127 76.6573 152.921 77.8931C152.839 78.7354 152.854 79.5844 152.968 80.4231C153.004 80.7401 153.002 81.0604 152.96 81.3767Z" fill="#263238"/>
<path d="M167.238 83.2839C167.346 83.2839 169.086 94.9575 171.126 109.392C173.165 123.826 174.72 135.538 174.612 135.538C174.505 135.538 172.765 123.865 170.725 109.392C168.686 94.919 167.131 83.2993 167.238 83.2839Z" fill="#263238"/>
<g opacity="0.3">
<path opacity="0.3" d="M125.696 74.0634C125.79 77.0538 126.44 80.0006 127.613 82.7533C128.452 81.7151 129.383 80.6231 130.692 80.3155C132.277 79.9387 133.886 80.9153 135.033 82.115C134.834 80.9155 134.36 79.7784 133.648 78.7929C133.292 78.3085 132.829 77.9127 132.295 77.6366C131.761 77.3605 131.17 77.2114 130.569 77.201C129.969 77.2151 129.392 77.4284 128.928 77.8073C128.463 78.1861 128.139 78.7088 128.005 79.2927L125.796 74.1173" fill="black"/>
</g>
<path d="M112.696 82.5149C112.626 82.5149 112.649 81.7074 112.419 80.4539C112.102 78.8207 111.467 77.2658 110.548 75.8783C110.031 75.1271 109.44 74.4291 108.785 73.7943C108.243 73.2809 107.653 72.82 107.023 72.4177C105.937 71.7333 105.175 71.4719 105.206 71.4027C105.395 71.4163 105.58 71.4632 105.753 71.5411C105.968 71.599 106.177 71.6789 106.376 71.7795C106.642 71.8937 106.9 72.0274 107.146 72.1794C107.815 72.5574 108.442 73.006 109.016 73.5174C109.707 74.16 110.324 74.877 110.856 75.6553C111.81 77.0836 112.431 78.7077 112.673 80.4078C112.749 80.9166 112.775 81.4318 112.75 81.9458C112.75 82.3149 112.726 82.5149 112.696 82.5149Z" fill="#263238"/>
<path d="M157.378 27.6767C156.939 23.5589 154.963 19.7573 151.845 17.0285C148.728 14.2997 144.696 12.8437 140.552 12.9501H139.698C130.499 13.7191 126.02 21.9553 127.051 31.1142L129.576 63.3357L130.646 64.6431C133.048 67.5912 136.358 69.6627 140.062 70.5349C143.765 71.407 147.653 71.0307 151.12 69.4647L150.412 59.0985C150.412 59.0985 159.233 57.4989 159.11 48.6553C159.056 44.3642 158.225 35.5821 157.378 27.6767Z" fill="#FFBE9D"/>
<path d="M150.481 59.0754C146.375 59.1896 142.321 58.1218 138.805 55.9994C138.805 55.9994 141.691 62.2976 150.505 61.2748L150.481 59.0754Z" fill="#EB996E"/>
<path d="M154.576 34.9515C154.585 35.28 154.467 35.5992 154.246 35.8427C154.025 36.0862 153.719 36.2352 153.391 36.2589C153.23 36.2747 153.068 36.2586 152.914 36.2113C152.76 36.164 152.617 36.0866 152.493 35.9836C152.369 35.8805 152.267 35.7539 152.193 35.6111C152.118 35.4682 152.073 35.312 152.059 35.1515C152.049 34.8225 152.166 34.5023 152.387 34.2584C152.609 34.0145 152.916 33.8659 153.245 33.8442C153.405 33.8272 153.568 33.8427 153.722 33.8895C153.877 33.9363 154.02 34.0137 154.145 34.1169C154.269 34.2201 154.371 34.3472 154.445 34.4905C154.519 34.6339 154.564 34.7907 154.576 34.9515Z" fill="#263238"/>
<path d="M155.138 30.1452C155.038 30.299 154.038 30.4067 152.829 31.0527C151.621 31.6986 150.913 32.5061 150.751 32.4907C150.589 32.4753 150.751 32.2677 151.051 31.9063C151.511 31.3962 152.059 30.9718 152.668 30.6528C153.249 30.3284 153.886 30.117 154.546 30.0299C155 29.9837 155.192 30.0683 155.138 30.1452Z" fill="#263238"/>
<path d="M141.799 35.6206C141.814 35.9506 141.697 36.273 141.475 36.5178C141.253 36.7626 140.944 36.91 140.614 36.9279C140.453 36.9448 140.291 36.9294 140.136 36.8826C139.981 36.8357 139.838 36.7584 139.714 36.6552C139.59 36.5519 139.487 36.4249 139.413 36.2815C139.339 36.1382 139.294 35.9814 139.282 35.8205C139.271 35.4916 139.389 35.1713 139.61 34.9274C139.831 34.6835 140.139 34.535 140.467 34.5132C140.628 34.4963 140.79 34.5117 140.945 34.5585C141.099 34.6054 141.243 34.6827 141.367 34.7859C141.491 34.8892 141.594 35.0162 141.668 35.1596C141.742 35.3029 141.786 35.4597 141.799 35.6206Z" fill="#263238"/>
<path d="M141.645 31.9985C141.468 31.9985 140.644 31.4833 139.336 31.1603C138.027 30.8373 136.942 30.9065 136.827 30.7989C136.711 30.6912 136.965 30.6451 137.435 30.6066C138.12 30.5632 138.809 30.6281 139.474 30.7989C140.119 30.9518 140.733 31.2117 141.291 31.5679C141.599 31.814 141.691 31.9832 141.645 31.9985Z" fill="#263238"/>
<path d="M146.941 42.5571C147.654 42.3192 148.393 42.1668 149.142 42.1033C149.489 42.1033 149.812 41.9803 149.866 41.7419C149.887 41.3855 149.799 41.0311 149.612 40.7268L148.511 38.1045C146.972 34.3825 145.879 31.3141 146.033 31.2603C146.186 31.2065 147.572 34.1671 149.058 37.8892C149.427 38.812 149.781 39.6887 150.112 40.5269C150.339 40.9392 150.416 41.4179 150.328 41.8803C150.28 42.0043 150.204 42.1159 150.107 42.2065C150.01 42.297 149.893 42.3643 149.766 42.4032C149.576 42.4626 149.379 42.4962 149.181 42.5032C148.439 42.6171 147.687 42.6352 146.941 42.5571Z" fill="#263238"/>
<path d="M141.645 26.7539C141.491 27.1153 140.144 26.8769 138.566 26.9846C136.988 27.0923 135.649 27.4768 135.487 27.1307C135.395 26.9692 135.641 26.6309 136.172 26.3002C136.887 25.8939 137.685 25.6563 138.505 25.6057C139.326 25.555 140.147 25.6926 140.906 26.008C141.414 26.2771 141.691 26.577 141.645 26.7539Z" fill="#263238"/>
<path d="M155.108 27.0538C154.807 27.3691 153.637 27.0538 152.236 27.0538C150.836 27.0538 149.642 27.2922 149.365 26.9692C149.242 26.8154 149.427 26.5001 149.943 26.2002C150.654 25.8277 151.449 25.6449 152.252 25.6696C153.061 25.664 153.857 25.8708 154.561 26.2694C155.069 26.5847 155.238 26.9077 155.108 27.0538Z" fill="#263238"/>
<path d="M159.957 19.8174C159.879 19.4137 159.656 19.0525 159.33 18.8018C159.004 18.5511 158.597 18.4282 158.186 18.4563C158.629 18.3302 159.042 18.1186 159.403 17.8334C159.582 17.6889 159.717 17.4967 159.792 17.2791C159.867 17.0614 159.878 16.8271 159.826 16.603C159.595 15.9185 158.718 15.7724 158.025 15.5802C157.115 15.3161 156.309 14.7792 155.716 14.0421C154.877 12.9809 154.553 11.5967 153.822 10.4509C153.35 9.71115 152.718 9.08665 151.972 8.62337C151.226 8.16009 150.386 7.86981 149.513 7.77389C148.64 7.67797 147.756 7.77886 146.928 8.06913C146.099 8.3594 145.346 8.83166 144.724 9.45115C144.045 8.75366 143.209 8.2282 142.286 7.91846C141.362 7.60873 140.378 7.52366 139.415 7.67032C138.453 7.81698 137.539 8.19114 136.75 8.76169C135.961 9.33225 135.319 10.0827 134.879 10.9507C133.698 10.4587 132.407 10.293 131.14 10.4708C129.873 10.6486 128.677 11.1635 127.678 11.9615C126.679 12.7594 125.912 13.8112 125.459 15.0066C125.006 16.202 124.884 17.4971 125.104 18.7562L130.615 22.1321C130.66 21.7134 130.793 21.3089 131.006 20.9453C131.218 20.5818 131.506 20.2675 131.849 20.0233C132.193 19.7791 132.584 19.6105 132.998 19.5286C133.411 19.4467 133.837 19.4534 134.248 19.5483C135.911 20.0327 136.973 21.9553 138.697 22.086C140.044 22.186 141.191 21.1478 142.492 20.8017C144.07 20.3788 145.74 21.0094 147.164 21.8091C148.588 22.6089 149.95 23.6086 151.536 24.0085C153.43 24.3878 155.396 24.1535 157.147 23.3395C157.925 23.0669 158.634 22.6287 159.226 22.0552C159.517 21.7675 159.736 21.4142 159.863 21.0249C159.99 20.6357 160.022 20.2216 159.957 19.8174Z" fill="#263238"/>
<path d="M131.546 19.5329L156.793 19.3945C155.882 17.6993 154.559 16.2606 152.945 15.211C149.592 12.7635 145.551 11.4366 141.399 11.4198C137.281 11.4198 129.045 16.7029 126.143 19.6175C123.834 21.9245 123.895 23.9162 123.895 23.9162C123.603 27.1922 125.535 30.8373 126.358 34.0441C126.774 35.6898 127.644 40.673 127.644 40.673C129.029 40.6345 129.514 39.5118 129.268 38.1429L128.86 32.7599C130.222 31.6244 131.176 30.0759 131.578 28.3493C131.979 26.6228 131.806 24.8126 131.084 23.1934C130.738 22.7166 129.907 20.4941 131.546 19.5329Z" fill="#263238"/>
<path d="M128.498 32.4061C127.213 27.9458 126.027 23.178 127.397 18.7177H126.628L126.32 18.9407C125.608 18.7018 124.839 18.6956 124.123 18.9231C123.408 19.1505 122.783 19.5998 122.341 20.2057C121.898 20.8117 121.66 21.5427 121.661 22.2929C121.663 23.0431 121.903 23.7733 122.348 24.3776C121.597 24.371 120.87 24.6386 120.303 25.13C119.736 25.6214 119.368 26.3028 119.269 27.0461C119.272 28.0818 119.556 29.0974 120.093 29.9837C120.63 30.8727 120.959 31.8718 121.055 32.906C121.087 33.421 120.937 33.9308 120.63 34.3458C120.323 34.7608 119.879 35.0543 119.377 35.1746C119.62 35.6992 120.037 36.1241 120.557 36.3776C121.077 36.6311 121.669 36.6978 122.232 36.5665C121.873 37.4431 121.273 38.2002 120.501 38.7505C122.148 39.8732 124.403 39.5195 126.189 38.6197C127.297 38.1745 128.201 37.3366 128.729 36.2666C129.222 35.0284 128.852 33.6673 128.498 32.4061Z" fill="#263238"/>
<path d="M128.082 37.6123C127.928 37.5508 121.925 35.9743 122.302 42.0111C122.679 48.0478 128.652 46.456 128.652 46.2791C128.652 46.1022 128.082 37.6123 128.082 37.6123Z" fill="#FFBE9D"/>
<path d="M127.205 44.0874C127.205 44.0874 127.105 44.1643 126.928 44.2566C126.689 44.3751 126.413 44.3971 126.158 44.3181C125.504 44.1182 124.911 43.1415 124.819 42.0495C124.772 41.5278 124.843 41.0022 125.027 40.5115C125.076 40.3174 125.172 40.1382 125.306 39.9894C125.44 39.8407 125.608 39.7269 125.796 39.6579C125.916 39.6207 126.044 39.6256 126.161 39.6718C126.277 39.718 126.374 39.8027 126.435 39.9117C126.528 40.0732 126.489 40.1962 126.528 40.2116C126.566 40.227 126.651 40.0962 126.589 39.8501C126.54 39.7065 126.449 39.5807 126.327 39.4887C126.242 39.4292 126.146 39.3877 126.044 39.3665C125.942 39.3454 125.837 39.3451 125.735 39.3657C125.49 39.4299 125.265 39.5554 125.082 39.7303C124.899 39.9051 124.763 40.1237 124.688 40.3654C124.466 40.9056 124.374 41.4903 124.419 42.0726C124.534 43.2876 125.188 44.3796 126.112 44.5949C126.276 44.631 126.446 44.6303 126.609 44.5931C126.773 44.5559 126.927 44.483 127.059 44.3796C127.205 44.2335 127.228 44.0951 127.205 44.0874Z" fill="#EB996E"/>
<path d="M121.809 32.6061C121.809 32.6061 121.64 32.3754 121.694 31.8986C121.758 31.5751 121.893 31.2697 122.088 31.0039C122.284 30.7382 122.535 30.5186 122.825 30.3606C123.692 29.948 124.636 29.7202 125.596 29.6915C126.133 29.6916 126.663 29.5648 127.142 29.3216C127.621 29.0784 128.035 28.7256 128.352 28.2919C128.855 27.314 129.022 26.1982 128.829 25.1159C128.683 24.1008 128.413 23.1857 128.283 22.3936C128.039 21.5449 128.052 20.6431 128.321 19.802C128.326 20.6505 128.422 21.496 128.606 22.3244C128.775 23.0934 129.075 23.9932 129.26 25.0621C129.493 26.2447 129.313 27.4712 128.752 28.538C128.418 29.0894 127.913 29.5163 127.313 29.753C126.776 29.9522 126.213 30.0764 125.642 30.1222C124.732 30.1275 123.831 30.3049 122.987 30.6451C122.722 30.7809 122.488 30.9677 122.296 31.1947C122.105 31.4218 121.96 31.6845 121.871 31.9678C121.836 32.179 121.816 32.3922 121.809 32.6061Z" fill="#455A64"/>
<path d="M120.347 29.9837C120.347 29.9837 120.216 29.8146 120.162 29.4377C120.1 28.9064 120.205 28.3688 120.462 27.8997C120.639 27.5664 120.883 27.2732 121.178 27.0384C121.523 26.7796 121.919 26.5962 122.34 26.5001C122.749 26.4127 123.137 26.2511 123.487 26.0233C123.642 25.8852 123.763 25.7137 123.842 25.5219C123.92 25.33 123.955 25.1228 123.941 24.916C123.941 24.4622 123.887 23.9778 123.903 23.4933C123.909 23.0305 123.961 22.5695 124.057 22.1168C124.212 21.3518 124.507 20.6219 124.927 19.9635C125.06 19.7219 125.252 19.5174 125.484 19.3683C125.717 19.2193 125.983 19.1305 126.258 19.1099C126.658 19.1099 126.828 19.2945 126.812 19.3099C126.797 19.3252 126.612 19.2407 126.274 19.3099C126.042 19.3592 125.825 19.4612 125.64 19.6079C125.454 19.7546 125.305 19.9421 125.204 20.1558C124.856 20.8008 124.612 21.4962 124.48 22.2167C124.406 22.6434 124.367 23.0756 124.365 23.5087C124.365 23.9547 124.434 24.4315 124.411 24.9544C124.422 25.2282 124.37 25.5008 124.26 25.7514C124.149 26.0021 123.982 26.224 123.772 26.4001C123.375 26.6659 122.926 26.8466 122.456 26.9308C122.105 26.9906 121.772 27.1245 121.477 27.3234C121.182 27.5223 120.933 27.7817 120.747 28.0843C120.431 28.6648 120.292 29.3251 120.347 29.9837Z" fill="#455A64"/>
<path d="M155.723 14.0421C155.762 14.0421 155.269 14.3728 154.476 14.0037C154.03 13.7618 153.639 13.4291 153.329 13.027C152.948 12.5269 152.472 12.1063 151.929 11.7889C151.222 11.3919 150.415 11.2089 149.606 11.2622C148.796 11.3154 148.02 11.6026 147.372 12.0888C146.602 12.6272 145.963 13.3885 145.063 14.0191C144.605 14.3584 144.08 14.5969 143.523 14.7189C142.947 14.8197 142.354 14.7639 141.807 14.5574C140.714 14.1652 139.852 13.4961 138.912 13.1578C138.006 12.8102 137.043 12.6354 136.072 12.6425C134.4 12.6405 132.775 13.1952 131.454 14.219C130.571 14.9078 129.838 15.7686 129.299 16.749C128.921 17.4488 128.783 17.8795 128.744 17.8641C128.706 17.8487 128.744 17.7488 128.806 17.5411C128.893 17.2417 129.001 16.9488 129.129 16.6645C129.626 15.6173 130.349 14.6929 131.246 13.9575C132.597 12.8542 134.281 12.2391 136.026 12.2119C137.053 12.1852 138.076 12.3603 139.036 12.7271C140.052 13.0962 140.929 13.7653 141.922 14.1113C142.393 14.2923 142.903 14.3428 143.4 14.2575C143.882 14.1471 144.335 13.9376 144.732 13.6422C145.54 13.0655 146.217 12.3042 147.041 11.7351C147.802 11.1652 148.73 10.86 149.681 10.8661C150.492 10.872 151.288 11.0894 151.99 11.4967C152.552 11.8549 153.041 12.3168 153.43 12.8579C153.699 13.253 154.048 13.5881 154.453 13.8422C154.835 14.0692 155.29 14.1408 155.723 14.0421Z" fill="#455A64"/>
<path d="M143.585 44.1412C143.777 44.1412 143.993 45.387 145.255 46.1176C146.517 46.8481 147.864 46.479 147.91 46.6559C147.957 46.8328 147.641 46.9635 147.064 47.0712C146.309 47.2111 145.53 47.0804 144.862 46.702C144.223 46.3325 143.749 45.7327 143.538 45.0256C143.4 44.495 143.492 44.1489 143.585 44.1412Z" fill="#263238"/>
<path d="M223.236 164.299C220.892 162.288 217.852 161.277 214.769 161.485L209.566 177.995C213.376 178.164 217.178 180.125 220.858 179.118C222.327 178.665 223.636 177.802 224.63 176.63C225.625 175.458 226.263 174.027 226.469 172.505C226.629 170.978 226.419 169.435 225.856 168.007C225.293 166.579 224.395 165.307 223.236 164.299Z" fill="#FF725E"/>
<path d="M214.83 161.108C214.83 160.977 215.392 160.869 216.37 160.877C217.824 160.904 219.264 161.177 220.627 161.685C222.709 162.495 224.511 163.892 225.814 165.706C226.611 166.782 227.198 167.998 227.546 169.29C227.923 170.704 227.965 172.186 227.67 173.62C227.383 175.072 226.734 176.429 225.784 177.565C224.873 178.599 223.72 179.392 222.428 179.872C220.328 180.613 218.063 180.76 215.885 180.295C214.483 180.02 213.115 179.595 211.805 179.026C210.89 178.634 210.405 178.341 210.451 178.211C210.497 178.08 211.051 178.118 211.99 178.28C212.929 178.441 214.353 178.741 216.047 178.895C217.967 179.108 219.91 178.844 221.704 178.126C222.688 177.711 223.558 177.067 224.244 176.25C224.964 175.355 225.455 174.3 225.676 173.174C225.887 172.058 225.871 170.91 225.629 169.801C225.387 168.691 224.924 167.641 224.267 166.714C223.207 165.109 221.748 163.805 220.034 162.93C218.819 162.358 217.547 161.914 216.239 161.608C215.354 161.408 214.815 161.246 214.83 161.108Z" fill="#F5F5F5"/>
<path d="M166.623 223.052L155.308 254.727L194.679 268.992C195.818 265.147 178.184 250.228 178.184 250.228L186.266 230.234L166.623 223.052Z" fill="#FF725E"/>
<g opacity="0.6">
<path opacity="0.6" d="M166.63 244.115C166.21 244.092 165.795 244.226 165.467 244.49C165.139 244.754 164.92 245.13 164.852 245.545C164.815 245.963 164.939 246.38 165.2 246.709C165.46 247.038 165.837 247.255 166.253 247.314C166.702 247.338 167.143 247.193 167.491 246.909C167.838 246.624 168.067 246.22 168.131 245.776C168.131 244.938 167.3 243.976 166.469 244.092" fill="white"/>
</g>
<path d="M155.308 254.727L156.455 251.536L193.848 266.439C193.848 266.439 195.326 267.831 194.679 268.992L155.308 254.727Z" fill="white"/>
<path d="M178.9 250.259C178.823 250.451 177.83 250.19 176.66 250.467C175.49 250.744 174.689 251.367 174.543 251.236C174.397 251.105 175.082 250.09 176.506 249.782C177.93 249.475 179 250.098 178.9 250.259Z" fill="#263238"/>
<path d="M182.44 253.466C182.44 253.666 181.463 253.689 180.516 254.235C179.569 254.781 179.069 255.604 178.877 255.527C178.684 255.45 178.961 254.32 180.154 253.62C181.347 252.92 182.44 253.281 182.44 253.466Z" fill="#263238"/>
<path d="M182.956 259.249C182.772 259.249 182.849 258.172 183.726 257.296C184.604 256.419 185.65 256.334 185.673 256.527C185.697 256.719 184.942 257.073 184.234 257.803C183.526 258.534 183.156 259.303 182.956 259.249Z" fill="#263238"/>
<path d="M180.231 245.499C180.085 245.645 179.3 245.061 178.192 244.73C177.083 244.399 176.106 244.445 176.067 244.246C176.029 244.046 177.083 243.653 178.376 244.053C179.669 244.453 180.385 245.384 180.231 245.499Z" fill="#263238"/>
<path d="M180.986 240.493C180.279 240.431 179.601 240.181 179.023 239.77C178.356 239.388 177.74 238.923 177.191 238.386C176.862 238.072 176.556 237.735 176.275 237.378C176.098 237.176 175.952 236.948 175.844 236.702C175.767 236.519 175.753 236.317 175.804 236.126C175.856 235.935 175.97 235.766 176.129 235.648C176.273 235.549 176.439 235.485 176.613 235.461C176.786 235.437 176.963 235.454 177.129 235.51C177.379 235.599 177.615 235.723 177.83 235.879C178.214 236.135 178.575 236.426 178.907 236.748C179.464 237.286 179.931 237.909 180.293 238.593C180.688 239.192 180.89 239.898 180.87 240.616C180.763 240.616 180.532 239.885 179.862 238.847C179.465 238.25 178.994 237.705 178.461 237.224C178.146 236.942 177.809 236.685 177.453 236.455C177.076 236.194 176.721 236.063 176.552 236.209C176.383 236.356 176.467 236.294 176.514 236.448C176.594 236.629 176.7 236.797 176.829 236.948C177.082 237.289 177.357 237.613 177.653 237.917C178.152 238.442 178.701 238.919 179.292 239.339C180.308 240.07 181.032 240.393 180.986 240.493Z" fill="#263238"/>
<path d="M180.639 240.693C180.473 239.995 180.532 239.263 180.809 238.601C181.042 237.86 181.398 237.163 181.863 236.54C182.142 236.174 182.454 235.834 182.795 235.525C182.997 235.305 183.253 235.14 183.537 235.046C183.821 234.952 184.125 234.931 184.419 234.987C184.593 235.056 184.743 235.173 184.854 235.324C184.964 235.475 185.029 235.654 185.042 235.84C185.057 236.098 185.036 236.357 184.981 236.609C184.859 237.233 184.615 237.827 184.26 238.356C183.906 238.884 183.45 239.336 182.918 239.685C181.779 240.454 180.893 240.362 180.901 240.293C180.909 240.224 181.671 240.047 182.625 239.278C183.168 238.836 183.609 238.283 183.918 237.655C184.098 237.29 184.225 236.902 184.296 236.502C184.388 236.063 184.349 235.663 184.18 235.656C184.007 235.649 183.834 235.681 183.674 235.749C183.515 235.816 183.372 235.919 183.256 236.048C182.937 236.318 182.644 236.616 182.379 236.94C181.928 237.491 181.56 238.105 181.286 238.762C180.809 239.924 180.755 240.693 180.639 240.693Z" fill="#263238"/>
<path d="M128.483 138.46C122.51 138.599 116.844 139.437 112.726 143.767C107.269 149.511 100.526 157.686 100.141 163.353C99.5718 171.812 104.69 174.35 108.424 176.426C110.075 177.319 111.936 177.752 113.812 177.68L182.841 177.157L185.004 165.476L140.36 154.479L142.215 137.691L128.483 138.46Z" fill="#263238"/>
<path d="M142.253 137.684L163.967 136.684C163.967 136.684 201.484 138.768 209.481 146.097C217.478 153.425 216.486 161.754 213.815 169.744C211.144 177.734 187.644 228.865 187.644 228.865C187.644 228.865 189.553 232.118 188.483 235.363C188.05 236.785 187.255 238.069 186.175 239.091C185.096 240.113 183.769 240.837 182.325 241.193L161.45 233.502C161.45 233.502 158.617 232.503 160.619 229.834C162.62 227.166 163.952 226.674 163.952 226.674V221.344C163.952 221.344 171.287 208.017 171.949 206.187C172.611 204.357 179.646 177.242 179.646 177.242L184.319 169.221C184.319 169.221 173.027 163.915 163.236 160.07L140.375 154.44L142.253 137.684Z" fill="#263238"/>
<path d="M177.476 232.564C176.844 232.197 176.233 231.797 175.644 231.365C172.695 229.456 169.373 228.195 165.899 227.666C165.171 227.595 164.446 227.487 163.729 227.343C164.461 227.258 165.201 227.271 165.93 227.381C169.49 227.761 172.892 229.054 175.806 231.134C176.423 231.535 176.984 232.016 177.476 232.564Z" fill="#455A64"/>
<path d="M187.905 228.904C187.45 228.531 187.044 228.102 186.697 227.627C185.989 226.804 185.05 225.635 184.072 224.297C183.095 222.959 182.248 221.721 181.671 220.806C181.327 220.327 181.037 219.811 180.809 219.268C181.222 219.686 181.588 220.147 181.902 220.645L184.396 224.059C185.327 225.32 186.181 226.458 186.92 227.45C187.301 227.898 187.631 228.385 187.905 228.904Z" fill="#455A64"/>
<path d="M195.526 161.931C195.526 161.992 194.756 162.161 193.548 162.561C190.383 163.604 187.516 165.393 185.188 167.775C184.734 168.299 184.254 168.799 183.749 169.275C184.075 168.654 184.489 168.084 184.981 167.583C186.1 166.319 187.397 165.224 188.829 164.33C190.261 163.43 191.817 162.743 193.448 162.292C194.118 162.067 194.819 161.945 195.526 161.931Z" fill="#455A64"/>
<path d="M174.204 198.136C174.213 197.981 174.242 197.829 174.289 197.682L174.612 196.413L175.859 191.761L180.131 176.45C181.001 173.458 181.74 170.613 182.579 168.029C183.465 165.784 184.804 163.744 186.512 162.038C187.64 160.883 188.889 159.851 190.238 158.962C190.723 158.655 191.1 158.424 191.369 158.286C191.498 158.204 191.635 158.134 191.777 158.078C191.777 158.078 191.254 158.432 190.33 159.085C189.026 160.015 187.815 161.069 186.712 162.231C185.064 163.93 183.776 165.944 182.925 168.152C182.156 170.697 181.386 173.581 180.516 176.557L176.136 191.83C175.567 193.745 175.097 195.306 174.759 196.444C174.597 196.951 174.474 197.367 174.366 197.69C174.333 197.845 174.278 197.995 174.204 198.136Z" fill="#455A64"/>
<path d="M155 159.078C154.884 159.078 154.43 155.033 153.976 150.019C153.522 145.005 153.206 140.929 153.36 140.921C153.514 140.914 153.922 144.966 154.376 149.98C154.83 154.994 155.108 159.07 155 159.078Z" fill="#455A64"/>
<path d="M118.853 169.944C118.792 169.944 118.461 169.321 117.776 168.36C116.891 167.109 115.831 165.993 114.628 165.045C113.415 164.109 112.075 163.351 110.648 162.792C109.547 162.361 108.832 162.2 108.847 162.131C109.495 162.161 110.134 162.293 110.74 162.523C113.751 163.514 116.322 165.521 118.014 168.198C118.388 168.73 118.671 169.32 118.853 169.944Z" fill="#455A64"/>
<path d="M132.154 155.179C132.154 155.24 131.2 154.656 129.606 153.925C125.426 152.028 120.789 151.366 116.244 152.018C114.512 152.264 113.458 152.572 113.442 152.503C113.666 152.376 113.907 152.283 114.158 152.226C114.827 152.019 115.508 151.855 116.198 151.734C120.795 150.928 125.529 151.606 129.714 153.671C130.342 153.981 130.948 154.33 131.531 154.717C131.759 154.841 131.969 154.997 132.154 155.179Z" fill="#455A64"/>
<path d="M184.157 165.453C183.972 165.443 183.788 165.412 183.611 165.36L182.071 165.03L176.452 163.792C171.703 162.73 165.129 161.3 157.84 159.862C150.551 158.424 143.931 157.232 139.136 156.409L133.448 155.432L131.908 155.163C131.726 155.142 131.548 155.098 131.377 155.033C131.56 155.038 131.742 155.053 131.923 155.079L133.463 155.279C134.81 155.463 136.757 155.755 139.167 156.132C143.977 156.901 150.612 158.024 157.909 159.47C165.206 160.916 171.764 162.384 176.506 163.515C178.869 164.084 180.786 164.561 182.102 164.907L183.641 165.307C183.817 165.34 183.99 165.389 184.157 165.453Z" fill="#455A64"/>
<path d="M140.398 156.448C140.321 156.448 140.159 155.54 139.443 154.248C139.025 153.503 138.507 152.817 137.904 152.21C137.144 151.462 136.337 150.764 135.487 150.119C133.922 148.963 132.267 147.935 130.538 147.043C129.806 146.695 129.101 146.294 128.429 145.843C129.203 146.088 129.953 146.404 130.669 146.789C132.455 147.616 134.152 148.624 135.733 149.796C136.594 150.452 137.407 151.169 138.166 151.941C138.784 152.581 139.303 153.309 139.705 154.102C139.982 154.638 140.191 155.207 140.329 155.794C140.392 156.006 140.416 156.227 140.398 156.448Z" fill="#455A64"/>
<path d="M217.286 166.868C217.371 166.96 216.216 168.121 215.315 169.898C214.415 171.674 214.122 173.274 214.007 173.25C214.004 172.007 214.334 170.786 214.961 169.713C215.472 168.576 216.274 167.595 217.286 166.868Z" fill="#263238"/>
<g opacity="0.3">
<path opacity="0.3" d="M167.877 88.0748L172.819 122.85L173.065 123.403C174.224 111.381 172.444 99.2577 167.877 88.0748Z" fill="black"/>
</g>
<path d="M194.487 108.054L178.422 136.107L138.835 136.969L138.735 138.76L177.068 138.476L178.284 138.43L218.756 138.514L226.938 124.418L237.391 109.453C237.542 109.231 237.63 108.972 237.645 108.704C237.66 108.436 237.601 108.169 237.475 107.931C237.349 107.694 237.161 107.496 236.93 107.357C236.7 107.219 236.436 107.146 236.167 107.146L195.764 107.3C195.504 107.302 195.248 107.373 195.024 107.505C194.8 107.637 194.614 107.827 194.487 108.054Z" fill="#E0E0E0"/>
<path d="M226.938 124.441C226.938 124.441 229.017 126.348 228.693 127.963C228.37 129.578 228.47 130.786 226.938 130.893C226.967 131.484 226.767 132.064 226.38 132.512C225.994 132.959 225.449 133.242 224.86 133.3C224.86 133.3 225.33 135.838 222.374 136.276C222.374 136.276 221.466 138.991 219.603 138.33C218.529 137.965 217.497 137.488 216.524 136.907L215.978 135.923C215.978 135.923 213.23 134.892 213.907 133.346C214.323 132.408 215.739 132.162 215.739 132.162C215.576 131.777 215.507 131.358 215.538 130.941C215.568 130.524 215.698 130.12 215.916 129.763C216.57 128.879 218.71 129.609 218.71 129.609C218.666 128.852 218.907 128.105 219.387 127.517C220.157 126.648 223.529 128.994 223.529 128.994L225.384 126.779L226.938 124.441Z" fill="#FFBE9D"/>
<path d="M222.374 136.276C221.174 135.766 220.029 135.134 218.956 134.392C217.814 133.762 216.741 133.015 215.754 132.162C216.953 132.678 218.098 133.311 219.172 134.054C220.311 134.685 221.384 135.43 222.374 136.276Z" fill="#EB996E"/>
<path d="M224.86 133.3C223.744 132.862 222.68 132.3 221.689 131.624C220.63 131.063 219.636 130.388 218.725 129.609C219.844 130.044 220.908 130.606 221.897 131.286C222.956 131.846 223.949 132.522 224.86 133.3Z" fill="#EB996E"/>
<path d="M221.473 127.733C221.535 127.617 222.805 128.286 224.283 129.225C225.199 129.753 226.081 130.339 226.923 130.978C226.869 131.109 225.545 130.509 224.067 129.563C223.14 129.046 222.271 128.432 221.473 127.733Z" fill="#EB996E"/>
<path d="M237.391 108.223C237.327 108.233 237.262 108.233 237.199 108.223H236.629H234.443L226.407 108.284L199.89 108.346H197.958C197.673 108.319 197.387 108.369 197.128 108.491C196.869 108.612 196.648 108.801 196.488 109.038C195.872 110.135 195.272 111.217 194.687 112.283L191.269 118.435L185.473 128.84C183.826 131.778 182.479 134.162 181.532 135.846C181.078 136.615 180.709 137.276 180.447 137.738L180.154 138.222L180.047 138.383C180.047 138.383 180.047 138.314 180.116 138.199L180.378 137.691L181.401 135.769L185.25 128.702L190.977 118.251C192.054 116.29 193.194 114.229 194.364 112.099L196.172 108.83C196.37 108.538 196.641 108.303 196.959 108.149C197.276 107.995 197.629 107.927 197.981 107.954H199.913L226.43 108.008L234.466 108.077L236.652 108.115H237.222C237.284 108.142 237.341 108.178 237.391 108.223Z" fill="#263238"/>
<path d="M208.911 122.334C208.724 122.604 208.62 122.923 208.609 123.251C208.599 123.579 208.684 123.903 208.853 124.185C209.023 124.466 209.27 124.693 209.565 124.837C209.86 124.982 210.191 125.038 210.517 125C210.844 124.962 211.152 124.83 211.405 124.621C211.659 124.412 211.847 124.134 211.946 123.821C212.045 123.508 212.052 123.173 211.966 122.856C211.88 122.539 211.704 122.254 211.459 122.034C211.08 121.739 210.6 121.605 210.123 121.661C209.646 121.717 209.211 121.959 208.911 122.334Z" fill="white"/>
<g opacity="0.3">
<path opacity="0.3" d="M96.5313 111.499C96.1926 111.637 95.8 111.868 95.8 112.268C95.8123 112.417 95.8745 112.557 95.9765 112.666C96.0785 112.774 96.2143 112.846 96.3619 112.868C96.9265 112.788 97.4795 112.641 98.0092 112.429C102.173 111.514 105.599 112.391 109.555 113.967L109.686 113.837C108.116 110.43 101.011 109.676 96.5313 111.499Z" fill="black"/>
</g>
<path d="M310.985 267.608C310.985 267.716 241.363 267.808 155.5 267.808C69.6371 267.808 0.0153809 267.685 0.0153809 267.608C0.0153809 267.531 69.6217 267.408 155.5 267.408C241.378 267.408 310.985 267.462 310.985 267.608Z" fill="#263238"/>
<path d="M146.179 1.4765C146.177 1.76916 146.088 2.05477 145.924 2.29703C145.76 2.5393 145.527 2.7273 145.256 2.83716C144.984 2.94702 144.686 2.97378 144.399 2.91405C144.112 2.85431 143.85 2.71079 143.645 2.50168C143.44 2.29258 143.302 2.02734 143.248 1.73964C143.194 1.45194 143.227 1.15476 143.343 0.885852C143.459 0.616943 143.652 0.388433 143.897 0.229337C144.143 0.0702405 144.431 -0.0122624 144.724 -0.00769354C145.113 -0.00162152 145.484 0.157668 145.757 0.435571C146.029 0.713474 146.181 1.08754 146.179 1.4765Z" fill="#FF725E"/>
<path d="M176.606 18.8562L177.722 21.9783L184.326 20.8787L182.995 18.0795L176.606 18.8562Z" fill="#FF725E"/>
<path d="M109.809 0.838226L107.769 3.46055L112.241 8.42836L113.889 5.80604L109.809 0.838226Z" fill="#455A64"/>
<path d="M168.916 36.6203L179.785 37.82C183.454 32.6301 188.934 28.9989 195.147 27.6402C201.36 26.2815 207.856 27.2934 213.36 30.4771C218.865 33.6609 222.978 38.7862 224.892 44.8457C226.806 50.9052 226.382 57.4609 223.704 63.2241C221.026 68.9874 216.287 73.5416 210.419 75.9917C204.55 78.4417 197.977 78.6104 191.991 76.4646C186.004 74.3188 181.038 70.0138 178.067 64.3955C175.096 58.7772 174.336 52.2519 175.936 46.1022L168.916 36.6203Z" fill="#FAFAFA"/>
<path d="M168.916 36.6203C169.34 37.1894 171.541 40.0962 176.036 46.0561H175.875C175.88 46.0434 175.888 46.0322 175.899 46.0231C175.909 46.014 175.921 46.0074 175.935 46.0037C175.948 46.0001 175.962 45.9994 175.975 46.0018C175.989 46.0042 176.002 46.0096 176.013 46.0176C176.031 46.0284 176.045 46.0447 176.054 46.064C176.062 46.0833 176.064 46.1048 176.059 46.1253C174.958 50.4395 175.016 54.9679 176.229 59.2523C176.585 60.5379 177.056 61.7888 177.637 62.9897C177.945 63.6049 178.238 64.2355 178.569 64.8584L179.716 66.6809C183.378 71.9851 188.918 75.7035 195.218 77.0857C198.705 77.8514 202.315 77.8671 205.809 77.1318C209.492 76.3311 212.953 74.7295 215.947 72.4408C219.081 70.0624 221.602 66.9696 223.297 63.4203C225.053 59.8114 225.919 55.8351 225.822 51.8236C225.71 47.9862 224.737 44.2228 222.974 40.8114C221.316 37.5775 218.967 34.7473 216.093 32.5215C210.915 28.5233 204.399 26.6625 197.889 27.323C195.138 27.6528 192.452 28.3942 189.922 29.5223C185.896 31.381 182.428 34.2603 179.862 37.8738C179.854 37.8885 179.841 37.9003 179.826 37.9072C179.811 37.9142 179.793 37.9159 179.777 37.9122L168.916 36.6203L179.8 37.72L179.708 37.7661C182.266 34.1037 185.751 31.1847 189.807 29.307C192.349 28.1364 195.057 27.3635 197.835 27.0154C204.434 26.3172 211.05 28.1843 216.308 32.2292C219.232 34.4814 221.622 37.3517 223.305 40.6345C225.105 44.0951 226.097 47.9178 226.207 51.816C226.308 55.8905 225.432 59.9301 223.651 63.5972C221.926 67.2013 219.363 70.3413 216.177 72.7561C213.135 75.0764 209.619 76.6989 205.879 77.5086C202.323 78.2558 198.648 78.2322 195.102 77.4394C188.736 76.0372 183.141 72.2679 179.454 66.8963L178.299 65.0506C177.968 64.4201 177.676 63.7741 177.36 63.1512C176.781 61.9343 176.312 60.6681 175.959 59.3677C174.752 55.0374 174.72 50.4642 175.867 46.1176L176.052 46.1868C176.037 46.2091 176.015 46.2254 175.99 46.2325C175.964 46.2396 175.937 46.237 175.913 46.2252L168.916 36.6203Z" fill="#263238"/>
<path d="M188.399 40.0761C188.412 40.2427 188.412 40.4099 188.399 40.5765C188.399 40.9354 188.399 41.3922 188.399 41.9687C188.399 43.2303 188.399 44.9815 188.464 47.2003C188.464 51.7141 188.54 58.0769 188.594 65.6905L188.346 65.4404H213.751C213.815 65.3751 213.222 65.9733 213.47 65.7123V62.2318C213.47 61.0897 213.47 59.9477 213.47 58.8165V52.1927C213.47 47.9073 213.47 43.8503 213.47 40.1196L213.707 40.3698L195.353 40.2393L190.159 40.1849H188.777H188.281H188.723H190.062L195.191 40.1196L213.686 40H213.934V40.2393C213.934 43.97 213.934 48.0269 213.934 52.3123V65.7014C214.193 65.4512 213.6 66.0603 213.654 65.9951H188.248H188V65.7014C188 58.0225 188.086 51.6162 188.119 47.0698C188.119 44.8945 188.119 43.1325 188.184 41.8925C188.184 41.3378 188.184 40.8919 188.184 40.5438C188.234 40.3789 188.307 40.2216 188.399 40.0761Z" fill="#263238"/>
<path d="M210.973 44.0127C211.342 44.3059 207.907 49.2582 203.287 55.0794C202.374 56.2415 201.472 57.3492 200.635 58.3375L200.091 59L199.483 58.4461C195.482 54.8513 192.776 52.0928 193.015 51.8104C193.254 51.528 196.395 53.8087 200.537 57.2406L199.374 57.3492C200.167 56.2632 201.037 55.1771 201.961 54.0259C206.57 48.2048 210.614 43.7303 210.973 44.0127Z" fill="#008944"/>
</g>
<defs>
<clipPath id="clip0_936:2988">
<rect width="311" height="269" fill="white"/>
</clipPath>
</defs>
</svg>
