<svg width="151" height="306" viewBox="0 0 151 306" fill="none" xmlns="http://www.w3.org/2000/svg">
<path d="M149.379 1.95776H2.02222V149.316H149.379V1.95776Z" fill="white"/>
<path d="M72.3508 156.35H1.35229V227.349H72.3508V156.35Z" fill="white"/>
<path d="M149.377 156.35H78.3781V227.349H149.377V156.35Z" fill="white"/>
<path d="M72.3508 234.046H1.35229V305.046H72.3508V234.046Z" fill="white"/>
<path d="M149.377 234.046H78.3781V305.046H149.377V234.046Z" fill="white"/>
<path d="M0.347534 155.345V228.354H73.0215V155.345H0.347534ZM54.6016 195.868C54.6016 210.94 46.5635 216.967 36.1817 216.967C26.1353 216.967 18.7666 211.274 18.7666 196.203V167.401H25.1306V196.203C25.1306 206.92 29.8191 211.609 36.5171 211.609C43.5492 211.609 48.2389 206.92 48.2389 196.203V167.401H54.6016V195.868Z" fill="#0968B0"/>
<path d="M77.7112 155.345V228.354H150.385V155.345H77.7112ZM132.3 216.298H125.937L110.532 191.515C107.182 186.155 103.834 180.462 101.489 175.439H101.155C101.489 181.467 101.489 187.496 101.489 195.534V216.298H95.4617V167.401H102.494L117.899 191.85C121.583 197.543 124.262 202.566 126.607 207.59H126.942C126.272 201.227 126.272 195.198 126.272 187.831V167.401H132.3V216.298Z" fill="#0968B0"/>
<path d="M112.874 249.788C110.194 249.788 108.186 250.124 106.846 250.458V269.213C108.186 269.547 109.86 269.883 111.869 269.883C119.572 269.883 123.925 266.199 123.925 259.501C124.595 252.803 119.906 249.788 112.874 249.788Z" fill="#0968B0"/>
<path d="M77.7112 232.707V305.382H150.385V232.707H77.7112ZM126.942 268.878C123.593 272.562 118.235 274.236 112.206 274.236C110.197 274.236 108.522 274.236 107.182 273.901V293.326H100.82V245.434C103.834 244.764 107.853 244.429 112.876 244.429C119.239 244.429 123.593 245.769 126.607 248.448C129.286 250.792 130.96 254.142 130.96 258.495C130.626 262.849 129.621 266.533 126.942 268.878Z" fill="#0968B0"/>
<path d="M32.1639 249.119C28.8143 249.119 26.4707 249.453 24.7952 249.788V288.303C26.4707 288.637 28.8143 288.637 31.1592 288.637C44.5552 288.637 51.9226 281.269 51.9226 267.873C51.9226 256.486 45.56 249.119 32.1639 249.119Z" fill="#0968B0"/>
<path d="M0.347534 232.707V305.382H73.0215V232.707H0.347534ZM51.5873 286.627C46.8988 291.316 39.5314 293.661 30.1531 293.661C25.4647 293.661 21.7809 293.661 18.7666 292.99V245.434C22.7857 244.764 27.1401 244.429 32.1627 244.429C41.2056 244.429 47.5682 246.439 51.9226 250.458C56.2758 254.477 58.9547 260.17 58.9547 267.873C58.6207 275.91 55.9404 282.274 51.5873 286.627Z" fill="#0968B0"/>
<path d="M91.7767 54.5376C89.7671 56.5472 87.7576 58.5567 86.0834 60.5663C86.0834 60.9016 86.4175 60.9017 86.7528 61.2357C86.7528 60.9017 87.0882 60.2309 87.0882 59.8969C87.4223 59.2262 88.427 59.5615 88.7624 59.8969C89.7672 59.5615 90.7719 60.231 91.4413 60.231C92.1108 60.5663 92.1107 61.5711 92.7814 61.9052C93.1155 62.2405 92.7814 62.5759 92.4461 62.5759C92.7814 63.9147 93.4509 62.2405 94.1203 62.5759C94.4556 62.5759 94.791 62.5759 95.125 62.9099C95.125 63.5806 96.1298 63.2453 96.1298 63.9147C96.1298 64.2501 95.7958 64.2501 95.4604 64.5854C95.7958 65.2549 94.791 65.5902 95.125 66.2597C96.1298 66.595 96.4652 65.2549 96.7992 64.5854C96.4652 63.5806 96.1298 62.5759 95.7957 61.5711C95.1251 61.5711 94.791 60.5663 94.1203 60.5663C92.7814 60.2309 94.4556 59.2262 94.1203 58.5567C93.7862 56.8825 92.7814 55.8777 91.7767 54.5376Z" fill="#0968B0"/>
<path d="M99.1428 75.9722C98.1381 78.6512 97.4686 81.3302 95.7944 83.6751C95.125 84.6799 94.4543 85.6834 93.7849 86.0187L95.4591 87.6929V87.3589C95.4591 87.0235 95.4591 86.6882 95.7944 87.0235C96.7992 87.0235 96.7992 88.0283 97.1333 88.3637C97.1333 89.0331 97.804 89.7025 97.4686 90.3732C102.492 85.014 105.171 78.6512 105.507 71.2836L105.841 70.9482C104.167 71.2836 102.157 70.9482 100.148 70.9482H99.8135C99.8135 72.2871 99.4782 73.2919 99.4782 74.632L100.148 75.3015C100.483 75.6368 100.148 75.9722 100.148 76.3062C99.8135 76.3062 99.4782 76.3062 99.1428 75.9722Z" fill="#0968B0"/>
<path d="M92.112 95.0618L92.4461 94.7265C93.7862 93.7229 94.791 93.0522 96.1311 91.7134C95.7957 91.7134 95.4604 91.7134 95.4604 91.7134C94.791 91.378 94.791 91.0427 94.791 90.3732L92.112 87.6942V87.3589C91.7767 87.6942 91.4413 88.0283 91.1072 88.3637C91.1072 88.699 91.1072 89.0331 91.4413 89.3684C92.112 89.7038 93.1168 90.0379 93.4508 91.0427C93.1168 92.0475 91.4413 92.7181 92.4461 93.7229C92.7814 94.3924 92.112 94.7264 92.112 95.0618Z" fill="#0968B0"/>
<path d="M77.71 84.3445C78.3794 84.3445 77.71 85.014 78.3794 85.3493C79.0488 85.014 79.7195 86.0187 80.3889 85.3493C80.3889 84.3445 81.3937 84.3445 82.0631 84.3445C83.0679 83.6751 84.0726 83.0044 83.7373 81.9996V81.6655C83.0679 81.6655 82.7325 81.9996 82.3985 82.6703C81.7278 83.0044 81.3937 81.9996 81.0583 82.335C81.0583 82.335 81.0583 82.335 81.3937 82.6703C81.3937 82.6703 81.3937 83.0044 81.3937 83.3397C80.7243 84.0092 80.3889 83.0044 79.7195 83.0044V83.3397C79.7195 83.3397 79.7195 83.6751 79.3842 83.6751C79.0488 83.0044 78.044 83.3397 77.71 82.6703C77.3746 82.6703 77.3746 82.6703 77.0393 83.0044C77.0393 83.3397 76.3698 83.0044 76.3698 83.3397C76.0345 83.6751 75.7004 84.0092 75.3651 84.3445C74.6957 84.3445 74.3603 85.014 74.0262 85.014C74.0262 85.014 74.0263 85.3493 74.3603 85.3493C74.6957 85.3493 75.0297 85.6847 75.3651 85.3493C76.0345 84.0092 77.0393 84.6799 77.71 84.3445Z" fill="#0968B0"/>
<path d="M74.3603 102.094H74.025C66.3222 101.425 59.2901 98.7442 53.5956 93.3862V93.7216L49.2424 97.7407C55.6051 103.099 62.6385 106.782 70.6766 107.787C72.0154 108.123 73.3555 107.787 74.6944 108.123L74.3603 107.787V102.094Z" fill="#0968B0"/>
<path d="M78.044 62.5757C78.3794 62.9098 78.7147 62.2404 79.0488 62.2404C79.7195 62.2404 80.0536 62.9098 80.3889 63.2452C80.7243 63.2452 81.0583 63.2452 81.3937 62.9098C81.729 61.2356 83.7386 61.5709 84.408 59.8967H84.0726C84.0726 59.5614 83.4032 59.8967 83.4032 59.5614C83.7386 59.226 84.0726 58.8919 84.7421 58.5566C83.0679 57.5518 81.0583 56.547 79.0488 55.8776C78.3794 55.5422 77.3746 55.5422 76.7052 55.5422C77.0405 56.547 76.7052 58.2212 77.0405 59.5614L78.3794 59.8967C78.7147 59.226 79.7195 58.8919 80.0536 58.5566C80.3889 58.2212 80.7243 58.5566 80.7243 58.8919C80.7243 59.5614 80.7243 59.8967 80.3889 60.5662C79.7195 61.5709 78.7147 61.9063 78.044 62.5757Z" fill="#0968B0"/>
<path d="M90.7694 82.6688C90.7694 83.3395 90.1 83.6736 90.1 84.3443C89.7646 84.6784 89.4306 84.6784 89.0952 84.6784C87.421 84.009 85.7468 83.6736 84.0714 83.6736L83.7373 84.009C84.4067 84.3443 85.4115 84.3443 86.0809 84.6784C86.7516 85.0138 87.0857 85.6832 88.0904 85.3491C88.7611 85.0138 90.1 85.6832 90.4353 84.6784C90.4353 84.009 91.1047 83.3395 91.4401 82.6688H91.7742C92.1095 83.0042 92.1095 83.6736 92.4449 84.009C93.1143 83.3395 93.4496 82.6688 93.7837 81.9994C95.1238 79.9898 96.1286 77.9803 96.798 75.9707C96.1286 75.9707 95.7932 75.9707 95.1238 76.3061C94.4544 76.3061 93.7837 76.6414 93.4496 76.3061C93.1143 76.3061 93.1143 76.3061 93.1143 76.6414C92.7789 76.9755 92.7789 77.3108 92.1095 77.3108C91.7741 77.3108 91.7742 76.6414 91.7742 76.6414C91.7742 76.9755 91.7742 76.9755 91.7742 77.3108C91.4401 77.6462 91.1047 78.3156 90.7694 78.651C90.4353 78.9851 89.7646 78.9851 89.0952 79.3204C89.0952 80.3252 88.0904 79.9898 87.421 80.3252C87.421 80.3252 87.421 80.3252 87.421 80.6593C87.7564 80.6593 88.0904 80.6593 88.4258 80.3252C89.4306 80.6593 89.0952 79.3204 89.4305 78.9851C89.7646 78.9851 90.1 78.651 90.7694 78.9851C91.1047 79.6545 91.4401 80.3252 91.1047 80.9946C90.7694 81.33 91.1047 82.3348 90.7694 82.6688Z" fill="#0968B0"/>
<path d="M81.395 80.667C81.7316 80.3304 82.7414 80.3304 83.078 79.3206C82.4048 79.3206 82.0682 79.6572 81.395 79.9938C81.395 80.3304 81.0584 80.667 81.395 80.667Z" fill="#0968B0"/>
<path d="M76.7052 100.084C78.044 99.7502 80.0536 99.7502 81.3937 99.4149C81.0583 99.4149 80.7243 99.0795 80.3889 98.7454C79.3841 98.7454 79.0488 97.7407 78.7147 97.07C78.7147 96.4005 79.0488 96.0652 79.0488 95.7311C78.7147 95.0604 77.3746 95.3957 76.7052 95.0604C76.3698 95.0604 76.3698 94.7263 76.0358 94.7263L76.3698 95.0604C76.7052 96.7359 76.7052 98.4101 76.7052 100.084Z" fill="#0968B0"/>
<path d="M97.804 92.7168C97.1346 93.7216 96.1298 94.3923 95.1251 95.3971C93.7849 96.7359 91.7754 97.0713 91.106 98.7455C90.4366 99.4149 90.1012 100.42 89.0965 100.755C88.7611 101.76 87.7564 101.76 87.0869 102.429C85.4127 103.769 84.408 101.424 82.7338 101.09L79.7195 101.76C78.7147 101.76 77.71 102.095 76.7052 101.76C76.7052 103.769 76.7052 106.113 76.7052 108.123L77.0405 107.789C86.7516 107.453 95.1251 103.769 102.157 97.0713L97.804 93.0521V92.7168Z" fill="#0968B0"/>
<path d="M94.1203 70.6128L94.7897 71.2835C95.4591 71.6176 95.1251 72.6224 95.7945 72.9577C96.4639 73.2918 96.7993 74.2966 97.1333 74.9673C97.1333 74.6319 97.1333 74.6319 97.4687 74.2966C97.804 73.2918 97.804 71.9529 98.1381 70.9481C96.7993 70.9481 95.1251 71.2835 94.1203 70.6128Z" fill="#0968B0"/>
<path d="M82.7338 48.8442C80.7243 48.1748 78.3794 47.8395 76.3699 47.5054L76.7052 47.8395V53.1987H77.3746C80.7243 53.5328 83.7386 54.8729 86.4175 56.8825V57.2179C87.4223 55.8777 88.7611 54.8729 89.7659 53.5328L90.7707 52.8634L90.4366 52.528C87.7564 51.1892 85.4128 49.849 82.7338 48.8442Z" fill="#0968B0"/>
<path d="M73.3556 84.0092C73.3556 83.3397 73.3556 82.669 73.6896 82.335C74.025 81.9996 74.3603 81.9996 74.6944 81.9996C75.0297 81.9996 75.0298 81.6642 75.0298 81.3302C74.3603 81.3302 74.6944 80.6595 74.3603 80.3254C74.3603 79.99 74.6944 80.3254 74.6944 79.99C74.3603 79.656 75.0297 79.3206 74.6944 78.9852L75.0298 78.6512C73.6896 79.3206 72.6849 78.3158 71.346 77.9805C70.6766 77.6464 70.0059 77.311 70.0059 76.6416C69.0012 77.9805 67.6623 79.3206 66.3222 80.6595C68.3317 82.335 70.6766 83.6738 73.3556 84.0092Z" fill="#0968B0"/>
<path d="M45.56 71.2835L45.8941 74.9673C46.2294 76.3061 46.5648 77.6463 46.5648 78.9851C46.8988 78.6511 46.5648 77.9816 47.2342 77.9816C46.8988 77.6463 47.5695 77.3109 47.2342 76.6415C47.5695 75.6367 47.5695 74.6319 48.2389 73.9625C49.2437 73.9625 49.2437 72.6224 50.2485 72.6224C50.9179 72.6224 51.2532 73.2918 51.2532 73.6271C50.5838 72.9577 50.5838 71.6176 50.9179 70.6128L50.5838 70.9481C48.5743 70.9481 46.8988 70.9481 44.8906 70.9481L45.56 71.2835Z" fill="#0968B0"/>
<path d="M68.6785 75.304L68.0027 74.9661C68.0027 75.304 67.6649 75.9797 67.327 76.3176C67.6649 75.9797 68.0027 75.304 68.6785 75.304Z" fill="#0968B0"/>
<path d="M52.2568 91.7119C51.5873 91.3779 50.9179 90.3731 50.2472 89.7024C49.5778 89.3683 48.9084 89.0329 48.573 88.3635C48.2377 88.0281 48.573 87.6928 48.239 87.6928L47.9036 88.0281C47.2342 88.3635 47.2342 87.6928 46.5635 87.3587C45.8941 87.0234 46.2294 85.6832 45.5587 86.0186C45.2247 86.0186 45.2247 85.6832 44.8893 85.3491C44.2199 85.3491 43.8845 84.6797 43.5492 84.009C43.5492 84.3444 43.5492 84.3444 43.2151 84.6797C42.5444 85.0138 42.2104 84.009 41.5409 83.3396L41.2056 83.6749C40.8702 83.3396 40.5362 82.6701 40.5362 81.9994C39.8655 81.33 40.2008 79.9899 40.2008 79.3204C40.2008 78.9851 40.5362 78.9851 40.5362 78.651C40.8702 78.3157 41.2056 78.3157 41.5409 78.3157L41.875 78.651C42.2103 78.651 42.8798 78.651 42.5444 77.9816C42.8798 77.6462 43.5492 77.6462 43.8845 77.6462C44.2199 77.9816 44.2199 78.651 44.8893 78.9851L44.554 78.651C44.2199 76.6414 43.5492 74.6319 43.5492 72.6223C43.5492 72.6223 43.2151 72.2882 43.5492 72.2882C43.5492 71.9529 43.5492 71.6175 43.5492 71.2834L42.8798 71.6175H37.1865C37.5219 77.9816 39.1961 84.009 42.2104 89.3683C43.5492 92.0473 45.5587 94.3909 47.5683 96.7358L51.5873 92.7167L52.2568 91.7119Z" fill="#0968B0"/>
<path d="M73.6909 94.391C68.667 94.0569 64.648 92.3814 60.6289 89.7024C60.6289 90.0377 61.2996 90.3731 61.2996 91.0425C60.9643 91.712 60.2948 91.712 59.6241 91.712C58.6207 91.3779 57.6159 92.3814 56.6111 92.3814C55.6063 92.7167 55.271 91.3779 54.2662 91.712C59.9595 96.7359 66.3222 99.7502 73.6909 100.084L74.3603 100.42L74.0249 99.7502V94.391H73.6909Z" fill="#0968B0"/>
<path d="M58.622 45.1603C57.2818 46.1651 56.2771 47.1699 54.9382 47.8393C56.2771 48.8441 57.6172 50.1829 58.956 51.5231V51.8584C62.3057 48.5087 66.6588 46.8345 71.0132 45.8297C72.018 45.8297 73.0228 45.4944 74.0275 45.4944C74.0275 43.4853 73.6922 41.4759 74.0275 39.8013C68.3343 40.1362 63.3104 41.8107 58.622 45.1603Z" fill="#0968B0"/>
<path d="M63.9786 74.2978C63.6445 74.2978 63.6445 74.2978 63.6445 74.2978H63.3091C63.3091 73.293 61.9703 73.9624 61.6349 73.293C62.3044 74.2978 62.6397 75.6366 62.9738 76.6414C63.3091 77.6462 63.9786 78.3156 64.6492 79.3204C64.9833 78.651 65.654 77.9815 66.3234 77.3108C66.3234 76.9768 66.3234 76.6414 65.9881 76.6414C65.654 76.3061 65.9881 75.6366 65.654 75.3013C64.9833 75.6366 65.9881 75.972 65.654 76.3061C65.3187 76.3061 65.3187 76.3061 65.3187 75.972C64.9833 75.972 64.6493 75.6366 64.3139 74.9672C64.6493 74.6318 64.3139 74.6318 63.9786 74.2978Z" fill="#0968B0"/>
<path d="M53.5968 65.9242C53.2615 66.9289 53.5968 67.9337 53.2615 68.9385C53.9309 68.6044 54.9357 68.6044 55.6064 68.9385C55.271 68.6044 55.6064 68.2691 55.271 67.9337C55.271 67.5996 55.271 66.9289 55.6064 66.5949C55.6064 65.9242 56.2758 65.2547 56.6111 64.5853C56.9452 63.5805 57.95 64.2499 58.2853 63.9146C58.6194 63.9146 58.2853 63.5805 58.2853 63.2452C58.6194 62.5757 59.2901 62.5757 59.6241 62.5757C59.9595 61.9063 60.2948 61.5709 60.9643 61.2356C62.3044 61.2356 62.3044 59.5614 63.3091 59.5614C61.6337 58.2212 60.2948 56.8824 58.9547 55.5422C56.2758 58.2212 54.6016 61.9063 53.5968 65.9242Z" fill="#0968B0"/>
<path d="M53.2628 49.5148L51.2533 52.1938C47.5695 57.2177 45.8953 62.5757 45.56 68.9385H50.9179L51.5886 69.2739C51.2533 69.2739 51.5886 68.9385 51.2533 68.6044C51.5886 62.9111 53.5969 57.8871 57.6159 53.5327C55.9417 52.1938 54.6016 50.8537 53.2628 49.1794V49.5148Z" fill="#0968B0"/>
<path d="M54.6016 73.9625C54.6016 73.6271 54.2662 73.6271 54.2662 73.2918C54.6016 72.6224 54.2662 71.2835 55.271 70.9481C54.6016 70.9481 53.9309 71.2835 53.2615 70.6128L53.5968 70.9481C53.5968 72.287 54.2662 73.6271 53.9309 74.9673C53.9309 74.9673 53.9309 74.2966 54.6016 73.9625Z" fill="#0968B0"/>
<path d="M56.6111 70.9482V71.953C56.2771 72.6224 55.6064 71.953 55.2723 72.6224C54.937 72.9578 55.2723 73.2931 55.6064 73.6272C54.9369 74.9673 56.9465 75.3027 56.9465 76.3075C57.6159 76.9769 56.9465 77.9817 57.6159 78.6511C57.9512 79.9913 57.2818 81.6655 58.6207 82.6702L58.956 84.0091C59.2901 85.0139 57.9512 84.6798 57.9512 85.3492C58.2866 85.3492 58.2866 85.6846 58.2866 85.6846C59.9608 84.0091 61.635 82.0008 63.3092 80.3253L62.6397 79.6559C61.2996 77.6463 59.9608 75.3027 59.6254 72.6224L58.956 72.2883C58.956 72.9578 58.6207 73.2931 58.6207 73.9625L58.2866 74.2979C57.9513 74.2979 57.6159 73.9625 57.2818 73.6272C57.2818 73.2931 56.9465 72.9578 57.2818 72.9578C57.6159 72.9578 57.6159 72.9578 57.6159 72.9578C57.9512 72.6224 57.6159 72.2883 57.9512 72.2883C57.9512 71.953 57.6159 71.2835 57.9512 70.9482C58.2866 70.9482 58.6207 71.2835 58.6207 71.6176C58.956 71.6176 59.2901 71.2835 59.6254 71.2835C59.6254 70.9482 59.9608 70.6128 59.6254 70.2788C59.9608 69.6093 59.6254 68.6045 59.6254 67.9338C59.2901 67.2644 58.6207 67.2644 58.2866 67.5998C56.6111 68.2692 58.6207 69.274 58.2866 70.2788C57.6159 71.2835 56.9465 70.9482 56.6111 70.9482Z" fill="#0968B0"/>
<path d="M70.3425 87.0235C70.6766 86.6882 71.3473 86.3528 71.6814 86.0187C70.0072 86.3528 68.333 85.014 66.6588 84.3433C65.654 83.6738 64.6493 83.3385 64.3139 82.335C62.9738 83.6738 61.635 85.348 60.2949 86.3528C60.9643 86.3528 61.2996 87.0235 61.635 87.3576C64.6493 89.7025 68.333 91.0414 72.0167 92.0462L71.0119 91.7121C70.3425 91.0414 69.3378 90.0366 69.3378 88.6977C70.0072 88.3624 70.0072 87.3576 70.3425 87.0235Z" fill="#0968B0"/>
<path d="M98.4734 47.8393C98.8088 47.8393 99.1441 48.5087 99.1441 48.8441C100.483 49.5135 101.154 51.189 102.157 52.1938C102.828 53.5327 104.502 54.8728 104.502 56.547C106.176 60.2308 107.516 64.5853 107.516 68.9385V69.2738C107.852 69.2738 107.852 69.2738 107.852 68.9385H113.545C113.21 68.2691 113.21 67.5984 113.21 66.9289C112.54 57.8871 108.521 50.5183 102.828 43.8206C101.823 45.1603 100.149 46.8345 98.8088 48.1747L98.4734 47.8393Z" fill="#0968B0"/>
<path d="M43.5492 68.9397V68.2691C43.8845 61.9063 45.8941 56.2129 49.5778 51.189C50.5825 50.1842 51.252 48.8453 52.2567 48.1746C50.9179 46.8358 49.5778 45.4956 48.2389 44.1561V43.4863C42.5444 49.8501 38.8607 57.2177 37.8559 65.2547C37.5219 66.5948 37.8559 67.5996 37.5219 68.9397C39.5314 68.9397 41.5409 68.9397 43.5492 68.9397Z" fill="#0968B0"/>
<path d="M53.5956 46.5004C59.6242 40.807 66.3222 38.1277 74.025 37.4579V37.1229V32.4342V31.7644C65.9869 32.0994 58.9548 34.7786 52.5921 39.4673C51.252 40.472 50.2472 41.4768 48.9071 42.1466H49.2425C50.9166 43.4862 52.2568 44.8258 53.5956 46.5004Z" fill="#0968B0"/>
<path d="M74.3603 55.8777C71.0107 56.213 68.3317 57.5519 65.6528 59.8968H65.9868C66.3222 60.2309 67.327 60.2309 67.6623 60.9016C67.9964 61.2357 67.327 61.2357 67.327 61.571C67.327 61.571 67.6623 61.571 67.6623 61.9064C67.9964 61.9064 67.9964 61.571 67.9964 61.571C68.3317 61.2357 68.6671 61.9064 69.0011 61.9064C69.3365 61.571 69.6718 61.571 70.0059 61.9064C70.3413 61.571 71.0107 61.9064 71.0107 61.2357C71.6801 60.5662 71.346 59.5615 72.3508 59.2261C72.6849 59.5615 72.3508 59.5615 72.3508 59.8968C73.0202 60.2309 73.6896 59.2261 74.025 59.8968C74.025 58.892 74.025 57.2166 74.3603 55.8777Z" fill="#0968B0"/>
<path d="M0.347534 0.61792V150.99H150.717V0.61792H0.347534ZM129.285 78.9864C127.275 82.0007 124.596 84.6797 122.587 87.6941C122.921 85.3491 123.256 82.3348 122.251 79.9911C120.577 74.9672 119.237 69.9433 118.903 64.5853V62.5757C120.242 67.9337 125.601 71.9529 125.265 77.9816C125.265 79.3204 124.93 80.6606 124.596 82.0007L124.93 81.6654C125.601 78.651 126.27 75.3026 127.275 72.6223C128.949 68.6044 131.294 64.5853 130.289 59.5614C132.968 65.5901 132.299 73.6271 129.285 78.9864ZM125.935 47.8393C129.619 52.5279 130.289 60.2308 127.61 65.9242C126.606 68.2691 125.935 70.6127 125.601 73.293C125.265 72.9576 125.265 72.2882 125.265 71.6175C123.925 66.2595 118.903 62.2404 116.558 57.2165C115.889 55.5423 115.218 53.868 114.884 52.1938C117.227 56.213 122.587 58.5566 124.261 62.9111C124.93 63.9146 124.93 65.5901 125.265 66.5949C124.596 61.9063 124.93 56.8824 125.601 52.1938C125.601 49.5148 125.266 47.1699 123.925 45.1603C124.93 45.8298 125.265 46.8345 125.935 47.8393ZM123.591 46.8345C124.596 51.189 123.256 55.2082 123.925 59.226C121.582 54.8728 116.893 52.5279 113.544 48.8441C111.534 46.8345 110.865 44.1557 110.195 41.4764C112.205 46.1651 117.227 47.1699 120.242 50.8537C121.246 51.8585 121.582 52.8632 122.251 53.868C120.577 50.1842 119.908 46.1651 118.903 42.1462C118.232 40.4718 117.227 38.7973 115.553 37.7925C119.237 39.1321 122.587 43.151 123.591 46.8345ZM113.21 37.1227C116.223 39.8019 117.563 43.151 118.232 46.8345L118.567 47.8393C114.214 44.8255 110.529 40.8066 107.85 36.4529L104.502 33.1038C107.516 34.1086 110.529 34.7784 113.21 37.1227ZM57.2805 33.7736C62.9738 31.0944 69.0024 29.4199 75.3651 29.4199C90.4353 29.4199 104.836 38.4623 111.534 52.1938C115.553 60.2308 116.893 71.2834 114.214 80.3252C111.534 91.0425 102.492 101.76 92.1108 106.448C80.3889 112.142 63.6432 110.802 52.9274 103.1C38.1913 93.0521 32.1627 75.6366 36.8512 58.5566C39.5314 48.8441 47.5682 38.4623 57.2805 33.7736ZM45.8941 33.4388C42.8798 36.118 40.8702 39.1321 38.8607 42.4812C36.8512 44.8255 34.5075 46.5005 32.1627 48.51C33.5028 46.1651 33.5028 43.151 35.177 40.8066C37.1865 36.4529 41.875 35.1132 45.8941 33.4388ZM29.8191 42.4812C31.1579 40.8066 33.1674 39.467 35.177 38.7972C31.1579 41.4764 31.4933 46.5005 30.1531 50.5183C29.8191 51.8585 29.1484 53.5327 28.8143 54.8728C29.4837 53.1986 30.4885 51.5231 32.1627 50.1842C34.8429 47.5052 39.196 45.8298 40.5362 42.1462C40.5362 47.5052 35.8464 51.8585 31.8286 54.5375C30.1531 56.2129 28.479 57.8872 27.4742 59.8967C27.4742 58.5566 27.8095 57.2165 27.4742 55.8776C26.8048 51.189 26.4694 45.8298 29.8191 42.4812ZM21.7809 58.5566C21.7809 53.868 23.7905 49.8489 26.4694 46.5005C26.4694 46.5005 26.4694 46.5005 26.8048 46.5005C23.7905 51.189 26.1353 56.8824 26.1353 62.2404L25.8 67.5997C25.8 67.5997 25.8 67.9337 26.1353 67.5997C26.4694 66.929 26.4694 66.2595 26.4694 65.5901C27.1401 61.2356 30.8238 58.2212 34.1722 55.2082C34.8429 54.5375 35.5123 53.5327 35.8464 52.8632C35.5123 54.8728 34.8429 57.2165 34.1722 59.226C31.4933 64.2499 26.8048 68.2691 26.1353 73.9624C25.1306 68.2691 21.1115 64.2499 21.7809 58.5566ZM19.4373 65.2547C19.7714 63.5805 20.1067 62.2404 20.4421 60.9015C19.102 67.2643 23.4551 71.6175 24.7952 76.9768C25.4647 78.9863 25.4646 81.33 26.4694 83.0055C26.4694 83.0055 26.4694 83.0055 26.8048 83.0055C24.7952 77.3109 27.8095 71.9529 30.8238 67.2643C31.4932 65.9242 31.8286 64.5853 32.1627 63.2452C32.498 65.9242 31.8286 68.9385 31.4932 71.6175C30.8238 74.9672 29.8191 78.3157 28.8143 81.6654C28.1449 83.6749 28.479 86.0186 28.8143 88.3635L28.4789 88.0281C26.1353 84.009 21.7809 80.9959 20.4421 76.6414C19.4373 72.9577 18.7666 68.9385 19.4373 65.2547ZM19.102 77.3109C19.4373 84.009 26.8048 87.3587 30.1531 93.0521C30.8238 94.0568 31.4933 95.397 32.498 96.4018C32.498 95.7311 31.8286 95.0616 31.4932 94.3922C30.4885 92.0473 29.8191 89.3683 30.1531 86.6893C30.4885 83.3396 31.8286 80.3252 31.4932 76.6414C34.5075 83.0055 33.5028 90.7071 35.177 97.4053C35.5123 98.7454 36.5171 100.086 37.1865 101.76C31.1579 97.7406 23.121 93.7215 20.4421 86.3539C19.102 83.3396 18.7666 80.3252 19.102 77.3109ZM22.7857 92.7167C26.1353 100.086 34.5075 100.755 40.2008 105.444C41.2056 106.448 42.2103 107.118 43.5492 107.788C42.2103 106.784 40.8702 105.444 39.8655 103.769C36.5171 99.0808 37.8559 92.7167 35.177 88.0281C37.5218 90.7071 39.5314 93.3874 40.8702 96.4018C42.8798 101.424 43.5492 106.784 48.2389 110.467C43.2151 108.793 37.5218 109.127 32.8334 106.113C27.8095 103.1 23.4551 98.076 22.7857 92.7167ZM31.1579 106.448C36.5171 112.477 45.2246 110.467 52.2567 112.142C53.2615 112.142 54.2663 112.811 55.271 112.477C54.2663 111.806 53.2615 112.142 52.2567 111.472C46.5635 109.463 45.8941 103.434 42.8798 99.4148C46.8988 102.095 49.9131 105.444 53.5968 108.793C56.2758 111.137 59.2901 112.142 62.6385 112.811C61.969 113.146 60.9643 113.146 59.9595 113.146C54.2663 114.487 47.5682 116.83 41.5409 114.821C37.5218 113.816 33.1674 110.467 31.1579 106.448ZM103.497 120.849C97.4687 123.194 91.106 120.849 86.4175 117.166C84.408 115.825 82.7325 114.151 80.3889 114.487C79.3841 114.487 78.7147 114.487 78.044 114.821C82.7325 116.83 86.7516 119.845 90.7707 123.528C90.1012 124.198 89.4305 124.869 88.4258 125.538C84.742 121.519 80.7242 117.5 76.0345 115.491C75.0297 115.491 74.3603 116.161 73.3555 116.495C69.6718 118.84 65.9881 121.854 62.9738 125.538L60.6302 123.528C64.3139 119.509 68.6671 116.496 73.3555 114.487C68.6671 113.146 65.6528 116.83 62.3044 118.84C58.2853 121.519 52.5921 122.859 47.5682 121.185C44.8893 120.18 42.5444 118.84 40.5362 116.495C44.2199 119.175 50.2472 119.509 54.6016 117.835C60.6302 115.156 66.6575 112.142 73.6909 113.482C74.6957 113.482 76.0345 114.487 77.0393 113.816C82.3984 112.477 88.0917 113.482 92.7802 115.825L97.4687 117.835C101.822 119.509 107.516 118.84 111.2 116.495C108.855 118.17 106.176 119.845 103.497 120.849ZM110.195 114.487C103.497 117.166 96.7992 113.816 90.1012 112.811H88.7611C91.7754 112.142 94.7897 111.137 97.4687 109.127C101.152 105.779 104.167 102.095 108.186 99.4148C105.171 103.1 104.836 108.793 99.8135 111.137C98.4734 111.806 97.1333 112.142 95.7945 112.811C97.4686 112.811 99.1428 112.142 101.152 112.142C107.85 111.137 115.218 112.142 119.908 106.448C118.232 109.798 113.879 113.146 110.195 114.487ZM113.879 107.788C110.529 108.793 106.846 109.127 103.497 110.132C109.191 105.108 108.855 97.7406 112.539 92.0473C113.879 90.3731 114.884 88.6988 116.223 87.0234C113.879 91.7119 114.884 97.7406 112.205 102.095C111.2 103.769 109.86 105.444 108.186 107.118C108.855 107.118 109.19 106.784 109.525 106.448C113.879 102.095 119.572 101.09 123.925 97.4053C125.935 96.0664 127.61 94.0568 128.28 91.7119C127.61 98.7454 120.577 105.444 113.879 107.788ZM122.251 95.397C119.572 97.0712 116.893 98.7454 114.214 100.755V100.42C118.232 94.0568 116.223 85.0138 118.567 77.6462L119.572 75.3026C119.237 79.6558 120.912 83.6749 120.912 88.0281C120.912 90.7071 119.908 93.052 118.567 95.397H118.903C120.912 92.7167 122.251 90.0377 124.596 87.6941C127.944 84.3444 131.628 80.9959 131.964 76.3073C133.304 84.3443 128.949 91.0425 122.251 95.397Z" fill="#0968B0"/>
<path d="M107.849 70.9481L107.515 70.6128L107.849 70.9481C107.515 77.9816 105.17 83.675 101.486 89.033C100.817 90.0378 100.146 91.0426 99.1416 91.712C100.817 93.0521 102.491 94.7263 103.496 96.0665V95.7311C109.525 88.6976 113.208 80.6606 113.542 71.2835L113.878 70.9481H113.542H107.849Z" fill="#0968B0"/>
<path d="M74.0262 47.8394C69.0024 48.1747 64.6493 50.1843 60.6302 53.5327C62.3044 54.5375 63.6445 56.213 64.9833 57.5518L65.3187 57.2178C67.3282 55.8776 69.3377 54.5375 71.3473 54.2034C72.352 54.2034 73.3568 53.5327 74.3616 53.8681C74.0262 51.8585 74.0262 49.8489 74.3616 47.8394H74.0262Z" fill="#0968B0"/>
<path d="M76.3699 37.1222C76.3699 36.7873 76.3699 36.7873 76.7052 36.7873C77.0406 36.7873 77.3746 36.7873 77.3746 37.1222C77.3746 37.4571 77.3746 37.792 77.3746 38.127C77.71 38.127 77.71 38.127 78.0441 38.127C82.7338 38.4618 86.7516 39.8014 90.7707 41.8109C91.4401 41.476 92.4449 40.8062 93.4496 41.476C94.4544 41.1411 94.4544 42.1458 95.4592 42.4807C96.4639 43.1505 97.4687 44.1553 97.4687 45.1603C97.8041 45.4944 98.1381 45.8297 98.1381 46.1651C98.8088 44.8251 100.148 43.8203 101.152 42.8157L101.823 42.4807C95.7945 36.7873 88.4271 33.4383 80.7243 32.4335C79.3842 32.0986 78.0441 32.4335 76.7052 32.0986C76.7052 33.1033 76.7052 35.1127 76.3699 37.1222ZM94.4544 39.8014C94.7897 39.8014 95.1251 40.1364 95.4592 40.4712C95.4592 40.8062 95.7945 41.476 95.4592 41.8109C94.4544 42.1458 94.1203 40.8062 93.4496 40.4712C93.4496 40.4712 93.4496 40.1364 93.4496 39.8014C93.785 39.4666 94.1203 40.1364 94.4544 39.8014ZM77.3746 36.1175C77.3746 35.7825 78.0441 35.7825 78.3794 36.1175L81.3937 34.7779C82.3985 34.7779 83.7386 35.1127 84.408 36.1175C83.7386 36.7873 82.7338 37.1222 81.7291 36.7873C80.3889 37.1222 78.7148 37.792 77.3746 36.4524C77.3746 36.4524 77.0406 36.1175 77.3746 36.1175Z" fill="#0968B0"/>
<path d="M76.3699 45.4958C77.0406 45.1605 78.0441 45.4958 78.7148 45.4958C82.7338 46.1653 86.4176 47.5054 89.4318 49.849C89.0965 49.515 88.4271 48.8443 88.4271 48.5102C88.4271 48.5102 88.4271 48.5102 88.7611 48.5102C88.7611 47.8395 88.0917 47.5054 88.0917 47.1701L88.4271 46.836C89.0965 47.5054 89.7659 48.1748 90.1013 48.8443C90.4366 48.5102 90.7707 48.8443 91.106 49.1796C91.7755 49.515 91.4401 50.1844 91.7755 50.5198C91.7755 51.8586 93.4496 52.194 93.1156 53.5341C93.1156 53.8682 93.4496 53.5341 93.4496 53.8682L94.7897 55.2083C94.4544 55.5424 94.7897 55.8778 95.1251 55.8778C95.7945 56.2131 96.1298 55.5424 96.4639 55.5424C97.1346 55.8778 96.4639 56.5472 96.4639 56.8825C96.7993 56.8825 97.1346 56.5472 97.4687 56.8825C97.4687 57.2179 97.1346 57.552 96.7993 57.8873C96.7993 58.2227 97.1346 58.2227 97.4687 58.2227C97.8041 58.2227 98.1381 58.5568 97.804 58.8921C98.8088 59.8969 97.4687 60.9017 98.1381 62.2405C98.4735 62.9112 98.1381 63.5807 97.4687 64.2501C97.4687 65.2549 96.7993 65.5902 96.4639 66.2597L95.4592 66.595C94.7897 67.2645 95.7945 67.9339 95.4592 68.2692H97.804L97.4687 67.9339C97.4687 67.5998 97.4687 66.595 98.1381 65.5902C98.4735 64.9208 98.4735 63.916 99.1429 63.2453C99.1429 63.2453 99.4782 62.9112 99.8136 63.2453C99.8136 63.916 99.8136 64.5855 99.4782 65.2549C100.148 66.2597 100.148 67.2645 100.148 68.6046C102.157 68.6046 104.167 68.6046 106.176 68.6046L105.841 68.2692C105.507 64.5855 104.836 60.9017 103.162 57.8873C102.828 57.8873 102.493 58.2227 101.823 58.2227L101.488 57.8873C100.818 57.2179 100.148 56.2131 99.1429 55.5424C98.1381 55.5424 97.8041 54.5376 96.7993 54.2035C96.1299 53.8682 96.4639 52.5293 95.4592 52.8634C94.7897 52.5293 94.4544 52.194 94.1203 51.5245C94.1203 50.5198 93.785 49.515 93.1156 48.8443C92.4449 48.5102 92.1108 49.515 91.4401 49.515C91.106 49.1796 91.106 48.8443 91.106 48.5102C91.106 48.1748 90.7707 47.8395 90.7707 47.5054C91.7755 46.1653 89.7659 46.1653 90.1013 45.1605C90.1013 44.1561 89.0965 43.8212 88.7611 43.1514C85.7468 41.8118 82.3985 40.807 79.0488 40.4722C78.0441 40.4722 77.3746 40.4722 76.7052 40.1372L77.0406 40.4722C76.3699 41.8118 76.7052 43.8212 76.3699 45.4958Z" fill="#0968B0"/>
<path d="M74.3603 64.5853C73.6896 65.5901 72.6849 65.9241 71.6801 65.9241C71.346 66.2595 71.346 66.9289 71.0107 66.9289C70.6753 67.2643 70.0059 67.5984 70.3413 68.2691C70.0059 68.9385 70.3413 69.9433 70.0059 70.6127C68.6671 71.2834 69.0011 69.6079 68.6671 69.2738L68.3317 69.6079C67.9964 69.6079 67.9964 69.6079 67.6623 69.2738C67.327 69.2738 67.327 69.2738 66.9916 69.2738C66.6575 69.6079 66.3222 69.9433 66.3222 70.6127C66.3222 70.9481 65.6528 70.9481 65.6528 71.2834C66.3222 71.2834 66.9916 71.2834 67.6623 70.9481C67.9964 70.9481 68.6671 70.6127 69.0011 70.6127L69.3365 70.9481C69.6718 70.6127 69.6718 70.2786 69.6718 69.9433C69.6718 69.6079 70.0059 69.6079 70.3413 69.2738C70.6753 69.2738 70.3413 69.6079 70.3413 69.9433C71.346 70.2786 70.0059 70.9481 70.0059 71.2834C69.6718 71.6175 70.0059 72.6223 69.3365 72.2882L69.0011 71.9529C69.0011 72.2882 69.3365 72.6223 69.6718 72.9576C70.3413 72.6223 70.3413 71.6175 71.0107 71.6175C71.346 71.2834 70.6753 70.6127 71.346 70.2786C72.3508 70.2786 73.3556 69.9433 74.3603 70.6127C74.3603 70.9481 74.025 71.2834 74.3603 71.2834C74.025 71.6175 74.025 72.2882 73.6896 72.6223C73.6896 72.9576 73.6896 73.2917 73.3555 73.2917C73.0202 74.6318 71.6801 73.9624 71.0107 74.2965C72.3508 75.3013 73.6896 75.6366 75.3651 75.6366C76.3699 75.6366 75.6992 74.6318 76.3698 73.9624C76.7039 72.6223 78.044 73.6271 78.7135 73.2917C79.0488 72.6223 79.3829 71.9529 79.3829 71.2834C79.0488 70.9481 78.7135 70.2786 78.7135 69.9433C78.3781 69.6079 78.3781 68.6031 77.7087 68.6031V68.2691C77.7087 67.9337 78.044 67.5984 78.3781 67.2643C78.044 66.9289 78.044 66.2595 78.044 65.9241C77.3734 66.2595 77.0393 65.2547 76.7039 64.9194C76.7039 64.5853 76.0345 64.2499 75.6992 64.2499C74.6944 64.5853 74.6944 63.5805 73.6896 63.2451C73.6896 62.9098 73.3556 62.5757 73.6896 62.5757C74.025 62.2404 74.6944 62.5757 75.0297 62.5757L74.6944 62.2404C74.3603 61.905 73.6896 62.2404 73.3555 62.2404C74.3603 63.5805 74.025 64.2499 74.3603 64.5853Z" fill="#0968B0"/>
</svg>
