<svg width="125" height="125" viewBox="0 0 125 125" fill="none" xmlns="http://www.w3.org/2000/svg">
<g clip-path="url(#clip0_88_170)">
<path d="M122.07 65.1855C122.07 98.2199 95.2902 125 62.2559 125C29.2215 125 2.44141 98.2199 2.44141 65.1855C2.44141 32.1512 29.2215 5.37109 62.2559 5.37109C95.2902 5.37109 122.07 32.1512 122.07 65.1855Z" fill="#ACECEF"/>
<path d="M30.6357 115.967C39.8091 121.691 50.6457 125 62.2558 125C73.8658 125 84.7024 121.691 93.8758 115.967H30.6357Z" fill="#A55D2B"/>
<path d="M78.5397 15.4991L78.863 15.4905C81.2348 13.2856 84.3228 12.0716 87.5595 12.0716C90.0343 12.0716 92.4376 12.7831 94.5099 14.1296L94.7626 14.1373C95.9147 13.4945 97.163 13.0396 98.4534 12.7792C97.3099 6.75392 92.0189 2.19727 85.6608 2.19727C79.3026 2.19727 74.0116 6.75488 72.8691 12.7802C74.9443 13.1998 76.9003 14.1277 78.5397 15.4991Z" fill="#02AF8E"/>
<path d="M78.5397 15.4991L78.863 15.4905C79.3236 15.0623 79.8119 14.6723 80.3231 14.3204C80.6969 8.85677 84.4372 4.32014 89.4869 2.76947C88.2777 2.39849 86.9931 2.19727 85.6608 2.19727C79.3026 2.19727 74.0116 6.75488 72.8691 12.7802C74.9443 13.1998 76.9003 14.1277 78.5397 15.4991Z" fill="#0F9390"/>
<path d="M85.4498 65.5194H85.8722L89.3083 59.5685V51.9334C88.8038 51.6196 88.3184 51.2715 87.8587 50.8872L87.5364 50.8958C85.9571 52.3635 84.0593 53.3887 82.0137 53.9123V59.5685L85.4498 65.5194Z" fill="#37C47A"/>
<path d="M83.297 69.0165L83.3867 68.9945C86.4117 67.6108 88.0377 65.4068 89.7591 63.0732C90.2846 62.3617 90.8244 61.6284 91.4128 60.9121C91.7723 61.8344 92.0699 62.8367 92.3398 64.0307L92.7594 64.1403C93.5834 63.2324 94.3358 62.5057 95.0997 61.882C95.1817 62.3484 95.2504 62.8119 95.3124 63.2715L101.432 52.6714C99.7536 53.4506 97.914 53.8616 96.0543 53.8616C94.8784 53.8616 93.7169 53.6966 92.5992 53.3819L85.6612 65.3973L79.2573 54.3051C79.118 54.3089 78.9788 54.3146 78.8396 54.3146C75.6543 54.3146 72.6025 53.1349 70.246 50.993L69.9275 50.9854C69.6995 51.1713 69.464 51.3468 69.2246 51.5156L79.5958 69.48C80.7974 69.2358 82.0344 69.0785 83.297 69.0165V69.0165Z" fill="#60D882"/>
<path d="M61.8522 28.3024C65.0375 28.3024 68.0902 29.4821 70.4458 31.6231L70.7643 31.6316C73.0359 29.7767 75.9036 28.7554 78.839 28.7554C81.8298 28.7554 84.7404 29.812 87.033 31.7299L87.3563 31.7222C89.729 29.5164 92.818 28.3024 96.0538 28.3024C98.5286 28.3024 100.932 29.0138 103.004 30.3604L103.256 30.369C105.148 29.3142 107.297 28.7563 109.471 28.7563C110.824 28.7563 112.128 28.969 113.353 29.3609C113.771 28.084 114 26.7212 114 25.305C114 18.1124 108.169 12.2816 100.977 12.2816C98.6774 12.2816 96.5183 12.8795 94.6433 13.9248C92.6034 12.6001 90.1725 11.8276 87.5594 11.8276C84.1348 11.8276 81.021 13.1513 78.696 15.3124C76.4348 13.4212 73.5233 12.2816 70.3456 12.2816C63.1521 12.2816 57.3213 18.1114 57.3213 25.305C57.3213 26.5714 57.5053 27.7931 57.8429 28.9499C59.1047 28.5312 60.4512 28.3024 61.8522 28.3024V28.3024Z" fill="#159E97"/>
<path d="M61.8522 28.302C63.0595 28.302 64.2478 28.4718 65.3865 28.7989C65.0766 27.6869 64.9087 26.5158 64.9087 25.3046C64.9087 19.4319 68.7959 14.4699 74.1365 12.8448C72.9368 12.4796 71.6646 12.2803 70.3456 12.2803C63.153 12.2803 57.3213 18.111 57.3213 25.3046C57.3213 26.5701 57.5063 27.7927 57.8429 28.9495C59.1047 28.5309 60.4512 28.302 61.8522 28.302V28.302Z" fill="#0F9390"/>
<path d="M109.47 28.5111C107.171 28.5111 105.012 29.1091 103.137 30.1552C101.098 28.8306 98.6662 28.0581 96.0541 28.0581C92.6294 28.0581 89.5147 29.3818 87.1897 31.5419C84.9285 29.6507 82.0169 28.5111 78.8393 28.5111C75.717 28.5111 72.8531 29.6107 70.61 31.4417C68.2964 29.3398 65.2237 28.0581 61.8515 28.0581C54.6589 28.0581 48.8281 33.8889 48.8281 41.0815C48.8281 48.2741 54.6589 54.1058 61.8515 54.1058C64.9738 54.1058 67.8377 53.0062 70.0817 51.1742C72.3944 53.2771 75.4671 54.5588 78.8393 54.5588C82.263 54.5588 85.3777 53.2351 87.7027 51.0741C89.9639 52.9652 92.8755 54.1058 96.0541 54.1058C98.3534 54.1058 100.512 53.5069 102.387 52.4617C104.426 53.7863 106.857 54.5588 109.47 54.5588C116.663 54.5588 122.495 48.7271 122.495 41.5354C122.495 34.3419 116.663 28.5111 109.47 28.5111Z" fill="#02AF8E"/>
<path d="M56.4289 41.0815C56.4289 35.2116 60.3123 30.2506 65.65 28.6236C64.4484 28.2574 63.1733 28.0581 61.8515 28.0581C54.6589 28.0581 48.8281 33.8889 48.8281 41.0815C48.8281 48.275 54.6589 54.1058 61.8515 54.1058C63.1733 54.1058 64.4484 53.9074 65.65 53.5412C60.3123 51.9133 56.4289 46.9513 56.4289 41.0815V41.0815Z" fill="#159E97"/>
<path d="M36.5616 22.25L43.9545 9.44507C45.0894 7.48145 44.4152 4.96947 42.4515 3.83555C40.4879 2.70068 37.9759 3.37397 36.842 5.33854L28.5508 19.6999V22.25H36.5616Z" fill="#37C47A"/>
<path d="M12.8144 22.25H20.8253V19.699L12.534 5.33854C11.4001 3.37397 8.88908 2.70068 6.92356 3.83555C4.95995 4.96947 4.28665 7.48145 5.42152 9.44507L12.8144 22.25Z" fill="#37C47A"/>
<path d="M28.7941 22.2502V4.10652C28.7941 1.83868 26.9564 0 24.6876 0C22.4207 0 20.5811 1.83868 20.5811 4.10652V22.2502H28.7941Z" fill="#60D882"/>
<path d="M30.0653 104.276V103.846C24.4453 98.9912 21.2219 91.9541 21.2219 84.5392C21.2219 74.9186 26.5453 66.2134 35.1141 61.8227L35.157 61.4165C34.5877 60.9482 34.0574 60.4313 33.5815 59.8763C35.4908 57.6485 38.081 56.1817 40.9182 55.6734L45.9002 32.7013C46.5172 29.8546 45.9564 27.1719 44.3247 25.1482C42.691 23.1217 40.1876 22.0059 37.2761 22.0059H12.1C9.18846 22.0059 6.68411 23.1217 5.05333 25.1454C3.41873 27.1719 2.85892 29.8546 3.47595 32.7013L18.997 104.276H30.0653Z" fill="#FFAF10"/>
<path d="M26.7208 104.276L25.5087 98.687C22.7402 94.5376 21.2219 89.6271 21.2219 84.5392C21.2219 83.1507 21.3364 81.7822 21.5519 80.4413L11.1988 32.7013C10.5818 29.8546 11.1416 27.1719 12.7762 25.1454C14.4079 23.1217 16.9113 22.0059 19.8229 22.0059H12.1C9.18846 22.0059 6.68411 23.1217 5.05333 25.1454C3.41873 27.1719 2.85892 29.8546 3.47595 32.7013L18.997 104.276H26.7208Z" fill="#FF9518"/>
<path d="M25.1469 36.8232H4.37012L5.9866 44.2772H25.1469C27.2049 44.2772 28.8738 42.6082 28.8738 40.5502C28.8738 38.4912 27.2049 36.8232 25.1469 36.8232Z" fill="#EF8318"/>
<path d="M21.5687 53.52H7.99121L9.60769 60.9749H21.5687C23.6267 60.9749 25.2956 59.305 25.2956 57.247C25.2956 55.1889 23.6267 53.52 21.5687 53.52Z" fill="#EF8318"/>
<path d="M22.5271 76.4582C22.8094 75.6056 23.1365 74.7721 23.5065 73.9595C23.5065 73.9548 23.5065 73.95 23.5065 73.9452C23.5065 71.8862 21.8385 70.2183 19.7795 70.2183H11.6113L13.2278 77.6722H19.7795C20.8686 77.6722 21.8452 77.202 22.5271 76.4582Z" fill="#EF8318"/>
<path d="M22.6682 92.9966C22.0207 91.156 21.5811 89.2372 21.3693 87.2746C20.8868 87.0457 20.3499 86.9141 19.7796 86.9141H15.2334L16.8489 94.3689H19.7796C20.945 94.3689 21.9845 93.8339 22.6682 92.9966Z" fill="#EF8318"/>
<path d="M78.3525 69.7699C75.8977 66.269 72.5923 63.4079 68.7385 61.4844C67.3137 62.6297 65.6448 63.468 63.8719 63.9067L63.767 64.3254C66.5641 66.8517 67.9708 70.1971 67.6475 73.535C67.2164 73.5617 66.7816 73.5751 66.3505 73.5751C66.3505 73.5751 66.3505 73.5751 66.3495 73.5751C62.0437 73.5751 57.9973 72.258 54.956 69.8662C53.8602 69.0041 52.9314 68.0247 52.1932 66.9556H51.7917C51.0545 68.0247 50.1256 69.0041 49.0289 69.8662C45.9876 72.258 41.9422 73.5751 37.6354 73.5751C37.2043 73.5751 36.7685 73.5617 36.3384 73.535C36.0141 70.1981 37.4208 66.8517 40.2179 64.3254L40.113 63.9067C38.3392 63.4671 36.6712 62.6297 35.2464 61.4844C26.7883 65.7063 20.9775 74.4439 20.9775 84.5395C20.9775 92.4645 24.5586 99.5512 30.1891 104.276H66.4821V103.882C62.203 98.3935 60.7162 91.5642 62.4042 85.145C64.4041 77.5452 70.5429 71.7879 78.3525 69.7699V69.7699Z" fill="#EA2A3D"/>
<path d="M26.0902 84.5395C26.0902 75.5453 30.7041 67.6318 37.6916 63.0265C36.8219 62.6059 35.9998 62.09 35.2464 61.4844C26.7883 65.7063 20.9775 74.4439 20.9775 84.5395C20.9775 92.4635 24.5586 99.5512 30.1891 104.276H35.3017C29.6712 99.5512 26.0902 92.4635 26.0902 84.5395V84.5395Z" fill="#B7092B"/>
<path d="M70.724 59.8762C68.3665 57.0362 64.8112 55.228 60.8334 55.228C57.4078 55.228 54.2969 56.5698 51.9938 58.7538C49.6897 56.5698 46.5779 55.228 43.1533 55.228C39.1755 55.228 35.6192 57.0362 33.2627 59.8762C34.986 61.9524 37.353 63.4735 40.0557 64.1439C37.0316 66.8743 35.7175 70.3686 36.118 73.7636C40.7862 74.1051 45.6061 72.8691 49.1805 70.0577C50.3239 69.1574 51.2604 68.157 51.9938 67.0927C52.7272 68.157 53.6627 69.1574 54.8062 70.0577C58.3815 72.8691 63.2004 74.1041 67.8687 73.7636C68.2702 70.3686 66.9551 66.8733 63.931 64.1439C66.6337 63.4735 68.9997 61.9524 70.724 59.8762Z" fill="#02AF8E"/>
<path d="M45.0911 64.1439C42.3884 63.4735 40.0223 61.9524 38.2981 59.8762C40.1463 57.6494 42.7336 56.0615 45.6814 55.4779C44.8641 55.3139 44.0192 55.228 43.1532 55.228C39.1745 55.228 35.6192 57.0362 33.2617 59.8762C34.986 61.9524 37.352 63.4735 40.0547 64.1439C37.0316 66.8743 35.7174 70.3686 36.118 73.7636C37.7917 73.8857 39.4844 73.8018 41.1324 73.5185C40.8224 70.2017 42.1404 66.8085 45.0911 64.1439V64.1439Z" fill="#159E97"/>
<path d="M58.2896 62.417C58.2896 60.7767 55.4705 59.4473 51.9934 59.4473C48.5154 59.4473 45.6963 60.7767 45.6963 62.417C45.6963 64.0573 48.5154 65.3867 51.9934 65.3867C55.4705 65.3867 58.2896 64.0573 58.2896 62.417V62.417Z" fill="#60D882"/>
<path d="M48.1663 62.417C48.1663 60.977 50.3416 59.7763 53.2275 59.5045C52.8288 59.4673 52.4159 59.4473 51.9924 59.4473C48.5154 59.4473 45.6963 60.7767 45.6963 62.417C45.6963 64.0573 48.5154 65.3867 51.9924 65.3867C52.4149 65.3867 52.8279 65.3667 53.2275 65.3295C50.3416 65.0587 48.1663 63.858 48.1663 62.417V62.417Z" fill="#37C47A"/>
<path d="M98.3089 72.7243C95.7053 69.1328 96.0334 65.4315 95.2667 61.4376C94.2472 62.2291 93.3822 63.0912 92.5782 63.9762C92.3141 62.8099 91.9841 61.634 91.4872 60.4429C88.8541 63.5433 87.3187 66.9269 83.2847 68.7723C73.3674 69.2672 64.6642 75.5948 62.1694 85.083C60.3708 91.9198 62.1866 98.9141 66.4809 104.276H105.37C106.858 102.221 107.991 99.884 108.667 97.3129C111.162 87.8248 106.699 78.0343 98.3089 72.7243V72.7243Z" fill="#FFAF10"/>
<path d="M98.3574 104.276C100.074 101.784 101.435 98.8654 102.286 95.6344C105.423 83.703 100.415 72.0443 91.0999 69.5943C81.7844 67.1443 71.6888 74.83 68.5512 86.7614C66.8756 93.131 67.5232 99.4214 69.9074 104.276H98.3574Z" fill="#FFD00D"/>
<path d="M91.9945 104.276C93.7007 101.373 95.1569 97.8843 96.1716 94.0267C99.3102 82.0953 97.0395 71.1567 91.1009 69.5945C85.1615 68.0324 77.8029 76.4381 74.6644 88.3695C73.1185 94.247 72.8877 99.8823 73.7593 104.276H91.9945Z" fill="#FFAF10"/>
<path d="M86.1583 104.276C87.5688 100.966 88.9545 96.8979 90.1275 92.4366C93.266 80.5061 93.7018 70.2789 91.0993 69.5942C88.4976 68.9104 83.8447 78.0275 80.7061 89.9589C79.2985 95.31 78.4354 100.317 78.1455 104.276H86.1583Z" fill="#FFD00D"/>
<path d="M114.315 37.9639C114.315 38.9748 113.496 39.7949 112.484 39.7949C111.473 39.7949 110.653 38.9748 110.653 37.9639C110.653 36.953 111.473 36.1328 112.484 36.1328C113.496 36.1328 114.315 36.953 114.315 37.9639Z" fill="#37C47A"/>
<path d="M117.489 44.7998C117.489 45.8107 116.67 46.6309 115.658 46.6309C114.647 46.6309 113.827 45.8107 113.827 44.7998C113.827 43.7889 114.647 42.9688 115.658 42.9688C116.67 42.9688 117.489 43.7889 117.489 44.7998Z" fill="#37C47A"/>
<path d="M109.188 44.0674C109.188 45.0783 108.369 45.8984 107.357 45.8984C106.347 45.8984 105.526 45.0783 105.526 44.0674C105.526 43.0565 106.347 42.2363 107.357 42.2363C108.369 42.2363 109.188 43.0565 109.188 44.0674Z" fill="#37C47A"/>
<path d="M109.188 23.0713C109.188 24.0822 108.369 24.9023 107.357 24.9023C106.347 24.9023 105.526 24.0822 105.526 23.0713C105.526 22.0604 106.347 21.2402 107.357 21.2402C108.369 21.2402 109.188 22.0604 109.188 23.0713Z" fill="#37C47A"/>
<path d="M104.306 17.7002C104.306 18.7111 103.486 19.5312 102.475 19.5312C101.464 19.5312 100.644 18.7111 100.644 17.7002C100.644 16.6893 101.464 15.8691 102.475 15.8691C103.486 15.8691 104.306 16.6893 104.306 17.7002Z" fill="#37C47A"/>
<path d="M100.155 24.0479C100.155 25.0587 99.3361 25.8789 98.3242 25.8789C97.3133 25.8789 96.4932 25.0587 96.4932 24.0479C96.4932 23.037 97.3133 22.2168 98.3242 22.2168C99.3361 22.2168 100.155 23.037 100.155 24.0479Z" fill="#37C47A"/>
<path d="M16.7754 104.032C20.8504 108.798 25.6608 112.917 31.0328 116.211H93.4794C98.8515 112.917 103.661 108.798 107.736 104.032H16.7754Z" fill="#BF7E52"/>
</g>
<defs>
<clipPath id="clip0_88_170">
<rect width="125" height="125" fill="white"/>
</clipPath>
</defs>
</svg>
