<svg width="513" height="512" viewBox="0 0 513 512" fill="none" xmlns="http://www.w3.org/2000/svg">
<path d="M229.08 444.618C230.672 444.618 232.198 443.986 233.323 442.861C234.448 441.735 235.08 440.209 235.08 438.618V414.028C235.08 412.437 234.448 410.911 233.323 409.785C232.198 408.66 230.672 408.028 229.08 408.028C227.489 408.028 225.963 408.66 224.838 409.785C223.712 410.911 223.08 412.437 223.08 414.028V438.618C223.08 440.209 223.712 441.735 224.838 442.861C225.963 443.986 227.489 444.618 229.08 444.618V444.618Z" fill="#009A22"/>
<path d="M23.1873 439.583H23.2943L30.7223 439.45C27.5319 441.687 25.1935 444.94 24.0882 448.676C22.983 452.413 23.1762 456.414 24.6363 460.027C26.3601 464.282 29.6998 467.68 33.9239 469.477C38.1481 471.274 42.9124 471.324 47.1733 469.616L81.6043 455.807C85.6675 462.287 90.8219 468.015 96.8393 472.736C106.681 480.51 118.602 485.197 131.102 486.208L423.546 445.408C427.354 444.839 430.951 443.299 433.99 440.935C437.03 438.572 439.409 435.465 440.898 431.915C459.205 422.6 474.684 408.553 485.725 391.233C486.586 389.893 486.878 388.266 486.539 386.71C486.2 385.153 485.256 383.796 483.916 382.936C482.576 382.075 480.948 381.782 479.392 382.122C477.836 382.461 476.479 383.405 475.618 384.745C467.092 398.168 455.553 409.417 441.918 417.601C440.82 413.391 438.505 409.597 435.263 406.694C432.021 403.792 427.996 401.909 423.69 401.28L276.94 379.105C270.276 365.065 266.866 343.473 266.373 327.522C287.195 306.71 294.04 285.65 295.844 270.39C296.498 264.858 296.603 259.274 296.155 253.721C306.565 243.602 318.789 235.535 332.186 229.943C338.717 237.507 347.305 243.197 357.874 246.936C352.269 249.627 346.841 252.671 341.621 256.05C329.721 263.755 329.051 274.1 329.71 279.579C329.899 281.195 330.462 282.744 331.354 284.105C332.246 285.465 333.442 286.599 334.849 287.416C336.255 288.234 337.833 288.712 339.457 288.813C341.08 288.915 342.705 288.636 344.202 288C351.358 284.969 359.185 283.873 366.897 284.823C379.364 286.455 388.49 282.678 394.418 278.623C397.944 287.745 404.744 295.224 413.489 299.6C420.329 303.259 426.082 308.658 430.167 315.252C431.011 316.634 432.167 317.798 433.542 318.651C434.917 319.504 436.474 320.023 438.086 320.165C438.418 320.195 438.749 320.211 439.077 320.211C440.546 320.212 441.999 319.904 443.34 319.306C444.682 318.708 445.882 317.834 446.863 316.741C450.574 312.647 456.016 303.814 450.763 290.666C448.459 284.899 445.789 279.284 442.769 273.857C453.669 276.926 464.08 277.208 473.878 274.719C489.104 295.741 494.628 319.298 490.378 344.977C490.233 345.837 490.277 346.719 490.507 347.561C490.737 348.402 491.149 349.184 491.712 349.85C492.275 350.516 492.977 351.052 493.768 351.419C494.56 351.787 495.422 351.977 496.294 351.977H496.308C497.722 351.981 499.092 351.485 500.176 350.576C501.259 349.667 501.986 348.404 502.228 347.011C506.918 319.143 501.306 293.444 485.471 270.337C493.631 266.07 500.741 260.045 506.289 252.697C507.272 251.404 507.818 249.832 507.849 248.209C507.879 246.585 507.392 244.994 506.457 243.666C505.523 242.337 504.191 241.341 502.652 240.82C501.114 240.3 499.45 240.282 497.901 240.77C491.934 242.638 480.527 244.509 471.184 236.032C456.097 222.343 440.704 221.348 430.884 222.699C432.52 214.115 433.398 205.404 433.508 196.667C445.002 194.608 455.438 188.66 463.067 179.82C463.413 179.416 463.754 179.004 464.089 178.584C478.897 160.049 474.706 130.662 454.937 114.413C453.682 113.414 452.638 112.175 451.868 110.767L451.728 110.502C450.903 108.881 450.43 107.105 450.34 105.288C450.25 103.472 450.546 101.657 451.206 99.963C460.024 76.479 453.742 50.143 435.93 35.92C417.291 21.036 390.867 20.705 370.176 35.096C367.768 36.7985 364.785 37.4813 361.876 36.996C360.36 36.7199 358.913 36.1488 357.616 35.315C337.137 22.506 310.716 26.435 296.161 44.451C295.824 44.869 295.494 45.291 295.176 45.714C290.482 51.8997 287.493 59.2081 286.505 66.9101C285.518 74.6121 286.568 82.4384 289.549 89.608C292.521 96.9285 297.309 103.371 303.462 108.327C304.362 114.606 305.946 135.209 293.583 161.432C292.862 160.618 292.183 159.892 291.555 159.264C299.955 134.687 293.564 109.076 272.914 84.931C264.252 74.7607 252.117 68.1758 238.868 66.4569C225.62 64.738 212.206 68.0081 201.235 75.631C175.352 93.517 162.593 116.351 164.091 141.931C151.478 146.675 134.091 158.71 129.997 180.431C115.297 162.452 92.5633 153.765 63.5553 155.208C50.2175 155.819 37.587 161.382 28.1328 170.81C18.6787 180.238 13.0807 192.853 12.4333 206.189C10.8573 237.576 21.2493 261.6 42.5343 276.012C40.2763 283.712 37.3823 299.235 44.3773 314.495C50.5393 327.939 62.7573 337.87 80.7153 344.045C84.6778 354.217 89.8876 363.857 96.2253 372.745C90.5741 377.282 85.7002 382.71 81.7953 388.815L47.1733 374.925C42.912 373.221 38.1494 373.273 33.9263 375.07C29.7033 376.866 26.3633 380.262 24.6363 384.514C23.1732 388.141 22.9848 392.158 24.1018 395.906C25.2189 399.654 27.5753 402.912 30.7853 405.147L23.3113 404.993H23.1873C20.8828 404.94 18.5911 405.349 16.4467 406.195C14.3023 407.04 12.3485 408.306 10.7001 409.917C9.05168 411.528 7.74188 413.453 6.84763 415.577C5.95339 417.702 5.49274 419.983 5.49274 422.289C5.49274 424.594 5.95339 426.875 6.84763 429C7.74188 431.125 9.05168 433.049 10.7001 434.66C12.3485 436.271 14.3023 437.537 16.4467 438.383C18.5911 439.228 20.8828 439.637 23.1873 439.584V439.583ZM463.118 244.91C469.921 251.194 478.898 254.59 488.156 254.381C477.708 262.965 461.001 269.465 436.872 259.021C435.27 258.323 433.485 258.163 431.785 258.565C430.084 258.967 428.559 259.909 427.44 261.251C426.32 262.592 425.665 264.26 425.573 266.006C425.481 267.751 425.957 269.478 426.93 270.93C431.993 278.526 436.246 286.631 439.62 295.113C441.506 299.833 441.37 303.777 439.193 307.105C434.093 299.487 427.178 293.256 419.071 288.974C405.406 281.792 404.139 269.716 404.023 267.374C403.962 266.097 403.509 264.871 402.725 263.861C401.941 262.851 400.866 262.107 399.644 261.731C398.423 261.355 397.115 261.364 395.899 261.758C394.683 262.151 393.617 262.91 392.848 263.931C391.448 265.784 383.707 274.931 368.454 272.931C359.355 271.759 350.106 272.863 341.538 276.145C341.698 272.185 343.874 268.894 348.144 266.129C355.814 261.146 363.983 256.977 372.519 253.69C374.152 253.067 375.54 251.932 376.473 250.453C377.405 248.975 377.834 247.235 377.693 245.492C377.553 243.75 376.851 242.1 375.694 240.791C374.536 239.481 372.985 238.582 371.273 238.229C345.517 232.861 335.651 217.929 332.102 204.903C339.558 210.417 348.864 212.821 358.057 211.609C368.622 210.309 377.882 211.738 385.58 215.851C388.157 217.207 390.533 218.916 392.639 220.927C392.032 226.871 391.278 231.972 390.664 235.327C390.42 236.874 390.79 238.455 391.695 239.733C392.6 241.01 393.969 241.884 395.509 242.166C397.05 242.448 398.639 242.117 399.939 241.243C401.238 240.369 402.145 239.022 402.464 237.489C402.814 235.577 410.789 191.134 400.447 168.567C403.557 167.816 406.617 166.872 409.609 165.741C411.966 164.843 414.377 164.095 416.828 163.503C420.986 170.947 426.673 210.835 411.777 244.117C411.444 244.838 411.257 245.618 411.228 246.411C411.198 247.205 411.327 247.996 411.605 248.74C411.884 249.484 412.308 250.165 412.851 250.743C413.395 251.322 414.049 251.787 414.773 252.111C415.498 252.436 416.28 252.613 417.074 252.633C417.868 252.652 418.658 252.514 419.398 252.226C420.138 251.939 420.814 251.507 421.386 250.956C421.958 250.405 422.415 249.746 422.73 249.017C424.677 244.645 426.342 240.152 427.713 235.567C433.319 233.945 448.286 231.453 463.118 244.91ZM365.057 199.158C373.107 192.547 382.605 187.932 392.777 185.69C393.654 192.636 393.938 199.644 393.624 206.638C387.331 202.77 377.937 199.1 365.057 199.158V199.158ZM300.657 85.068C298.429 79.8287 297.635 74.091 298.355 68.4433C299.075 62.7956 301.285 57.4412 304.757 52.929C304.995 52.613 305.24 52.2997 305.49 51.989C316.06 38.907 336.159 36.052 351.248 45.489C353.873 47.156 356.8 48.2902 359.862 48.827C365.869 49.8448 372.036 48.4512 377.021 44.949C393.321 33.615 413.979 33.756 428.435 45.299C442.235 56.32 446.979 77.066 439.965 95.747C438.709 99.0273 438.161 102.536 438.357 106.043C438.554 109.551 439.49 112.976 441.104 116.096L441.244 116.361C442.756 119.183 444.818 121.674 447.309 123.685C461.868 135.651 465.325 157.806 454.709 171.093C454.458 171.407 454.209 171.715 453.944 172.018C448.511 178.274 441.239 182.652 433.168 184.528C432.387 173.355 430.368 164.248 427.973 159.082C426.104 155.051 423.779 152.682 420.866 151.841C416.498 150.576 411.45 152.364 405.604 154.433C403.763 155.084 401.885 155.748 400.148 156.259C395.675 150.714 396.871 145.249 397.748 144.124C398.638 143.063 399.226 141.783 399.45 140.417C399.675 139.051 399.528 137.65 399.025 136.36C398.521 135.07 397.681 133.94 396.59 133.087C395.5 132.234 394.2 131.69 392.827 131.512C368.534 128.317 360.347 113.038 357.627 104.212C357.213 102.872 356.441 101.671 355.396 100.736C354.35 99.8014 353.07 99.1688 351.693 98.9059C350.315 98.6431 348.892 98.76 347.576 99.2441C346.26 99.7282 345.1 100.561 344.221 101.654C341.891 104.537 337.135 107.676 327.712 106.254C321.744 105.396 316.105 102.988 311.358 99.271C306.611 95.5536 302.921 90.6565 300.657 85.068V85.068ZM385.757 154.012L366.283 155.564L379.731 140.888C381.585 141.474 383.538 141.989 385.588 142.433C384.643 146.242 384.701 150.232 385.757 154.012V154.012ZM352.571 121.051L338.543 138.551L339.154 117.874C342.507 117.163 345.687 115.8 348.515 113.864C349.672 116.365 351.029 118.769 352.574 121.051H352.571ZM316.036 115.514C319.231 116.735 322.548 117.61 325.93 118.123C326.34 118.184 326.736 118.229 327.137 118.278L326.361 144.524C326.296 146.597 326.885 148.637 328.044 150.356C329.204 152.075 330.875 153.386 332.821 154.103C334.767 154.819 336.889 154.905 338.886 154.348C340.883 153.791 342.655 152.62 343.949 151L360.601 130.227C362.942 132.305 365.475 134.156 368.166 135.754L356.257 148.754C354.775 150.372 353.796 152.386 353.438 154.551C353.08 156.715 353.359 158.938 354.242 160.946C355.124 162.955 356.572 164.664 358.408 165.865C360.244 167.066 362.39 167.707 364.584 167.71C364.887 167.71 365.191 167.698 365.497 167.673L388.204 165.863C387.753 168.234 388.1 170.687 389.189 172.84C389.384 173.227 389.564 173.64 389.745 174.048C373.43 177.686 358.741 186.531 347.892 199.248C340.654 197.527 335.431 192.638 332.039 188.195C331.055 186.905 329.687 185.96 328.131 185.499C326.576 185.037 324.913 185.081 323.385 185.625C321.856 186.17 320.54 187.185 319.626 188.527C318.712 189.868 318.248 191.464 318.301 193.086C318.576 202.421 320.962 211.573 325.279 219.854C313.866 224.89 303.249 231.565 293.763 239.668C293.542 238.851 293.327 238.11 293.128 237.468C299.265 228.218 305.089 216.409 306.666 203.435C323.689 186.911 328.366 164.152 328.559 163.163L316.789 160.821C314.655 169.677 310.976 178.088 305.921 185.667C304.965 181.181 303.415 176.843 301.312 172.767C314.241 148.572 316.328 127.825 316.039 115.514H316.036ZM171.984 151.991C173.408 151.632 174.651 150.763 175.477 149.548C176.303 148.334 176.655 146.859 176.466 145.403C173.466 122.216 184.092 102.062 208.058 85.503C216.589 79.5749 227.019 77.0312 237.321 78.3666C247.622 79.702 257.059 84.8209 263.796 92.728C282.711 114.847 287.813 137.039 278.96 158.688C278.46 159.911 278.378 161.265 278.726 162.539C279.074 163.814 279.833 164.938 280.885 165.737C286.168 170.318 290.203 176.162 292.613 182.725C298.18 197.838 294.463 214.793 281.563 233.125C280.979 233.955 280.615 234.92 280.505 235.929C280.395 236.938 280.542 237.959 280.934 238.895C280.985 239.017 286.017 251.302 283.926 268.995C281.483 289.661 270.67 308.385 251.751 324.795C251.882 300.181 246.583 272.181 226.939 251.504C223.307 247.677 219.292 244.234 214.957 241.227C216.966 232.759 219.049 224.427 221.142 216.36C230.394 213.144 255.984 202.574 263.997 181.807C264.57 180.322 264.53 178.67 263.884 177.215C263.239 175.759 262.043 174.62 260.557 174.047C259.072 173.474 257.42 173.515 255.965 174.16C254.51 174.805 253.37 176.002 252.797 177.487C248.123 189.601 234.597 197.587 224.969 201.924C235.893 161.624 246.019 131.172 246.154 130.768C246.411 130.019 246.518 129.226 246.467 128.435C246.416 127.645 246.209 126.872 245.858 126.162C245.507 125.452 245.019 124.818 244.422 124.298C243.825 123.777 243.131 123.38 242.379 123.129C241.628 122.878 240.834 122.779 240.044 122.836C239.254 122.894 238.483 123.107 237.776 123.464C237.069 123.821 236.439 124.314 235.924 124.916C235.408 125.517 235.017 126.215 234.772 126.968C234.634 127.38 224.234 158.654 213.097 199.858C206.086 191.271 196.934 175.644 201.865 156.417C202.261 154.876 202.028 153.24 201.217 151.871C200.407 150.501 199.086 149.509 197.544 149.114C196.003 148.719 194.367 148.952 192.998 149.762C191.628 150.572 190.637 151.894 190.241 153.435C182.513 183.569 201.817 206.135 209.449 213.635C207.649 220.576 205.857 227.713 204.112 234.964C201.815 233.88 199.455 232.933 197.046 232.126C191.211 215.235 179.613 194.984 156.859 187.866C151.841 186.308 146.623 185.486 141.369 185.425C144.284 159.49 170.791 152.3 171.984 151.991V151.991ZM263.106 377.019L251.006 375.191C250.034 367.84 249.28 355.261 250.44 345.467C250.62 343.955 250.782 342.406 250.93 340.834C252.31 339.799 253.665 338.762 254.965 337.72C256.115 350.711 258.777 365.113 263.106 377.019V377.019ZM91.0683 337.4C90.7719 336.488 90.2612 335.66 89.579 334.986C88.8968 334.312 88.0629 333.811 87.1473 333.526C71.0573 328.513 60.3573 320.461 55.3303 309.592C47.8983 293.512 55.1933 276.009 55.2603 275.852C55.8454 274.503 55.9151 272.987 55.4561 271.59C54.9971 270.194 54.0414 269.015 52.7703 268.276C32.5023 256.5 22.9643 235.811 24.4193 206.781C24.9254 196.419 29.278 186.618 36.6261 179.295C43.9743 171.972 53.7897 167.652 64.1533 167.181C93.2893 165.73 114.053 175.24 125.863 195.449C126.53 196.577 127.545 197.457 128.756 197.957C129.967 198.457 131.307 198.551 132.575 198.223C134.136 197.818 170.975 188.912 186.613 238.794C186.933 239.799 187.509 240.702 188.286 241.415C189.063 242.128 190.012 242.625 191.04 242.857C191.186 242.89 205.721 246.305 218.7 260.246C235.969 278.796 242.826 307.776 238.528 344.051C237.385 353.7 237.89 365.193 238.728 373.332L218.574 370.287C218.477 368.748 217.788 367.307 216.651 366.265C209.078 359.334 201.285 351.549 193.451 343.245C195.803 333.52 201.001 305.807 189.473 286.96C188.639 285.611 187.304 284.648 185.762 284.28C184.219 283.912 182.593 284.17 181.24 284.998C179.887 285.825 178.917 287.155 178.541 288.696C178.166 290.237 178.416 291.864 179.236 293.221C186.211 304.621 185.151 321.388 183.387 332.328C167.073 314.243 150.908 294.509 136.487 276.061C139.635 266.61 146.679 240.28 135.087 221.322C134.257 219.965 132.921 218.992 131.374 218.62C129.827 218.247 128.195 218.504 126.838 219.335C125.48 220.165 124.508 221.501 124.136 223.048C123.763 224.595 124.02 226.227 124.85 227.584C131.576 238.584 129.756 253.984 127.35 264.24C102.028 231.158 83.9883 204.795 83.6273 204.265C83.1834 203.614 82.6157 203.057 81.9565 202.625C81.2972 202.194 80.5595 201.896 79.7853 201.75C79.0111 201.603 78.2156 201.61 77.4442 201.771C76.6729 201.932 75.9408 202.244 75.2898 202.688C74.6388 203.131 74.0815 203.699 73.6499 204.358C73.2183 205.018 72.9208 205.755 72.7743 206.53C72.6278 207.304 72.6353 208.099 72.7962 208.871C72.9571 209.642 73.2684 210.374 73.7123 211.025C74.0803 211.565 92.6213 238.664 118.612 272.55C107.518 272.882 89.3663 270.64 77.0123 254.916C76.0291 253.665 74.5892 252.855 73.0092 252.666C71.4292 252.476 69.8386 252.922 68.5873 253.905C67.336 254.888 66.5265 256.328 66.3369 257.908C66.1473 259.488 66.5931 261.079 67.5763 262.33C82.2323 280.985 102.969 284.555 116.7 284.555C120.262 284.559 123.82 284.316 127.348 283.828C142.172 302.775 158.82 323.064 175.618 341.607C163.997 343.707 143.797 344.83 129.584 331.775C129.006 331.231 128.326 330.807 127.582 330.527C126.839 330.248 126.047 330.119 125.254 330.148C124.46 330.176 123.68 330.362 122.959 330.695C122.238 331.028 121.59 331.5 121.053 332.085C120.515 332.67 120.1 333.355 119.829 334.102C119.559 334.849 119.44 335.642 119.479 336.435C119.517 337.228 119.713 338.006 120.054 338.723C120.396 339.44 120.876 340.082 121.467 340.612C133.728 351.875 148.904 354.923 161.747 354.923C169.615 354.885 177.446 353.838 185.047 351.807C190.247 357.315 195.435 362.594 200.556 367.563L141.681 358.663C141.551 358.644 141.422 358.629 141.291 358.617C129.127 357.634 116.94 360.233 106.235 366.093C99.8852 357.271 94.7815 347.616 91.0683 337.4V337.4ZM93.2573 393.221C103.749 378.271 121.514 369.063 140.089 370.566L184.689 377.305V407.358C184.689 408.949 185.321 410.475 186.447 411.601C187.572 412.726 189.098 413.358 190.689 413.358C192.281 413.358 193.807 412.726 194.932 411.601C196.057 410.475 196.689 408.949 196.689 407.358V379.118L318.296 397.5V414.776C318.296 416.367 318.928 417.893 320.054 419.019C321.179 420.144 322.705 420.776 324.296 420.776C325.888 420.776 327.414 420.144 328.539 419.019C329.664 417.893 330.296 416.367 330.296 414.776V399.308L421.896 413.149C424.34 413.506 426.572 414.733 428.182 416.605C429.793 418.477 430.673 420.868 430.66 423.337C430.65 425.812 429.754 428.201 428.134 430.072C426.514 431.943 424.278 433.172 421.83 433.537L385.357 438.8V434.8C385.357 433.209 384.725 431.683 383.6 430.557C382.475 429.432 380.949 428.8 379.357 428.8C377.766 428.8 376.24 429.432 375.115 430.557C373.989 431.683 373.357 433.209 373.357 434.8V440.542L278.986 454.177V435.777C278.986 434.186 278.354 432.66 277.229 431.534C276.104 430.409 274.578 429.777 272.986 429.777C271.395 429.777 269.869 430.409 268.744 431.534C267.618 432.66 266.986 434.186 266.986 435.777V455.909L140.698 474.153V442.121C140.698 440.53 140.066 439.004 138.941 437.878C137.816 436.753 136.29 436.121 134.698 436.121C133.107 436.121 131.581 436.753 130.456 437.878C129.33 439.004 128.698 440.53 128.698 442.121V473.836C121.543 472.703 114.694 470.125 108.567 466.261C102.44 462.396 97.1627 457.325 93.0573 451.357C96.031 446.492 98.2626 441.211 99.6783 435.688C102.257 425.576 103.084 410.247 93.2573 393.221V393.221ZM42.7073 458.477C41.3964 459.004 39.9302 458.99 38.6292 458.439C37.3283 457.889 36.2982 456.845 35.7643 455.537C35.5033 454.895 35.3724 454.208 35.3793 453.515C35.3861 452.822 35.5306 452.138 35.8043 451.501C36.0785 450.855 36.4785 450.271 36.9811 449.781C37.4836 449.292 38.0786 448.907 38.7313 448.65L62.9313 438.873L74.0313 438.673C74.6303 440.837 75.342 442.968 76.1633 445.058L42.7073 458.477ZM35.7643 389C36.2983 387.692 37.3281 386.649 38.6288 386.098C39.9296 385.547 41.3955 385.534 42.7063 386.06L76.2723 399.525C75.4186 401.654 74.6795 403.827 74.0583 406.035L62.3493 405.8L38.7173 395.885C38.0704 395.628 37.4806 395.246 36.9818 394.76C36.4829 394.275 36.0849 393.696 35.8105 393.056C35.5362 392.416 35.3908 391.729 35.3829 391.033C35.375 390.337 35.5046 389.646 35.7643 389V389ZM23.1373 416.992L89.2043 418.352C89.4596 421.029 89.4559 423.725 89.1933 426.402L23.1443 427.583C21.7776 427.528 20.4852 426.946 19.5375 425.96C18.5897 424.973 18.06 423.659 18.0591 422.291C18.0582 420.923 18.5862 419.608 19.5326 418.62C20.4791 417.633 21.7707 417.049 23.1373 416.992V416.992Z" fill="#009A22"/>
</svg>
